M48
; DRILL file {KiCad 6.0.11+dfsg-1~bpo11+1} date sab 18 nov 2023, 19:09:35
; FORMAT={-:-/ absolute / inch / decimal}
; #@! TF.CreationDate,2023-11-18T19:09:35+01:00
; #@! TF.GenerationSoftware,Kicad,Pcbnew,6.0.11+dfsg-1~bpo11+1
; #@! TF.FileFunction,Plated,1,2,PTH
FMAT,2
INCH
; #@! TA.AperFunction,Plated,PTH,ComponentDrill
T1C0.0276
; #@! TA.AperFunction,Plated,PTH,ComponentDrill
T2C0.0315
; #@! TA.AperFunction,Plated,PTH,ComponentDrill
T3C0.0354
; #@! TA.AperFunction,Plated,PTH,ComponentDrill
T4C0.0520
%
G90
G05
T1
X5.8Y-2.4047
X5.8Y-2.5047
X5.8Y-2.7827
X5.8Y-2.8827
X6.6Y-2.5
X6.6Y-2.6
X6.6Y-2.9
X6.6Y-3.0
T2
X5.1142Y-3.0014
X5.1142Y-3.1014
X5.4929Y-3.8134
X5.4929Y-3.9134
X5.5Y-4.5
X5.5Y-4.6
X5.5155Y-2.4
X5.5155Y-2.4984
X5.5173Y-2.805
X5.5173Y-2.9035
X5.8Y-3.7
X5.8Y-3.8
X5.8Y-4.2
X5.8Y-4.3
X5.8Y-4.5
X5.8Y-4.6
X6.0358Y-3.3
X6.0358Y-3.4
X6.0504Y-2.3998
X6.0504Y-2.4998
X6.0504Y-2.5998
X6.0504Y-2.6998
X6.0504Y-2.7998
X6.0504Y-2.8998
X6.0504Y-2.9998
X6.0504Y-3.6998
X6.0504Y-3.7998
X6.0504Y-3.8998
X6.0504Y-3.9998
X6.0504Y-4.0998
X6.0504Y-4.1998
X6.0504Y-4.2998
X6.3504Y-2.3998
X6.3504Y-2.4998
X6.3504Y-2.5998
X6.3504Y-2.6998
X6.3504Y-2.7998
X6.3504Y-2.8998
X6.3504Y-2.9998
X6.3504Y-3.6998
X6.3504Y-3.7998
X6.3504Y-3.8998
X6.3504Y-3.9998
X6.3504Y-4.0998
X6.3504Y-4.1998
X6.3504Y-4.2998
X6.363Y-3.3
X6.363Y-3.4
X6.5753Y-4.4326
X6.5753Y-4.5326
X6.6Y-3.7
X6.6Y-3.8
X6.726Y-4.2
X6.726Y-4.3
X6.8776Y-2.9313
X6.8776Y-3.0297
X6.9574Y-3.7201
X6.9574Y-3.8201
X7.0Y-4.3
X7.0Y-4.4
X7.0361Y-2.6492
X7.0361Y-2.7476
T3
X4.9575Y-2.7128
X5.0575Y-2.7128
T4
X5.0073Y-3.4965
X5.0073Y-3.6933
X6.1031Y-4.8
X6.3Y-4.8
T0
M30
