%TF.GenerationSoftware,KiCad,Pcbnew,7.0.10*%
%TF.CreationDate,2024-02-02T19:11:57+01:00*%
%TF.ProjectId,lux106_1_1,6c757831-3036-45f3-915f-312e6b696361,rev?*%
%TF.SameCoordinates,Original*%
%TF.FileFunction,Legend,Top*%
%TF.FilePolarity,Positive*%
%FSLAX46Y46*%
G04 Gerber Fmt 4.6, Leading zero omitted, Abs format (unit mm)*
G04 Created by KiCad (PCBNEW 7.0.10) date 2024-02-02 19:11:57*
%MOMM*%
%LPD*%
G01*
G04 APERTURE LIST*
%ADD10C,0.150000*%
%ADD11C,0.120000*%
G04 APERTURE END LIST*
D10*
X118922969Y-54259819D02*
X118446779Y-54259819D01*
X118446779Y-54259819D02*
X118446779Y-53259819D01*
X119256303Y-53259819D02*
X119256303Y-54069342D01*
X119256303Y-54069342D02*
X119303922Y-54164580D01*
X119303922Y-54164580D02*
X119351541Y-54212200D01*
X119351541Y-54212200D02*
X119446779Y-54259819D01*
X119446779Y-54259819D02*
X119637255Y-54259819D01*
X119637255Y-54259819D02*
X119732493Y-54212200D01*
X119732493Y-54212200D02*
X119780112Y-54164580D01*
X119780112Y-54164580D02*
X119827731Y-54069342D01*
X119827731Y-54069342D02*
X119827731Y-53259819D01*
X120208684Y-53259819D02*
X120875350Y-54259819D01*
X120875350Y-53259819D02*
X120208684Y-54259819D01*
X121827731Y-54164580D02*
X121780112Y-54212200D01*
X121780112Y-54212200D02*
X121637255Y-54259819D01*
X121637255Y-54259819D02*
X121542017Y-54259819D01*
X121542017Y-54259819D02*
X121399160Y-54212200D01*
X121399160Y-54212200D02*
X121303922Y-54116961D01*
X121303922Y-54116961D02*
X121256303Y-54021723D01*
X121256303Y-54021723D02*
X121208684Y-53831247D01*
X121208684Y-53831247D02*
X121208684Y-53688390D01*
X121208684Y-53688390D02*
X121256303Y-53497914D01*
X121256303Y-53497914D02*
X121303922Y-53402676D01*
X121303922Y-53402676D02*
X121399160Y-53307438D01*
X121399160Y-53307438D02*
X121542017Y-53259819D01*
X121542017Y-53259819D02*
X121637255Y-53259819D01*
X121637255Y-53259819D02*
X121780112Y-53307438D01*
X121780112Y-53307438D02*
X121827731Y-53355057D01*
X122256303Y-54259819D02*
X122256303Y-53259819D01*
X122256303Y-53736009D02*
X122827731Y-53736009D01*
X122827731Y-54259819D02*
X122827731Y-53259819D01*
X123494398Y-53259819D02*
X123684874Y-53259819D01*
X123684874Y-53259819D02*
X123780112Y-53307438D01*
X123780112Y-53307438D02*
X123875350Y-53402676D01*
X123875350Y-53402676D02*
X123922969Y-53593152D01*
X123922969Y-53593152D02*
X123922969Y-53926485D01*
X123922969Y-53926485D02*
X123875350Y-54116961D01*
X123875350Y-54116961D02*
X123780112Y-54212200D01*
X123780112Y-54212200D02*
X123684874Y-54259819D01*
X123684874Y-54259819D02*
X123494398Y-54259819D01*
X123494398Y-54259819D02*
X123399160Y-54212200D01*
X123399160Y-54212200D02*
X123303922Y-54116961D01*
X123303922Y-54116961D02*
X123256303Y-53926485D01*
X123256303Y-53926485D02*
X123256303Y-53593152D01*
X123256303Y-53593152D02*
X123303922Y-53402676D01*
X123303922Y-53402676D02*
X123399160Y-53307438D01*
X123399160Y-53307438D02*
X123494398Y-53259819D01*
X124922969Y-54259819D02*
X124589636Y-53783628D01*
X124351541Y-54259819D02*
X124351541Y-53259819D01*
X124351541Y-53259819D02*
X124732493Y-53259819D01*
X124732493Y-53259819D02*
X124827731Y-53307438D01*
X124827731Y-53307438D02*
X124875350Y-53355057D01*
X124875350Y-53355057D02*
X124922969Y-53450295D01*
X124922969Y-53450295D02*
X124922969Y-53593152D01*
X124922969Y-53593152D02*
X124875350Y-53688390D01*
X124875350Y-53688390D02*
X124827731Y-53736009D01*
X124827731Y-53736009D02*
X124732493Y-53783628D01*
X124732493Y-53783628D02*
X124351541Y-53783628D01*
X125351541Y-54259819D02*
X125351541Y-53259819D01*
X125351541Y-53259819D02*
X125589636Y-53259819D01*
X125589636Y-53259819D02*
X125732493Y-53307438D01*
X125732493Y-53307438D02*
X125827731Y-53402676D01*
X125827731Y-53402676D02*
X125875350Y-53497914D01*
X125875350Y-53497914D02*
X125922969Y-53688390D01*
X125922969Y-53688390D02*
X125922969Y-53831247D01*
X125922969Y-53831247D02*
X125875350Y-54021723D01*
X125875350Y-54021723D02*
X125827731Y-54116961D01*
X125827731Y-54116961D02*
X125732493Y-54212200D01*
X125732493Y-54212200D02*
X125589636Y-54259819D01*
X125589636Y-54259819D02*
X125351541Y-54259819D01*
X127637255Y-54259819D02*
X127065827Y-54259819D01*
X127351541Y-54259819D02*
X127351541Y-53259819D01*
X127351541Y-53259819D02*
X127256303Y-53402676D01*
X127256303Y-53402676D02*
X127161065Y-53497914D01*
X127161065Y-53497914D02*
X127065827Y-53545533D01*
X128065827Y-54164580D02*
X128113446Y-54212200D01*
X128113446Y-54212200D02*
X128065827Y-54259819D01*
X128065827Y-54259819D02*
X128018208Y-54212200D01*
X128018208Y-54212200D02*
X128065827Y-54164580D01*
X128065827Y-54164580D02*
X128065827Y-54259819D01*
X129065826Y-54259819D02*
X128494398Y-54259819D01*
X128780112Y-54259819D02*
X128780112Y-53259819D01*
X128780112Y-53259819D02*
X128684874Y-53402676D01*
X128684874Y-53402676D02*
X128589636Y-53497914D01*
X128589636Y-53497914D02*
X128494398Y-53545533D01*
X118303922Y-55203152D02*
X118684874Y-55203152D01*
X118446779Y-55869819D02*
X118446779Y-55012676D01*
X118446779Y-55012676D02*
X118494398Y-54917438D01*
X118494398Y-54917438D02*
X118589636Y-54869819D01*
X118589636Y-54869819D02*
X118684874Y-54869819D01*
X119018208Y-55869819D02*
X119018208Y-55203152D01*
X119018208Y-55393628D02*
X119065827Y-55298390D01*
X119065827Y-55298390D02*
X119113446Y-55250771D01*
X119113446Y-55250771D02*
X119208684Y-55203152D01*
X119208684Y-55203152D02*
X119303922Y-55203152D01*
X120065827Y-55869819D02*
X120065827Y-55346009D01*
X120065827Y-55346009D02*
X120018208Y-55250771D01*
X120018208Y-55250771D02*
X119922970Y-55203152D01*
X119922970Y-55203152D02*
X119732494Y-55203152D01*
X119732494Y-55203152D02*
X119637256Y-55250771D01*
X120065827Y-55822200D02*
X119970589Y-55869819D01*
X119970589Y-55869819D02*
X119732494Y-55869819D01*
X119732494Y-55869819D02*
X119637256Y-55822200D01*
X119637256Y-55822200D02*
X119589637Y-55726961D01*
X119589637Y-55726961D02*
X119589637Y-55631723D01*
X119589637Y-55631723D02*
X119637256Y-55536485D01*
X119637256Y-55536485D02*
X119732494Y-55488866D01*
X119732494Y-55488866D02*
X119970589Y-55488866D01*
X119970589Y-55488866D02*
X120065827Y-55441247D01*
X120542018Y-55203152D02*
X120542018Y-55869819D01*
X120542018Y-55298390D02*
X120589637Y-55250771D01*
X120589637Y-55250771D02*
X120684875Y-55203152D01*
X120684875Y-55203152D02*
X120827732Y-55203152D01*
X120827732Y-55203152D02*
X120922970Y-55250771D01*
X120922970Y-55250771D02*
X120970589Y-55346009D01*
X120970589Y-55346009D02*
X120970589Y-55869819D01*
X121827732Y-55822200D02*
X121732494Y-55869819D01*
X121732494Y-55869819D02*
X121542018Y-55869819D01*
X121542018Y-55869819D02*
X121446780Y-55822200D01*
X121446780Y-55822200D02*
X121399161Y-55726961D01*
X121399161Y-55726961D02*
X121399161Y-55346009D01*
X121399161Y-55346009D02*
X121446780Y-55250771D01*
X121446780Y-55250771D02*
X121542018Y-55203152D01*
X121542018Y-55203152D02*
X121732494Y-55203152D01*
X121732494Y-55203152D02*
X121827732Y-55250771D01*
X121827732Y-55250771D02*
X121875351Y-55346009D01*
X121875351Y-55346009D02*
X121875351Y-55441247D01*
X121875351Y-55441247D02*
X121399161Y-55536485D01*
X122732494Y-55203152D02*
X122732494Y-55869819D01*
X122303923Y-55203152D02*
X122303923Y-55726961D01*
X122303923Y-55726961D02*
X122351542Y-55822200D01*
X122351542Y-55822200D02*
X122446780Y-55869819D01*
X122446780Y-55869819D02*
X122589637Y-55869819D01*
X122589637Y-55869819D02*
X122684875Y-55822200D01*
X122684875Y-55822200D02*
X122732494Y-55774580D01*
X123208685Y-55869819D02*
X123208685Y-55203152D01*
X123208685Y-55298390D02*
X123256304Y-55250771D01*
X123256304Y-55250771D02*
X123351542Y-55203152D01*
X123351542Y-55203152D02*
X123494399Y-55203152D01*
X123494399Y-55203152D02*
X123589637Y-55250771D01*
X123589637Y-55250771D02*
X123637256Y-55346009D01*
X123637256Y-55346009D02*
X123637256Y-55869819D01*
X123637256Y-55346009D02*
X123684875Y-55250771D01*
X123684875Y-55250771D02*
X123780113Y-55203152D01*
X123780113Y-55203152D02*
X123922970Y-55203152D01*
X123922970Y-55203152D02*
X124018209Y-55250771D01*
X124018209Y-55250771D02*
X124065828Y-55346009D01*
X124065828Y-55346009D02*
X124065828Y-55869819D01*
X125256304Y-54965057D02*
X125303923Y-54917438D01*
X125303923Y-54917438D02*
X125399161Y-54869819D01*
X125399161Y-54869819D02*
X125637256Y-54869819D01*
X125637256Y-54869819D02*
X125732494Y-54917438D01*
X125732494Y-54917438D02*
X125780113Y-54965057D01*
X125780113Y-54965057D02*
X125827732Y-55060295D01*
X125827732Y-55060295D02*
X125827732Y-55155533D01*
X125827732Y-55155533D02*
X125780113Y-55298390D01*
X125780113Y-55298390D02*
X125208685Y-55869819D01*
X125208685Y-55869819D02*
X125827732Y-55869819D01*
X126446780Y-54869819D02*
X126542018Y-54869819D01*
X126542018Y-54869819D02*
X126637256Y-54917438D01*
X126637256Y-54917438D02*
X126684875Y-54965057D01*
X126684875Y-54965057D02*
X126732494Y-55060295D01*
X126732494Y-55060295D02*
X126780113Y-55250771D01*
X126780113Y-55250771D02*
X126780113Y-55488866D01*
X126780113Y-55488866D02*
X126732494Y-55679342D01*
X126732494Y-55679342D02*
X126684875Y-55774580D01*
X126684875Y-55774580D02*
X126637256Y-55822200D01*
X126637256Y-55822200D02*
X126542018Y-55869819D01*
X126542018Y-55869819D02*
X126446780Y-55869819D01*
X126446780Y-55869819D02*
X126351542Y-55822200D01*
X126351542Y-55822200D02*
X126303923Y-55774580D01*
X126303923Y-55774580D02*
X126256304Y-55679342D01*
X126256304Y-55679342D02*
X126208685Y-55488866D01*
X126208685Y-55488866D02*
X126208685Y-55250771D01*
X126208685Y-55250771D02*
X126256304Y-55060295D01*
X126256304Y-55060295D02*
X126303923Y-54965057D01*
X126303923Y-54965057D02*
X126351542Y-54917438D01*
X126351542Y-54917438D02*
X126446780Y-54869819D01*
X127161066Y-54965057D02*
X127208685Y-54917438D01*
X127208685Y-54917438D02*
X127303923Y-54869819D01*
X127303923Y-54869819D02*
X127542018Y-54869819D01*
X127542018Y-54869819D02*
X127637256Y-54917438D01*
X127637256Y-54917438D02*
X127684875Y-54965057D01*
X127684875Y-54965057D02*
X127732494Y-55060295D01*
X127732494Y-55060295D02*
X127732494Y-55155533D01*
X127732494Y-55155533D02*
X127684875Y-55298390D01*
X127684875Y-55298390D02*
X127113447Y-55869819D01*
X127113447Y-55869819D02*
X127732494Y-55869819D01*
X128589637Y-55203152D02*
X128589637Y-55869819D01*
X128351542Y-54822200D02*
X128113447Y-55536485D01*
X128113447Y-55536485D02*
X128732494Y-55536485D01*
X129113447Y-55774580D02*
X129161066Y-55822200D01*
X129161066Y-55822200D02*
X129113447Y-55869819D01*
X129113447Y-55869819D02*
X129065828Y-55822200D01*
X129065828Y-55822200D02*
X129113447Y-55774580D01*
X129113447Y-55774580D02*
X129113447Y-55869819D01*
X129780113Y-54869819D02*
X129875351Y-54869819D01*
X129875351Y-54869819D02*
X129970589Y-54917438D01*
X129970589Y-54917438D02*
X130018208Y-54965057D01*
X130018208Y-54965057D02*
X130065827Y-55060295D01*
X130065827Y-55060295D02*
X130113446Y-55250771D01*
X130113446Y-55250771D02*
X130113446Y-55488866D01*
X130113446Y-55488866D02*
X130065827Y-55679342D01*
X130065827Y-55679342D02*
X130018208Y-55774580D01*
X130018208Y-55774580D02*
X129970589Y-55822200D01*
X129970589Y-55822200D02*
X129875351Y-55869819D01*
X129875351Y-55869819D02*
X129780113Y-55869819D01*
X129780113Y-55869819D02*
X129684875Y-55822200D01*
X129684875Y-55822200D02*
X129637256Y-55774580D01*
X129637256Y-55774580D02*
X129589637Y-55679342D01*
X129589637Y-55679342D02*
X129542018Y-55488866D01*
X129542018Y-55488866D02*
X129542018Y-55250771D01*
X129542018Y-55250771D02*
X129589637Y-55060295D01*
X129589637Y-55060295D02*
X129637256Y-54965057D01*
X129637256Y-54965057D02*
X129684875Y-54917438D01*
X129684875Y-54917438D02*
X129780113Y-54869819D01*
X130494399Y-54965057D02*
X130542018Y-54917438D01*
X130542018Y-54917438D02*
X130637256Y-54869819D01*
X130637256Y-54869819D02*
X130875351Y-54869819D01*
X130875351Y-54869819D02*
X130970589Y-54917438D01*
X130970589Y-54917438D02*
X131018208Y-54965057D01*
X131018208Y-54965057D02*
X131065827Y-55060295D01*
X131065827Y-55060295D02*
X131065827Y-55155533D01*
X131065827Y-55155533D02*
X131018208Y-55298390D01*
X131018208Y-55298390D02*
X130446780Y-55869819D01*
X130446780Y-55869819D02*
X131065827Y-55869819D01*
X94869048Y-132153866D02*
X95630953Y-132153866D01*
X95250000Y-132534819D02*
X95250000Y-131772914D01*
X107569048Y-132153866D02*
X108330953Y-132153866D01*
X80684761Y-100434819D02*
X80351428Y-99958628D01*
X80113333Y-100434819D02*
X80113333Y-99434819D01*
X80113333Y-99434819D02*
X80494285Y-99434819D01*
X80494285Y-99434819D02*
X80589523Y-99482438D01*
X80589523Y-99482438D02*
X80637142Y-99530057D01*
X80637142Y-99530057D02*
X80684761Y-99625295D01*
X80684761Y-99625295D02*
X80684761Y-99768152D01*
X80684761Y-99768152D02*
X80637142Y-99863390D01*
X80637142Y-99863390D02*
X80589523Y-99911009D01*
X80589523Y-99911009D02*
X80494285Y-99958628D01*
X80494285Y-99958628D02*
X80113333Y-99958628D01*
X80970476Y-99434819D02*
X81303809Y-100434819D01*
X81303809Y-100434819D02*
X81637142Y-99434819D01*
X82399047Y-99768152D02*
X82399047Y-100434819D01*
X82160952Y-99387200D02*
X81922857Y-100101485D01*
X81922857Y-100101485D02*
X82541904Y-100101485D01*
X80684761Y-82654819D02*
X80351428Y-82178628D01*
X80113333Y-82654819D02*
X80113333Y-81654819D01*
X80113333Y-81654819D02*
X80494285Y-81654819D01*
X80494285Y-81654819D02*
X80589523Y-81702438D01*
X80589523Y-81702438D02*
X80637142Y-81750057D01*
X80637142Y-81750057D02*
X80684761Y-81845295D01*
X80684761Y-81845295D02*
X80684761Y-81988152D01*
X80684761Y-81988152D02*
X80637142Y-82083390D01*
X80637142Y-82083390D02*
X80589523Y-82131009D01*
X80589523Y-82131009D02*
X80494285Y-82178628D01*
X80494285Y-82178628D02*
X80113333Y-82178628D01*
X80970476Y-81654819D02*
X81303809Y-82654819D01*
X81303809Y-82654819D02*
X81637142Y-81654819D01*
X82494285Y-82654819D02*
X81922857Y-82654819D01*
X82208571Y-82654819D02*
X82208571Y-81654819D01*
X82208571Y-81654819D02*
X82113333Y-81797676D01*
X82113333Y-81797676D02*
X82018095Y-81892914D01*
X82018095Y-81892914D02*
X81922857Y-81940533D01*
X86984819Y-93511666D02*
X86508628Y-93844999D01*
X86984819Y-94083094D02*
X85984819Y-94083094D01*
X85984819Y-94083094D02*
X85984819Y-93702142D01*
X85984819Y-93702142D02*
X86032438Y-93606904D01*
X86032438Y-93606904D02*
X86080057Y-93559285D01*
X86080057Y-93559285D02*
X86175295Y-93511666D01*
X86175295Y-93511666D02*
X86318152Y-93511666D01*
X86318152Y-93511666D02*
X86413390Y-93559285D01*
X86413390Y-93559285D02*
X86461009Y-93606904D01*
X86461009Y-93606904D02*
X86508628Y-93702142D01*
X86508628Y-93702142D02*
X86508628Y-94083094D01*
X85984819Y-92654523D02*
X85984819Y-92844999D01*
X85984819Y-92844999D02*
X86032438Y-92940237D01*
X86032438Y-92940237D02*
X86080057Y-92987856D01*
X86080057Y-92987856D02*
X86222914Y-93083094D01*
X86222914Y-93083094D02*
X86413390Y-93130713D01*
X86413390Y-93130713D02*
X86794342Y-93130713D01*
X86794342Y-93130713D02*
X86889580Y-93083094D01*
X86889580Y-93083094D02*
X86937200Y-93035475D01*
X86937200Y-93035475D02*
X86984819Y-92940237D01*
X86984819Y-92940237D02*
X86984819Y-92749761D01*
X86984819Y-92749761D02*
X86937200Y-92654523D01*
X86937200Y-92654523D02*
X86889580Y-92606904D01*
X86889580Y-92606904D02*
X86794342Y-92559285D01*
X86794342Y-92559285D02*
X86556247Y-92559285D01*
X86556247Y-92559285D02*
X86461009Y-92606904D01*
X86461009Y-92606904D02*
X86413390Y-92654523D01*
X86413390Y-92654523D02*
X86365771Y-92749761D01*
X86365771Y-92749761D02*
X86365771Y-92940237D01*
X86365771Y-92940237D02*
X86413390Y-93035475D01*
X86413390Y-93035475D02*
X86461009Y-93083094D01*
X86461009Y-93083094D02*
X86556247Y-93130713D01*
X107616666Y-128359819D02*
X107616666Y-129074104D01*
X107616666Y-129074104D02*
X107569047Y-129216961D01*
X107569047Y-129216961D02*
X107473809Y-129312200D01*
X107473809Y-129312200D02*
X107330952Y-129359819D01*
X107330952Y-129359819D02*
X107235714Y-129359819D01*
X108616666Y-129359819D02*
X108045238Y-129359819D01*
X108330952Y-129359819D02*
X108330952Y-128359819D01*
X108330952Y-128359819D02*
X108235714Y-128502676D01*
X108235714Y-128502676D02*
X108140476Y-128597914D01*
X108140476Y-128597914D02*
X108045238Y-128645533D01*
X90159819Y-82081666D02*
X89683628Y-82414999D01*
X90159819Y-82653094D02*
X89159819Y-82653094D01*
X89159819Y-82653094D02*
X89159819Y-82272142D01*
X89159819Y-82272142D02*
X89207438Y-82176904D01*
X89207438Y-82176904D02*
X89255057Y-82129285D01*
X89255057Y-82129285D02*
X89350295Y-82081666D01*
X89350295Y-82081666D02*
X89493152Y-82081666D01*
X89493152Y-82081666D02*
X89588390Y-82129285D01*
X89588390Y-82129285D02*
X89636009Y-82176904D01*
X89636009Y-82176904D02*
X89683628Y-82272142D01*
X89683628Y-82272142D02*
X89683628Y-82653094D01*
X89159819Y-81748332D02*
X89159819Y-81081666D01*
X89159819Y-81081666D02*
X90159819Y-81510237D01*
X98414819Y-82081666D02*
X97938628Y-82414999D01*
X98414819Y-82653094D02*
X97414819Y-82653094D01*
X97414819Y-82653094D02*
X97414819Y-82272142D01*
X97414819Y-82272142D02*
X97462438Y-82176904D01*
X97462438Y-82176904D02*
X97510057Y-82129285D01*
X97510057Y-82129285D02*
X97605295Y-82081666D01*
X97605295Y-82081666D02*
X97748152Y-82081666D01*
X97748152Y-82081666D02*
X97843390Y-82129285D01*
X97843390Y-82129285D02*
X97891009Y-82176904D01*
X97891009Y-82176904D02*
X97938628Y-82272142D01*
X97938628Y-82272142D02*
X97938628Y-82653094D01*
X97843390Y-81510237D02*
X97795771Y-81605475D01*
X97795771Y-81605475D02*
X97748152Y-81653094D01*
X97748152Y-81653094D02*
X97652914Y-81700713D01*
X97652914Y-81700713D02*
X97605295Y-81700713D01*
X97605295Y-81700713D02*
X97510057Y-81653094D01*
X97510057Y-81653094D02*
X97462438Y-81605475D01*
X97462438Y-81605475D02*
X97414819Y-81510237D01*
X97414819Y-81510237D02*
X97414819Y-81319761D01*
X97414819Y-81319761D02*
X97462438Y-81224523D01*
X97462438Y-81224523D02*
X97510057Y-81176904D01*
X97510057Y-81176904D02*
X97605295Y-81129285D01*
X97605295Y-81129285D02*
X97652914Y-81129285D01*
X97652914Y-81129285D02*
X97748152Y-81176904D01*
X97748152Y-81176904D02*
X97795771Y-81224523D01*
X97795771Y-81224523D02*
X97843390Y-81319761D01*
X97843390Y-81319761D02*
X97843390Y-81510237D01*
X97843390Y-81510237D02*
X97891009Y-81605475D01*
X97891009Y-81605475D02*
X97938628Y-81653094D01*
X97938628Y-81653094D02*
X98033866Y-81700713D01*
X98033866Y-81700713D02*
X98224342Y-81700713D01*
X98224342Y-81700713D02*
X98319580Y-81653094D01*
X98319580Y-81653094D02*
X98367200Y-81605475D01*
X98367200Y-81605475D02*
X98414819Y-81510237D01*
X98414819Y-81510237D02*
X98414819Y-81319761D01*
X98414819Y-81319761D02*
X98367200Y-81224523D01*
X98367200Y-81224523D02*
X98319580Y-81176904D01*
X98319580Y-81176904D02*
X98224342Y-81129285D01*
X98224342Y-81129285D02*
X98033866Y-81129285D01*
X98033866Y-81129285D02*
X97938628Y-81176904D01*
X97938628Y-81176904D02*
X97891009Y-81224523D01*
X97891009Y-81224523D02*
X97843390Y-81319761D01*
X98933333Y-124819580D02*
X98885714Y-124867200D01*
X98885714Y-124867200D02*
X98742857Y-124914819D01*
X98742857Y-124914819D02*
X98647619Y-124914819D01*
X98647619Y-124914819D02*
X98504762Y-124867200D01*
X98504762Y-124867200D02*
X98409524Y-124771961D01*
X98409524Y-124771961D02*
X98361905Y-124676723D01*
X98361905Y-124676723D02*
X98314286Y-124486247D01*
X98314286Y-124486247D02*
X98314286Y-124343390D01*
X98314286Y-124343390D02*
X98361905Y-124152914D01*
X98361905Y-124152914D02*
X98409524Y-124057676D01*
X98409524Y-124057676D02*
X98504762Y-123962438D01*
X98504762Y-123962438D02*
X98647619Y-123914819D01*
X98647619Y-123914819D02*
X98742857Y-123914819D01*
X98742857Y-123914819D02*
X98885714Y-123962438D01*
X98885714Y-123962438D02*
X98933333Y-124010057D01*
X99790476Y-123914819D02*
X99600000Y-123914819D01*
X99600000Y-123914819D02*
X99504762Y-123962438D01*
X99504762Y-123962438D02*
X99457143Y-124010057D01*
X99457143Y-124010057D02*
X99361905Y-124152914D01*
X99361905Y-124152914D02*
X99314286Y-124343390D01*
X99314286Y-124343390D02*
X99314286Y-124724342D01*
X99314286Y-124724342D02*
X99361905Y-124819580D01*
X99361905Y-124819580D02*
X99409524Y-124867200D01*
X99409524Y-124867200D02*
X99504762Y-124914819D01*
X99504762Y-124914819D02*
X99695238Y-124914819D01*
X99695238Y-124914819D02*
X99790476Y-124867200D01*
X99790476Y-124867200D02*
X99838095Y-124819580D01*
X99838095Y-124819580D02*
X99885714Y-124724342D01*
X99885714Y-124724342D02*
X99885714Y-124486247D01*
X99885714Y-124486247D02*
X99838095Y-124391009D01*
X99838095Y-124391009D02*
X99790476Y-124343390D01*
X99790476Y-124343390D02*
X99695238Y-124295771D01*
X99695238Y-124295771D02*
X99504762Y-124295771D01*
X99504762Y-124295771D02*
X99409524Y-124343390D01*
X99409524Y-124343390D02*
X99361905Y-124391009D01*
X99361905Y-124391009D02*
X99314286Y-124486247D01*
X109844819Y-73831666D02*
X109368628Y-74164999D01*
X109844819Y-74403094D02*
X108844819Y-74403094D01*
X108844819Y-74403094D02*
X108844819Y-74022142D01*
X108844819Y-74022142D02*
X108892438Y-73926904D01*
X108892438Y-73926904D02*
X108940057Y-73879285D01*
X108940057Y-73879285D02*
X109035295Y-73831666D01*
X109035295Y-73831666D02*
X109178152Y-73831666D01*
X109178152Y-73831666D02*
X109273390Y-73879285D01*
X109273390Y-73879285D02*
X109321009Y-73926904D01*
X109321009Y-73926904D02*
X109368628Y-74022142D01*
X109368628Y-74022142D02*
X109368628Y-74403094D01*
X108844819Y-73498332D02*
X108844819Y-72879285D01*
X108844819Y-72879285D02*
X109225771Y-73212618D01*
X109225771Y-73212618D02*
X109225771Y-73069761D01*
X109225771Y-73069761D02*
X109273390Y-72974523D01*
X109273390Y-72974523D02*
X109321009Y-72926904D01*
X109321009Y-72926904D02*
X109416247Y-72879285D01*
X109416247Y-72879285D02*
X109654342Y-72879285D01*
X109654342Y-72879285D02*
X109749580Y-72926904D01*
X109749580Y-72926904D02*
X109797200Y-72974523D01*
X109797200Y-72974523D02*
X109844819Y-73069761D01*
X109844819Y-73069761D02*
X109844819Y-73355475D01*
X109844819Y-73355475D02*
X109797200Y-73450713D01*
X109797200Y-73450713D02*
X109749580Y-73498332D01*
X109674819Y-105417857D02*
X109198628Y-105751190D01*
X109674819Y-105989285D02*
X108674819Y-105989285D01*
X108674819Y-105989285D02*
X108674819Y-105608333D01*
X108674819Y-105608333D02*
X108722438Y-105513095D01*
X108722438Y-105513095D02*
X108770057Y-105465476D01*
X108770057Y-105465476D02*
X108865295Y-105417857D01*
X108865295Y-105417857D02*
X109008152Y-105417857D01*
X109008152Y-105417857D02*
X109103390Y-105465476D01*
X109103390Y-105465476D02*
X109151009Y-105513095D01*
X109151009Y-105513095D02*
X109198628Y-105608333D01*
X109198628Y-105608333D02*
X109198628Y-105989285D01*
X109674819Y-104465476D02*
X109674819Y-105036904D01*
X109674819Y-104751190D02*
X108674819Y-104751190D01*
X108674819Y-104751190D02*
X108817676Y-104846428D01*
X108817676Y-104846428D02*
X108912914Y-104941666D01*
X108912914Y-104941666D02*
X108960533Y-105036904D01*
X108674819Y-103608333D02*
X108674819Y-103798809D01*
X108674819Y-103798809D02*
X108722438Y-103894047D01*
X108722438Y-103894047D02*
X108770057Y-103941666D01*
X108770057Y-103941666D02*
X108912914Y-104036904D01*
X108912914Y-104036904D02*
X109103390Y-104084523D01*
X109103390Y-104084523D02*
X109484342Y-104084523D01*
X109484342Y-104084523D02*
X109579580Y-104036904D01*
X109579580Y-104036904D02*
X109627200Y-103989285D01*
X109627200Y-103989285D02*
X109674819Y-103894047D01*
X109674819Y-103894047D02*
X109674819Y-103703571D01*
X109674819Y-103703571D02*
X109627200Y-103608333D01*
X109627200Y-103608333D02*
X109579580Y-103560714D01*
X109579580Y-103560714D02*
X109484342Y-103513095D01*
X109484342Y-103513095D02*
X109246247Y-103513095D01*
X109246247Y-103513095D02*
X109151009Y-103560714D01*
X109151009Y-103560714D02*
X109103390Y-103608333D01*
X109103390Y-103608333D02*
X109055771Y-103703571D01*
X109055771Y-103703571D02*
X109055771Y-103894047D01*
X109055771Y-103894047D02*
X109103390Y-103989285D01*
X109103390Y-103989285D02*
X109151009Y-104036904D01*
X109151009Y-104036904D02*
X109246247Y-104084523D01*
X141891009Y-83445714D02*
X141938628Y-83302857D01*
X141938628Y-83302857D02*
X141986247Y-83255238D01*
X141986247Y-83255238D02*
X142081485Y-83207619D01*
X142081485Y-83207619D02*
X142224342Y-83207619D01*
X142224342Y-83207619D02*
X142319580Y-83255238D01*
X142319580Y-83255238D02*
X142367200Y-83302857D01*
X142367200Y-83302857D02*
X142414819Y-83398095D01*
X142414819Y-83398095D02*
X142414819Y-83779047D01*
X142414819Y-83779047D02*
X141414819Y-83779047D01*
X141414819Y-83779047D02*
X141414819Y-83445714D01*
X141414819Y-83445714D02*
X141462438Y-83350476D01*
X141462438Y-83350476D02*
X141510057Y-83302857D01*
X141510057Y-83302857D02*
X141605295Y-83255238D01*
X141605295Y-83255238D02*
X141700533Y-83255238D01*
X141700533Y-83255238D02*
X141795771Y-83302857D01*
X141795771Y-83302857D02*
X141843390Y-83350476D01*
X141843390Y-83350476D02*
X141891009Y-83445714D01*
X141891009Y-83445714D02*
X141891009Y-83779047D01*
X141414819Y-82921904D02*
X141414819Y-82350476D01*
X142414819Y-82636190D02*
X141414819Y-82636190D01*
X142414819Y-81493333D02*
X142414819Y-82064761D01*
X142414819Y-81779047D02*
X141414819Y-81779047D01*
X141414819Y-81779047D02*
X141557676Y-81874285D01*
X141557676Y-81874285D02*
X141652914Y-81969523D01*
X141652914Y-81969523D02*
X141700533Y-82064761D01*
X121653866Y-87358683D02*
X121653866Y-86596779D01*
X134533866Y-87358683D02*
X134533866Y-86596779D01*
X134914819Y-86977731D02*
X134152914Y-86977731D01*
X86984819Y-105417857D02*
X86508628Y-105751190D01*
X86984819Y-105989285D02*
X85984819Y-105989285D01*
X85984819Y-105989285D02*
X85984819Y-105608333D01*
X85984819Y-105608333D02*
X86032438Y-105513095D01*
X86032438Y-105513095D02*
X86080057Y-105465476D01*
X86080057Y-105465476D02*
X86175295Y-105417857D01*
X86175295Y-105417857D02*
X86318152Y-105417857D01*
X86318152Y-105417857D02*
X86413390Y-105465476D01*
X86413390Y-105465476D02*
X86461009Y-105513095D01*
X86461009Y-105513095D02*
X86508628Y-105608333D01*
X86508628Y-105608333D02*
X86508628Y-105989285D01*
X86984819Y-104465476D02*
X86984819Y-105036904D01*
X86984819Y-104751190D02*
X85984819Y-104751190D01*
X85984819Y-104751190D02*
X86127676Y-104846428D01*
X86127676Y-104846428D02*
X86222914Y-104941666D01*
X86222914Y-104941666D02*
X86270533Y-105036904D01*
X86080057Y-104084523D02*
X86032438Y-104036904D01*
X86032438Y-104036904D02*
X85984819Y-103941666D01*
X85984819Y-103941666D02*
X85984819Y-103703571D01*
X85984819Y-103703571D02*
X86032438Y-103608333D01*
X86032438Y-103608333D02*
X86080057Y-103560714D01*
X86080057Y-103560714D02*
X86175295Y-103513095D01*
X86175295Y-103513095D02*
X86270533Y-103513095D01*
X86270533Y-103513095D02*
X86413390Y-103560714D01*
X86413390Y-103560714D02*
X86984819Y-104132142D01*
X86984819Y-104132142D02*
X86984819Y-103513095D01*
X97028095Y-107194819D02*
X97028095Y-108004342D01*
X97028095Y-108004342D02*
X97075714Y-108099580D01*
X97075714Y-108099580D02*
X97123333Y-108147200D01*
X97123333Y-108147200D02*
X97218571Y-108194819D01*
X97218571Y-108194819D02*
X97409047Y-108194819D01*
X97409047Y-108194819D02*
X97504285Y-108147200D01*
X97504285Y-108147200D02*
X97551904Y-108099580D01*
X97551904Y-108099580D02*
X97599523Y-108004342D01*
X97599523Y-108004342D02*
X97599523Y-107194819D01*
X98028095Y-107290057D02*
X98075714Y-107242438D01*
X98075714Y-107242438D02*
X98170952Y-107194819D01*
X98170952Y-107194819D02*
X98409047Y-107194819D01*
X98409047Y-107194819D02*
X98504285Y-107242438D01*
X98504285Y-107242438D02*
X98551904Y-107290057D01*
X98551904Y-107290057D02*
X98599523Y-107385295D01*
X98599523Y-107385295D02*
X98599523Y-107480533D01*
X98599523Y-107480533D02*
X98551904Y-107623390D01*
X98551904Y-107623390D02*
X97980476Y-108194819D01*
X97980476Y-108194819D02*
X98599523Y-108194819D01*
X137096667Y-72297200D02*
X137239524Y-72344819D01*
X137239524Y-72344819D02*
X137477619Y-72344819D01*
X137477619Y-72344819D02*
X137572857Y-72297200D01*
X137572857Y-72297200D02*
X137620476Y-72249580D01*
X137620476Y-72249580D02*
X137668095Y-72154342D01*
X137668095Y-72154342D02*
X137668095Y-72059104D01*
X137668095Y-72059104D02*
X137620476Y-71963866D01*
X137620476Y-71963866D02*
X137572857Y-71916247D01*
X137572857Y-71916247D02*
X137477619Y-71868628D01*
X137477619Y-71868628D02*
X137287143Y-71821009D01*
X137287143Y-71821009D02*
X137191905Y-71773390D01*
X137191905Y-71773390D02*
X137144286Y-71725771D01*
X137144286Y-71725771D02*
X137096667Y-71630533D01*
X137096667Y-71630533D02*
X137096667Y-71535295D01*
X137096667Y-71535295D02*
X137144286Y-71440057D01*
X137144286Y-71440057D02*
X137191905Y-71392438D01*
X137191905Y-71392438D02*
X137287143Y-71344819D01*
X137287143Y-71344819D02*
X137525238Y-71344819D01*
X137525238Y-71344819D02*
X137668095Y-71392438D01*
X138001429Y-71344819D02*
X138239524Y-72344819D01*
X138239524Y-72344819D02*
X138430000Y-71630533D01*
X138430000Y-71630533D02*
X138620476Y-72344819D01*
X138620476Y-72344819D02*
X138858572Y-71344819D01*
X139191905Y-71440057D02*
X139239524Y-71392438D01*
X139239524Y-71392438D02*
X139334762Y-71344819D01*
X139334762Y-71344819D02*
X139572857Y-71344819D01*
X139572857Y-71344819D02*
X139668095Y-71392438D01*
X139668095Y-71392438D02*
X139715714Y-71440057D01*
X139715714Y-71440057D02*
X139763333Y-71535295D01*
X139763333Y-71535295D02*
X139763333Y-71630533D01*
X139763333Y-71630533D02*
X139715714Y-71773390D01*
X139715714Y-71773390D02*
X139144286Y-72344819D01*
X139144286Y-72344819D02*
X139763333Y-72344819D01*
X80684761Y-135954819D02*
X80351428Y-135478628D01*
X80113333Y-135954819D02*
X80113333Y-134954819D01*
X80113333Y-134954819D02*
X80494285Y-134954819D01*
X80494285Y-134954819D02*
X80589523Y-135002438D01*
X80589523Y-135002438D02*
X80637142Y-135050057D01*
X80637142Y-135050057D02*
X80684761Y-135145295D01*
X80684761Y-135145295D02*
X80684761Y-135288152D01*
X80684761Y-135288152D02*
X80637142Y-135383390D01*
X80637142Y-135383390D02*
X80589523Y-135431009D01*
X80589523Y-135431009D02*
X80494285Y-135478628D01*
X80494285Y-135478628D02*
X80113333Y-135478628D01*
X80970476Y-134954819D02*
X81303809Y-135954819D01*
X81303809Y-135954819D02*
X81637142Y-134954819D01*
X82446666Y-134954819D02*
X81970476Y-134954819D01*
X81970476Y-134954819D02*
X81922857Y-135431009D01*
X81922857Y-135431009D02*
X81970476Y-135383390D01*
X81970476Y-135383390D02*
X82065714Y-135335771D01*
X82065714Y-135335771D02*
X82303809Y-135335771D01*
X82303809Y-135335771D02*
X82399047Y-135383390D01*
X82399047Y-135383390D02*
X82446666Y-135431009D01*
X82446666Y-135431009D02*
X82494285Y-135526247D01*
X82494285Y-135526247D02*
X82494285Y-135764342D01*
X82494285Y-135764342D02*
X82446666Y-135859580D01*
X82446666Y-135859580D02*
X82399047Y-135907200D01*
X82399047Y-135907200D02*
X82303809Y-135954819D01*
X82303809Y-135954819D02*
X82065714Y-135954819D01*
X82065714Y-135954819D02*
X81970476Y-135907200D01*
X81970476Y-135907200D02*
X81922857Y-135859580D01*
X85544819Y-82557857D02*
X85068628Y-82891190D01*
X85544819Y-83129285D02*
X84544819Y-83129285D01*
X84544819Y-83129285D02*
X84544819Y-82748333D01*
X84544819Y-82748333D02*
X84592438Y-82653095D01*
X84592438Y-82653095D02*
X84640057Y-82605476D01*
X84640057Y-82605476D02*
X84735295Y-82557857D01*
X84735295Y-82557857D02*
X84878152Y-82557857D01*
X84878152Y-82557857D02*
X84973390Y-82605476D01*
X84973390Y-82605476D02*
X85021009Y-82653095D01*
X85021009Y-82653095D02*
X85068628Y-82748333D01*
X85068628Y-82748333D02*
X85068628Y-83129285D01*
X85544819Y-81605476D02*
X85544819Y-82176904D01*
X85544819Y-81891190D02*
X84544819Y-81891190D01*
X84544819Y-81891190D02*
X84687676Y-81986428D01*
X84687676Y-81986428D02*
X84782914Y-82081666D01*
X84782914Y-82081666D02*
X84830533Y-82176904D01*
X84544819Y-80986428D02*
X84544819Y-80891190D01*
X84544819Y-80891190D02*
X84592438Y-80795952D01*
X84592438Y-80795952D02*
X84640057Y-80748333D01*
X84640057Y-80748333D02*
X84735295Y-80700714D01*
X84735295Y-80700714D02*
X84925771Y-80653095D01*
X84925771Y-80653095D02*
X85163866Y-80653095D01*
X85163866Y-80653095D02*
X85354342Y-80700714D01*
X85354342Y-80700714D02*
X85449580Y-80748333D01*
X85449580Y-80748333D02*
X85497200Y-80795952D01*
X85497200Y-80795952D02*
X85544819Y-80891190D01*
X85544819Y-80891190D02*
X85544819Y-80986428D01*
X85544819Y-80986428D02*
X85497200Y-81081666D01*
X85497200Y-81081666D02*
X85449580Y-81129285D01*
X85449580Y-81129285D02*
X85354342Y-81176904D01*
X85354342Y-81176904D02*
X85163866Y-81224523D01*
X85163866Y-81224523D02*
X84925771Y-81224523D01*
X84925771Y-81224523D02*
X84735295Y-81176904D01*
X84735295Y-81176904D02*
X84640057Y-81129285D01*
X84640057Y-81129285D02*
X84592438Y-81081666D01*
X84592438Y-81081666D02*
X84544819Y-80986428D01*
X125563333Y-66664819D02*
X125230000Y-66188628D01*
X124991905Y-66664819D02*
X124991905Y-65664819D01*
X124991905Y-65664819D02*
X125372857Y-65664819D01*
X125372857Y-65664819D02*
X125468095Y-65712438D01*
X125468095Y-65712438D02*
X125515714Y-65760057D01*
X125515714Y-65760057D02*
X125563333Y-65855295D01*
X125563333Y-65855295D02*
X125563333Y-65998152D01*
X125563333Y-65998152D02*
X125515714Y-66093390D01*
X125515714Y-66093390D02*
X125468095Y-66141009D01*
X125468095Y-66141009D02*
X125372857Y-66188628D01*
X125372857Y-66188628D02*
X124991905Y-66188628D01*
X126468095Y-65664819D02*
X125991905Y-65664819D01*
X125991905Y-65664819D02*
X125944286Y-66141009D01*
X125944286Y-66141009D02*
X125991905Y-66093390D01*
X125991905Y-66093390D02*
X126087143Y-66045771D01*
X126087143Y-66045771D02*
X126325238Y-66045771D01*
X126325238Y-66045771D02*
X126420476Y-66093390D01*
X126420476Y-66093390D02*
X126468095Y-66141009D01*
X126468095Y-66141009D02*
X126515714Y-66236247D01*
X126515714Y-66236247D02*
X126515714Y-66474342D01*
X126515714Y-66474342D02*
X126468095Y-66569580D01*
X126468095Y-66569580D02*
X126420476Y-66617200D01*
X126420476Y-66617200D02*
X126325238Y-66664819D01*
X126325238Y-66664819D02*
X126087143Y-66664819D01*
X126087143Y-66664819D02*
X125991905Y-66617200D01*
X125991905Y-66617200D02*
X125944286Y-66569580D01*
X80684761Y-118174819D02*
X80351428Y-117698628D01*
X80113333Y-118174819D02*
X80113333Y-117174819D01*
X80113333Y-117174819D02*
X80494285Y-117174819D01*
X80494285Y-117174819D02*
X80589523Y-117222438D01*
X80589523Y-117222438D02*
X80637142Y-117270057D01*
X80637142Y-117270057D02*
X80684761Y-117365295D01*
X80684761Y-117365295D02*
X80684761Y-117508152D01*
X80684761Y-117508152D02*
X80637142Y-117603390D01*
X80637142Y-117603390D02*
X80589523Y-117651009D01*
X80589523Y-117651009D02*
X80494285Y-117698628D01*
X80494285Y-117698628D02*
X80113333Y-117698628D01*
X80970476Y-117174819D02*
X81303809Y-118174819D01*
X81303809Y-118174819D02*
X81637142Y-117174819D01*
X81875238Y-117174819D02*
X82494285Y-117174819D01*
X82494285Y-117174819D02*
X82160952Y-117555771D01*
X82160952Y-117555771D02*
X82303809Y-117555771D01*
X82303809Y-117555771D02*
X82399047Y-117603390D01*
X82399047Y-117603390D02*
X82446666Y-117651009D01*
X82446666Y-117651009D02*
X82494285Y-117746247D01*
X82494285Y-117746247D02*
X82494285Y-117984342D01*
X82494285Y-117984342D02*
X82446666Y-118079580D01*
X82446666Y-118079580D02*
X82399047Y-118127200D01*
X82399047Y-118127200D02*
X82303809Y-118174819D01*
X82303809Y-118174819D02*
X82018095Y-118174819D01*
X82018095Y-118174819D02*
X81922857Y-118127200D01*
X81922857Y-118127200D02*
X81875238Y-118079580D01*
X109504819Y-93987857D02*
X109028628Y-94321190D01*
X109504819Y-94559285D02*
X108504819Y-94559285D01*
X108504819Y-94559285D02*
X108504819Y-94178333D01*
X108504819Y-94178333D02*
X108552438Y-94083095D01*
X108552438Y-94083095D02*
X108600057Y-94035476D01*
X108600057Y-94035476D02*
X108695295Y-93987857D01*
X108695295Y-93987857D02*
X108838152Y-93987857D01*
X108838152Y-93987857D02*
X108933390Y-94035476D01*
X108933390Y-94035476D02*
X108981009Y-94083095D01*
X108981009Y-94083095D02*
X109028628Y-94178333D01*
X109028628Y-94178333D02*
X109028628Y-94559285D01*
X109504819Y-93035476D02*
X109504819Y-93606904D01*
X109504819Y-93321190D02*
X108504819Y-93321190D01*
X108504819Y-93321190D02*
X108647676Y-93416428D01*
X108647676Y-93416428D02*
X108742914Y-93511666D01*
X108742914Y-93511666D02*
X108790533Y-93606904D01*
X108838152Y-92178333D02*
X109504819Y-92178333D01*
X108457200Y-92416428D02*
X109171485Y-92654523D01*
X109171485Y-92654523D02*
X109171485Y-92035476D01*
X116693333Y-68999580D02*
X116645714Y-69047200D01*
X116645714Y-69047200D02*
X116502857Y-69094819D01*
X116502857Y-69094819D02*
X116407619Y-69094819D01*
X116407619Y-69094819D02*
X116264762Y-69047200D01*
X116264762Y-69047200D02*
X116169524Y-68951961D01*
X116169524Y-68951961D02*
X116121905Y-68856723D01*
X116121905Y-68856723D02*
X116074286Y-68666247D01*
X116074286Y-68666247D02*
X116074286Y-68523390D01*
X116074286Y-68523390D02*
X116121905Y-68332914D01*
X116121905Y-68332914D02*
X116169524Y-68237676D01*
X116169524Y-68237676D02*
X116264762Y-68142438D01*
X116264762Y-68142438D02*
X116407619Y-68094819D01*
X116407619Y-68094819D02*
X116502857Y-68094819D01*
X116502857Y-68094819D02*
X116645714Y-68142438D01*
X116645714Y-68142438D02*
X116693333Y-68190057D01*
X117550476Y-68428152D02*
X117550476Y-69094819D01*
X117312381Y-68047200D02*
X117074286Y-68761485D01*
X117074286Y-68761485D02*
X117693333Y-68761485D01*
X87483333Y-71419580D02*
X87435714Y-71467200D01*
X87435714Y-71467200D02*
X87292857Y-71514819D01*
X87292857Y-71514819D02*
X87197619Y-71514819D01*
X87197619Y-71514819D02*
X87054762Y-71467200D01*
X87054762Y-71467200D02*
X86959524Y-71371961D01*
X86959524Y-71371961D02*
X86911905Y-71276723D01*
X86911905Y-71276723D02*
X86864286Y-71086247D01*
X86864286Y-71086247D02*
X86864286Y-70943390D01*
X86864286Y-70943390D02*
X86911905Y-70752914D01*
X86911905Y-70752914D02*
X86959524Y-70657676D01*
X86959524Y-70657676D02*
X87054762Y-70562438D01*
X87054762Y-70562438D02*
X87197619Y-70514819D01*
X87197619Y-70514819D02*
X87292857Y-70514819D01*
X87292857Y-70514819D02*
X87435714Y-70562438D01*
X87435714Y-70562438D02*
X87483333Y-70610057D01*
X87864286Y-70610057D02*
X87911905Y-70562438D01*
X87911905Y-70562438D02*
X88007143Y-70514819D01*
X88007143Y-70514819D02*
X88245238Y-70514819D01*
X88245238Y-70514819D02*
X88340476Y-70562438D01*
X88340476Y-70562438D02*
X88388095Y-70610057D01*
X88388095Y-70610057D02*
X88435714Y-70705295D01*
X88435714Y-70705295D02*
X88435714Y-70800533D01*
X88435714Y-70800533D02*
X88388095Y-70943390D01*
X88388095Y-70943390D02*
X87816667Y-71514819D01*
X87816667Y-71514819D02*
X88435714Y-71514819D01*
X91273333Y-71744819D02*
X90940000Y-71268628D01*
X90701905Y-71744819D02*
X90701905Y-70744819D01*
X90701905Y-70744819D02*
X91082857Y-70744819D01*
X91082857Y-70744819D02*
X91178095Y-70792438D01*
X91178095Y-70792438D02*
X91225714Y-70840057D01*
X91225714Y-70840057D02*
X91273333Y-70935295D01*
X91273333Y-70935295D02*
X91273333Y-71078152D01*
X91273333Y-71078152D02*
X91225714Y-71173390D01*
X91225714Y-71173390D02*
X91178095Y-71221009D01*
X91178095Y-71221009D02*
X91082857Y-71268628D01*
X91082857Y-71268628D02*
X90701905Y-71268628D01*
X91654286Y-70840057D02*
X91701905Y-70792438D01*
X91701905Y-70792438D02*
X91797143Y-70744819D01*
X91797143Y-70744819D02*
X92035238Y-70744819D01*
X92035238Y-70744819D02*
X92130476Y-70792438D01*
X92130476Y-70792438D02*
X92178095Y-70840057D01*
X92178095Y-70840057D02*
X92225714Y-70935295D01*
X92225714Y-70935295D02*
X92225714Y-71030533D01*
X92225714Y-71030533D02*
X92178095Y-71173390D01*
X92178095Y-71173390D02*
X91606667Y-71744819D01*
X91606667Y-71744819D02*
X92225714Y-71744819D01*
X104764819Y-82081666D02*
X104288628Y-82414999D01*
X104764819Y-82653094D02*
X103764819Y-82653094D01*
X103764819Y-82653094D02*
X103764819Y-82272142D01*
X103764819Y-82272142D02*
X103812438Y-82176904D01*
X103812438Y-82176904D02*
X103860057Y-82129285D01*
X103860057Y-82129285D02*
X103955295Y-82081666D01*
X103955295Y-82081666D02*
X104098152Y-82081666D01*
X104098152Y-82081666D02*
X104193390Y-82129285D01*
X104193390Y-82129285D02*
X104241009Y-82176904D01*
X104241009Y-82176904D02*
X104288628Y-82272142D01*
X104288628Y-82272142D02*
X104288628Y-82653094D01*
X104764819Y-81605475D02*
X104764819Y-81414999D01*
X104764819Y-81414999D02*
X104717200Y-81319761D01*
X104717200Y-81319761D02*
X104669580Y-81272142D01*
X104669580Y-81272142D02*
X104526723Y-81176904D01*
X104526723Y-81176904D02*
X104336247Y-81129285D01*
X104336247Y-81129285D02*
X103955295Y-81129285D01*
X103955295Y-81129285D02*
X103860057Y-81176904D01*
X103860057Y-81176904D02*
X103812438Y-81224523D01*
X103812438Y-81224523D02*
X103764819Y-81319761D01*
X103764819Y-81319761D02*
X103764819Y-81510237D01*
X103764819Y-81510237D02*
X103812438Y-81605475D01*
X103812438Y-81605475D02*
X103860057Y-81653094D01*
X103860057Y-81653094D02*
X103955295Y-81700713D01*
X103955295Y-81700713D02*
X104193390Y-81700713D01*
X104193390Y-81700713D02*
X104288628Y-81653094D01*
X104288628Y-81653094D02*
X104336247Y-81605475D01*
X104336247Y-81605475D02*
X104383866Y-81510237D01*
X104383866Y-81510237D02*
X104383866Y-81319761D01*
X104383866Y-81319761D02*
X104336247Y-81224523D01*
X104336247Y-81224523D02*
X104288628Y-81176904D01*
X104288628Y-81176904D02*
X104193390Y-81129285D01*
X87455714Y-128677200D02*
X87598571Y-128724819D01*
X87598571Y-128724819D02*
X87836666Y-128724819D01*
X87836666Y-128724819D02*
X87931904Y-128677200D01*
X87931904Y-128677200D02*
X87979523Y-128629580D01*
X87979523Y-128629580D02*
X88027142Y-128534342D01*
X88027142Y-128534342D02*
X88027142Y-128439104D01*
X88027142Y-128439104D02*
X87979523Y-128343866D01*
X87979523Y-128343866D02*
X87931904Y-128296247D01*
X87931904Y-128296247D02*
X87836666Y-128248628D01*
X87836666Y-128248628D02*
X87646190Y-128201009D01*
X87646190Y-128201009D02*
X87550952Y-128153390D01*
X87550952Y-128153390D02*
X87503333Y-128105771D01*
X87503333Y-128105771D02*
X87455714Y-128010533D01*
X87455714Y-128010533D02*
X87455714Y-127915295D01*
X87455714Y-127915295D02*
X87503333Y-127820057D01*
X87503333Y-127820057D02*
X87550952Y-127772438D01*
X87550952Y-127772438D02*
X87646190Y-127724819D01*
X87646190Y-127724819D02*
X87884285Y-127724819D01*
X87884285Y-127724819D02*
X88027142Y-127772438D01*
X89027142Y-128629580D02*
X88979523Y-128677200D01*
X88979523Y-128677200D02*
X88836666Y-128724819D01*
X88836666Y-128724819D02*
X88741428Y-128724819D01*
X88741428Y-128724819D02*
X88598571Y-128677200D01*
X88598571Y-128677200D02*
X88503333Y-128581961D01*
X88503333Y-128581961D02*
X88455714Y-128486723D01*
X88455714Y-128486723D02*
X88408095Y-128296247D01*
X88408095Y-128296247D02*
X88408095Y-128153390D01*
X88408095Y-128153390D02*
X88455714Y-127962914D01*
X88455714Y-127962914D02*
X88503333Y-127867676D01*
X88503333Y-127867676D02*
X88598571Y-127772438D01*
X88598571Y-127772438D02*
X88741428Y-127724819D01*
X88741428Y-127724819D02*
X88836666Y-127724819D01*
X88836666Y-127724819D02*
X88979523Y-127772438D01*
X88979523Y-127772438D02*
X89027142Y-127820057D01*
X90027142Y-128724819D02*
X89693809Y-128248628D01*
X89455714Y-128724819D02*
X89455714Y-127724819D01*
X89455714Y-127724819D02*
X89836666Y-127724819D01*
X89836666Y-127724819D02*
X89931904Y-127772438D01*
X89931904Y-127772438D02*
X89979523Y-127820057D01*
X89979523Y-127820057D02*
X90027142Y-127915295D01*
X90027142Y-127915295D02*
X90027142Y-128058152D01*
X90027142Y-128058152D02*
X89979523Y-128153390D01*
X89979523Y-128153390D02*
X89931904Y-128201009D01*
X89931904Y-128201009D02*
X89836666Y-128248628D01*
X89836666Y-128248628D02*
X89455714Y-128248628D01*
X90360476Y-127724819D02*
X90598571Y-128724819D01*
X90598571Y-128724819D02*
X90789047Y-128010533D01*
X90789047Y-128010533D02*
X90979523Y-128724819D01*
X90979523Y-128724819D02*
X91217619Y-127724819D01*
X92884285Y-128724819D02*
X92312857Y-128724819D01*
X92598571Y-128724819D02*
X92598571Y-127724819D01*
X92598571Y-127724819D02*
X92503333Y-127867676D01*
X92503333Y-127867676D02*
X92408095Y-127962914D01*
X92408095Y-127962914D02*
X92312857Y-128010533D01*
X116693333Y-58839580D02*
X116645714Y-58887200D01*
X116645714Y-58887200D02*
X116502857Y-58934819D01*
X116502857Y-58934819D02*
X116407619Y-58934819D01*
X116407619Y-58934819D02*
X116264762Y-58887200D01*
X116264762Y-58887200D02*
X116169524Y-58791961D01*
X116169524Y-58791961D02*
X116121905Y-58696723D01*
X116121905Y-58696723D02*
X116074286Y-58506247D01*
X116074286Y-58506247D02*
X116074286Y-58363390D01*
X116074286Y-58363390D02*
X116121905Y-58172914D01*
X116121905Y-58172914D02*
X116169524Y-58077676D01*
X116169524Y-58077676D02*
X116264762Y-57982438D01*
X116264762Y-57982438D02*
X116407619Y-57934819D01*
X116407619Y-57934819D02*
X116502857Y-57934819D01*
X116502857Y-57934819D02*
X116645714Y-57982438D01*
X116645714Y-57982438D02*
X116693333Y-58030057D01*
X117026667Y-57934819D02*
X117645714Y-57934819D01*
X117645714Y-57934819D02*
X117312381Y-58315771D01*
X117312381Y-58315771D02*
X117455238Y-58315771D01*
X117455238Y-58315771D02*
X117550476Y-58363390D01*
X117550476Y-58363390D02*
X117598095Y-58411009D01*
X117598095Y-58411009D02*
X117645714Y-58506247D01*
X117645714Y-58506247D02*
X117645714Y-58744342D01*
X117645714Y-58744342D02*
X117598095Y-58839580D01*
X117598095Y-58839580D02*
X117550476Y-58887200D01*
X117550476Y-58887200D02*
X117455238Y-58934819D01*
X117455238Y-58934819D02*
X117169524Y-58934819D01*
X117169524Y-58934819D02*
X117074286Y-58887200D01*
X117074286Y-58887200D02*
X117026667Y-58839580D01*
X99684819Y-116212857D02*
X99208628Y-116546190D01*
X99684819Y-116784285D02*
X98684819Y-116784285D01*
X98684819Y-116784285D02*
X98684819Y-116403333D01*
X98684819Y-116403333D02*
X98732438Y-116308095D01*
X98732438Y-116308095D02*
X98780057Y-116260476D01*
X98780057Y-116260476D02*
X98875295Y-116212857D01*
X98875295Y-116212857D02*
X99018152Y-116212857D01*
X99018152Y-116212857D02*
X99113390Y-116260476D01*
X99113390Y-116260476D02*
X99161009Y-116308095D01*
X99161009Y-116308095D02*
X99208628Y-116403333D01*
X99208628Y-116403333D02*
X99208628Y-116784285D01*
X99684819Y-115260476D02*
X99684819Y-115831904D01*
X99684819Y-115546190D02*
X98684819Y-115546190D01*
X98684819Y-115546190D02*
X98827676Y-115641428D01*
X98827676Y-115641428D02*
X98922914Y-115736666D01*
X98922914Y-115736666D02*
X98970533Y-115831904D01*
X98684819Y-114927142D02*
X98684819Y-114260476D01*
X98684819Y-114260476D02*
X99684819Y-114689047D01*
X114584819Y-59861666D02*
X114108628Y-60194999D01*
X114584819Y-60433094D02*
X113584819Y-60433094D01*
X113584819Y-60433094D02*
X113584819Y-60052142D01*
X113584819Y-60052142D02*
X113632438Y-59956904D01*
X113632438Y-59956904D02*
X113680057Y-59909285D01*
X113680057Y-59909285D02*
X113775295Y-59861666D01*
X113775295Y-59861666D02*
X113918152Y-59861666D01*
X113918152Y-59861666D02*
X114013390Y-59909285D01*
X114013390Y-59909285D02*
X114061009Y-59956904D01*
X114061009Y-59956904D02*
X114108628Y-60052142D01*
X114108628Y-60052142D02*
X114108628Y-60433094D01*
X113918152Y-59004523D02*
X114584819Y-59004523D01*
X113537200Y-59242618D02*
X114251485Y-59480713D01*
X114251485Y-59480713D02*
X114251485Y-58861666D01*
X96804819Y-59861666D02*
X96328628Y-60194999D01*
X96804819Y-60433094D02*
X95804819Y-60433094D01*
X95804819Y-60433094D02*
X95804819Y-60052142D01*
X95804819Y-60052142D02*
X95852438Y-59956904D01*
X95852438Y-59956904D02*
X95900057Y-59909285D01*
X95900057Y-59909285D02*
X95995295Y-59861666D01*
X95995295Y-59861666D02*
X96138152Y-59861666D01*
X96138152Y-59861666D02*
X96233390Y-59909285D01*
X96233390Y-59909285D02*
X96281009Y-59956904D01*
X96281009Y-59956904D02*
X96328628Y-60052142D01*
X96328628Y-60052142D02*
X96328628Y-60433094D01*
X96804819Y-58909285D02*
X96804819Y-59480713D01*
X96804819Y-59194999D02*
X95804819Y-59194999D01*
X95804819Y-59194999D02*
X95947676Y-59290237D01*
X95947676Y-59290237D02*
X96042914Y-59385475D01*
X96042914Y-59385475D02*
X96090533Y-59480713D01*
X136985714Y-61367200D02*
X137128571Y-61414819D01*
X137128571Y-61414819D02*
X137366666Y-61414819D01*
X137366666Y-61414819D02*
X137461904Y-61367200D01*
X137461904Y-61367200D02*
X137509523Y-61319580D01*
X137509523Y-61319580D02*
X137557142Y-61224342D01*
X137557142Y-61224342D02*
X137557142Y-61129104D01*
X137557142Y-61129104D02*
X137509523Y-61033866D01*
X137509523Y-61033866D02*
X137461904Y-60986247D01*
X137461904Y-60986247D02*
X137366666Y-60938628D01*
X137366666Y-60938628D02*
X137176190Y-60891009D01*
X137176190Y-60891009D02*
X137080952Y-60843390D01*
X137080952Y-60843390D02*
X137033333Y-60795771D01*
X137033333Y-60795771D02*
X136985714Y-60700533D01*
X136985714Y-60700533D02*
X136985714Y-60605295D01*
X136985714Y-60605295D02*
X137033333Y-60510057D01*
X137033333Y-60510057D02*
X137080952Y-60462438D01*
X137080952Y-60462438D02*
X137176190Y-60414819D01*
X137176190Y-60414819D02*
X137414285Y-60414819D01*
X137414285Y-60414819D02*
X137557142Y-60462438D01*
X138557142Y-61319580D02*
X138509523Y-61367200D01*
X138509523Y-61367200D02*
X138366666Y-61414819D01*
X138366666Y-61414819D02*
X138271428Y-61414819D01*
X138271428Y-61414819D02*
X138128571Y-61367200D01*
X138128571Y-61367200D02*
X138033333Y-61271961D01*
X138033333Y-61271961D02*
X137985714Y-61176723D01*
X137985714Y-61176723D02*
X137938095Y-60986247D01*
X137938095Y-60986247D02*
X137938095Y-60843390D01*
X137938095Y-60843390D02*
X137985714Y-60652914D01*
X137985714Y-60652914D02*
X138033333Y-60557676D01*
X138033333Y-60557676D02*
X138128571Y-60462438D01*
X138128571Y-60462438D02*
X138271428Y-60414819D01*
X138271428Y-60414819D02*
X138366666Y-60414819D01*
X138366666Y-60414819D02*
X138509523Y-60462438D01*
X138509523Y-60462438D02*
X138557142Y-60510057D01*
X139557142Y-61414819D02*
X139223809Y-60938628D01*
X138985714Y-61414819D02*
X138985714Y-60414819D01*
X138985714Y-60414819D02*
X139366666Y-60414819D01*
X139366666Y-60414819D02*
X139461904Y-60462438D01*
X139461904Y-60462438D02*
X139509523Y-60510057D01*
X139509523Y-60510057D02*
X139557142Y-60605295D01*
X139557142Y-60605295D02*
X139557142Y-60748152D01*
X139557142Y-60748152D02*
X139509523Y-60843390D01*
X139509523Y-60843390D02*
X139461904Y-60891009D01*
X139461904Y-60891009D02*
X139366666Y-60938628D01*
X139366666Y-60938628D02*
X138985714Y-60938628D01*
X139890476Y-60414819D02*
X140128571Y-61414819D01*
X140128571Y-61414819D02*
X140319047Y-60700533D01*
X140319047Y-60700533D02*
X140509523Y-61414819D01*
X140509523Y-61414819D02*
X140747619Y-60414819D01*
X141842857Y-60510057D02*
X141890476Y-60462438D01*
X141890476Y-60462438D02*
X141985714Y-60414819D01*
X141985714Y-60414819D02*
X142223809Y-60414819D01*
X142223809Y-60414819D02*
X142319047Y-60462438D01*
X142319047Y-60462438D02*
X142366666Y-60510057D01*
X142366666Y-60510057D02*
X142414285Y-60605295D01*
X142414285Y-60605295D02*
X142414285Y-60700533D01*
X142414285Y-60700533D02*
X142366666Y-60843390D01*
X142366666Y-60843390D02*
X141795238Y-61414819D01*
X141795238Y-61414819D02*
X142414285Y-61414819D01*
X127531905Y-65374819D02*
X127531905Y-64374819D01*
X127531905Y-64374819D02*
X127770000Y-64374819D01*
X127770000Y-64374819D02*
X127912857Y-64422438D01*
X127912857Y-64422438D02*
X128008095Y-64517676D01*
X128008095Y-64517676D02*
X128055714Y-64612914D01*
X128055714Y-64612914D02*
X128103333Y-64803390D01*
X128103333Y-64803390D02*
X128103333Y-64946247D01*
X128103333Y-64946247D02*
X128055714Y-65136723D01*
X128055714Y-65136723D02*
X128008095Y-65231961D01*
X128008095Y-65231961D02*
X127912857Y-65327200D01*
X127912857Y-65327200D02*
X127770000Y-65374819D01*
X127770000Y-65374819D02*
X127531905Y-65374819D01*
X129055714Y-65374819D02*
X128484286Y-65374819D01*
X128770000Y-65374819D02*
X128770000Y-64374819D01*
X128770000Y-64374819D02*
X128674762Y-64517676D01*
X128674762Y-64517676D02*
X128579524Y-64612914D01*
X128579524Y-64612914D02*
X128484286Y-64660533D01*
X93334819Y-116212857D02*
X92858628Y-116546190D01*
X93334819Y-116784285D02*
X92334819Y-116784285D01*
X92334819Y-116784285D02*
X92334819Y-116403333D01*
X92334819Y-116403333D02*
X92382438Y-116308095D01*
X92382438Y-116308095D02*
X92430057Y-116260476D01*
X92430057Y-116260476D02*
X92525295Y-116212857D01*
X92525295Y-116212857D02*
X92668152Y-116212857D01*
X92668152Y-116212857D02*
X92763390Y-116260476D01*
X92763390Y-116260476D02*
X92811009Y-116308095D01*
X92811009Y-116308095D02*
X92858628Y-116403333D01*
X92858628Y-116403333D02*
X92858628Y-116784285D01*
X93334819Y-115260476D02*
X93334819Y-115831904D01*
X93334819Y-115546190D02*
X92334819Y-115546190D01*
X92334819Y-115546190D02*
X92477676Y-115641428D01*
X92477676Y-115641428D02*
X92572914Y-115736666D01*
X92572914Y-115736666D02*
X92620533Y-115831904D01*
X93334819Y-114308095D02*
X93334819Y-114879523D01*
X93334819Y-114593809D02*
X92334819Y-114593809D01*
X92334819Y-114593809D02*
X92477676Y-114689047D01*
X92477676Y-114689047D02*
X92572914Y-114784285D01*
X92572914Y-114784285D02*
X92620533Y-114879523D01*
X109674819Y-116212857D02*
X109198628Y-116546190D01*
X109674819Y-116784285D02*
X108674819Y-116784285D01*
X108674819Y-116784285D02*
X108674819Y-116403333D01*
X108674819Y-116403333D02*
X108722438Y-116308095D01*
X108722438Y-116308095D02*
X108770057Y-116260476D01*
X108770057Y-116260476D02*
X108865295Y-116212857D01*
X108865295Y-116212857D02*
X109008152Y-116212857D01*
X109008152Y-116212857D02*
X109103390Y-116260476D01*
X109103390Y-116260476D02*
X109151009Y-116308095D01*
X109151009Y-116308095D02*
X109198628Y-116403333D01*
X109198628Y-116403333D02*
X109198628Y-116784285D01*
X109674819Y-115260476D02*
X109674819Y-115831904D01*
X109674819Y-115546190D02*
X108674819Y-115546190D01*
X108674819Y-115546190D02*
X108817676Y-115641428D01*
X108817676Y-115641428D02*
X108912914Y-115736666D01*
X108912914Y-115736666D02*
X108960533Y-115831904D01*
X108674819Y-114355714D02*
X108674819Y-114831904D01*
X108674819Y-114831904D02*
X109151009Y-114879523D01*
X109151009Y-114879523D02*
X109103390Y-114831904D01*
X109103390Y-114831904D02*
X109055771Y-114736666D01*
X109055771Y-114736666D02*
X109055771Y-114498571D01*
X109055771Y-114498571D02*
X109103390Y-114403333D01*
X109103390Y-114403333D02*
X109151009Y-114355714D01*
X109151009Y-114355714D02*
X109246247Y-114308095D01*
X109246247Y-114308095D02*
X109484342Y-114308095D01*
X109484342Y-114308095D02*
X109579580Y-114355714D01*
X109579580Y-114355714D02*
X109627200Y-114403333D01*
X109627200Y-114403333D02*
X109674819Y-114498571D01*
X109674819Y-114498571D02*
X109674819Y-114736666D01*
X109674819Y-114736666D02*
X109627200Y-114831904D01*
X109627200Y-114831904D02*
X109579580Y-114879523D01*
X128083333Y-79689580D02*
X128035714Y-79737200D01*
X128035714Y-79737200D02*
X127892857Y-79784819D01*
X127892857Y-79784819D02*
X127797619Y-79784819D01*
X127797619Y-79784819D02*
X127654762Y-79737200D01*
X127654762Y-79737200D02*
X127559524Y-79641961D01*
X127559524Y-79641961D02*
X127511905Y-79546723D01*
X127511905Y-79546723D02*
X127464286Y-79356247D01*
X127464286Y-79356247D02*
X127464286Y-79213390D01*
X127464286Y-79213390D02*
X127511905Y-79022914D01*
X127511905Y-79022914D02*
X127559524Y-78927676D01*
X127559524Y-78927676D02*
X127654762Y-78832438D01*
X127654762Y-78832438D02*
X127797619Y-78784819D01*
X127797619Y-78784819D02*
X127892857Y-78784819D01*
X127892857Y-78784819D02*
X128035714Y-78832438D01*
X128035714Y-78832438D02*
X128083333Y-78880057D01*
X128988095Y-78784819D02*
X128511905Y-78784819D01*
X128511905Y-78784819D02*
X128464286Y-79261009D01*
X128464286Y-79261009D02*
X128511905Y-79213390D01*
X128511905Y-79213390D02*
X128607143Y-79165771D01*
X128607143Y-79165771D02*
X128845238Y-79165771D01*
X128845238Y-79165771D02*
X128940476Y-79213390D01*
X128940476Y-79213390D02*
X128988095Y-79261009D01*
X128988095Y-79261009D02*
X129035714Y-79356247D01*
X129035714Y-79356247D02*
X129035714Y-79594342D01*
X129035714Y-79594342D02*
X128988095Y-79689580D01*
X128988095Y-79689580D02*
X128940476Y-79737200D01*
X128940476Y-79737200D02*
X128845238Y-79784819D01*
X128845238Y-79784819D02*
X128607143Y-79784819D01*
X128607143Y-79784819D02*
X128511905Y-79737200D01*
X128511905Y-79737200D02*
X128464286Y-79689580D01*
X87483333Y-62529580D02*
X87435714Y-62577200D01*
X87435714Y-62577200D02*
X87292857Y-62624819D01*
X87292857Y-62624819D02*
X87197619Y-62624819D01*
X87197619Y-62624819D02*
X87054762Y-62577200D01*
X87054762Y-62577200D02*
X86959524Y-62481961D01*
X86959524Y-62481961D02*
X86911905Y-62386723D01*
X86911905Y-62386723D02*
X86864286Y-62196247D01*
X86864286Y-62196247D02*
X86864286Y-62053390D01*
X86864286Y-62053390D02*
X86911905Y-61862914D01*
X86911905Y-61862914D02*
X86959524Y-61767676D01*
X86959524Y-61767676D02*
X87054762Y-61672438D01*
X87054762Y-61672438D02*
X87197619Y-61624819D01*
X87197619Y-61624819D02*
X87292857Y-61624819D01*
X87292857Y-61624819D02*
X87435714Y-61672438D01*
X87435714Y-61672438D02*
X87483333Y-61720057D01*
X88435714Y-62624819D02*
X87864286Y-62624819D01*
X88150000Y-62624819D02*
X88150000Y-61624819D01*
X88150000Y-61624819D02*
X88054762Y-61767676D01*
X88054762Y-61767676D02*
X87959524Y-61862914D01*
X87959524Y-61862914D02*
X87864286Y-61910533D01*
X80684761Y-64874819D02*
X80351428Y-64398628D01*
X80113333Y-64874819D02*
X80113333Y-63874819D01*
X80113333Y-63874819D02*
X80494285Y-63874819D01*
X80494285Y-63874819D02*
X80589523Y-63922438D01*
X80589523Y-63922438D02*
X80637142Y-63970057D01*
X80637142Y-63970057D02*
X80684761Y-64065295D01*
X80684761Y-64065295D02*
X80684761Y-64208152D01*
X80684761Y-64208152D02*
X80637142Y-64303390D01*
X80637142Y-64303390D02*
X80589523Y-64351009D01*
X80589523Y-64351009D02*
X80494285Y-64398628D01*
X80494285Y-64398628D02*
X80113333Y-64398628D01*
X80970476Y-63874819D02*
X81303809Y-64874819D01*
X81303809Y-64874819D02*
X81637142Y-63874819D01*
X81922857Y-63970057D02*
X81970476Y-63922438D01*
X81970476Y-63922438D02*
X82065714Y-63874819D01*
X82065714Y-63874819D02*
X82303809Y-63874819D01*
X82303809Y-63874819D02*
X82399047Y-63922438D01*
X82399047Y-63922438D02*
X82446666Y-63970057D01*
X82446666Y-63970057D02*
X82494285Y-64065295D01*
X82494285Y-64065295D02*
X82494285Y-64160533D01*
X82494285Y-64160533D02*
X82446666Y-64303390D01*
X82446666Y-64303390D02*
X81875238Y-64874819D01*
X81875238Y-64874819D02*
X82494285Y-64874819D01*
X86984819Y-116212857D02*
X86508628Y-116546190D01*
X86984819Y-116784285D02*
X85984819Y-116784285D01*
X85984819Y-116784285D02*
X85984819Y-116403333D01*
X85984819Y-116403333D02*
X86032438Y-116308095D01*
X86032438Y-116308095D02*
X86080057Y-116260476D01*
X86080057Y-116260476D02*
X86175295Y-116212857D01*
X86175295Y-116212857D02*
X86318152Y-116212857D01*
X86318152Y-116212857D02*
X86413390Y-116260476D01*
X86413390Y-116260476D02*
X86461009Y-116308095D01*
X86461009Y-116308095D02*
X86508628Y-116403333D01*
X86508628Y-116403333D02*
X86508628Y-116784285D01*
X86984819Y-115260476D02*
X86984819Y-115831904D01*
X86984819Y-115546190D02*
X85984819Y-115546190D01*
X85984819Y-115546190D02*
X86127676Y-115641428D01*
X86127676Y-115641428D02*
X86222914Y-115736666D01*
X86222914Y-115736666D02*
X86270533Y-115831904D01*
X85984819Y-114927142D02*
X85984819Y-114308095D01*
X85984819Y-114308095D02*
X86365771Y-114641428D01*
X86365771Y-114641428D02*
X86365771Y-114498571D01*
X86365771Y-114498571D02*
X86413390Y-114403333D01*
X86413390Y-114403333D02*
X86461009Y-114355714D01*
X86461009Y-114355714D02*
X86556247Y-114308095D01*
X86556247Y-114308095D02*
X86794342Y-114308095D01*
X86794342Y-114308095D02*
X86889580Y-114355714D01*
X86889580Y-114355714D02*
X86937200Y-114403333D01*
X86937200Y-114403333D02*
X86984819Y-114498571D01*
X86984819Y-114498571D02*
X86984819Y-114784285D01*
X86984819Y-114784285D02*
X86937200Y-114879523D01*
X86937200Y-114879523D02*
X86889580Y-114927142D01*
X102118095Y-55544819D02*
X102118095Y-56354342D01*
X102118095Y-56354342D02*
X102165714Y-56449580D01*
X102165714Y-56449580D02*
X102213333Y-56497200D01*
X102213333Y-56497200D02*
X102308571Y-56544819D01*
X102308571Y-56544819D02*
X102499047Y-56544819D01*
X102499047Y-56544819D02*
X102594285Y-56497200D01*
X102594285Y-56497200D02*
X102641904Y-56449580D01*
X102641904Y-56449580D02*
X102689523Y-56354342D01*
X102689523Y-56354342D02*
X102689523Y-55544819D01*
X103689523Y-56544819D02*
X103118095Y-56544819D01*
X103403809Y-56544819D02*
X103403809Y-55544819D01*
X103403809Y-55544819D02*
X103308571Y-55687676D01*
X103308571Y-55687676D02*
X103213333Y-55782914D01*
X103213333Y-55782914D02*
X103118095Y-55830533D01*
D11*
%TO.C,RV4*%
X56160000Y-97100000D02*
X56160000Y-90860000D01*
X69160000Y-90860000D02*
X56160000Y-90860000D01*
X69160000Y-97100000D02*
X56160000Y-97100000D01*
X69160000Y-97600000D02*
X69160000Y-90360000D01*
X76160000Y-90360000D02*
X69160000Y-90360000D01*
X76160000Y-97600000D02*
X69160000Y-97600000D01*
X76160000Y-98850000D02*
X76160000Y-89110000D01*
X83455000Y-89110000D02*
X76160000Y-89110000D01*
X83455000Y-98850000D02*
X76160000Y-98850000D01*
X83455000Y-98850000D02*
X83455000Y-89110000D01*
%TO.C,RV1*%
X56160000Y-79320000D02*
X56160000Y-73080000D01*
X69160000Y-73080000D02*
X56160000Y-73080000D01*
X69160000Y-79320000D02*
X56160000Y-79320000D01*
X69160000Y-79820000D02*
X69160000Y-72580000D01*
X76160000Y-72580000D02*
X69160000Y-72580000D01*
X76160000Y-79820000D02*
X69160000Y-79820000D01*
X76160000Y-81070000D02*
X76160000Y-71330000D01*
X83455000Y-71330000D02*
X76160000Y-71330000D01*
X83455000Y-81070000D02*
X76160000Y-81070000D01*
X83455000Y-81070000D02*
X83455000Y-71330000D01*
%TO.C,R6*%
X87530000Y-96615000D02*
X87530000Y-90075000D01*
X87860000Y-96615000D02*
X87530000Y-96615000D01*
X89940000Y-96615000D02*
X90270000Y-96615000D01*
X90270000Y-96615000D02*
X90270000Y-90075000D01*
X87530000Y-90075000D02*
X87860000Y-90075000D01*
X90270000Y-90075000D02*
X89940000Y-90075000D01*
%TO.C,J1*%
X106680000Y-135890000D02*
X106680000Y-128270000D01*
X106680000Y-128270000D02*
X96520000Y-128270000D01*
X96520000Y-135890000D02*
X106680000Y-135890000D01*
X96520000Y-129540000D02*
X106680000Y-129540000D01*
X96520000Y-128270000D02*
X96520000Y-135890000D01*
%TO.C,R7*%
X90705000Y-85185000D02*
X90705000Y-78645000D01*
X91035000Y-85185000D02*
X90705000Y-85185000D01*
X93115000Y-85185000D02*
X93445000Y-85185000D01*
X93445000Y-85185000D02*
X93445000Y-78645000D01*
X90705000Y-78645000D02*
X91035000Y-78645000D01*
X93445000Y-78645000D02*
X93115000Y-78645000D01*
%TO.C,R8*%
X98960000Y-85185000D02*
X98960000Y-78645000D01*
X99290000Y-85185000D02*
X98960000Y-85185000D01*
X101370000Y-85185000D02*
X101700000Y-85185000D01*
X101700000Y-85185000D02*
X101700000Y-78645000D01*
X98960000Y-78645000D02*
X99290000Y-78645000D01*
X101700000Y-78645000D02*
X101370000Y-78645000D01*
%TO.C,C6*%
X97090000Y-125630000D02*
X97090000Y-125385000D01*
X97090000Y-125630000D02*
X93450000Y-125630000D01*
X97090000Y-123535000D02*
X97090000Y-123290000D01*
X97090000Y-123290000D02*
X93450000Y-123290000D01*
X93450000Y-125630000D02*
X93450000Y-125385000D01*
X93450000Y-123535000D02*
X93450000Y-123290000D01*
%TO.C,R3*%
X110390000Y-76935000D02*
X110390000Y-70395000D01*
X110720000Y-76935000D02*
X110390000Y-76935000D01*
X112800000Y-76935000D02*
X113130000Y-76935000D01*
X113130000Y-76935000D02*
X113130000Y-70395000D01*
X110390000Y-70395000D02*
X110720000Y-70395000D01*
X113130000Y-70395000D02*
X112800000Y-70395000D01*
%TO.C,R16*%
X105320000Y-108045000D02*
X105320000Y-101505000D01*
X105650000Y-108045000D02*
X105320000Y-108045000D01*
X107730000Y-108045000D02*
X108060000Y-108045000D01*
X108060000Y-108045000D02*
X108060000Y-101505000D01*
X105320000Y-101505000D02*
X105650000Y-101505000D01*
X108060000Y-101505000D02*
X107730000Y-101505000D01*
%TO.C,BT1*%
X140010000Y-80260000D02*
X137010000Y-80260000D01*
X140010000Y-80260000D02*
X140010000Y-83260000D01*
X139670000Y-80600000D02*
X137110000Y-80600000D01*
X131810000Y-80600000D02*
X123460000Y-80600000D01*
X115080000Y-80600000D02*
X119760000Y-80600000D01*
X143770000Y-86200000D02*
X139670000Y-86200000D01*
X139670000Y-86200000D02*
X139670000Y-80600000D01*
X115080000Y-86200000D02*
X115080000Y-80600000D01*
X112180000Y-86200000D02*
X115080000Y-86200000D01*
X143770000Y-135760000D02*
X143770000Y-86200000D01*
X112180000Y-135760000D02*
X112180000Y-86200000D01*
X112180000Y-135760000D02*
X143770000Y-135760000D01*
%TO.C,R12*%
X87530000Y-108045000D02*
X87530000Y-101505000D01*
X87860000Y-108045000D02*
X87530000Y-108045000D01*
X89940000Y-108045000D02*
X90270000Y-108045000D01*
X90270000Y-108045000D02*
X90270000Y-101505000D01*
X87530000Y-101505000D02*
X87860000Y-101505000D01*
X90270000Y-101505000D02*
X89940000Y-101505000D01*
%TO.C,U2*%
X102930000Y-106800000D02*
X102930000Y-88780000D01*
X102930000Y-88780000D02*
X92650000Y-88780000D01*
X100440000Y-106740000D02*
X100440000Y-88840000D01*
X100440000Y-88840000D02*
X95140000Y-88840000D01*
X98790000Y-106740000D02*
X100440000Y-106740000D01*
X95140000Y-106740000D02*
X96790000Y-106740000D01*
X95140000Y-88840000D02*
X95140000Y-106740000D01*
X92650000Y-106800000D02*
X102930000Y-106800000D01*
X92650000Y-88780000D02*
X92650000Y-106800000D01*
X98790000Y-106740000D02*
G75*
G03*
X96790000Y-106740000I-1000000J0D01*
G01*
%TO.C,RV5*%
X56160000Y-132620000D02*
X56160000Y-126380000D01*
X69160000Y-126380000D02*
X56160000Y-126380000D01*
X69160000Y-132620000D02*
X56160000Y-132620000D01*
X69160000Y-133120000D02*
X69160000Y-125880000D01*
X76160000Y-125880000D02*
X69160000Y-125880000D01*
X76160000Y-133120000D02*
X69160000Y-133120000D01*
X76160000Y-134370000D02*
X76160000Y-124630000D01*
X83455000Y-124630000D02*
X76160000Y-124630000D01*
X83455000Y-134370000D02*
X76160000Y-134370000D01*
X83455000Y-134370000D02*
X83455000Y-124630000D01*
%TO.C,R10*%
X89000000Y-78645000D02*
X89000000Y-85185000D01*
X88670000Y-78645000D02*
X89000000Y-78645000D01*
X86590000Y-78645000D02*
X86260000Y-78645000D01*
X86260000Y-78645000D02*
X86260000Y-85185000D01*
X89000000Y-85185000D02*
X88670000Y-85185000D01*
X86260000Y-85185000D02*
X86590000Y-85185000D01*
%TO.C,R5*%
X122460000Y-67210000D02*
X129000000Y-67210000D01*
X122460000Y-67540000D02*
X122460000Y-67210000D01*
X122460000Y-69620000D02*
X122460000Y-69950000D01*
X122460000Y-69950000D02*
X129000000Y-69950000D01*
X129000000Y-67210000D02*
X129000000Y-67540000D01*
X129000000Y-69950000D02*
X129000000Y-69620000D01*
%TO.C,RV3*%
X56160000Y-114840000D02*
X56160000Y-108600000D01*
X69160000Y-108600000D02*
X56160000Y-108600000D01*
X69160000Y-114840000D02*
X56160000Y-114840000D01*
X69160000Y-115340000D02*
X69160000Y-108100000D01*
X76160000Y-108100000D02*
X69160000Y-108100000D01*
X76160000Y-115340000D02*
X69160000Y-115340000D01*
X76160000Y-116590000D02*
X76160000Y-106850000D01*
X83455000Y-106850000D02*
X76160000Y-106850000D01*
X83455000Y-116590000D02*
X76160000Y-116590000D01*
X83455000Y-116590000D02*
X83455000Y-106850000D01*
%TO.C,R14*%
X108050000Y-90075000D02*
X108050000Y-96615000D01*
X107720000Y-90075000D02*
X108050000Y-90075000D01*
X105640000Y-90075000D02*
X105310000Y-90075000D01*
X105310000Y-90075000D02*
X105310000Y-96615000D01*
X108050000Y-96615000D02*
X107720000Y-96615000D01*
X105310000Y-96615000D02*
X105640000Y-96615000D01*
%TO.C,C4*%
X114055225Y-70915000D02*
X114555225Y-70915000D01*
X114305225Y-70665000D02*
X114305225Y-71165000D01*
X116860000Y-69810000D02*
X116860000Y-74970000D01*
X116900000Y-69810000D02*
X116900000Y-74970000D01*
X116940000Y-69811000D02*
X116940000Y-74969000D01*
X116980000Y-69812000D02*
X116980000Y-74968000D01*
X117020000Y-69814000D02*
X117020000Y-74966000D01*
X117060000Y-69817000D02*
X117060000Y-74963000D01*
X117100000Y-69821000D02*
X117100000Y-71350000D01*
X117100000Y-73430000D02*
X117100000Y-74959000D01*
X117140000Y-69825000D02*
X117140000Y-71350000D01*
X117140000Y-73430000D02*
X117140000Y-74955000D01*
X117180000Y-69829000D02*
X117180000Y-71350000D01*
X117180000Y-73430000D02*
X117180000Y-74951000D01*
X117220000Y-69834000D02*
X117220000Y-71350000D01*
X117220000Y-73430000D02*
X117220000Y-74946000D01*
X117260000Y-69840000D02*
X117260000Y-71350000D01*
X117260000Y-73430000D02*
X117260000Y-74940000D01*
X117300000Y-69847000D02*
X117300000Y-71350000D01*
X117300000Y-73430000D02*
X117300000Y-74933000D01*
X117340000Y-69854000D02*
X117340000Y-71350000D01*
X117340000Y-73430000D02*
X117340000Y-74926000D01*
X117380000Y-69862000D02*
X117380000Y-71350000D01*
X117380000Y-73430000D02*
X117380000Y-74918000D01*
X117420000Y-69870000D02*
X117420000Y-71350000D01*
X117420000Y-73430000D02*
X117420000Y-74910000D01*
X117460000Y-69879000D02*
X117460000Y-71350000D01*
X117460000Y-73430000D02*
X117460000Y-74901000D01*
X117500000Y-69889000D02*
X117500000Y-71350000D01*
X117500000Y-73430000D02*
X117500000Y-74891000D01*
X117540000Y-69899000D02*
X117540000Y-71350000D01*
X117540000Y-73430000D02*
X117540000Y-74881000D01*
X117581000Y-69910000D02*
X117581000Y-71350000D01*
X117581000Y-73430000D02*
X117581000Y-74870000D01*
X117621000Y-69922000D02*
X117621000Y-71350000D01*
X117621000Y-73430000D02*
X117621000Y-74858000D01*
X117661000Y-69935000D02*
X117661000Y-71350000D01*
X117661000Y-73430000D02*
X117661000Y-74845000D01*
X117701000Y-69948000D02*
X117701000Y-71350000D01*
X117701000Y-73430000D02*
X117701000Y-74832000D01*
X117741000Y-69962000D02*
X117741000Y-71350000D01*
X117741000Y-73430000D02*
X117741000Y-74818000D01*
X117781000Y-69976000D02*
X117781000Y-71350000D01*
X117781000Y-73430000D02*
X117781000Y-74804000D01*
X117821000Y-69992000D02*
X117821000Y-71350000D01*
X117821000Y-73430000D02*
X117821000Y-74788000D01*
X117861000Y-70008000D02*
X117861000Y-71350000D01*
X117861000Y-73430000D02*
X117861000Y-74772000D01*
X117901000Y-70025000D02*
X117901000Y-71350000D01*
X117901000Y-73430000D02*
X117901000Y-74755000D01*
X117941000Y-70042000D02*
X117941000Y-71350000D01*
X117941000Y-73430000D02*
X117941000Y-74738000D01*
X117981000Y-70061000D02*
X117981000Y-71350000D01*
X117981000Y-73430000D02*
X117981000Y-74719000D01*
X118021000Y-70080000D02*
X118021000Y-71350000D01*
X118021000Y-73430000D02*
X118021000Y-74700000D01*
X118061000Y-70100000D02*
X118061000Y-71350000D01*
X118061000Y-73430000D02*
X118061000Y-74680000D01*
X118101000Y-70122000D02*
X118101000Y-71350000D01*
X118101000Y-73430000D02*
X118101000Y-74658000D01*
X118141000Y-70143000D02*
X118141000Y-71350000D01*
X118141000Y-73430000D02*
X118141000Y-74637000D01*
X118181000Y-70166000D02*
X118181000Y-71350000D01*
X118181000Y-73430000D02*
X118181000Y-74614000D01*
X118221000Y-70190000D02*
X118221000Y-71350000D01*
X118221000Y-73430000D02*
X118221000Y-74590000D01*
X118261000Y-70215000D02*
X118261000Y-71350000D01*
X118261000Y-73430000D02*
X118261000Y-74565000D01*
X118301000Y-70241000D02*
X118301000Y-71350000D01*
X118301000Y-73430000D02*
X118301000Y-74539000D01*
X118341000Y-70268000D02*
X118341000Y-71350000D01*
X118341000Y-73430000D02*
X118341000Y-74512000D01*
X118381000Y-70295000D02*
X118381000Y-71350000D01*
X118381000Y-73430000D02*
X118381000Y-74485000D01*
X118421000Y-70325000D02*
X118421000Y-71350000D01*
X118421000Y-73430000D02*
X118421000Y-74455000D01*
X118461000Y-70355000D02*
X118461000Y-71350000D01*
X118461000Y-73430000D02*
X118461000Y-74425000D01*
X118501000Y-70386000D02*
X118501000Y-71350000D01*
X118501000Y-73430000D02*
X118501000Y-74394000D01*
X118541000Y-70419000D02*
X118541000Y-71350000D01*
X118541000Y-73430000D02*
X118541000Y-74361000D01*
X118581000Y-70453000D02*
X118581000Y-71350000D01*
X118581000Y-73430000D02*
X118581000Y-74327000D01*
X118621000Y-70489000D02*
X118621000Y-71350000D01*
X118621000Y-73430000D02*
X118621000Y-74291000D01*
X118661000Y-70526000D02*
X118661000Y-71350000D01*
X118661000Y-73430000D02*
X118661000Y-74254000D01*
X118701000Y-70564000D02*
X118701000Y-71350000D01*
X118701000Y-73430000D02*
X118701000Y-74216000D01*
X118741000Y-70605000D02*
X118741000Y-71350000D01*
X118741000Y-73430000D02*
X118741000Y-74175000D01*
X118781000Y-70647000D02*
X118781000Y-71350000D01*
X118781000Y-73430000D02*
X118781000Y-74133000D01*
X118821000Y-70691000D02*
X118821000Y-71350000D01*
X118821000Y-73430000D02*
X118821000Y-74089000D01*
X118861000Y-70737000D02*
X118861000Y-71350000D01*
X118861000Y-73430000D02*
X118861000Y-74043000D01*
X118901000Y-70785000D02*
X118901000Y-71350000D01*
X118901000Y-73430000D02*
X118901000Y-73995000D01*
X118941000Y-70836000D02*
X118941000Y-71350000D01*
X118941000Y-73430000D02*
X118941000Y-73944000D01*
X118981000Y-70890000D02*
X118981000Y-71350000D01*
X118981000Y-73430000D02*
X118981000Y-73890000D01*
X119021000Y-70947000D02*
X119021000Y-71350000D01*
X119021000Y-73430000D02*
X119021000Y-73833000D01*
X119061000Y-71007000D02*
X119061000Y-71350000D01*
X119061000Y-73430000D02*
X119061000Y-73773000D01*
X119101000Y-71071000D02*
X119101000Y-71350000D01*
X119101000Y-73430000D02*
X119101000Y-73709000D01*
X119141000Y-71139000D02*
X119141000Y-71350000D01*
X119141000Y-73430000D02*
X119141000Y-73641000D01*
X119181000Y-71212000D02*
X119181000Y-73568000D01*
X119221000Y-71292000D02*
X119221000Y-73488000D01*
X119261000Y-71379000D02*
X119261000Y-73401000D01*
X119301000Y-71475000D02*
X119301000Y-73305000D01*
X119341000Y-71585000D02*
X119341000Y-73195000D01*
X119381000Y-71713000D02*
X119381000Y-73067000D01*
X119421000Y-71872000D02*
X119421000Y-72908000D01*
X119461000Y-72106000D02*
X119461000Y-72674000D01*
X119480000Y-72390000D02*
G75*
G03*
X114240000Y-72390000I-2620000J0D01*
G01*
X114240000Y-72390000D02*
G75*
G03*
X119480000Y-72390000I2620000J0D01*
G01*
%TO.C,C2*%
X90454775Y-68785000D02*
X89954775Y-68785000D01*
X90204775Y-69035000D02*
X90204775Y-68535000D01*
X87650000Y-69890000D02*
X87650000Y-64730000D01*
X87610000Y-69890000D02*
X87610000Y-64730000D01*
X87570000Y-69889000D02*
X87570000Y-64731000D01*
X87530000Y-69888000D02*
X87530000Y-64732000D01*
X87490000Y-69886000D02*
X87490000Y-64734000D01*
X87450000Y-69883000D02*
X87450000Y-64737000D01*
X87410000Y-69879000D02*
X87410000Y-68350000D01*
X87410000Y-66270000D02*
X87410000Y-64741000D01*
X87370000Y-69875000D02*
X87370000Y-68350000D01*
X87370000Y-66270000D02*
X87370000Y-64745000D01*
X87330000Y-69871000D02*
X87330000Y-68350000D01*
X87330000Y-66270000D02*
X87330000Y-64749000D01*
X87290000Y-69866000D02*
X87290000Y-68350000D01*
X87290000Y-66270000D02*
X87290000Y-64754000D01*
X87250000Y-69860000D02*
X87250000Y-68350000D01*
X87250000Y-66270000D02*
X87250000Y-64760000D01*
X87210000Y-69853000D02*
X87210000Y-68350000D01*
X87210000Y-66270000D02*
X87210000Y-64767000D01*
X87170000Y-69846000D02*
X87170000Y-68350000D01*
X87170000Y-66270000D02*
X87170000Y-64774000D01*
X87130000Y-69838000D02*
X87130000Y-68350000D01*
X87130000Y-66270000D02*
X87130000Y-64782000D01*
X87090000Y-69830000D02*
X87090000Y-68350000D01*
X87090000Y-66270000D02*
X87090000Y-64790000D01*
X87050000Y-69821000D02*
X87050000Y-68350000D01*
X87050000Y-66270000D02*
X87050000Y-64799000D01*
X87010000Y-69811000D02*
X87010000Y-68350000D01*
X87010000Y-66270000D02*
X87010000Y-64809000D01*
X86970000Y-69801000D02*
X86970000Y-68350000D01*
X86970000Y-66270000D02*
X86970000Y-64819000D01*
X86929000Y-69790000D02*
X86929000Y-68350000D01*
X86929000Y-66270000D02*
X86929000Y-64830000D01*
X86889000Y-69778000D02*
X86889000Y-68350000D01*
X86889000Y-66270000D02*
X86889000Y-64842000D01*
X86849000Y-69765000D02*
X86849000Y-68350000D01*
X86849000Y-66270000D02*
X86849000Y-64855000D01*
X86809000Y-69752000D02*
X86809000Y-68350000D01*
X86809000Y-66270000D02*
X86809000Y-64868000D01*
X86769000Y-69738000D02*
X86769000Y-68350000D01*
X86769000Y-66270000D02*
X86769000Y-64882000D01*
X86729000Y-69724000D02*
X86729000Y-68350000D01*
X86729000Y-66270000D02*
X86729000Y-64896000D01*
X86689000Y-69708000D02*
X86689000Y-68350000D01*
X86689000Y-66270000D02*
X86689000Y-64912000D01*
X86649000Y-69692000D02*
X86649000Y-68350000D01*
X86649000Y-66270000D02*
X86649000Y-64928000D01*
X86609000Y-69675000D02*
X86609000Y-68350000D01*
X86609000Y-66270000D02*
X86609000Y-64945000D01*
X86569000Y-69658000D02*
X86569000Y-68350000D01*
X86569000Y-66270000D02*
X86569000Y-64962000D01*
X86529000Y-69639000D02*
X86529000Y-68350000D01*
X86529000Y-66270000D02*
X86529000Y-64981000D01*
X86489000Y-69620000D02*
X86489000Y-68350000D01*
X86489000Y-66270000D02*
X86489000Y-65000000D01*
X86449000Y-69600000D02*
X86449000Y-68350000D01*
X86449000Y-66270000D02*
X86449000Y-65020000D01*
X86409000Y-69578000D02*
X86409000Y-68350000D01*
X86409000Y-66270000D02*
X86409000Y-65042000D01*
X86369000Y-69557000D02*
X86369000Y-68350000D01*
X86369000Y-66270000D02*
X86369000Y-65063000D01*
X86329000Y-69534000D02*
X86329000Y-68350000D01*
X86329000Y-66270000D02*
X86329000Y-65086000D01*
X86289000Y-69510000D02*
X86289000Y-68350000D01*
X86289000Y-66270000D02*
X86289000Y-65110000D01*
X86249000Y-69485000D02*
X86249000Y-68350000D01*
X86249000Y-66270000D02*
X86249000Y-65135000D01*
X86209000Y-69459000D02*
X86209000Y-68350000D01*
X86209000Y-66270000D02*
X86209000Y-65161000D01*
X86169000Y-69432000D02*
X86169000Y-68350000D01*
X86169000Y-66270000D02*
X86169000Y-65188000D01*
X86129000Y-69405000D02*
X86129000Y-68350000D01*
X86129000Y-66270000D02*
X86129000Y-65215000D01*
X86089000Y-69375000D02*
X86089000Y-68350000D01*
X86089000Y-66270000D02*
X86089000Y-65245000D01*
X86049000Y-69345000D02*
X86049000Y-68350000D01*
X86049000Y-66270000D02*
X86049000Y-65275000D01*
X86009000Y-69314000D02*
X86009000Y-68350000D01*
X86009000Y-66270000D02*
X86009000Y-65306000D01*
X85969000Y-69281000D02*
X85969000Y-68350000D01*
X85969000Y-66270000D02*
X85969000Y-65339000D01*
X85929000Y-69247000D02*
X85929000Y-68350000D01*
X85929000Y-66270000D02*
X85929000Y-65373000D01*
X85889000Y-69211000D02*
X85889000Y-68350000D01*
X85889000Y-66270000D02*
X85889000Y-65409000D01*
X85849000Y-69174000D02*
X85849000Y-68350000D01*
X85849000Y-66270000D02*
X85849000Y-65446000D01*
X85809000Y-69136000D02*
X85809000Y-68350000D01*
X85809000Y-66270000D02*
X85809000Y-65484000D01*
X85769000Y-69095000D02*
X85769000Y-68350000D01*
X85769000Y-66270000D02*
X85769000Y-65525000D01*
X85729000Y-69053000D02*
X85729000Y-68350000D01*
X85729000Y-66270000D02*
X85729000Y-65567000D01*
X85689000Y-69009000D02*
X85689000Y-68350000D01*
X85689000Y-66270000D02*
X85689000Y-65611000D01*
X85649000Y-68963000D02*
X85649000Y-68350000D01*
X85649000Y-66270000D02*
X85649000Y-65657000D01*
X85609000Y-68915000D02*
X85609000Y-68350000D01*
X85609000Y-66270000D02*
X85609000Y-65705000D01*
X85569000Y-68864000D02*
X85569000Y-68350000D01*
X85569000Y-66270000D02*
X85569000Y-65756000D01*
X85529000Y-68810000D02*
X85529000Y-68350000D01*
X85529000Y-66270000D02*
X85529000Y-65810000D01*
X85489000Y-68753000D02*
X85489000Y-68350000D01*
X85489000Y-66270000D02*
X85489000Y-65867000D01*
X85449000Y-68693000D02*
X85449000Y-68350000D01*
X85449000Y-66270000D02*
X85449000Y-65927000D01*
X85409000Y-68629000D02*
X85409000Y-68350000D01*
X85409000Y-66270000D02*
X85409000Y-65991000D01*
X85369000Y-68561000D02*
X85369000Y-68350000D01*
X85369000Y-66270000D02*
X85369000Y-66059000D01*
X85329000Y-68488000D02*
X85329000Y-66132000D01*
X85289000Y-68408000D02*
X85289000Y-66212000D01*
X85249000Y-68321000D02*
X85249000Y-66299000D01*
X85209000Y-68225000D02*
X85209000Y-66395000D01*
X85169000Y-68115000D02*
X85169000Y-66505000D01*
X85129000Y-67987000D02*
X85129000Y-66633000D01*
X85089000Y-67828000D02*
X85089000Y-66792000D01*
X85049000Y-67594000D02*
X85049000Y-67026000D01*
X90270000Y-67310000D02*
G75*
G03*
X85030000Y-67310000I-2620000J0D01*
G01*
X85030000Y-67310000D02*
G75*
G03*
X90270000Y-67310000I2620000J0D01*
G01*
%TO.C,R2*%
X88170000Y-72290000D02*
X94710000Y-72290000D01*
X88170000Y-72620000D02*
X88170000Y-72290000D01*
X88170000Y-74700000D02*
X88170000Y-75030000D01*
X88170000Y-75030000D02*
X94710000Y-75030000D01*
X94710000Y-72290000D02*
X94710000Y-72620000D01*
X94710000Y-75030000D02*
X94710000Y-74700000D01*
%TO.C,R9*%
X105310000Y-85185000D02*
X105310000Y-78645000D01*
X105640000Y-85185000D02*
X105310000Y-85185000D01*
X107720000Y-85185000D02*
X108050000Y-85185000D01*
X108050000Y-85185000D02*
X108050000Y-78645000D01*
X105310000Y-78645000D02*
X105640000Y-78645000D01*
X108050000Y-78645000D02*
X107720000Y-78645000D01*
%TO.C,C3*%
X114055225Y-60755000D02*
X114555225Y-60755000D01*
X114305225Y-60505000D02*
X114305225Y-61005000D01*
X116860000Y-59650000D02*
X116860000Y-64810000D01*
X116900000Y-59650000D02*
X116900000Y-64810000D01*
X116940000Y-59651000D02*
X116940000Y-64809000D01*
X116980000Y-59652000D02*
X116980000Y-64808000D01*
X117020000Y-59654000D02*
X117020000Y-64806000D01*
X117060000Y-59657000D02*
X117060000Y-64803000D01*
X117100000Y-59661000D02*
X117100000Y-61190000D01*
X117100000Y-63270000D02*
X117100000Y-64799000D01*
X117140000Y-59665000D02*
X117140000Y-61190000D01*
X117140000Y-63270000D02*
X117140000Y-64795000D01*
X117180000Y-59669000D02*
X117180000Y-61190000D01*
X117180000Y-63270000D02*
X117180000Y-64791000D01*
X117220000Y-59674000D02*
X117220000Y-61190000D01*
X117220000Y-63270000D02*
X117220000Y-64786000D01*
X117260000Y-59680000D02*
X117260000Y-61190000D01*
X117260000Y-63270000D02*
X117260000Y-64780000D01*
X117300000Y-59687000D02*
X117300000Y-61190000D01*
X117300000Y-63270000D02*
X117300000Y-64773000D01*
X117340000Y-59694000D02*
X117340000Y-61190000D01*
X117340000Y-63270000D02*
X117340000Y-64766000D01*
X117380000Y-59702000D02*
X117380000Y-61190000D01*
X117380000Y-63270000D02*
X117380000Y-64758000D01*
X117420000Y-59710000D02*
X117420000Y-61190000D01*
X117420000Y-63270000D02*
X117420000Y-64750000D01*
X117460000Y-59719000D02*
X117460000Y-61190000D01*
X117460000Y-63270000D02*
X117460000Y-64741000D01*
X117500000Y-59729000D02*
X117500000Y-61190000D01*
X117500000Y-63270000D02*
X117500000Y-64731000D01*
X117540000Y-59739000D02*
X117540000Y-61190000D01*
X117540000Y-63270000D02*
X117540000Y-64721000D01*
X117581000Y-59750000D02*
X117581000Y-61190000D01*
X117581000Y-63270000D02*
X117581000Y-64710000D01*
X117621000Y-59762000D02*
X117621000Y-61190000D01*
X117621000Y-63270000D02*
X117621000Y-64698000D01*
X117661000Y-59775000D02*
X117661000Y-61190000D01*
X117661000Y-63270000D02*
X117661000Y-64685000D01*
X117701000Y-59788000D02*
X117701000Y-61190000D01*
X117701000Y-63270000D02*
X117701000Y-64672000D01*
X117741000Y-59802000D02*
X117741000Y-61190000D01*
X117741000Y-63270000D02*
X117741000Y-64658000D01*
X117781000Y-59816000D02*
X117781000Y-61190000D01*
X117781000Y-63270000D02*
X117781000Y-64644000D01*
X117821000Y-59832000D02*
X117821000Y-61190000D01*
X117821000Y-63270000D02*
X117821000Y-64628000D01*
X117861000Y-59848000D02*
X117861000Y-61190000D01*
X117861000Y-63270000D02*
X117861000Y-64612000D01*
X117901000Y-59865000D02*
X117901000Y-61190000D01*
X117901000Y-63270000D02*
X117901000Y-64595000D01*
X117941000Y-59882000D02*
X117941000Y-61190000D01*
X117941000Y-63270000D02*
X117941000Y-64578000D01*
X117981000Y-59901000D02*
X117981000Y-61190000D01*
X117981000Y-63270000D02*
X117981000Y-64559000D01*
X118021000Y-59920000D02*
X118021000Y-61190000D01*
X118021000Y-63270000D02*
X118021000Y-64540000D01*
X118061000Y-59940000D02*
X118061000Y-61190000D01*
X118061000Y-63270000D02*
X118061000Y-64520000D01*
X118101000Y-59962000D02*
X118101000Y-61190000D01*
X118101000Y-63270000D02*
X118101000Y-64498000D01*
X118141000Y-59983000D02*
X118141000Y-61190000D01*
X118141000Y-63270000D02*
X118141000Y-64477000D01*
X118181000Y-60006000D02*
X118181000Y-61190000D01*
X118181000Y-63270000D02*
X118181000Y-64454000D01*
X118221000Y-60030000D02*
X118221000Y-61190000D01*
X118221000Y-63270000D02*
X118221000Y-64430000D01*
X118261000Y-60055000D02*
X118261000Y-61190000D01*
X118261000Y-63270000D02*
X118261000Y-64405000D01*
X118301000Y-60081000D02*
X118301000Y-61190000D01*
X118301000Y-63270000D02*
X118301000Y-64379000D01*
X118341000Y-60108000D02*
X118341000Y-61190000D01*
X118341000Y-63270000D02*
X118341000Y-64352000D01*
X118381000Y-60135000D02*
X118381000Y-61190000D01*
X118381000Y-63270000D02*
X118381000Y-64325000D01*
X118421000Y-60165000D02*
X118421000Y-61190000D01*
X118421000Y-63270000D02*
X118421000Y-64295000D01*
X118461000Y-60195000D02*
X118461000Y-61190000D01*
X118461000Y-63270000D02*
X118461000Y-64265000D01*
X118501000Y-60226000D02*
X118501000Y-61190000D01*
X118501000Y-63270000D02*
X118501000Y-64234000D01*
X118541000Y-60259000D02*
X118541000Y-61190000D01*
X118541000Y-63270000D02*
X118541000Y-64201000D01*
X118581000Y-60293000D02*
X118581000Y-61190000D01*
X118581000Y-63270000D02*
X118581000Y-64167000D01*
X118621000Y-60329000D02*
X118621000Y-61190000D01*
X118621000Y-63270000D02*
X118621000Y-64131000D01*
X118661000Y-60366000D02*
X118661000Y-61190000D01*
X118661000Y-63270000D02*
X118661000Y-64094000D01*
X118701000Y-60404000D02*
X118701000Y-61190000D01*
X118701000Y-63270000D02*
X118701000Y-64056000D01*
X118741000Y-60445000D02*
X118741000Y-61190000D01*
X118741000Y-63270000D02*
X118741000Y-64015000D01*
X118781000Y-60487000D02*
X118781000Y-61190000D01*
X118781000Y-63270000D02*
X118781000Y-63973000D01*
X118821000Y-60531000D02*
X118821000Y-61190000D01*
X118821000Y-63270000D02*
X118821000Y-63929000D01*
X118861000Y-60577000D02*
X118861000Y-61190000D01*
X118861000Y-63270000D02*
X118861000Y-63883000D01*
X118901000Y-60625000D02*
X118901000Y-61190000D01*
X118901000Y-63270000D02*
X118901000Y-63835000D01*
X118941000Y-60676000D02*
X118941000Y-61190000D01*
X118941000Y-63270000D02*
X118941000Y-63784000D01*
X118981000Y-60730000D02*
X118981000Y-61190000D01*
X118981000Y-63270000D02*
X118981000Y-63730000D01*
X119021000Y-60787000D02*
X119021000Y-61190000D01*
X119021000Y-63270000D02*
X119021000Y-63673000D01*
X119061000Y-60847000D02*
X119061000Y-61190000D01*
X119061000Y-63270000D02*
X119061000Y-63613000D01*
X119101000Y-60911000D02*
X119101000Y-61190000D01*
X119101000Y-63270000D02*
X119101000Y-63549000D01*
X119141000Y-60979000D02*
X119141000Y-61190000D01*
X119141000Y-63270000D02*
X119141000Y-63481000D01*
X119181000Y-61052000D02*
X119181000Y-63408000D01*
X119221000Y-61132000D02*
X119221000Y-63328000D01*
X119261000Y-61219000D02*
X119261000Y-63241000D01*
X119301000Y-61315000D02*
X119301000Y-63145000D01*
X119341000Y-61425000D02*
X119341000Y-63035000D01*
X119381000Y-61553000D02*
X119381000Y-62907000D01*
X119421000Y-61712000D02*
X119421000Y-62748000D01*
X119461000Y-61946000D02*
X119461000Y-62514000D01*
X119480000Y-62230000D02*
G75*
G03*
X114240000Y-62230000I-2620000J0D01*
G01*
X114240000Y-62230000D02*
G75*
G03*
X119480000Y-62230000I2620000J0D01*
G01*
%TO.C,R17*%
X100230000Y-118840000D02*
X100230000Y-112300000D01*
X100560000Y-118840000D02*
X100230000Y-118840000D01*
X102640000Y-118840000D02*
X102970000Y-118840000D01*
X102970000Y-118840000D02*
X102970000Y-112300000D01*
X100230000Y-112300000D02*
X100560000Y-112300000D01*
X102970000Y-112300000D02*
X102640000Y-112300000D01*
%TO.C,R4*%
X113130000Y-56425000D02*
X113130000Y-62965000D01*
X112800000Y-56425000D02*
X113130000Y-56425000D01*
X110720000Y-56425000D02*
X110390000Y-56425000D01*
X110390000Y-56425000D02*
X110390000Y-62965000D01*
X113130000Y-62965000D02*
X112800000Y-62965000D01*
X110390000Y-62965000D02*
X110720000Y-62965000D01*
%TO.C,R1*%
X95350000Y-56425000D02*
X95350000Y-62965000D01*
X95020000Y-56425000D02*
X95350000Y-56425000D01*
X92940000Y-56425000D02*
X92610000Y-56425000D01*
X92610000Y-56425000D02*
X92610000Y-62965000D01*
X95350000Y-62965000D02*
X95020000Y-62965000D01*
X92610000Y-62965000D02*
X92940000Y-62965000D01*
%TO.C,D1*%
X130830000Y-62505000D02*
X130830000Y-59415000D01*
X125280001Y-60959538D02*
G75*
G03*
X130829999Y-62504830I2989999J-462D01*
G01*
X130830000Y-59415170D02*
G75*
G03*
X125280000Y-60960462I-2560000J-1544830D01*
G01*
X130770000Y-60960000D02*
G75*
G03*
X125770000Y-60960000I-2500000J0D01*
G01*
X125770000Y-60960000D02*
G75*
G03*
X130770000Y-60960000I2500000J0D01*
G01*
%TO.C,R11*%
X93880000Y-118840000D02*
X93880000Y-112300000D01*
X94210000Y-118840000D02*
X93880000Y-118840000D01*
X96290000Y-118840000D02*
X96620000Y-118840000D01*
X96620000Y-118840000D02*
X96620000Y-112300000D01*
X93880000Y-112300000D02*
X94210000Y-112300000D01*
X96620000Y-112300000D02*
X96290000Y-112300000D01*
%TO.C,R15*%
X105320000Y-118840000D02*
X105320000Y-112300000D01*
X105650000Y-118840000D02*
X105320000Y-118840000D01*
X107730000Y-118840000D02*
X108060000Y-118840000D01*
X108060000Y-118840000D02*
X108060000Y-112300000D01*
X105320000Y-112300000D02*
X105650000Y-112300000D01*
X108060000Y-112300000D02*
X107730000Y-112300000D01*
%TO.C,C5*%
X131750241Y-76769000D02*
X131120241Y-76769000D01*
X131435241Y-77084000D02*
X131435241Y-76454000D01*
X128250000Y-78160000D02*
X128250000Y-71700000D01*
X128210000Y-78160000D02*
X128210000Y-71700000D01*
X128170000Y-78160000D02*
X128170000Y-71700000D01*
X128130000Y-78158000D02*
X128130000Y-71702000D01*
X128090000Y-78157000D02*
X128090000Y-71703000D01*
X128050000Y-78154000D02*
X128050000Y-71706000D01*
X128010000Y-78152000D02*
X128010000Y-75970000D01*
X128010000Y-73890000D02*
X128010000Y-71708000D01*
X127970000Y-78148000D02*
X127970000Y-75970000D01*
X127970000Y-73890000D02*
X127970000Y-71712000D01*
X127930000Y-78145000D02*
X127930000Y-75970000D01*
X127930000Y-73890000D02*
X127930000Y-71715000D01*
X127890000Y-78141000D02*
X127890000Y-75970000D01*
X127890000Y-73890000D02*
X127890000Y-71719000D01*
X127850000Y-78136000D02*
X127850000Y-75970000D01*
X127850000Y-73890000D02*
X127850000Y-71724000D01*
X127810000Y-78131000D02*
X127810000Y-75970000D01*
X127810000Y-73890000D02*
X127810000Y-71729000D01*
X127770000Y-78125000D02*
X127770000Y-75970000D01*
X127770000Y-73890000D02*
X127770000Y-71735000D01*
X127730000Y-78119000D02*
X127730000Y-75970000D01*
X127730000Y-73890000D02*
X127730000Y-71741000D01*
X127690000Y-78112000D02*
X127690000Y-75970000D01*
X127690000Y-73890000D02*
X127690000Y-71748000D01*
X127650000Y-78105000D02*
X127650000Y-75970000D01*
X127650000Y-73890000D02*
X127650000Y-71755000D01*
X127610000Y-78097000D02*
X127610000Y-75970000D01*
X127610000Y-73890000D02*
X127610000Y-71763000D01*
X127570000Y-78089000D02*
X127570000Y-75970000D01*
X127570000Y-73890000D02*
X127570000Y-71771000D01*
X127529000Y-78080000D02*
X127529000Y-75970000D01*
X127529000Y-73890000D02*
X127529000Y-71780000D01*
X127489000Y-78071000D02*
X127489000Y-75970000D01*
X127489000Y-73890000D02*
X127489000Y-71789000D01*
X127449000Y-78061000D02*
X127449000Y-75970000D01*
X127449000Y-73890000D02*
X127449000Y-71799000D01*
X127409000Y-78051000D02*
X127409000Y-75970000D01*
X127409000Y-73890000D02*
X127409000Y-71809000D01*
X127369000Y-78040000D02*
X127369000Y-75970000D01*
X127369000Y-73890000D02*
X127369000Y-71820000D01*
X127329000Y-78028000D02*
X127329000Y-75970000D01*
X127329000Y-73890000D02*
X127329000Y-71832000D01*
X127289000Y-78016000D02*
X127289000Y-75970000D01*
X127289000Y-73890000D02*
X127289000Y-71844000D01*
X127249000Y-78004000D02*
X127249000Y-75970000D01*
X127249000Y-73890000D02*
X127249000Y-71856000D01*
X127209000Y-77991000D02*
X127209000Y-75970000D01*
X127209000Y-73890000D02*
X127209000Y-71869000D01*
X127169000Y-77977000D02*
X127169000Y-75970000D01*
X127169000Y-73890000D02*
X127169000Y-71883000D01*
X127129000Y-77963000D02*
X127129000Y-75970000D01*
X127129000Y-73890000D02*
X127129000Y-71897000D01*
X127089000Y-77948000D02*
X127089000Y-75970000D01*
X127089000Y-73890000D02*
X127089000Y-71912000D01*
X127049000Y-77932000D02*
X127049000Y-75970000D01*
X127049000Y-73890000D02*
X127049000Y-71928000D01*
X127009000Y-77916000D02*
X127009000Y-75970000D01*
X127009000Y-73890000D02*
X127009000Y-71944000D01*
X126969000Y-77900000D02*
X126969000Y-75970000D01*
X126969000Y-73890000D02*
X126969000Y-71960000D01*
X126929000Y-77882000D02*
X126929000Y-75970000D01*
X126929000Y-73890000D02*
X126929000Y-71978000D01*
X126889000Y-77864000D02*
X126889000Y-75970000D01*
X126889000Y-73890000D02*
X126889000Y-71996000D01*
X126849000Y-77846000D02*
X126849000Y-75970000D01*
X126849000Y-73890000D02*
X126849000Y-72014000D01*
X126809000Y-77826000D02*
X126809000Y-75970000D01*
X126809000Y-73890000D02*
X126809000Y-72034000D01*
X126769000Y-77806000D02*
X126769000Y-75970000D01*
X126769000Y-73890000D02*
X126769000Y-72054000D01*
X126729000Y-77786000D02*
X126729000Y-75970000D01*
X126729000Y-73890000D02*
X126729000Y-72074000D01*
X126689000Y-77764000D02*
X126689000Y-75970000D01*
X126689000Y-73890000D02*
X126689000Y-72096000D01*
X126649000Y-77742000D02*
X126649000Y-75970000D01*
X126649000Y-73890000D02*
X126649000Y-72118000D01*
X126609000Y-77720000D02*
X126609000Y-75970000D01*
X126609000Y-73890000D02*
X126609000Y-72140000D01*
X126569000Y-77696000D02*
X126569000Y-75970000D01*
X126569000Y-73890000D02*
X126569000Y-72164000D01*
X126529000Y-77672000D02*
X126529000Y-75970000D01*
X126529000Y-73890000D02*
X126529000Y-72188000D01*
X126489000Y-77646000D02*
X126489000Y-75970000D01*
X126489000Y-73890000D02*
X126489000Y-72214000D01*
X126449000Y-77620000D02*
X126449000Y-75970000D01*
X126449000Y-73890000D02*
X126449000Y-72240000D01*
X126409000Y-77594000D02*
X126409000Y-75970000D01*
X126409000Y-73890000D02*
X126409000Y-72266000D01*
X126369000Y-77566000D02*
X126369000Y-75970000D01*
X126369000Y-73890000D02*
X126369000Y-72294000D01*
X126329000Y-77537000D02*
X126329000Y-75970000D01*
X126329000Y-73890000D02*
X126329000Y-72323000D01*
X126289000Y-77508000D02*
X126289000Y-75970000D01*
X126289000Y-73890000D02*
X126289000Y-72352000D01*
X126249000Y-77478000D02*
X126249000Y-75970000D01*
X126249000Y-73890000D02*
X126249000Y-72382000D01*
X126209000Y-77446000D02*
X126209000Y-75970000D01*
X126209000Y-73890000D02*
X126209000Y-72414000D01*
X126169000Y-77414000D02*
X126169000Y-75970000D01*
X126169000Y-73890000D02*
X126169000Y-72446000D01*
X126129000Y-77380000D02*
X126129000Y-75970000D01*
X126129000Y-73890000D02*
X126129000Y-72480000D01*
X126089000Y-77346000D02*
X126089000Y-75970000D01*
X126089000Y-73890000D02*
X126089000Y-72514000D01*
X126049000Y-77310000D02*
X126049000Y-75970000D01*
X126049000Y-73890000D02*
X126049000Y-72550000D01*
X126009000Y-77273000D02*
X126009000Y-75970000D01*
X126009000Y-73890000D02*
X126009000Y-72587000D01*
X125969000Y-77235000D02*
X125969000Y-75970000D01*
X125969000Y-73890000D02*
X125969000Y-72625000D01*
X125929000Y-77195000D02*
X125929000Y-72665000D01*
X125889000Y-77154000D02*
X125889000Y-72706000D01*
X125849000Y-77112000D02*
X125849000Y-72748000D01*
X125809000Y-77067000D02*
X125809000Y-72793000D01*
X125769000Y-77022000D02*
X125769000Y-72838000D01*
X125729000Y-76974000D02*
X125729000Y-72886000D01*
X125689000Y-76925000D02*
X125689000Y-72935000D01*
X125649000Y-76874000D02*
X125649000Y-72986000D01*
X125609000Y-76820000D02*
X125609000Y-73040000D01*
X125569000Y-76764000D02*
X125569000Y-73096000D01*
X125529000Y-76706000D02*
X125529000Y-73154000D01*
X125489000Y-76644000D02*
X125489000Y-73216000D01*
X125449000Y-76580000D02*
X125449000Y-73280000D01*
X125409000Y-76511000D02*
X125409000Y-73349000D01*
X125369000Y-76439000D02*
X125369000Y-73421000D01*
X125329000Y-76362000D02*
X125329000Y-73498000D01*
X125289000Y-76280000D02*
X125289000Y-73580000D01*
X125249000Y-76192000D02*
X125249000Y-73668000D01*
X125209000Y-76095000D02*
X125209000Y-73765000D01*
X125169000Y-75989000D02*
X125169000Y-73871000D01*
X125129000Y-75870000D02*
X125129000Y-73990000D01*
X125089000Y-75732000D02*
X125089000Y-74128000D01*
X125049000Y-75563000D02*
X125049000Y-74297000D01*
X125009000Y-75332000D02*
X125009000Y-74528000D01*
X131520000Y-74930000D02*
G75*
G03*
X124980000Y-74930000I-3270000J0D01*
G01*
X124980000Y-74930000D02*
G75*
G03*
X131520000Y-74930000I3270000J0D01*
G01*
%TO.C,C1*%
X90454775Y-59895000D02*
X89954775Y-59895000D01*
X90204775Y-60145000D02*
X90204775Y-59645000D01*
X87650000Y-61000000D02*
X87650000Y-55840000D01*
X87610000Y-61000000D02*
X87610000Y-55840000D01*
X87570000Y-60999000D02*
X87570000Y-55841000D01*
X87530000Y-60998000D02*
X87530000Y-55842000D01*
X87490000Y-60996000D02*
X87490000Y-55844000D01*
X87450000Y-60993000D02*
X87450000Y-55847000D01*
X87410000Y-60989000D02*
X87410000Y-59460000D01*
X87410000Y-57380000D02*
X87410000Y-55851000D01*
X87370000Y-60985000D02*
X87370000Y-59460000D01*
X87370000Y-57380000D02*
X87370000Y-55855000D01*
X87330000Y-60981000D02*
X87330000Y-59460000D01*
X87330000Y-57380000D02*
X87330000Y-55859000D01*
X87290000Y-60976000D02*
X87290000Y-59460000D01*
X87290000Y-57380000D02*
X87290000Y-55864000D01*
X87250000Y-60970000D02*
X87250000Y-59460000D01*
X87250000Y-57380000D02*
X87250000Y-55870000D01*
X87210000Y-60963000D02*
X87210000Y-59460000D01*
X87210000Y-57380000D02*
X87210000Y-55877000D01*
X87170000Y-60956000D02*
X87170000Y-59460000D01*
X87170000Y-57380000D02*
X87170000Y-55884000D01*
X87130000Y-60948000D02*
X87130000Y-59460000D01*
X87130000Y-57380000D02*
X87130000Y-55892000D01*
X87090000Y-60940000D02*
X87090000Y-59460000D01*
X87090000Y-57380000D02*
X87090000Y-55900000D01*
X87050000Y-60931000D02*
X87050000Y-59460000D01*
X87050000Y-57380000D02*
X87050000Y-55909000D01*
X87010000Y-60921000D02*
X87010000Y-59460000D01*
X87010000Y-57380000D02*
X87010000Y-55919000D01*
X86970000Y-60911000D02*
X86970000Y-59460000D01*
X86970000Y-57380000D02*
X86970000Y-55929000D01*
X86929000Y-60900000D02*
X86929000Y-59460000D01*
X86929000Y-57380000D02*
X86929000Y-55940000D01*
X86889000Y-60888000D02*
X86889000Y-59460000D01*
X86889000Y-57380000D02*
X86889000Y-55952000D01*
X86849000Y-60875000D02*
X86849000Y-59460000D01*
X86849000Y-57380000D02*
X86849000Y-55965000D01*
X86809000Y-60862000D02*
X86809000Y-59460000D01*
X86809000Y-57380000D02*
X86809000Y-55978000D01*
X86769000Y-60848000D02*
X86769000Y-59460000D01*
X86769000Y-57380000D02*
X86769000Y-55992000D01*
X86729000Y-60834000D02*
X86729000Y-59460000D01*
X86729000Y-57380000D02*
X86729000Y-56006000D01*
X86689000Y-60818000D02*
X86689000Y-59460000D01*
X86689000Y-57380000D02*
X86689000Y-56022000D01*
X86649000Y-60802000D02*
X86649000Y-59460000D01*
X86649000Y-57380000D02*
X86649000Y-56038000D01*
X86609000Y-60785000D02*
X86609000Y-59460000D01*
X86609000Y-57380000D02*
X86609000Y-56055000D01*
X86569000Y-60768000D02*
X86569000Y-59460000D01*
X86569000Y-57380000D02*
X86569000Y-56072000D01*
X86529000Y-60749000D02*
X86529000Y-59460000D01*
X86529000Y-57380000D02*
X86529000Y-56091000D01*
X86489000Y-60730000D02*
X86489000Y-59460000D01*
X86489000Y-57380000D02*
X86489000Y-56110000D01*
X86449000Y-60710000D02*
X86449000Y-59460000D01*
X86449000Y-57380000D02*
X86449000Y-56130000D01*
X86409000Y-60688000D02*
X86409000Y-59460000D01*
X86409000Y-57380000D02*
X86409000Y-56152000D01*
X86369000Y-60667000D02*
X86369000Y-59460000D01*
X86369000Y-57380000D02*
X86369000Y-56173000D01*
X86329000Y-60644000D02*
X86329000Y-59460000D01*
X86329000Y-57380000D02*
X86329000Y-56196000D01*
X86289000Y-60620000D02*
X86289000Y-59460000D01*
X86289000Y-57380000D02*
X86289000Y-56220000D01*
X86249000Y-60595000D02*
X86249000Y-59460000D01*
X86249000Y-57380000D02*
X86249000Y-56245000D01*
X86209000Y-60569000D02*
X86209000Y-59460000D01*
X86209000Y-57380000D02*
X86209000Y-56271000D01*
X86169000Y-60542000D02*
X86169000Y-59460000D01*
X86169000Y-57380000D02*
X86169000Y-56298000D01*
X86129000Y-60515000D02*
X86129000Y-59460000D01*
X86129000Y-57380000D02*
X86129000Y-56325000D01*
X86089000Y-60485000D02*
X86089000Y-59460000D01*
X86089000Y-57380000D02*
X86089000Y-56355000D01*
X86049000Y-60455000D02*
X86049000Y-59460000D01*
X86049000Y-57380000D02*
X86049000Y-56385000D01*
X86009000Y-60424000D02*
X86009000Y-59460000D01*
X86009000Y-57380000D02*
X86009000Y-56416000D01*
X85969000Y-60391000D02*
X85969000Y-59460000D01*
X85969000Y-57380000D02*
X85969000Y-56449000D01*
X85929000Y-60357000D02*
X85929000Y-59460000D01*
X85929000Y-57380000D02*
X85929000Y-56483000D01*
X85889000Y-60321000D02*
X85889000Y-59460000D01*
X85889000Y-57380000D02*
X85889000Y-56519000D01*
X85849000Y-60284000D02*
X85849000Y-59460000D01*
X85849000Y-57380000D02*
X85849000Y-56556000D01*
X85809000Y-60246000D02*
X85809000Y-59460000D01*
X85809000Y-57380000D02*
X85809000Y-56594000D01*
X85769000Y-60205000D02*
X85769000Y-59460000D01*
X85769000Y-57380000D02*
X85769000Y-56635000D01*
X85729000Y-60163000D02*
X85729000Y-59460000D01*
X85729000Y-57380000D02*
X85729000Y-56677000D01*
X85689000Y-60119000D02*
X85689000Y-59460000D01*
X85689000Y-57380000D02*
X85689000Y-56721000D01*
X85649000Y-60073000D02*
X85649000Y-59460000D01*
X85649000Y-57380000D02*
X85649000Y-56767000D01*
X85609000Y-60025000D02*
X85609000Y-59460000D01*
X85609000Y-57380000D02*
X85609000Y-56815000D01*
X85569000Y-59974000D02*
X85569000Y-59460000D01*
X85569000Y-57380000D02*
X85569000Y-56866000D01*
X85529000Y-59920000D02*
X85529000Y-59460000D01*
X85529000Y-57380000D02*
X85529000Y-56920000D01*
X85489000Y-59863000D02*
X85489000Y-59460000D01*
X85489000Y-57380000D02*
X85489000Y-56977000D01*
X85449000Y-59803000D02*
X85449000Y-59460000D01*
X85449000Y-57380000D02*
X85449000Y-57037000D01*
X85409000Y-59739000D02*
X85409000Y-59460000D01*
X85409000Y-57380000D02*
X85409000Y-57101000D01*
X85369000Y-59671000D02*
X85369000Y-59460000D01*
X85369000Y-57380000D02*
X85369000Y-57169000D01*
X85329000Y-59598000D02*
X85329000Y-57242000D01*
X85289000Y-59518000D02*
X85289000Y-57322000D01*
X85249000Y-59431000D02*
X85249000Y-57409000D01*
X85209000Y-59335000D02*
X85209000Y-57505000D01*
X85169000Y-59225000D02*
X85169000Y-57615000D01*
X85129000Y-59097000D02*
X85129000Y-57743000D01*
X85089000Y-58938000D02*
X85089000Y-57902000D01*
X85049000Y-58704000D02*
X85049000Y-58136000D01*
X90270000Y-58420000D02*
G75*
G03*
X85030000Y-58420000I-2620000J0D01*
G01*
X85030000Y-58420000D02*
G75*
G03*
X90270000Y-58420000I2620000J0D01*
G01*
%TO.C,RV2*%
X56160000Y-61540000D02*
X56160000Y-55300000D01*
X69160000Y-55300000D02*
X56160000Y-55300000D01*
X69160000Y-61540000D02*
X56160000Y-61540000D01*
X69160000Y-62040000D02*
X69160000Y-54800000D01*
X76160000Y-54800000D02*
X69160000Y-54800000D01*
X76160000Y-62040000D02*
X69160000Y-62040000D01*
X76160000Y-63290000D02*
X76160000Y-53550000D01*
X83455000Y-53550000D02*
X76160000Y-53550000D01*
X83455000Y-63290000D02*
X76160000Y-63290000D01*
X83455000Y-63290000D02*
X83455000Y-53550000D01*
%TO.C,R13*%
X87530000Y-118840000D02*
X87530000Y-112300000D01*
X87860000Y-118840000D02*
X87530000Y-118840000D01*
X89940000Y-118840000D02*
X90270000Y-118840000D01*
X90270000Y-118840000D02*
X90270000Y-112300000D01*
X87530000Y-112300000D02*
X87860000Y-112300000D01*
X90270000Y-112300000D02*
X89940000Y-112300000D01*
%TO.C,U1*%
X97740000Y-57030000D02*
X97740000Y-75050000D01*
X97740000Y-75050000D02*
X108020000Y-75050000D01*
X100230000Y-57090000D02*
X100230000Y-74990000D01*
X100230000Y-74990000D02*
X105530000Y-74990000D01*
X101880000Y-57090000D02*
X100230000Y-57090000D01*
X105530000Y-57090000D02*
X103880000Y-57090000D01*
X105530000Y-74990000D02*
X105530000Y-57090000D01*
X108020000Y-57030000D02*
X97740000Y-57030000D01*
X108020000Y-75050000D02*
X108020000Y-57030000D01*
X101880000Y-57090000D02*
G75*
G03*
X103880000Y-57090000I1000000J0D01*
G01*
%TD*%
M02*
