M48
; DRILL file {KiCad 7.0.10} date ven 2 feb 2024, 19:11:48
; FORMAT={-:-/ absolute / inch / decimal}
; #@! TF.CreationDate,2024-02-02T19:11:48+01:00
; #@! TF.GenerationSoftware,Kicad,Pcbnew,7.0.10
; #@! TF.FileFunction,Plated,1,2,PTH
FMAT,2
INCH
; #@! TA.AperFunction,Plated,PTH,ComponentDrill
T1C0.0260
; #@! TA.AperFunction,Plated,PTH,ComponentDrill
T2C0.0300
; #@! TA.AperFunction,Plated,PTH,ComponentDrill
T3C0.0315
; #@! TA.AperFunction,Plated,PTH,ComponentDrill
T4C0.0354
; #@! TA.AperFunction,Plated,PTH,ComponentDrill
T5C0.0394
; #@! TA.AperFunction,Plated,PTH,ComponentDrill
T6C0.0598
%
G90
G05
T2
X5.45Y-2.75
X5.45Y-2.85
X5.45Y-2.95
T3
X3.4016Y-2.3
X3.4016Y-2.65
X3.45Y-2.9
X3.45Y-3.075
X3.45Y-3.375
X3.5Y-2.3
X3.5Y-2.65
X3.5Y-3.525
X3.5Y-3.825
X3.5Y-3.975
X3.5Y-4.275
X3.5Y-4.4
X3.5Y-4.7
X3.625Y-3.075
X3.625Y-3.375
X3.7Y-2.2002
X3.7Y-2.5002
X3.7Y-3.55
X3.7Y-3.65
X3.7Y-3.75
X3.7Y-3.85
X3.7Y-3.95
X3.7Y-4.05
X3.7Y-4.15
X3.7016Y-4.9
X3.75Y-2.9
X3.75Y-4.4
X3.75Y-4.7
X3.8Y-4.9
X3.9004Y-2.3
X3.9004Y-2.4
X3.9004Y-2.5
X3.9004Y-2.6
X3.9004Y-2.7
X3.9004Y-2.8
X3.9004Y-2.9
X3.95Y-3.075
X3.95Y-3.375
X4.0Y-3.55
X4.0Y-3.65
X4.0Y-3.75
X4.0Y-3.85
X4.0Y-3.95
X4.0Y-4.05
X4.0Y-4.15
X4.0Y-4.4
X4.0Y-4.7
X4.2Y-3.075
X4.2Y-3.375
X4.2Y-3.525
X4.2Y-3.825
X4.2004Y-2.3
X4.2004Y-2.4
X4.2004Y-2.5
X4.2004Y-2.6
X4.2004Y-2.7
X4.2004Y-2.8
X4.2004Y-2.9
X4.2004Y-3.975
X4.2004Y-4.275
X4.2004Y-4.4
X4.2004Y-4.7
X4.4Y-2.2002
X4.4Y-2.5002
X4.4Y-2.7502
X4.4Y-3.0502
X4.5516Y-2.45
X4.5516Y-2.85
X4.65Y-2.45
X4.65Y-2.85
X4.8Y-2.7
X5.0Y-2.95
X5.0984Y-2.95
X5.1Y-2.7
T4
X5.0Y-2.4
X5.1Y-2.4
T5
X3.2Y-2.2016
X3.2Y-2.3
X3.2Y-2.3984
X3.2Y-2.9016
X3.2Y-3.0
X3.2Y-3.0984
X3.2Y-3.6016
X3.2Y-3.7
X3.2Y-3.7984
X3.2Y-4.3
X3.2Y-4.3984
X3.2Y-4.4969
X3.2Y-5.0
X3.2Y-5.0984
X3.2Y-5.1969
T6
X3.9Y-5.2
X4.1Y-5.2
T1
G00X4.8183Y-3.2543
M15
G01X4.7549Y-3.2543
M16
G05
G00X5.3254Y-3.2543
M15
G01X5.262Y-3.2543
M16
G05
M30
