M48
; DRILL file {KiCad 7.0.10} date gio 1 feb 2024, 18:49:42
; FORMAT={-:-/ absolute / inch / decimal}
; #@! TF.CreationDate,2024-02-01T18:49:42+01:00
; #@! TF.GenerationSoftware,Kicad,Pcbnew,7.0.10
; #@! TF.FileFunction,Plated,1,2,PTH
FMAT,2
INCH
; #@! TA.AperFunction,Plated,PTH,ComponentDrill
T1C0.0260
; #@! TA.AperFunction,Plated,PTH,ComponentDrill
T2C0.0315
; #@! TA.AperFunction,Plated,PTH,ComponentDrill
T3C0.0354
; #@! TA.AperFunction,Plated,PTH,ComponentDrill
T4C0.0394
; #@! TA.AperFunction,Plated,PTH,ComponentDrill
T5C0.0598
%
G90
G05
T2
X3.4Y-4.7
X3.4Y-5.0
X3.5Y-2.8002
X3.5016Y-2.4502
X3.5984Y-2.8002
X3.6Y-2.4502
X3.65Y-3.3
X3.65Y-3.6
X3.65Y-4.8
X3.6996Y-3.8502
X3.6996Y-4.1502
X3.6996Y-4.3502
X3.6996Y-4.6502
X3.7Y-5.1
X3.7Y-5.1984
X3.8Y-2.2002
X3.8Y-2.5002
X3.8Y-2.8002
X3.8Y-3.1002
X3.8996Y-3.8502
X3.8996Y-3.9502
X3.8996Y-4.0502
X3.8996Y-4.1502
X3.8996Y-4.2502
X3.8996Y-4.3502
X3.8996Y-4.4502
X3.9Y-3.3
X3.9Y-3.6
X3.95Y-4.8
X4.0004Y-2.3
X4.0004Y-2.4
X4.0004Y-2.5
X4.0004Y-2.6
X4.0004Y-2.7
X4.0004Y-2.8
X4.0004Y-2.9
X4.15Y-3.3
X4.15Y-3.6
X4.1996Y-3.8502
X4.1996Y-3.9502
X4.1996Y-4.0502
X4.1996Y-4.1502
X4.1996Y-4.2502
X4.1996Y-4.3502
X4.1996Y-4.4502
X4.2Y-4.6
X4.2Y-4.9
X4.3004Y-2.3
X4.3004Y-2.4
X4.3004Y-2.5
X4.3004Y-2.6
X4.3004Y-2.7
X4.3004Y-2.8
X4.3004Y-2.9
X4.3996Y-3.85
X4.3996Y-4.15
X4.4Y-3.3
X4.4Y-3.6
X4.4Y-4.3
X4.4Y-4.6
X4.4Y-4.75
X4.4Y-5.05
X4.5Y-2.2002
X4.5Y-2.5002
X4.5Y-2.7502
X4.5Y-3.0502
X4.7016Y-2.4002
X4.7016Y-2.8002
X4.8Y-2.4002
X4.8Y-2.8002
X5.1Y-2.8
X5.1984Y-2.8
X5.45Y-2.2
X5.7Y-2.4
X5.7Y-2.7
X5.75Y-2.2
T3
X5.2Y-2.4
X5.3Y-2.4
T4
X3.2Y-2.5531
X3.2Y-2.6516
X3.2Y-2.75
X3.2Y-3.3531
X3.2Y-3.4516
X3.2Y-3.55
X3.2Y-4.1531
X3.2Y-4.2516
X3.2Y-4.35
X3.2Y-4.9531
X3.2Y-5.0516
X3.2Y-5.15
T5
X3.9Y-5.45
X4.1Y-5.45
T1
G00X5.0246Y-3.2
M15
G01X4.9612Y-3.2
M16
G05
G00X5.5317Y-3.2
M15
G01X5.4683Y-3.2
M16
G05
M30
