%TF.GenerationSoftware,KiCad,Pcbnew,7.0.10*%
%TF.CreationDate,2024-02-02T19:11:57+01:00*%
%TF.ProjectId,lux106_1_1,6c757831-3036-45f3-915f-312e6b696361,rev?*%
%TF.SameCoordinates,Original*%
%TF.FileFunction,Copper,L1,Top*%
%TF.FilePolarity,Positive*%
%FSLAX46Y46*%
G04 Gerber Fmt 4.6, Leading zero omitted, Abs format (unit mm)*
G04 Created by KiCad (PCBNEW 7.0.10) date 2024-02-02 19:11:57*
%MOMM*%
%LPD*%
G01*
G04 APERTURE LIST*
G04 Aperture macros list*
%AMRoundRect*
0 Rectangle with rounded corners*
0 $1 Rounding radius*
0 $2 $3 $4 $5 $6 $7 $8 $9 X,Y pos of 4 corners*
0 Add a 4 corners polygon primitive as box body*
4,1,4,$2,$3,$4,$5,$6,$7,$8,$9,$2,$3,0*
0 Add four circle primitives for the rounded corners*
1,1,$1+$1,$2,$3*
1,1,$1+$1,$4,$5*
1,1,$1+$1,$6,$7*
1,1,$1+$1,$8,$9*
0 Add four rect primitives between the rounded corners*
20,1,$1+$1,$2,$3,$4,$5,0*
20,1,$1+$1,$4,$5,$6,$7,0*
20,1,$1+$1,$6,$7,$8,$9,0*
20,1,$1+$1,$8,$9,$2,$3,0*%
G04 Aperture macros list end*
%TA.AperFunction,ComponentPad*%
%ADD10RoundRect,0.450000X0.450000X0.450000X-0.450000X0.450000X-0.450000X-0.450000X0.450000X-0.450000X0*%
%TD*%
%TA.AperFunction,ComponentPad*%
%ADD11C,1.800000*%
%TD*%
%TA.AperFunction,ComponentPad*%
%ADD12C,1.600000*%
%TD*%
%TA.AperFunction,ComponentPad*%
%ADD13O,1.600000X1.600000*%
%TD*%
%TA.AperFunction,ComponentPad*%
%ADD14R,3.000000X3.000000*%
%TD*%
%TA.AperFunction,ComponentPad*%
%ADD15C,3.000000*%
%TD*%
%TA.AperFunction,WasherPad*%
%ADD16C,2.300000*%
%TD*%
%TA.AperFunction,ComponentPad*%
%ADD17R,4.020000X2.410000*%
%TD*%
%TA.AperFunction,ComponentPad*%
%ADD18O,4.020000X2.410000*%
%TD*%
%TA.AperFunction,ComponentPad*%
%ADD19R,1.600000X1.600000*%
%TD*%
%TA.AperFunction,ComponentPad*%
%ADD20RoundRect,0.381000X-0.381000X-0.381000X0.381000X-0.381000X0.381000X0.381000X-0.381000X0.381000X0*%
%TD*%
%TA.AperFunction,ComponentPad*%
%ADD21C,1.524000*%
%TD*%
%TA.AperFunction,ComponentPad*%
%ADD22R,1.800000X1.800000*%
%TD*%
%TA.AperFunction,Conductor*%
%ADD23C,0.250000*%
%TD*%
%TA.AperFunction,Conductor*%
%ADD24C,0.500000*%
%TD*%
G04 APERTURE END LIST*
D10*
%TO.P,RV4,1,1*%
%TO.N,unconnected-(RV4-Pad1)*%
X81280000Y-91480000D03*
D11*
%TO.P,RV4,2,2*%
%TO.N,Net-(R4-Pad1)*%
X81280000Y-93980000D03*
%TO.P,RV4,3,3*%
%TO.N,Net-(C3-Pad1)*%
X81280000Y-96480000D03*
%TD*%
D10*
%TO.P,RV1,1,1*%
%TO.N,unconnected-(RV1-Pad1)*%
X81280000Y-73700000D03*
D11*
%TO.P,RV1,2,2*%
%TO.N,Net-(R2-Pad1)*%
X81280000Y-76200000D03*
%TO.P,RV1,3,3*%
%TO.N,Net-(C2-Pad1)*%
X81280000Y-78700000D03*
%TD*%
D12*
%TO.P,R6,1*%
%TO.N,Net-(U2C-+)*%
X88900000Y-97155000D03*
D13*
%TO.P,R6,2*%
%TO.N,Net-(C1-Pad1)*%
X88900000Y-89535000D03*
%TD*%
D14*
%TO.P,J1,1,Pin_1*%
%TO.N,GND*%
X104140000Y-132080000D03*
D15*
%TO.P,J1,2,Pin_2*%
%TO.N,Net-(J1-Pin_2)*%
X99060000Y-132080000D03*
%TD*%
D12*
%TO.P,R7,1*%
%TO.N,Net-(U2D-+)*%
X92075000Y-85725000D03*
D13*
%TO.P,R7,2*%
%TO.N,Net-(C2-Pad1)*%
X92075000Y-78105000D03*
%TD*%
D12*
%TO.P,R8,1*%
%TO.N,Net-(U2B-+)*%
X100330000Y-85725000D03*
D13*
%TO.P,R8,2*%
%TO.N,Net-(C4-Pad1)*%
X100330000Y-78105000D03*
%TD*%
D12*
%TO.P,C6,1*%
%TO.N,Net-(J1-Pin_2)*%
X96520000Y-124460000D03*
%TO.P,C6,2*%
%TO.N,Net-(C6-Pad2)*%
X94020000Y-124460000D03*
%TD*%
%TO.P,R3,1*%
%TO.N,Net-(R3-Pad1)*%
X111760000Y-77475000D03*
D13*
%TO.P,R3,2*%
%TO.N,Net-(R3-Pad2)*%
X111760000Y-69855000D03*
%TD*%
D12*
%TO.P,R16,1*%
%TO.N,Net-(R16-Pad1)*%
X106690000Y-108585000D03*
D13*
%TO.P,R16,2*%
%TO.N,Net-(U2A--)*%
X106690000Y-100965000D03*
%TD*%
D16*
%TO.P,BT1,*%
%TO.N,*%
X116840000Y-94950000D03*
X139190000Y-108440000D03*
X116840000Y-121920000D03*
D17*
%TO.P,BT1,1,+*%
%TO.N,VCC*%
X134460000Y-82660000D03*
D18*
%TO.P,BT1,2,-*%
%TO.N,Net-(BT1--)*%
X121580000Y-82660000D03*
%TD*%
D12*
%TO.P,R12,1*%
%TO.N,Net-(R12-Pad1)*%
X88900000Y-108585000D03*
D13*
%TO.P,R12,2*%
%TO.N,Net-(U2D--)*%
X88900000Y-100965000D03*
%TD*%
D19*
%TO.P,U2,1*%
%TO.N,Net-(R16-Pad1)*%
X101600000Y-105410000D03*
D13*
%TO.P,U2,2,-*%
%TO.N,Net-(U2A--)*%
X101600000Y-102870000D03*
%TO.P,U2,3,+*%
%TO.N,Net-(U2A-+)*%
X101600000Y-100330000D03*
%TO.P,U2,4,V+*%
%TO.N,VCC*%
X101600000Y-97790000D03*
%TO.P,U2,5,+*%
%TO.N,Net-(U2B-+)*%
X101600000Y-95250000D03*
%TO.P,U2,6,-*%
%TO.N,Net-(U2B--)*%
X101600000Y-92710000D03*
%TO.P,U2,7*%
%TO.N,Net-(R14-Pad1)*%
X101600000Y-90170000D03*
%TO.P,U2,8*%
%TO.N,Net-(R10-Pad1)*%
X93980000Y-90170000D03*
%TO.P,U2,9,-*%
%TO.N,Net-(U2C--)*%
X93980000Y-92710000D03*
%TO.P,U2,10,+*%
%TO.N,Net-(U2C-+)*%
X93980000Y-95250000D03*
%TO.P,U2,11,V-*%
%TO.N,GND*%
X93980000Y-97790000D03*
%TO.P,U2,12,+*%
%TO.N,Net-(U2D-+)*%
X93980000Y-100330000D03*
%TO.P,U2,13,-*%
%TO.N,Net-(U2D--)*%
X93980000Y-102870000D03*
%TO.P,U2,14*%
%TO.N,Net-(R12-Pad1)*%
X93980000Y-105410000D03*
%TD*%
D20*
%TO.P,SW2,1,A*%
%TO.N,GND*%
X138430000Y-69850000D03*
D21*
%TO.P,SW2,2,B*%
%TO.N,Net-(BT1--)*%
X138430000Y-72390000D03*
%TO.P,SW2,3,C*%
%TO.N,unconnected-(SW2-C-Pad3)*%
X138430000Y-74930000D03*
%TD*%
D10*
%TO.P,RV5,1,1*%
%TO.N,unconnected-(RV5-Pad1)*%
X81280000Y-127000000D03*
D11*
%TO.P,RV5,2,2*%
%TO.N,Net-(C6-Pad2)*%
X81280000Y-129500000D03*
%TO.P,RV5,3,3*%
%TO.N,OUT*%
X81280000Y-132000000D03*
%TD*%
D12*
%TO.P,R10,1*%
%TO.N,Net-(R10-Pad1)*%
X87630000Y-78105000D03*
D13*
%TO.P,R10,2*%
%TO.N,Net-(U2C--)*%
X87630000Y-85725000D03*
%TD*%
D12*
%TO.P,R5,1*%
%TO.N,GND*%
X121920000Y-68580000D03*
D13*
%TO.P,R5,2*%
%TO.N,Net-(D1-K)*%
X129540000Y-68580000D03*
%TD*%
D10*
%TO.P,RV3,1,1*%
%TO.N,unconnected-(RV3-Pad1)*%
X81280000Y-109220000D03*
D11*
%TO.P,RV3,2,2*%
%TO.N,Net-(R3-Pad1)*%
X81280000Y-111720000D03*
%TO.P,RV3,3,3*%
%TO.N,Net-(C4-Pad1)*%
X81280000Y-114220000D03*
%TD*%
D12*
%TO.P,R14,1*%
%TO.N,Net-(R14-Pad1)*%
X106680000Y-89535000D03*
D13*
%TO.P,R14,2*%
%TO.N,Net-(U2B--)*%
X106680000Y-97155000D03*
%TD*%
D19*
%TO.P,C4,1*%
%TO.N,Net-(C4-Pad1)*%
X115610000Y-72390000D03*
D12*
%TO.P,C4,2*%
%TO.N,GND*%
X118110000Y-72390000D03*
%TD*%
D19*
%TO.P,C2,1*%
%TO.N,Net-(C2-Pad1)*%
X88900000Y-67310000D03*
D12*
%TO.P,C2,2*%
%TO.N,GND*%
X86400000Y-67310000D03*
%TD*%
%TO.P,R2,1*%
%TO.N,Net-(R2-Pad1)*%
X87630000Y-73660000D03*
D13*
%TO.P,R2,2*%
%TO.N,Net-(R2-Pad2)*%
X95250000Y-73660000D03*
%TD*%
D12*
%TO.P,R9,1*%
%TO.N,Net-(U2A-+)*%
X106680000Y-85725000D03*
D13*
%TO.P,R9,2*%
%TO.N,Net-(C3-Pad1)*%
X106680000Y-78105000D03*
%TD*%
D19*
%TO.P,C3,1*%
%TO.N,Net-(C3-Pad1)*%
X115610000Y-62230000D03*
D12*
%TO.P,C3,2*%
%TO.N,GND*%
X118110000Y-62230000D03*
%TD*%
%TO.P,R17,1*%
%TO.N,OUT*%
X101600000Y-119380000D03*
D13*
%TO.P,R17,2*%
%TO.N,Net-(R16-Pad1)*%
X101600000Y-111760000D03*
%TD*%
D12*
%TO.P,R4,1*%
%TO.N,Net-(R4-Pad1)*%
X111760000Y-55885000D03*
D13*
%TO.P,R4,2*%
%TO.N,Net-(R4-Pad2)*%
X111760000Y-63505000D03*
%TD*%
D12*
%TO.P,R1,1*%
%TO.N,Net-(R1-Pad1)*%
X93980000Y-55885000D03*
D13*
%TO.P,R1,2*%
%TO.N,Net-(R1-Pad2)*%
X93980000Y-63505000D03*
%TD*%
D22*
%TO.P,D1,1,K*%
%TO.N,Net-(D1-K)*%
X129540000Y-60960000D03*
D11*
%TO.P,D1,2,A*%
%TO.N,VCC*%
X127000000Y-60960000D03*
%TD*%
D12*
%TO.P,R11,1*%
%TO.N,OUT*%
X95250000Y-119380000D03*
D13*
%TO.P,R11,2*%
%TO.N,Net-(R10-Pad1)*%
X95250000Y-111760000D03*
%TD*%
D12*
%TO.P,R15,1*%
%TO.N,OUT*%
X106690000Y-119380000D03*
D13*
%TO.P,R15,2*%
%TO.N,Net-(R14-Pad1)*%
X106690000Y-111760000D03*
%TD*%
D19*
%TO.P,C5,1*%
%TO.N,VCC*%
X129500000Y-74930000D03*
D12*
%TO.P,C5,2*%
%TO.N,Net-(BT1--)*%
X127000000Y-74930000D03*
%TD*%
D19*
%TO.P,C1,1*%
%TO.N,Net-(C1-Pad1)*%
X88900000Y-58420000D03*
D12*
%TO.P,C1,2*%
%TO.N,GND*%
X86400000Y-58420000D03*
%TD*%
D10*
%TO.P,RV2,1,1*%
%TO.N,unconnected-(RV2-Pad1)*%
X81280000Y-55920000D03*
D11*
%TO.P,RV2,2,2*%
%TO.N,Net-(R1-Pad1)*%
X81280000Y-58420000D03*
%TO.P,RV2,3,3*%
%TO.N,Net-(C1-Pad1)*%
X81280000Y-60920000D03*
%TD*%
D12*
%TO.P,R13,1*%
%TO.N,OUT*%
X88900000Y-119380000D03*
D13*
%TO.P,R13,2*%
%TO.N,Net-(R12-Pad1)*%
X88900000Y-111760000D03*
%TD*%
D19*
%TO.P,U1,1*%
%TO.N,Net-(C1-Pad1)*%
X99070000Y-58420000D03*
D13*
%TO.P,U1,2*%
%TO.N,Net-(R1-Pad2)*%
X99070000Y-60960000D03*
%TO.P,U1,3*%
%TO.N,unconnected-(U1-Pad3)*%
X99070000Y-63500000D03*
%TO.P,U1,4*%
%TO.N,unconnected-(U1-Pad4)*%
X99070000Y-66040000D03*
%TO.P,U1,5*%
%TO.N,Net-(C2-Pad1)*%
X99070000Y-68580000D03*
%TO.P,U1,6*%
%TO.N,Net-(R2-Pad2)*%
X99070000Y-71120000D03*
%TO.P,U1,7,VSS*%
%TO.N,GND*%
X99070000Y-73660000D03*
%TO.P,U1,8*%
%TO.N,Net-(R3-Pad2)*%
X106690000Y-73660000D03*
%TO.P,U1,9*%
%TO.N,Net-(C4-Pad1)*%
X106690000Y-71120000D03*
%TO.P,U1,10*%
%TO.N,unconnected-(U1-Pad10)*%
X106690000Y-68580000D03*
%TO.P,U1,11*%
%TO.N,unconnected-(U1-Pad11)*%
X106690000Y-66040000D03*
%TO.P,U1,12*%
%TO.N,Net-(R4-Pad2)*%
X106690000Y-63500000D03*
%TO.P,U1,13*%
%TO.N,Net-(C3-Pad1)*%
X106690000Y-60960000D03*
%TO.P,U1,14,VDD*%
%TO.N,VCC*%
X106690000Y-58420000D03*
%TD*%
D23*
%TO.N,Net-(R12-Pad1)*%
X88900000Y-111760000D02*
X88900000Y-108585000D01*
%TO.N,Net-(R14-Pad1)*%
X105498700Y-109391800D02*
X106690000Y-110583100D01*
X105498700Y-90716300D02*
X105498700Y-109391800D01*
X106680000Y-89535000D02*
X105498700Y-90716300D01*
X106690000Y-111760000D02*
X106690000Y-110583100D01*
%TO.N,Net-(R10-Pad1)*%
X91986300Y-82461300D02*
X87630000Y-78105000D01*
X91986300Y-84137500D02*
X91986300Y-82461300D01*
X90869500Y-85254300D02*
X91986300Y-84137500D01*
X90869500Y-106202600D02*
X90869500Y-85254300D01*
X95250000Y-110583100D02*
X90869500Y-106202600D01*
X93980000Y-85921700D02*
X93980000Y-90170000D01*
X92195800Y-84137500D02*
X93980000Y-85921700D01*
X91986300Y-84137500D02*
X92195800Y-84137500D01*
X95250000Y-111760000D02*
X95250000Y-110583100D01*
%TO.N,Net-(U2B-+)*%
X100330000Y-93170900D02*
X100330000Y-85725000D01*
X101232200Y-94073100D02*
X100330000Y-93170900D01*
X101600000Y-94073100D02*
X101232200Y-94073100D01*
X101600000Y-95250000D02*
X101600000Y-94073100D01*
%TO.N,Net-(U2A-+)*%
X102776900Y-89628100D02*
X106680000Y-85725000D01*
X102776900Y-98344100D02*
X102776900Y-89628100D01*
X101967900Y-99153100D02*
X102776900Y-98344100D01*
X101600000Y-99153100D02*
X101967900Y-99153100D01*
X101600000Y-100330000D02*
X101600000Y-99153100D01*
%TO.N,Net-(R3-Pad2)*%
X107866900Y-72571200D02*
X110583100Y-69855000D01*
X107866900Y-73660000D02*
X107866900Y-72571200D01*
X111760000Y-69855000D02*
X110583100Y-69855000D01*
X106690000Y-73660000D02*
X107866900Y-73660000D01*
%TO.N,Net-(R2-Pad2)*%
X97893100Y-72193800D02*
X96426900Y-73660000D01*
X97893100Y-71120000D02*
X97893100Y-72193800D01*
X95250000Y-73660000D02*
X96426900Y-73660000D01*
X99070000Y-71120000D02*
X97893100Y-71120000D01*
%TO.N,Net-(R2-Pad1)*%
X85090000Y-76200000D02*
X81280000Y-76200000D01*
X87630000Y-73660000D02*
X85090000Y-76200000D01*
%TO.N,Net-(R1-Pad2)*%
X95348100Y-63505000D02*
X93980000Y-63505000D01*
X97893100Y-60960000D02*
X95348100Y-63505000D01*
X99070000Y-60960000D02*
X97893100Y-60960000D01*
%TO.N,Net-(U2D-+)*%
X93614200Y-99153100D02*
X93980000Y-99153100D01*
X92075000Y-97613900D02*
X93614200Y-99153100D01*
X92075000Y-85725000D02*
X92075000Y-97613900D01*
X93980000Y-100330000D02*
X93980000Y-99153100D01*
%TO.N,Net-(D1-K)*%
X129540000Y-60960000D02*
X129540000Y-68580000D01*
%TO.N,OUT*%
X88900000Y-124380000D02*
X81280000Y-132000000D01*
X88900000Y-119380000D02*
X88900000Y-124380000D01*
%TO.N,Net-(J1-Pin_2)*%
X96520000Y-129540000D02*
X99060000Y-132080000D01*
X96520000Y-124460000D02*
X96520000Y-129540000D01*
%TO.N,Net-(C4-Pad1)*%
X101506900Y-77169600D02*
X101506900Y-78105000D01*
X106379600Y-72296900D02*
X101506900Y-77169600D01*
X106690000Y-72296900D02*
X106379600Y-72296900D01*
X106690000Y-71120000D02*
X106690000Y-72296900D01*
X100330000Y-78105000D02*
X101506900Y-78105000D01*
%TO.N,Net-(C3-Pad1)*%
X115610000Y-67998100D02*
X115610000Y-62230000D01*
X106680000Y-76928100D02*
X115610000Y-67998100D01*
X106680000Y-78105000D02*
X106680000Y-76928100D01*
%TO.N,Net-(C2-Pad1)*%
X88900000Y-67310000D02*
X88900000Y-68486900D01*
X88900000Y-68486900D02*
X88900000Y-76876000D01*
X89669100Y-76876000D02*
X88900000Y-76876000D01*
X90898100Y-78105000D02*
X89669100Y-76876000D01*
X83104000Y-76876000D02*
X81280000Y-78700000D01*
X88900000Y-76876000D02*
X83104000Y-76876000D01*
X92075000Y-78105000D02*
X90898100Y-78105000D01*
D24*
%TO.N,GND*%
X86400000Y-67310000D02*
X86400000Y-58420000D01*
X118110000Y-64770000D02*
X118110000Y-62230000D01*
X121920000Y-68580000D02*
X118110000Y-64770000D01*
X99070000Y-73660000D02*
X99070000Y-74961900D01*
X104140000Y-132080000D02*
X104140000Y-130078100D01*
X93980000Y-97790000D02*
X95281900Y-97790000D01*
X98530400Y-97790000D02*
X95281900Y-97790000D01*
X98530400Y-75501500D02*
X98530400Y-97790000D01*
X99070000Y-74961900D02*
X98530400Y-75501500D01*
X98530400Y-124468500D02*
X104140000Y-130078100D01*
X98530400Y-97790000D02*
X98530400Y-124468500D01*
D23*
%TO.N,Net-(C1-Pad1)*%
X88560700Y-88358100D02*
X88900000Y-88358100D01*
X79962900Y-79760300D02*
X88560700Y-88358100D01*
X79962900Y-62237100D02*
X79962900Y-79760300D01*
X81280000Y-60920000D02*
X79962900Y-62237100D01*
X88900000Y-89535000D02*
X88900000Y-88358100D01*
D24*
%TO.N,VCC*%
X127000000Y-71128100D02*
X129500000Y-73628100D01*
X127000000Y-60960000D02*
X127000000Y-71128100D01*
X129500000Y-74930000D02*
X129500000Y-73628100D01*
%TD*%
%TA.AperFunction,NonConductor*%
G36*
X142516061Y-53340597D02*
G01*
X142692941Y-53358018D01*
X142716769Y-53362757D01*
X142881001Y-53412576D01*
X142903453Y-53421877D01*
X143054798Y-53502772D01*
X143075010Y-53516277D01*
X143207666Y-53625145D01*
X143224854Y-53642333D01*
X143333722Y-53774989D01*
X143347227Y-53795201D01*
X143428121Y-53946543D01*
X143437424Y-53969001D01*
X143487240Y-54133224D01*
X143491982Y-54157065D01*
X143509403Y-54333938D01*
X143510000Y-54346092D01*
X143510000Y-134883907D01*
X143509403Y-134896061D01*
X143491982Y-135072934D01*
X143487240Y-135096775D01*
X143437424Y-135260998D01*
X143428121Y-135283456D01*
X143347227Y-135434798D01*
X143333722Y-135455010D01*
X143224854Y-135587666D01*
X143207666Y-135604854D01*
X143075010Y-135713722D01*
X143054798Y-135727227D01*
X142903456Y-135808121D01*
X142880998Y-135817424D01*
X142716775Y-135867240D01*
X142692934Y-135871982D01*
X142516061Y-135889403D01*
X142503907Y-135890000D01*
X78476093Y-135890000D01*
X78463939Y-135889403D01*
X78287065Y-135871982D01*
X78263224Y-135867240D01*
X78099001Y-135817424D01*
X78076543Y-135808121D01*
X77925201Y-135727227D01*
X77904989Y-135713722D01*
X77772333Y-135604854D01*
X77755145Y-135587666D01*
X77646277Y-135455010D01*
X77632772Y-135434798D01*
X77551878Y-135283456D01*
X77542575Y-135260998D01*
X77492757Y-135096769D01*
X77488018Y-135072941D01*
X77470597Y-134896061D01*
X77470000Y-134883907D01*
X77470000Y-132000005D01*
X79866673Y-132000005D01*
X79885948Y-132232622D01*
X79943251Y-132458907D01*
X80037015Y-132672668D01*
X80164686Y-132868084D01*
X80322776Y-133039814D01*
X80322780Y-133039818D01*
X80506983Y-133183190D01*
X80506985Y-133183191D01*
X80506988Y-133183193D01*
X80626331Y-133247777D01*
X80712273Y-133294287D01*
X80807463Y-133326966D01*
X80933045Y-133370079D01*
X80933047Y-133370079D01*
X80933049Y-133370080D01*
X81163288Y-133408500D01*
X81163289Y-133408500D01*
X81396711Y-133408500D01*
X81396712Y-133408500D01*
X81626951Y-133370080D01*
X81847727Y-133294287D01*
X82053017Y-133183190D01*
X82237220Y-133039818D01*
X82395314Y-132868083D01*
X82522984Y-132672669D01*
X82616749Y-132458907D01*
X82674051Y-132232626D01*
X82686698Y-132080000D01*
X82693087Y-132002903D01*
X87765793Y-132002903D01*
X87775672Y-132310970D01*
X87775672Y-132310975D01*
X87775673Y-132310978D01*
X87824867Y-132615261D01*
X87869137Y-132764419D01*
X87912571Y-132910763D01*
X88037333Y-133192601D01*
X88037337Y-133192609D01*
X88197123Y-133456193D01*
X88197127Y-133456198D01*
X88197133Y-133456207D01*
X88389297Y-133697174D01*
X88389299Y-133697176D01*
X88389303Y-133697180D01*
X88389304Y-133697181D01*
X88610724Y-133911614D01*
X88770540Y-134030888D01*
X88857741Y-134095968D01*
X88857743Y-134095969D01*
X88857747Y-134095972D01*
X89126318Y-134247228D01*
X89267057Y-134304207D01*
X89412018Y-134362897D01*
X89412023Y-134362898D01*
X89412025Y-134362899D01*
X89710179Y-134441084D01*
X90015883Y-134480500D01*
X90015890Y-134480500D01*
X90246971Y-134480500D01*
X90246974Y-134480500D01*
X90246978Y-134480499D01*
X90246996Y-134480499D01*
X90349700Y-134473904D01*
X90477601Y-134465693D01*
X90780151Y-134406772D01*
X91072683Y-134309644D01*
X91072689Y-134309640D01*
X91072693Y-134309640D01*
X91263571Y-134217717D01*
X91350393Y-134175907D01*
X91608720Y-134007754D01*
X91843424Y-133807948D01*
X92050650Y-133579769D01*
X92226996Y-133326963D01*
X92369567Y-133053683D01*
X92476020Y-132764415D01*
X92544609Y-132463908D01*
X92574206Y-132157098D01*
X92564327Y-131849022D01*
X92515133Y-131544739D01*
X92427431Y-131249244D01*
X92427429Y-131249239D01*
X92427428Y-131249236D01*
X92302666Y-130967398D01*
X92302663Y-130967391D01*
X92142877Y-130703807D01*
X92142870Y-130703799D01*
X92142866Y-130703792D01*
X91950702Y-130462825D01*
X91950700Y-130462823D01*
X91729279Y-130248389D01*
X91729276Y-130248386D01*
X91600450Y-130152241D01*
X91482258Y-130064031D01*
X91482253Y-130064028D01*
X91213682Y-129912772D01*
X91141289Y-129883463D01*
X90927981Y-129797102D01*
X90752358Y-129751049D01*
X90629821Y-129718916D01*
X90324117Y-129679500D01*
X90093026Y-129679500D01*
X90093003Y-129679500D01*
X89862406Y-129694306D01*
X89862389Y-129694308D01*
X89559854Y-129753226D01*
X89559849Y-129753228D01*
X89267310Y-129850358D01*
X89267306Y-129850359D01*
X88989613Y-129984089D01*
X88989605Y-129984094D01*
X88731286Y-130152241D01*
X88731276Y-130152248D01*
X88496581Y-130352046D01*
X88496571Y-130352056D01*
X88289354Y-130580225D01*
X88289350Y-130580229D01*
X88113005Y-130833033D01*
X88113003Y-130833037D01*
X87970432Y-131106319D01*
X87970429Y-131106326D01*
X87863981Y-131395580D01*
X87863979Y-131395590D01*
X87795391Y-131696089D01*
X87765794Y-132002902D01*
X87765793Y-132002903D01*
X82693087Y-132002903D01*
X82693327Y-132000005D01*
X82693327Y-131999994D01*
X82674052Y-131767382D01*
X82674050Y-131767370D01*
X82637694Y-131623804D01*
X82640319Y-131553984D01*
X82670217Y-131505685D01*
X89288815Y-124887087D01*
X89301180Y-124877183D01*
X89301006Y-124876973D01*
X89307009Y-124872005D01*
X89307018Y-124872000D01*
X89353677Y-124822311D01*
X89356356Y-124819546D01*
X89376134Y-124799770D01*
X89378660Y-124796512D01*
X89386246Y-124787629D01*
X89416586Y-124755321D01*
X89426423Y-124737424D01*
X89437097Y-124721174D01*
X89449613Y-124705041D01*
X89467207Y-124664380D01*
X89472341Y-124653900D01*
X89493695Y-124615060D01*
X89498774Y-124595274D01*
X89505072Y-124576882D01*
X89513181Y-124558145D01*
X89520112Y-124514375D01*
X89522476Y-124502962D01*
X89533500Y-124460030D01*
X89533500Y-124439609D01*
X89535027Y-124420209D01*
X89538219Y-124400057D01*
X89534050Y-124355949D01*
X89533500Y-124344281D01*
X89533500Y-120598352D01*
X89553185Y-120531313D01*
X89586373Y-120496779D01*
X89744300Y-120386198D01*
X89906198Y-120224300D01*
X90037523Y-120036749D01*
X90134284Y-119829243D01*
X90193543Y-119608087D01*
X90213498Y-119380001D01*
X93936502Y-119380001D01*
X93956456Y-119608081D01*
X93956457Y-119608089D01*
X94015714Y-119829238D01*
X94015718Y-119829249D01*
X94112475Y-120036745D01*
X94112477Y-120036749D01*
X94243802Y-120224300D01*
X94405700Y-120386198D01*
X94593251Y-120517523D01*
X94714571Y-120574095D01*
X94800750Y-120614281D01*
X94800752Y-120614281D01*
X94800757Y-120614284D01*
X95021913Y-120673543D01*
X95184832Y-120687796D01*
X95249998Y-120693498D01*
X95250000Y-120693498D01*
X95250002Y-120693498D01*
X95307021Y-120688509D01*
X95478087Y-120673543D01*
X95699243Y-120614284D01*
X95906749Y-120517523D01*
X96094300Y-120386198D01*
X96256198Y-120224300D01*
X96387523Y-120036749D01*
X96484284Y-119829243D01*
X96543543Y-119608087D01*
X96563498Y-119380000D01*
X96543543Y-119151913D01*
X96484284Y-118930757D01*
X96387523Y-118723251D01*
X96256198Y-118535700D01*
X96094300Y-118373802D01*
X95906749Y-118242477D01*
X95906745Y-118242475D01*
X95699249Y-118145718D01*
X95699238Y-118145714D01*
X95478089Y-118086457D01*
X95478081Y-118086456D01*
X95250002Y-118066502D01*
X95249998Y-118066502D01*
X95021918Y-118086456D01*
X95021910Y-118086457D01*
X94800761Y-118145714D01*
X94800750Y-118145718D01*
X94593254Y-118242475D01*
X94593252Y-118242476D01*
X94593251Y-118242477D01*
X94405700Y-118373802D01*
X94405698Y-118373803D01*
X94405695Y-118373806D01*
X94243806Y-118535695D01*
X94112476Y-118723252D01*
X94112475Y-118723254D01*
X94015718Y-118930750D01*
X94015714Y-118930761D01*
X93956457Y-119151910D01*
X93956456Y-119151918D01*
X93936502Y-119379998D01*
X93936502Y-119380001D01*
X90213498Y-119380001D01*
X90213498Y-119380000D01*
X90193543Y-119151913D01*
X90134284Y-118930757D01*
X90037523Y-118723251D01*
X89906198Y-118535700D01*
X89744300Y-118373802D01*
X89556749Y-118242477D01*
X89556745Y-118242475D01*
X89349249Y-118145718D01*
X89349238Y-118145714D01*
X89128089Y-118086457D01*
X89128081Y-118086456D01*
X88900002Y-118066502D01*
X88899998Y-118066502D01*
X88671918Y-118086456D01*
X88671910Y-118086457D01*
X88450761Y-118145714D01*
X88450750Y-118145718D01*
X88243254Y-118242475D01*
X88243252Y-118242476D01*
X88243251Y-118242477D01*
X88055700Y-118373802D01*
X88055698Y-118373803D01*
X88055695Y-118373806D01*
X87893806Y-118535695D01*
X87762476Y-118723252D01*
X87762475Y-118723254D01*
X87665718Y-118930750D01*
X87665714Y-118930761D01*
X87606457Y-119151910D01*
X87606456Y-119151918D01*
X87586502Y-119379998D01*
X87586502Y-119380001D01*
X87606456Y-119608081D01*
X87606457Y-119608089D01*
X87665714Y-119829238D01*
X87665718Y-119829249D01*
X87762475Y-120036745D01*
X87762477Y-120036749D01*
X87893802Y-120224300D01*
X88055700Y-120386198D01*
X88213625Y-120496779D01*
X88257249Y-120551354D01*
X88266500Y-120598352D01*
X88266500Y-124066232D01*
X88246815Y-124133271D01*
X88230181Y-124153913D01*
X82897090Y-129487003D01*
X82835767Y-129520488D01*
X82766075Y-129515504D01*
X82710142Y-129473632D01*
X82685833Y-129409564D01*
X82674051Y-129267374D01*
X82616749Y-129041093D01*
X82522984Y-128827331D01*
X82395314Y-128631917D01*
X82395313Y-128631915D01*
X82237223Y-128460185D01*
X82233444Y-128456706D01*
X82234956Y-128455063D01*
X82199644Y-128405969D01*
X82195988Y-128336195D01*
X82230635Y-128275520D01*
X82254985Y-128257995D01*
X82254927Y-128257907D01*
X82257073Y-128256492D01*
X82259221Y-128254946D01*
X82260176Y-128254448D01*
X82411257Y-128131257D01*
X82534448Y-127980176D01*
X82624704Y-127807389D01*
X82678331Y-127619970D01*
X82688500Y-127505596D01*
X82688500Y-126494404D01*
X82678331Y-126380030D01*
X82624704Y-126192611D01*
X82534448Y-126019824D01*
X82511705Y-125991933D01*
X82411257Y-125868742D01*
X82260176Y-125745552D01*
X82087385Y-125655294D01*
X81975089Y-125623163D01*
X81899970Y-125601669D01*
X81899967Y-125601668D01*
X81899965Y-125601668D01*
X81830237Y-125595469D01*
X81785596Y-125591500D01*
X80774404Y-125591500D01*
X80740923Y-125594476D01*
X80660034Y-125601668D01*
X80660031Y-125601668D01*
X80660030Y-125601669D01*
X80636632Y-125608364D01*
X80472614Y-125655294D01*
X80299823Y-125745552D01*
X80148742Y-125868742D01*
X80025552Y-126019823D01*
X79935294Y-126192614D01*
X79881669Y-126380031D01*
X79881668Y-126380034D01*
X79871500Y-126494407D01*
X79871500Y-127505592D01*
X79881668Y-127619965D01*
X79881668Y-127619967D01*
X79881669Y-127619970D01*
X79903163Y-127695089D01*
X79935294Y-127807385D01*
X80025552Y-127980176D01*
X80148742Y-128131257D01*
X80238713Y-128204618D01*
X80299824Y-128254448D01*
X80300783Y-128254948D01*
X80301212Y-128255362D01*
X80305073Y-128257907D01*
X80304598Y-128258626D01*
X80351088Y-128303434D01*
X80367195Y-128371422D01*
X80343988Y-128437325D01*
X80325957Y-128456055D01*
X80326556Y-128456706D01*
X80322776Y-128460185D01*
X80164686Y-128631915D01*
X80037015Y-128827331D01*
X79943251Y-129041092D01*
X79885948Y-129267377D01*
X79866673Y-129499994D01*
X79866673Y-129500005D01*
X79885948Y-129732622D01*
X79943251Y-129958907D01*
X80037015Y-130172668D01*
X80164686Y-130368084D01*
X80322776Y-130539814D01*
X80322781Y-130539819D01*
X80467099Y-130652147D01*
X80507912Y-130708857D01*
X80511585Y-130778631D01*
X80476954Y-130839314D01*
X80467099Y-130847853D01*
X80322781Y-130960180D01*
X80322776Y-130960185D01*
X80164686Y-131131915D01*
X80037015Y-131327331D01*
X79943251Y-131541092D01*
X79885948Y-131767377D01*
X79866673Y-131999994D01*
X79866673Y-132000005D01*
X77470000Y-132000005D01*
X77470000Y-114220005D01*
X79866673Y-114220005D01*
X79885948Y-114452622D01*
X79943251Y-114678907D01*
X80037015Y-114892668D01*
X80164686Y-115088084D01*
X80322776Y-115259814D01*
X80322780Y-115259818D01*
X80506983Y-115403190D01*
X80506985Y-115403191D01*
X80506988Y-115403193D01*
X80626331Y-115467777D01*
X80712273Y-115514287D01*
X80826914Y-115553643D01*
X80933045Y-115590079D01*
X80933047Y-115590079D01*
X80933049Y-115590080D01*
X81163288Y-115628500D01*
X81163289Y-115628500D01*
X81396711Y-115628500D01*
X81396712Y-115628500D01*
X81626951Y-115590080D01*
X81847727Y-115514287D01*
X82053017Y-115403190D01*
X82237220Y-115259818D01*
X82395314Y-115088083D01*
X82522984Y-114892669D01*
X82616749Y-114678907D01*
X82674051Y-114452626D01*
X82693327Y-114220000D01*
X82674051Y-113987374D01*
X82616749Y-113761093D01*
X82522984Y-113547331D01*
X82395314Y-113351917D01*
X82395313Y-113351915D01*
X82237223Y-113180185D01*
X82237222Y-113180184D01*
X82237220Y-113180182D01*
X82092899Y-113067851D01*
X82052088Y-113011143D01*
X82048413Y-112941370D01*
X82083045Y-112880687D01*
X82092893Y-112872152D01*
X82237220Y-112759818D01*
X82395314Y-112588083D01*
X82522984Y-112392669D01*
X82616749Y-112178907D01*
X82674051Y-111952626D01*
X82682618Y-111849236D01*
X82690013Y-111760001D01*
X87586502Y-111760001D01*
X87606456Y-111988081D01*
X87606457Y-111988089D01*
X87665714Y-112209238D01*
X87665718Y-112209249D01*
X87751248Y-112392668D01*
X87762477Y-112416749D01*
X87893802Y-112604300D01*
X88055700Y-112766198D01*
X88243251Y-112897523D01*
X88337282Y-112941370D01*
X88450750Y-112994281D01*
X88450752Y-112994281D01*
X88450757Y-112994284D01*
X88671913Y-113053543D01*
X88834832Y-113067796D01*
X88899998Y-113073498D01*
X88900000Y-113073498D01*
X88900002Y-113073498D01*
X88957021Y-113068509D01*
X89128087Y-113053543D01*
X89349243Y-112994284D01*
X89556749Y-112897523D01*
X89744300Y-112766198D01*
X89906198Y-112604300D01*
X90037523Y-112416749D01*
X90134284Y-112209243D01*
X90193543Y-111988087D01*
X90213498Y-111760000D01*
X90209998Y-111720000D01*
X90193543Y-111531918D01*
X90193543Y-111531913D01*
X90134284Y-111310757D01*
X90111125Y-111261093D01*
X90037524Y-111103254D01*
X90037523Y-111103252D01*
X90037523Y-111103251D01*
X89906198Y-110915700D01*
X89744300Y-110753802D01*
X89721143Y-110737587D01*
X89586376Y-110643221D01*
X89542751Y-110588644D01*
X89533500Y-110541647D01*
X89533500Y-109803352D01*
X89553185Y-109736313D01*
X89586373Y-109701779D01*
X89744300Y-109591198D01*
X89906198Y-109429300D01*
X90037523Y-109241749D01*
X90134284Y-109034243D01*
X90193543Y-108813087D01*
X90213498Y-108585000D01*
X90193543Y-108356913D01*
X90134284Y-108135757D01*
X90037523Y-107928251D01*
X89906198Y-107740700D01*
X89744300Y-107578802D01*
X89556749Y-107447477D01*
X89556745Y-107447475D01*
X89349249Y-107350718D01*
X89349238Y-107350714D01*
X89128089Y-107291457D01*
X89128081Y-107291456D01*
X88900002Y-107271502D01*
X88899998Y-107271502D01*
X88671918Y-107291456D01*
X88671910Y-107291457D01*
X88450761Y-107350714D01*
X88450750Y-107350718D01*
X88243254Y-107447475D01*
X88243252Y-107447476D01*
X88172856Y-107496767D01*
X88055700Y-107578802D01*
X88055698Y-107578803D01*
X88055695Y-107578806D01*
X87893806Y-107740695D01*
X87893803Y-107740698D01*
X87893802Y-107740700D01*
X87837107Y-107821669D01*
X87762476Y-107928252D01*
X87762475Y-107928254D01*
X87665718Y-108135750D01*
X87665714Y-108135761D01*
X87606457Y-108356910D01*
X87606456Y-108356918D01*
X87586502Y-108584998D01*
X87586502Y-108585001D01*
X87606456Y-108813081D01*
X87606457Y-108813089D01*
X87665714Y-109034238D01*
X87665718Y-109034249D01*
X87740804Y-109195271D01*
X87762477Y-109241749D01*
X87893802Y-109429300D01*
X88055700Y-109591198D01*
X88213625Y-109701779D01*
X88257249Y-109756354D01*
X88266500Y-109803352D01*
X88266500Y-110541647D01*
X88246815Y-110608686D01*
X88213624Y-110643221D01*
X88055699Y-110753802D01*
X87893806Y-110915695D01*
X87762476Y-111103252D01*
X87762475Y-111103254D01*
X87665718Y-111310750D01*
X87665714Y-111310761D01*
X87606457Y-111531910D01*
X87606456Y-111531918D01*
X87586502Y-111759998D01*
X87586502Y-111760001D01*
X82690013Y-111760001D01*
X82693327Y-111720005D01*
X82693327Y-111719994D01*
X82674051Y-111487377D01*
X82674051Y-111487374D01*
X82616749Y-111261093D01*
X82522984Y-111047331D01*
X82395313Y-110851915D01*
X82237223Y-110680185D01*
X82233444Y-110676706D01*
X82234956Y-110675063D01*
X82199644Y-110625969D01*
X82195988Y-110556195D01*
X82230635Y-110495520D01*
X82254985Y-110477995D01*
X82254927Y-110477907D01*
X82257073Y-110476492D01*
X82259221Y-110474946D01*
X82260176Y-110474448D01*
X82411257Y-110351257D01*
X82534448Y-110200176D01*
X82624704Y-110027389D01*
X82678331Y-109839970D01*
X82688500Y-109725596D01*
X82688500Y-108714404D01*
X82678331Y-108600030D01*
X82624704Y-108412611D01*
X82534448Y-108239824D01*
X82485463Y-108179749D01*
X82411257Y-108088742D01*
X82260176Y-107965552D01*
X82188772Y-107928254D01*
X82087389Y-107875296D01*
X82087388Y-107875295D01*
X82087385Y-107875294D01*
X81975089Y-107843163D01*
X81899970Y-107821669D01*
X81899967Y-107821668D01*
X81899965Y-107821668D01*
X81830237Y-107815469D01*
X81785596Y-107811500D01*
X80774404Y-107811500D01*
X80740923Y-107814476D01*
X80660034Y-107821668D01*
X80660031Y-107821668D01*
X80660030Y-107821669D01*
X80622470Y-107832416D01*
X80472614Y-107875294D01*
X80299823Y-107965552D01*
X80148742Y-108088742D01*
X80025552Y-108239823D01*
X79935294Y-108412614D01*
X79881669Y-108600031D01*
X79881668Y-108600034D01*
X79874476Y-108680923D01*
X79871500Y-108714404D01*
X79871500Y-109725596D01*
X79872453Y-109736313D01*
X79881668Y-109839965D01*
X79881668Y-109839967D01*
X79881669Y-109839970D01*
X79886585Y-109857150D01*
X79935294Y-110027385D01*
X80025552Y-110200176D01*
X80148742Y-110351257D01*
X80238326Y-110424303D01*
X80299824Y-110474448D01*
X80300783Y-110474948D01*
X80301212Y-110475362D01*
X80305073Y-110477907D01*
X80304598Y-110478626D01*
X80351088Y-110523434D01*
X80367195Y-110591422D01*
X80343988Y-110657325D01*
X80325957Y-110676055D01*
X80326556Y-110676706D01*
X80322776Y-110680185D01*
X80164686Y-110851915D01*
X80037015Y-111047331D01*
X79943251Y-111261092D01*
X79885948Y-111487377D01*
X79866673Y-111719994D01*
X79866673Y-111720005D01*
X79885948Y-111952622D01*
X79943251Y-112178907D01*
X80037015Y-112392668D01*
X80164686Y-112588084D01*
X80322776Y-112759814D01*
X80322781Y-112759819D01*
X80467099Y-112872147D01*
X80507912Y-112928857D01*
X80511585Y-112998631D01*
X80476954Y-113059314D01*
X80467099Y-113067853D01*
X80322781Y-113180180D01*
X80322776Y-113180185D01*
X80164686Y-113351915D01*
X80037015Y-113547331D01*
X79943251Y-113761092D01*
X79885948Y-113987377D01*
X79866673Y-114219994D01*
X79866673Y-114220005D01*
X77470000Y-114220005D01*
X77470000Y-96480005D01*
X79866673Y-96480005D01*
X79885948Y-96712622D01*
X79943251Y-96938907D01*
X80037015Y-97152668D01*
X80164686Y-97348084D01*
X80196911Y-97383089D01*
X80322780Y-97519818D01*
X80506983Y-97663190D01*
X80506985Y-97663191D01*
X80506988Y-97663193D01*
X80598636Y-97712790D01*
X80712273Y-97774287D01*
X80807047Y-97806823D01*
X80933045Y-97850079D01*
X80933047Y-97850079D01*
X80933049Y-97850080D01*
X81163288Y-97888500D01*
X81163289Y-97888500D01*
X81396711Y-97888500D01*
X81396712Y-97888500D01*
X81626951Y-97850080D01*
X81847727Y-97774287D01*
X82053017Y-97663190D01*
X82237220Y-97519818D01*
X82395314Y-97348083D01*
X82522984Y-97152669D01*
X82616749Y-96938907D01*
X82674051Y-96712626D01*
X82689001Y-96532204D01*
X82693327Y-96480005D01*
X82693327Y-96479994D01*
X82674051Y-96247377D01*
X82674051Y-96247374D01*
X82616749Y-96021093D01*
X82522984Y-95807331D01*
X82395314Y-95611917D01*
X82395313Y-95611915D01*
X82237223Y-95440185D01*
X82237222Y-95440184D01*
X82237220Y-95440182D01*
X82092899Y-95327851D01*
X82052088Y-95271143D01*
X82048413Y-95201370D01*
X82083045Y-95140687D01*
X82092893Y-95132152D01*
X82237220Y-95019818D01*
X82395314Y-94848083D01*
X82522984Y-94652669D01*
X82616749Y-94438907D01*
X82674051Y-94212626D01*
X82687841Y-94046210D01*
X82693327Y-93980005D01*
X82693327Y-93979994D01*
X82674051Y-93747377D01*
X82674051Y-93747374D01*
X82616749Y-93521093D01*
X82522984Y-93307331D01*
X82439087Y-93178916D01*
X82395313Y-93111915D01*
X82237223Y-92940185D01*
X82233444Y-92936706D01*
X82234956Y-92935063D01*
X82199644Y-92885969D01*
X82195988Y-92816195D01*
X82230635Y-92755520D01*
X82254985Y-92737995D01*
X82254927Y-92737907D01*
X82257073Y-92736492D01*
X82259221Y-92734946D01*
X82260176Y-92734448D01*
X82411257Y-92611257D01*
X82534448Y-92460176D01*
X82624704Y-92287389D01*
X82678331Y-92099970D01*
X82688500Y-91985596D01*
X82688500Y-90974404D01*
X82678331Y-90860030D01*
X82630023Y-90691201D01*
X82624705Y-90672614D01*
X82624704Y-90672613D01*
X82624704Y-90672611D01*
X82534448Y-90499824D01*
X82451492Y-90398087D01*
X82411257Y-90348742D01*
X82260176Y-90225552D01*
X82195459Y-90191747D01*
X82087389Y-90135296D01*
X82087388Y-90135295D01*
X82087385Y-90135294D01*
X81975089Y-90103163D01*
X81899970Y-90081669D01*
X81899967Y-90081668D01*
X81899965Y-90081668D01*
X81830237Y-90075469D01*
X81785596Y-90071500D01*
X80774404Y-90071500D01*
X80740923Y-90074476D01*
X80660034Y-90081668D01*
X80660031Y-90081668D01*
X80660030Y-90081669D01*
X80622470Y-90092416D01*
X80472614Y-90135294D01*
X80299823Y-90225552D01*
X80148742Y-90348742D01*
X80025552Y-90499823D01*
X79935294Y-90672614D01*
X79881669Y-90860031D01*
X79881668Y-90860034D01*
X79871500Y-90974407D01*
X79871500Y-91985592D01*
X79881668Y-92099965D01*
X79881668Y-92099967D01*
X79881669Y-92099970D01*
X79903163Y-92175089D01*
X79935294Y-92287385D01*
X80025552Y-92460176D01*
X80148742Y-92611257D01*
X80238713Y-92684618D01*
X80299824Y-92734448D01*
X80300783Y-92734948D01*
X80301212Y-92735362D01*
X80305073Y-92737907D01*
X80304598Y-92738626D01*
X80351088Y-92783434D01*
X80367195Y-92851422D01*
X80343988Y-92917325D01*
X80325957Y-92936055D01*
X80326556Y-92936706D01*
X80322776Y-92940185D01*
X80164686Y-93111915D01*
X80037015Y-93307331D01*
X79943251Y-93521092D01*
X79885948Y-93747377D01*
X79866673Y-93979994D01*
X79866673Y-93980005D01*
X79885948Y-94212622D01*
X79943251Y-94438907D01*
X80037015Y-94652668D01*
X80164686Y-94848084D01*
X80322776Y-95019814D01*
X80322781Y-95019819D01*
X80467099Y-95132147D01*
X80507912Y-95188857D01*
X80511585Y-95258631D01*
X80476954Y-95319314D01*
X80467099Y-95327853D01*
X80322781Y-95440180D01*
X80322776Y-95440185D01*
X80164686Y-95611915D01*
X80037015Y-95807331D01*
X79943251Y-96021092D01*
X79885948Y-96247377D01*
X79866673Y-96479994D01*
X79866673Y-96480005D01*
X77470000Y-96480005D01*
X77470000Y-62217042D01*
X79324680Y-62217042D01*
X79328850Y-62261157D01*
X79329400Y-62272826D01*
X79329400Y-79676666D01*
X79327661Y-79692413D01*
X79327932Y-79692439D01*
X79327198Y-79700205D01*
X79329339Y-79768316D01*
X79329400Y-79772212D01*
X79329400Y-79800159D01*
X79329918Y-79804258D01*
X79330834Y-79815898D01*
X79332226Y-79860189D01*
X79332227Y-79860191D01*
X79337922Y-79879795D01*
X79341867Y-79898842D01*
X79344426Y-79919097D01*
X79344427Y-79919100D01*
X79344428Y-79919104D01*
X79360738Y-79960300D01*
X79364521Y-79971349D01*
X79376881Y-80013892D01*
X79387272Y-80031462D01*
X79395832Y-80048935D01*
X79403347Y-80067917D01*
X79429391Y-80103763D01*
X79435805Y-80113527D01*
X79458358Y-80151662D01*
X79458362Y-80151666D01*
X79472789Y-80166093D01*
X79485426Y-80180888D01*
X79497428Y-80197407D01*
X79530107Y-80224442D01*
X79531568Y-80225650D01*
X79540209Y-80233513D01*
X87862892Y-88556196D01*
X87896377Y-88617519D01*
X87891393Y-88687211D01*
X87876786Y-88715000D01*
X87762479Y-88878246D01*
X87762475Y-88878254D01*
X87665718Y-89085750D01*
X87665714Y-89085761D01*
X87606457Y-89306910D01*
X87606456Y-89306918D01*
X87586502Y-89534998D01*
X87586502Y-89535001D01*
X87606456Y-89763081D01*
X87606457Y-89763089D01*
X87665714Y-89984238D01*
X87665718Y-89984249D01*
X87752334Y-90169998D01*
X87762477Y-90191749D01*
X87893802Y-90379300D01*
X88055700Y-90541198D01*
X88243251Y-90672523D01*
X88368091Y-90730736D01*
X88450750Y-90769281D01*
X88450752Y-90769281D01*
X88450757Y-90769284D01*
X88671913Y-90828543D01*
X88834832Y-90842796D01*
X88899998Y-90848498D01*
X88900000Y-90848498D01*
X88900002Y-90848498D01*
X88959013Y-90843335D01*
X89128087Y-90828543D01*
X89349243Y-90769284D01*
X89556749Y-90672523D01*
X89744300Y-90541198D01*
X89906198Y-90379300D01*
X90010427Y-90230444D01*
X90065002Y-90186823D01*
X90134501Y-90179630D01*
X90196855Y-90211152D01*
X90232269Y-90271382D01*
X90236000Y-90301571D01*
X90236000Y-96388428D01*
X90216315Y-96455467D01*
X90163511Y-96501222D01*
X90094353Y-96511166D01*
X90030797Y-96482141D01*
X90010427Y-96459554D01*
X89906198Y-96310700D01*
X89744300Y-96148802D01*
X89556749Y-96017477D01*
X89510460Y-95995892D01*
X89349249Y-95920718D01*
X89349238Y-95920714D01*
X89128089Y-95861457D01*
X89128081Y-95861456D01*
X88900002Y-95841502D01*
X88899998Y-95841502D01*
X88671918Y-95861456D01*
X88671910Y-95861457D01*
X88450761Y-95920714D01*
X88450750Y-95920718D01*
X88243254Y-96017475D01*
X88243252Y-96017476D01*
X88214565Y-96037563D01*
X88055700Y-96148802D01*
X88055698Y-96148803D01*
X88055695Y-96148806D01*
X87893806Y-96310695D01*
X87762476Y-96498252D01*
X87762475Y-96498254D01*
X87665718Y-96705750D01*
X87665714Y-96705761D01*
X87606457Y-96926910D01*
X87606456Y-96926918D01*
X87586502Y-97154998D01*
X87586502Y-97155001D01*
X87606456Y-97383081D01*
X87606457Y-97383089D01*
X87665714Y-97604238D01*
X87665718Y-97604249D01*
X87762475Y-97811745D01*
X87762477Y-97811749D01*
X87893802Y-97999300D01*
X88055700Y-98161198D01*
X88243251Y-98292523D01*
X88352199Y-98343326D01*
X88450750Y-98389281D01*
X88450752Y-98389281D01*
X88450757Y-98389284D01*
X88671913Y-98448543D01*
X88834832Y-98462796D01*
X88899998Y-98468498D01*
X88900000Y-98468498D01*
X88900002Y-98468498D01*
X88957021Y-98463509D01*
X89128087Y-98448543D01*
X89349243Y-98389284D01*
X89556749Y-98292523D01*
X89744300Y-98161198D01*
X89906198Y-97999300D01*
X90010427Y-97850444D01*
X90065002Y-97806823D01*
X90134501Y-97799630D01*
X90196855Y-97831152D01*
X90232269Y-97891382D01*
X90236000Y-97921571D01*
X90236000Y-100198428D01*
X90216315Y-100265467D01*
X90163511Y-100311222D01*
X90094353Y-100321166D01*
X90030797Y-100292141D01*
X90010427Y-100269554D01*
X89906198Y-100120700D01*
X89744300Y-99958802D01*
X89556749Y-99827477D01*
X89556745Y-99827475D01*
X89349249Y-99730718D01*
X89349238Y-99730714D01*
X89128089Y-99671457D01*
X89128081Y-99671456D01*
X88900002Y-99651502D01*
X88899998Y-99651502D01*
X88671918Y-99671456D01*
X88671910Y-99671457D01*
X88450761Y-99730714D01*
X88450750Y-99730718D01*
X88243254Y-99827475D01*
X88243252Y-99827476D01*
X88243251Y-99827477D01*
X88055700Y-99958802D01*
X88055698Y-99958803D01*
X88055695Y-99958806D01*
X87893806Y-100120695D01*
X87762476Y-100308252D01*
X87762475Y-100308254D01*
X87665718Y-100515750D01*
X87665714Y-100515761D01*
X87606457Y-100736910D01*
X87606456Y-100736918D01*
X87586502Y-100964998D01*
X87586502Y-100965001D01*
X87606456Y-101193081D01*
X87606457Y-101193089D01*
X87665714Y-101414238D01*
X87665718Y-101414249D01*
X87751877Y-101599017D01*
X87762477Y-101621749D01*
X87893802Y-101809300D01*
X88055700Y-101971198D01*
X88243251Y-102102523D01*
X88342199Y-102148663D01*
X88450750Y-102199281D01*
X88450752Y-102199281D01*
X88450757Y-102199284D01*
X88671913Y-102258543D01*
X88834832Y-102272796D01*
X88899998Y-102278498D01*
X88900000Y-102278498D01*
X88900002Y-102278498D01*
X88957021Y-102273509D01*
X89128087Y-102258543D01*
X89349243Y-102199284D01*
X89556749Y-102102523D01*
X89744300Y-101971198D01*
X89906198Y-101809300D01*
X90010427Y-101660444D01*
X90065002Y-101616823D01*
X90134501Y-101609630D01*
X90196855Y-101641152D01*
X90232269Y-101701382D01*
X90236000Y-101731571D01*
X90236000Y-106118966D01*
X90234261Y-106134713D01*
X90234532Y-106134739D01*
X90233798Y-106142505D01*
X90235939Y-106210616D01*
X90236000Y-106214512D01*
X90236000Y-106242459D01*
X90236518Y-106246558D01*
X90237434Y-106258198D01*
X90238826Y-106302489D01*
X90238827Y-106302491D01*
X90244522Y-106322095D01*
X90248467Y-106341142D01*
X90251026Y-106361397D01*
X90251027Y-106361400D01*
X90251028Y-106361404D01*
X90267338Y-106402600D01*
X90271121Y-106413649D01*
X90283481Y-106456192D01*
X90293872Y-106473762D01*
X90302432Y-106491235D01*
X90309947Y-106510217D01*
X90335991Y-106546063D01*
X90342405Y-106555827D01*
X90364956Y-106593959D01*
X90364958Y-106593962D01*
X90364962Y-106593966D01*
X90379389Y-106608393D01*
X90392026Y-106623188D01*
X90404028Y-106639707D01*
X90409561Y-106644284D01*
X90438168Y-106667950D01*
X90446809Y-106675813D01*
X94377568Y-110606572D01*
X94411053Y-110667895D01*
X94406069Y-110737587D01*
X94377568Y-110781934D01*
X94243806Y-110915695D01*
X94112476Y-111103252D01*
X94112475Y-111103254D01*
X94015718Y-111310750D01*
X94015714Y-111310761D01*
X93956457Y-111531910D01*
X93956456Y-111531918D01*
X93936502Y-111759998D01*
X93936502Y-111760001D01*
X93956456Y-111988081D01*
X93956457Y-111988089D01*
X94015714Y-112209238D01*
X94015718Y-112209249D01*
X94101248Y-112392668D01*
X94112477Y-112416749D01*
X94243802Y-112604300D01*
X94405700Y-112766198D01*
X94593251Y-112897523D01*
X94687282Y-112941370D01*
X94800750Y-112994281D01*
X94800752Y-112994281D01*
X94800757Y-112994284D01*
X95021913Y-113053543D01*
X95184832Y-113067796D01*
X95249998Y-113073498D01*
X95250000Y-113073498D01*
X95250002Y-113073498D01*
X95307021Y-113068509D01*
X95478087Y-113053543D01*
X95699243Y-112994284D01*
X95906749Y-112897523D01*
X96094300Y-112766198D01*
X96256198Y-112604300D01*
X96387523Y-112416749D01*
X96484284Y-112209243D01*
X96543543Y-111988087D01*
X96563498Y-111760000D01*
X96559998Y-111720000D01*
X96543543Y-111531918D01*
X96543543Y-111531913D01*
X96484284Y-111310757D01*
X96461125Y-111261093D01*
X96387524Y-111103254D01*
X96387523Y-111103252D01*
X96387523Y-111103251D01*
X96256198Y-110915700D01*
X96094300Y-110753802D01*
X96071143Y-110737587D01*
X95936376Y-110643221D01*
X95892751Y-110588644D01*
X95884570Y-110547084D01*
X95883745Y-110547136D01*
X95883500Y-110543249D01*
X95883500Y-110543244D01*
X95882982Y-110539147D01*
X95882065Y-110527498D01*
X95881937Y-110523434D01*
X95880674Y-110483211D01*
X95874974Y-110463592D01*
X95871031Y-110444546D01*
X95868474Y-110424304D01*
X95868474Y-110424303D01*
X95852156Y-110383090D01*
X95848386Y-110372075D01*
X95836019Y-110329507D01*
X95825620Y-110311924D01*
X95817066Y-110294463D01*
X95809552Y-110275483D01*
X95783508Y-110239637D01*
X95777098Y-110229878D01*
X95754543Y-110191740D01*
X95754542Y-110191738D01*
X95740108Y-110177304D01*
X95727471Y-110162509D01*
X95715472Y-110145993D01*
X95715469Y-110145991D01*
X95715469Y-110145990D01*
X95681325Y-110117743D01*
X95672685Y-110109881D01*
X91539319Y-105976514D01*
X91505834Y-105915191D01*
X91503000Y-105888833D01*
X91503000Y-98237166D01*
X91522685Y-98170127D01*
X91575489Y-98124372D01*
X91644647Y-98114428D01*
X91708203Y-98143453D01*
X91714681Y-98149485D01*
X92931979Y-99366783D01*
X92965464Y-99428106D01*
X92960480Y-99497798D01*
X92945875Y-99525582D01*
X92884719Y-99612924D01*
X92842476Y-99673252D01*
X92842475Y-99673254D01*
X92745718Y-99880750D01*
X92745714Y-99880761D01*
X92686457Y-100101910D01*
X92686456Y-100101918D01*
X92666502Y-100329998D01*
X92666502Y-100330001D01*
X92686456Y-100558081D01*
X92686457Y-100558089D01*
X92745714Y-100779238D01*
X92745718Y-100779249D01*
X92832334Y-100964998D01*
X92842477Y-100986749D01*
X92973802Y-101174300D01*
X93135700Y-101336198D01*
X93323251Y-101467523D01*
X93366345Y-101487618D01*
X93418784Y-101533791D01*
X93437936Y-101600984D01*
X93417720Y-101667865D01*
X93366345Y-101712382D01*
X93323251Y-101732476D01*
X93213537Y-101809300D01*
X93135700Y-101863802D01*
X93135698Y-101863803D01*
X93135695Y-101863806D01*
X92973806Y-102025695D01*
X92842476Y-102213252D01*
X92842475Y-102213254D01*
X92745718Y-102420750D01*
X92745714Y-102420761D01*
X92686457Y-102641910D01*
X92686456Y-102641918D01*
X92666502Y-102869998D01*
X92666502Y-102870001D01*
X92686456Y-103098081D01*
X92686457Y-103098089D01*
X92745714Y-103319238D01*
X92745718Y-103319249D01*
X92842475Y-103526745D01*
X92842477Y-103526749D01*
X92973802Y-103714300D01*
X93135700Y-103876198D01*
X93320565Y-104005642D01*
X93323251Y-104007523D01*
X93366345Y-104027618D01*
X93418784Y-104073791D01*
X93437936Y-104140984D01*
X93417720Y-104207865D01*
X93366345Y-104252382D01*
X93323251Y-104272476D01*
X93198126Y-104360090D01*
X93135700Y-104403802D01*
X93135698Y-104403803D01*
X93135695Y-104403806D01*
X92973806Y-104565695D01*
X92842476Y-104753252D01*
X92842475Y-104753254D01*
X92745718Y-104960750D01*
X92745714Y-104960761D01*
X92686457Y-105181910D01*
X92686456Y-105181918D01*
X92666502Y-105409998D01*
X92666502Y-105410001D01*
X92686456Y-105638081D01*
X92686457Y-105638089D01*
X92745714Y-105859238D01*
X92745718Y-105859249D01*
X92783464Y-105940195D01*
X92842477Y-106066749D01*
X92973802Y-106254300D01*
X93135700Y-106416198D01*
X93323251Y-106547523D01*
X93422849Y-106593966D01*
X93530750Y-106644281D01*
X93530752Y-106644281D01*
X93530757Y-106644284D01*
X93751913Y-106703543D01*
X93914832Y-106717796D01*
X93979998Y-106723498D01*
X93980000Y-106723498D01*
X93980002Y-106723498D01*
X94037139Y-106718499D01*
X94208087Y-106703543D01*
X94429243Y-106644284D01*
X94636749Y-106547523D01*
X94824300Y-106416198D01*
X94986198Y-106254300D01*
X95117523Y-106066749D01*
X95214284Y-105859243D01*
X95273543Y-105638087D01*
X95293498Y-105410000D01*
X95273543Y-105181913D01*
X95214284Y-104960757D01*
X95117523Y-104753251D01*
X94986198Y-104565700D01*
X94824300Y-104403802D01*
X94636749Y-104272477D01*
X94593655Y-104252382D01*
X94541215Y-104206210D01*
X94522063Y-104139017D01*
X94542278Y-104072136D01*
X94593655Y-104027618D01*
X94596882Y-104026112D01*
X94636749Y-104007523D01*
X94824300Y-103876198D01*
X94986198Y-103714300D01*
X95117523Y-103526749D01*
X95214284Y-103319243D01*
X95273543Y-103098087D01*
X95293498Y-102870000D01*
X95273543Y-102641913D01*
X95214284Y-102420757D01*
X95117523Y-102213251D01*
X94986198Y-102025700D01*
X94824300Y-101863802D01*
X94636749Y-101732477D01*
X94593655Y-101712382D01*
X94541215Y-101666210D01*
X94522063Y-101599017D01*
X94542278Y-101532136D01*
X94593655Y-101487618D01*
X94596882Y-101486112D01*
X94636749Y-101467523D01*
X94824300Y-101336198D01*
X94986198Y-101174300D01*
X95117523Y-100986749D01*
X95214284Y-100779243D01*
X95273543Y-100558087D01*
X95293498Y-100330000D01*
X95291595Y-100308254D01*
X95281987Y-100198428D01*
X95273543Y-100101913D01*
X95214284Y-99880757D01*
X95117523Y-99673251D01*
X94986198Y-99485700D01*
X94824300Y-99323802D01*
X94666374Y-99213220D01*
X94622751Y-99158646D01*
X94614568Y-99117074D01*
X94614091Y-99117104D01*
X94613990Y-99117117D01*
X94613989Y-99117110D01*
X94613744Y-99117126D01*
X94613499Y-99113236D01*
X94611488Y-99097322D01*
X94610756Y-99089579D01*
X94607225Y-99033450D01*
X94607224Y-99033449D01*
X94606735Y-99025662D01*
X94609035Y-99025517D01*
X94614673Y-98967522D01*
X94657957Y-98912674D01*
X94658224Y-98912485D01*
X94824300Y-98796198D01*
X94986198Y-98634300D01*
X95009252Y-98601374D01*
X95063829Y-98557751D01*
X95110826Y-98548500D01*
X95193244Y-98548500D01*
X97647900Y-98548500D01*
X97714939Y-98568185D01*
X97760694Y-98620989D01*
X97771900Y-98672500D01*
X97771900Y-123573321D01*
X97752215Y-123640360D01*
X97699411Y-123686115D01*
X97630253Y-123696059D01*
X97566697Y-123667034D01*
X97546326Y-123644446D01*
X97543465Y-123640360D01*
X97526198Y-123615700D01*
X97364300Y-123453802D01*
X97176749Y-123322477D01*
X97176745Y-123322475D01*
X96969249Y-123225718D01*
X96969238Y-123225714D01*
X96748089Y-123166457D01*
X96748081Y-123166456D01*
X96520002Y-123146502D01*
X96519998Y-123146502D01*
X96291918Y-123166456D01*
X96291910Y-123166457D01*
X96070761Y-123225714D01*
X96070750Y-123225718D01*
X95863254Y-123322475D01*
X95863252Y-123322476D01*
X95863251Y-123322477D01*
X95675700Y-123453802D01*
X95675698Y-123453803D01*
X95675695Y-123453806D01*
X95513806Y-123615695D01*
X95513805Y-123615697D01*
X95513802Y-123615700D01*
X95464497Y-123686115D01*
X95382477Y-123803250D01*
X95382431Y-123803347D01*
X95382379Y-123803459D01*
X95382313Y-123803534D01*
X95379772Y-123807937D01*
X95378886Y-123807426D01*
X95336207Y-123855896D01*
X95269013Y-123875046D01*
X95202132Y-123854828D01*
X95161075Y-123807447D01*
X95160228Y-123807937D01*
X95157688Y-123803538D01*
X95157620Y-123803459D01*
X95157523Y-123803251D01*
X95026198Y-123615700D01*
X94864300Y-123453802D01*
X94676749Y-123322477D01*
X94676745Y-123322475D01*
X94469249Y-123225718D01*
X94469238Y-123225714D01*
X94248089Y-123166457D01*
X94248081Y-123166456D01*
X94020002Y-123146502D01*
X94019998Y-123146502D01*
X93791918Y-123166456D01*
X93791910Y-123166457D01*
X93570761Y-123225714D01*
X93570750Y-123225718D01*
X93363254Y-123322475D01*
X93363252Y-123322476D01*
X93363251Y-123322477D01*
X93175700Y-123453802D01*
X93175698Y-123453803D01*
X93175695Y-123453806D01*
X93013806Y-123615695D01*
X93013805Y-123615697D01*
X93013802Y-123615700D01*
X92964497Y-123686115D01*
X92882476Y-123803252D01*
X92882475Y-123803254D01*
X92785718Y-124010750D01*
X92785714Y-124010761D01*
X92726457Y-124231910D01*
X92726456Y-124231918D01*
X92706502Y-124459998D01*
X92706502Y-124460001D01*
X92726456Y-124688081D01*
X92726457Y-124688089D01*
X92785714Y-124909238D01*
X92785718Y-124909249D01*
X92833941Y-125012663D01*
X92882477Y-125116749D01*
X93013802Y-125304300D01*
X93175700Y-125466198D01*
X93363251Y-125597523D01*
X93487142Y-125655294D01*
X93570750Y-125694281D01*
X93570752Y-125694281D01*
X93570757Y-125694284D01*
X93791913Y-125753543D01*
X93954832Y-125767796D01*
X94019998Y-125773498D01*
X94020000Y-125773498D01*
X94020002Y-125773498D01*
X94077021Y-125768509D01*
X94248087Y-125753543D01*
X94469243Y-125694284D01*
X94676749Y-125597523D01*
X94864300Y-125466198D01*
X95026198Y-125304300D01*
X95157523Y-125116749D01*
X95157616Y-125116548D01*
X95157680Y-125116475D01*
X95160228Y-125112063D01*
X95161114Y-125112574D01*
X95203785Y-125064108D01*
X95270978Y-125044953D01*
X95337860Y-125065165D01*
X95378922Y-125112553D01*
X95379772Y-125112063D01*
X95382317Y-125116471D01*
X95382383Y-125116547D01*
X95382477Y-125116749D01*
X95513802Y-125304300D01*
X95675700Y-125466198D01*
X95833625Y-125576779D01*
X95877249Y-125631354D01*
X95886500Y-125678352D01*
X95886500Y-129456366D01*
X95884761Y-129472113D01*
X95885032Y-129472139D01*
X95884298Y-129479905D01*
X95886439Y-129548016D01*
X95886500Y-129551912D01*
X95886500Y-129579859D01*
X95887018Y-129583958D01*
X95887934Y-129595598D01*
X95889326Y-129639889D01*
X95889327Y-129639891D01*
X95895022Y-129659495D01*
X95898967Y-129678542D01*
X95901526Y-129698797D01*
X95901527Y-129698800D01*
X95901528Y-129698804D01*
X95917838Y-129740000D01*
X95921621Y-129751049D01*
X95933981Y-129793592D01*
X95944372Y-129811162D01*
X95952932Y-129828635D01*
X95960447Y-129847617D01*
X95986491Y-129883463D01*
X95992905Y-129893227D01*
X96015456Y-129931359D01*
X96015458Y-129931362D01*
X96015462Y-129931366D01*
X96029889Y-129945793D01*
X96042526Y-129960588D01*
X96054528Y-129977107D01*
X96083416Y-130001005D01*
X96088668Y-130005350D01*
X96097309Y-130013213D01*
X97200019Y-131115923D01*
X97233504Y-131177246D01*
X97228520Y-131246938D01*
X97222436Y-131260651D01*
X97213477Y-131277939D01*
X97213475Y-131277946D01*
X97121463Y-131536841D01*
X97121458Y-131536858D01*
X97065558Y-131805867D01*
X97065557Y-131805869D01*
X97046807Y-132080000D01*
X97065557Y-132354130D01*
X97065558Y-132354132D01*
X97121458Y-132623141D01*
X97121463Y-132623158D01*
X97213476Y-132882056D01*
X97339889Y-133126024D01*
X97339893Y-133126030D01*
X97498340Y-133350499D01*
X97498343Y-133350502D01*
X97685889Y-133551314D01*
X97899031Y-133724718D01*
X97899033Y-133724719D01*
X97899034Y-133724720D01*
X98133801Y-133867485D01*
X98235388Y-133911610D01*
X98385823Y-133976953D01*
X98650404Y-134051085D01*
X98875245Y-134081989D01*
X98922614Y-134088500D01*
X98922615Y-134088500D01*
X99197386Y-134088500D01*
X99244755Y-134081989D01*
X99469596Y-134051085D01*
X99734177Y-133976953D01*
X99986200Y-133867484D01*
X100220969Y-133724718D01*
X100434111Y-133551314D01*
X100621657Y-133350502D01*
X100780111Y-133126023D01*
X100906523Y-132882058D01*
X100998538Y-132623153D01*
X100998539Y-132623146D01*
X100998541Y-132623141D01*
X101032669Y-132458907D01*
X101054442Y-132354130D01*
X101073193Y-132080000D01*
X101054442Y-131805870D01*
X101016608Y-131623804D01*
X100998541Y-131536858D01*
X100998536Y-131536841D01*
X100948333Y-131395585D01*
X100906523Y-131277942D01*
X100780111Y-131033977D01*
X100780110Y-131033975D01*
X100780106Y-131033969D01*
X100621659Y-130809500D01*
X100592829Y-130778631D01*
X100434111Y-130608686D01*
X100220969Y-130435282D01*
X100220967Y-130435281D01*
X100220965Y-130435279D01*
X99986198Y-130292514D01*
X99734178Y-130183047D01*
X99469602Y-130108916D01*
X99469597Y-130108915D01*
X99469596Y-130108915D01*
X99333490Y-130090207D01*
X99197386Y-130071500D01*
X99197385Y-130071500D01*
X98922615Y-130071500D01*
X98922614Y-130071500D01*
X98650404Y-130108915D01*
X98650397Y-130108916D01*
X98385825Y-130183046D01*
X98235342Y-130248409D01*
X98166010Y-130257062D01*
X98103006Y-130226858D01*
X98098260Y-130222355D01*
X97189819Y-129313914D01*
X97156334Y-129252591D01*
X97153500Y-129226233D01*
X97153500Y-125678352D01*
X97173185Y-125611313D01*
X97206373Y-125576779D01*
X97364300Y-125466198D01*
X97526198Y-125304300D01*
X97657523Y-125116749D01*
X97725365Y-124971258D01*
X97771534Y-124918824D01*
X97838728Y-124899671D01*
X97905609Y-124919886D01*
X97925367Y-124937939D01*
X97926263Y-124937044D01*
X97930301Y-124941082D01*
X97934647Y-124946417D01*
X97934993Y-124946733D01*
X97935830Y-124947791D01*
X97935791Y-124947821D01*
X97940720Y-124953872D01*
X97940757Y-124953842D01*
X97945402Y-124959377D01*
X98000572Y-125011427D01*
X98003160Y-125013941D01*
X102849038Y-129859819D01*
X102882523Y-129921142D01*
X102877539Y-129990834D01*
X102835667Y-130046767D01*
X102770203Y-130071184D01*
X102761357Y-130071500D01*
X102591345Y-130071500D01*
X102530797Y-130078011D01*
X102530795Y-130078011D01*
X102393795Y-130129111D01*
X102276739Y-130216739D01*
X102189111Y-130333795D01*
X102138011Y-130470795D01*
X102138011Y-130470797D01*
X102131500Y-130531345D01*
X102131500Y-133628654D01*
X102138011Y-133689202D01*
X102138011Y-133689204D01*
X102182300Y-133807943D01*
X102189111Y-133826204D01*
X102276739Y-133943261D01*
X102393796Y-134030889D01*
X102530799Y-134081989D01*
X102558050Y-134084918D01*
X102591345Y-134088499D01*
X102591362Y-134088500D01*
X105688638Y-134088500D01*
X105688654Y-134088499D01*
X105715692Y-134085591D01*
X105749201Y-134081989D01*
X105886204Y-134030889D01*
X106003261Y-133943261D01*
X106090889Y-133826204D01*
X106139013Y-133697181D01*
X106141988Y-133689204D01*
X106141988Y-133689203D01*
X106141989Y-133689201D01*
X106145591Y-133655692D01*
X106148499Y-133628654D01*
X106148500Y-133628637D01*
X106148500Y-130531362D01*
X106148499Y-130531345D01*
X106145157Y-130500270D01*
X106141989Y-130470799D01*
X106139014Y-130462823D01*
X106103678Y-130368084D01*
X106090889Y-130333796D01*
X106003261Y-130216739D01*
X105886204Y-130129111D01*
X105832060Y-130108916D01*
X105749203Y-130078011D01*
X105688654Y-130071500D01*
X105688638Y-130071500D01*
X105014445Y-130071500D01*
X104947406Y-130051815D01*
X104901651Y-129999011D01*
X104890917Y-129958305D01*
X104887888Y-129923676D01*
X104886427Y-129916604D01*
X104886475Y-129916593D01*
X104884794Y-129909009D01*
X104884746Y-129909021D01*
X104883079Y-129901993D01*
X104883079Y-129901987D01*
X104857147Y-129830740D01*
X104855964Y-129827335D01*
X104832115Y-129755365D01*
X104832114Y-129755361D01*
X104832110Y-129755355D01*
X104829060Y-129748812D01*
X104829104Y-129748791D01*
X104825720Y-129741800D01*
X104825676Y-129741823D01*
X104822437Y-129735375D01*
X104822435Y-129735368D01*
X104780760Y-129672006D01*
X104778825Y-129668968D01*
X104739027Y-129604445D01*
X104734551Y-129598785D01*
X104734589Y-129598754D01*
X104729681Y-129592729D01*
X104729645Y-129592760D01*
X104725002Y-129587227D01*
X104669825Y-129535170D01*
X104667238Y-129532657D01*
X99325219Y-124190638D01*
X99291734Y-124129315D01*
X99288900Y-124102957D01*
X99288900Y-121920000D01*
X115176372Y-121920000D01*
X115196854Y-122180249D01*
X115257796Y-122434089D01*
X115257797Y-122434091D01*
X115357696Y-122675271D01*
X115494095Y-122897853D01*
X115494098Y-122897858D01*
X115570949Y-122987839D01*
X115663637Y-123096363D01*
X115722343Y-123146502D01*
X115862141Y-123265901D01*
X115862146Y-123265904D01*
X116084728Y-123402303D01*
X116169998Y-123437622D01*
X116325911Y-123502204D01*
X116579751Y-123563146D01*
X116840000Y-123583628D01*
X117100249Y-123563146D01*
X117354089Y-123502204D01*
X117595271Y-123402303D01*
X117817856Y-123265903D01*
X118016363Y-123096363D01*
X118185903Y-122897856D01*
X118322303Y-122675271D01*
X118422204Y-122434089D01*
X118483146Y-122180249D01*
X118503628Y-121920000D01*
X118483146Y-121659751D01*
X118422204Y-121405911D01*
X118322303Y-121164729D01*
X118322303Y-121164728D01*
X118185904Y-120942146D01*
X118185901Y-120942141D01*
X118124885Y-120870701D01*
X118016363Y-120743637D01*
X117907839Y-120650949D01*
X117817858Y-120574098D01*
X117817853Y-120574095D01*
X117595271Y-120437696D01*
X117354091Y-120337797D01*
X117354089Y-120337796D01*
X117180445Y-120296107D01*
X117100250Y-120276854D01*
X116840000Y-120256372D01*
X116579749Y-120276854D01*
X116419357Y-120315361D01*
X116325911Y-120337796D01*
X116325909Y-120337796D01*
X116325908Y-120337797D01*
X116084728Y-120437696D01*
X115862146Y-120574095D01*
X115862141Y-120574098D01*
X115663637Y-120743637D01*
X115494098Y-120942141D01*
X115494095Y-120942146D01*
X115357696Y-121164728D01*
X115257797Y-121405908D01*
X115257796Y-121405911D01*
X115196854Y-121659751D01*
X115176372Y-121920000D01*
X99288900Y-121920000D01*
X99288900Y-119380001D01*
X100286502Y-119380001D01*
X100306456Y-119608081D01*
X100306457Y-119608089D01*
X100365714Y-119829238D01*
X100365718Y-119829249D01*
X100462475Y-120036745D01*
X100462477Y-120036749D01*
X100593802Y-120224300D01*
X100755700Y-120386198D01*
X100943251Y-120517523D01*
X101064571Y-120574095D01*
X101150750Y-120614281D01*
X101150752Y-120614281D01*
X101150757Y-120614284D01*
X101371913Y-120673543D01*
X101534832Y-120687796D01*
X101599998Y-120693498D01*
X101600000Y-120693498D01*
X101600002Y-120693498D01*
X101657021Y-120688509D01*
X101828087Y-120673543D01*
X102049243Y-120614284D01*
X102256749Y-120517523D01*
X102444300Y-120386198D01*
X102606198Y-120224300D01*
X102737523Y-120036749D01*
X102834284Y-119829243D01*
X102893543Y-119608087D01*
X102913498Y-119380001D01*
X105376502Y-119380001D01*
X105396456Y-119608081D01*
X105396457Y-119608089D01*
X105455714Y-119829238D01*
X105455718Y-119829249D01*
X105552475Y-120036745D01*
X105552477Y-120036749D01*
X105683802Y-120224300D01*
X105845700Y-120386198D01*
X106033251Y-120517523D01*
X106154571Y-120574095D01*
X106240750Y-120614281D01*
X106240752Y-120614281D01*
X106240757Y-120614284D01*
X106461913Y-120673543D01*
X106624832Y-120687796D01*
X106689998Y-120693498D01*
X106690000Y-120693498D01*
X106690002Y-120693498D01*
X106747021Y-120688509D01*
X106918087Y-120673543D01*
X107139243Y-120614284D01*
X107346749Y-120517523D01*
X107534300Y-120386198D01*
X107696198Y-120224300D01*
X107827523Y-120036749D01*
X107924284Y-119829243D01*
X107983543Y-119608087D01*
X108003498Y-119380000D01*
X107983543Y-119151913D01*
X107924284Y-118930757D01*
X107827523Y-118723251D01*
X107696198Y-118535700D01*
X107534300Y-118373802D01*
X107346749Y-118242477D01*
X107346745Y-118242475D01*
X107139249Y-118145718D01*
X107139238Y-118145714D01*
X106918089Y-118086457D01*
X106918081Y-118086456D01*
X106690002Y-118066502D01*
X106689998Y-118066502D01*
X106461918Y-118086456D01*
X106461910Y-118086457D01*
X106240761Y-118145714D01*
X106240750Y-118145718D01*
X106033254Y-118242475D01*
X106033252Y-118242476D01*
X106033251Y-118242477D01*
X105845700Y-118373802D01*
X105845698Y-118373803D01*
X105845695Y-118373806D01*
X105683806Y-118535695D01*
X105552476Y-118723252D01*
X105552475Y-118723254D01*
X105455718Y-118930750D01*
X105455714Y-118930761D01*
X105396457Y-119151910D01*
X105396456Y-119151918D01*
X105376502Y-119379998D01*
X105376502Y-119380001D01*
X102913498Y-119380001D01*
X102913498Y-119380000D01*
X102893543Y-119151913D01*
X102834284Y-118930757D01*
X102737523Y-118723251D01*
X102606198Y-118535700D01*
X102444300Y-118373802D01*
X102256749Y-118242477D01*
X102256745Y-118242475D01*
X102049249Y-118145718D01*
X102049238Y-118145714D01*
X101828089Y-118086457D01*
X101828081Y-118086456D01*
X101600002Y-118066502D01*
X101599998Y-118066502D01*
X101371918Y-118086456D01*
X101371910Y-118086457D01*
X101150761Y-118145714D01*
X101150750Y-118145718D01*
X100943254Y-118242475D01*
X100943252Y-118242476D01*
X100943251Y-118242477D01*
X100755700Y-118373802D01*
X100755698Y-118373803D01*
X100755695Y-118373806D01*
X100593806Y-118535695D01*
X100462476Y-118723252D01*
X100462475Y-118723254D01*
X100365718Y-118930750D01*
X100365714Y-118930761D01*
X100306457Y-119151910D01*
X100306456Y-119151918D01*
X100286502Y-119379998D01*
X100286502Y-119380001D01*
X99288900Y-119380001D01*
X99288900Y-111760001D01*
X100286502Y-111760001D01*
X100306456Y-111988081D01*
X100306457Y-111988089D01*
X100365714Y-112209238D01*
X100365718Y-112209249D01*
X100451248Y-112392668D01*
X100462477Y-112416749D01*
X100593802Y-112604300D01*
X100755700Y-112766198D01*
X100943251Y-112897523D01*
X101037282Y-112941370D01*
X101150750Y-112994281D01*
X101150752Y-112994281D01*
X101150757Y-112994284D01*
X101371913Y-113053543D01*
X101534832Y-113067796D01*
X101599998Y-113073498D01*
X101600000Y-113073498D01*
X101600002Y-113073498D01*
X101657021Y-113068509D01*
X101828087Y-113053543D01*
X102049243Y-112994284D01*
X102256749Y-112897523D01*
X102444300Y-112766198D01*
X102606198Y-112604300D01*
X102737523Y-112416749D01*
X102834284Y-112209243D01*
X102893543Y-111988087D01*
X102913498Y-111760000D01*
X102909998Y-111720000D01*
X102893543Y-111531918D01*
X102893543Y-111531913D01*
X102834284Y-111310757D01*
X102811125Y-111261093D01*
X102737524Y-111103254D01*
X102737523Y-111103252D01*
X102737523Y-111103251D01*
X102606198Y-110915700D01*
X102444300Y-110753802D01*
X102256749Y-110622477D01*
X102234727Y-110612208D01*
X102049249Y-110525718D01*
X102049238Y-110525714D01*
X101828089Y-110466457D01*
X101828081Y-110466456D01*
X101600002Y-110446502D01*
X101599998Y-110446502D01*
X101371918Y-110466456D01*
X101371910Y-110466457D01*
X101150761Y-110525714D01*
X101150750Y-110525718D01*
X100943254Y-110622475D01*
X100943252Y-110622476D01*
X100893483Y-110657325D01*
X100755700Y-110753802D01*
X100755698Y-110753803D01*
X100755695Y-110753806D01*
X100593806Y-110915695D01*
X100462476Y-111103252D01*
X100462475Y-111103254D01*
X100365718Y-111310750D01*
X100365714Y-111310761D01*
X100306457Y-111531910D01*
X100306456Y-111531918D01*
X100286502Y-111759998D01*
X100286502Y-111760001D01*
X99288900Y-111760001D01*
X99288900Y-97815679D01*
X99289110Y-97808469D01*
X99289625Y-97799630D01*
X99292772Y-97745597D01*
X99290782Y-97734312D01*
X99288900Y-97712790D01*
X99288900Y-86831598D01*
X99308585Y-86764559D01*
X99361389Y-86718804D01*
X99430547Y-86708860D01*
X99484024Y-86730023D01*
X99485695Y-86731193D01*
X99485700Y-86731198D01*
X99643625Y-86841779D01*
X99687249Y-86896354D01*
X99696500Y-86943352D01*
X99696500Y-93087266D01*
X99694761Y-93103013D01*
X99695032Y-93103039D01*
X99694298Y-93110805D01*
X99696439Y-93178916D01*
X99696500Y-93182812D01*
X99696500Y-93210759D01*
X99697018Y-93214858D01*
X99697934Y-93226498D01*
X99699326Y-93270789D01*
X99699327Y-93270791D01*
X99705022Y-93290395D01*
X99708967Y-93309442D01*
X99711526Y-93329697D01*
X99711527Y-93329700D01*
X99711528Y-93329704D01*
X99727838Y-93370900D01*
X99731621Y-93381949D01*
X99743981Y-93424492D01*
X99754372Y-93442062D01*
X99762932Y-93459535D01*
X99770447Y-93478517D01*
X99796491Y-93514363D01*
X99802905Y-93524127D01*
X99825456Y-93562259D01*
X99825458Y-93562262D01*
X99825462Y-93562266D01*
X99839889Y-93576693D01*
X99852526Y-93591488D01*
X99864528Y-93608007D01*
X99897207Y-93635042D01*
X99898668Y-93636250D01*
X99907309Y-93644113D01*
X100551155Y-94287959D01*
X100584640Y-94349282D01*
X100579656Y-94418974D01*
X100565050Y-94446761D01*
X100523528Y-94506062D01*
X100462476Y-94593252D01*
X100462475Y-94593254D01*
X100365718Y-94800750D01*
X100365714Y-94800761D01*
X100306457Y-95021910D01*
X100306456Y-95021918D01*
X100286502Y-95249998D01*
X100286502Y-95250001D01*
X100306456Y-95478081D01*
X100306457Y-95478089D01*
X100365714Y-95699238D01*
X100365718Y-95699249D01*
X100442763Y-95864472D01*
X100462477Y-95906749D01*
X100593802Y-96094300D01*
X100755700Y-96256198D01*
X100943251Y-96387523D01*
X100986345Y-96407618D01*
X101038784Y-96453791D01*
X101057936Y-96520984D01*
X101037720Y-96587865D01*
X100986345Y-96632382D01*
X100943251Y-96652476D01*
X100818126Y-96740090D01*
X100755700Y-96783802D01*
X100755698Y-96783803D01*
X100755695Y-96783806D01*
X100593806Y-96945695D01*
X100593803Y-96945698D01*
X100593802Y-96945700D01*
X100533724Y-97031500D01*
X100462476Y-97133252D01*
X100462475Y-97133254D01*
X100365718Y-97340750D01*
X100365714Y-97340761D01*
X100306457Y-97561910D01*
X100306456Y-97561918D01*
X100286502Y-97789998D01*
X100286502Y-97790001D01*
X100306456Y-98018081D01*
X100306457Y-98018089D01*
X100365714Y-98239238D01*
X100365718Y-98239249D01*
X100462475Y-98446745D01*
X100462477Y-98446749D01*
X100593802Y-98634300D01*
X100755700Y-98796198D01*
X100924299Y-98914253D01*
X100967923Y-98968828D01*
X100975115Y-99038327D01*
X100973280Y-99046659D01*
X100966500Y-99073068D01*
X100966500Y-99081493D01*
X100964304Y-99104728D01*
X100962725Y-99113003D01*
X100962236Y-99120787D01*
X100959167Y-99120594D01*
X100946853Y-99174817D01*
X100909691Y-99215975D01*
X100755699Y-99323802D01*
X100593806Y-99485695D01*
X100593803Y-99485698D01*
X100593802Y-99485700D01*
X100515026Y-99598203D01*
X100462476Y-99673252D01*
X100462475Y-99673254D01*
X100365718Y-99880750D01*
X100365714Y-99880761D01*
X100306457Y-100101910D01*
X100306456Y-100101918D01*
X100286502Y-100329998D01*
X100286502Y-100330001D01*
X100306456Y-100558081D01*
X100306457Y-100558089D01*
X100365714Y-100779238D01*
X100365718Y-100779249D01*
X100452334Y-100964998D01*
X100462477Y-100986749D01*
X100593802Y-101174300D01*
X100755700Y-101336198D01*
X100943251Y-101467523D01*
X100986345Y-101487618D01*
X101038784Y-101533791D01*
X101057936Y-101600984D01*
X101037720Y-101667865D01*
X100986345Y-101712382D01*
X100943251Y-101732476D01*
X100833537Y-101809300D01*
X100755700Y-101863802D01*
X100755698Y-101863803D01*
X100755695Y-101863806D01*
X100593806Y-102025695D01*
X100462476Y-102213252D01*
X100462475Y-102213254D01*
X100365718Y-102420750D01*
X100365714Y-102420761D01*
X100306457Y-102641910D01*
X100306456Y-102641918D01*
X100286502Y-102869998D01*
X100286502Y-102870001D01*
X100306456Y-103098081D01*
X100306457Y-103098089D01*
X100365714Y-103319238D01*
X100365718Y-103319249D01*
X100462475Y-103526745D01*
X100462477Y-103526749D01*
X100593802Y-103714300D01*
X100755700Y-103876198D01*
X100763370Y-103881568D01*
X100806993Y-103936144D01*
X100814185Y-104005642D01*
X100782663Y-104067997D01*
X100722433Y-104103410D01*
X100705501Y-104106430D01*
X100690797Y-104108011D01*
X100690795Y-104108011D01*
X100553795Y-104159111D01*
X100436739Y-104246739D01*
X100349111Y-104363795D01*
X100298011Y-104500795D01*
X100298011Y-104500797D01*
X100291500Y-104561345D01*
X100291500Y-106258654D01*
X100298011Y-106319202D01*
X100298011Y-106319204D01*
X100334189Y-106416198D01*
X100349111Y-106456204D01*
X100436739Y-106573261D01*
X100553796Y-106660889D01*
X100690799Y-106711989D01*
X100718050Y-106714918D01*
X100751345Y-106718499D01*
X100751362Y-106718500D01*
X102448638Y-106718500D01*
X102448654Y-106718499D01*
X102475692Y-106715591D01*
X102509201Y-106711989D01*
X102646204Y-106660889D01*
X102763261Y-106573261D01*
X102850889Y-106456204D01*
X102901989Y-106319201D01*
X102905591Y-106285692D01*
X102908499Y-106258654D01*
X102908500Y-106258637D01*
X102908500Y-104561362D01*
X102908499Y-104561345D01*
X102905157Y-104530270D01*
X102901989Y-104500799D01*
X102850889Y-104363796D01*
X102763261Y-104246739D01*
X102646204Y-104159111D01*
X102509203Y-104108011D01*
X102494498Y-104106430D01*
X102429947Y-104079691D01*
X102390100Y-104022298D01*
X102387607Y-103952473D01*
X102423261Y-103892385D01*
X102436624Y-103881572D01*
X102444300Y-103876198D01*
X102606198Y-103714300D01*
X102737523Y-103526749D01*
X102834284Y-103319243D01*
X102893543Y-103098087D01*
X102913498Y-102870000D01*
X102893543Y-102641913D01*
X102834284Y-102420757D01*
X102737523Y-102213251D01*
X102606198Y-102025700D01*
X102444300Y-101863802D01*
X102256749Y-101732477D01*
X102213655Y-101712382D01*
X102161215Y-101666210D01*
X102142063Y-101599017D01*
X102162278Y-101532136D01*
X102213655Y-101487618D01*
X102216882Y-101486112D01*
X102256749Y-101467523D01*
X102444300Y-101336198D01*
X102606198Y-101174300D01*
X102737523Y-100986749D01*
X102834284Y-100779243D01*
X102893543Y-100558087D01*
X102913498Y-100330000D01*
X102911595Y-100308254D01*
X102901987Y-100198428D01*
X102893543Y-100101913D01*
X102834284Y-99880757D01*
X102737523Y-99673251D01*
X102634991Y-99526821D01*
X102612664Y-99460617D01*
X102629674Y-99392850D01*
X102648882Y-99368021D01*
X103165713Y-98851189D01*
X103178077Y-98841286D01*
X103177903Y-98841076D01*
X103183915Y-98836102D01*
X103183915Y-98836101D01*
X103183918Y-98836100D01*
X103230591Y-98786396D01*
X103233240Y-98783663D01*
X103253035Y-98763870D01*
X103255572Y-98760598D01*
X103263151Y-98751724D01*
X103293486Y-98719421D01*
X103303319Y-98701532D01*
X103314002Y-98685269D01*
X103326514Y-98669141D01*
X103344107Y-98628481D01*
X103349250Y-98617985D01*
X103370593Y-98579164D01*
X103370593Y-98579163D01*
X103370595Y-98579160D01*
X103375674Y-98559373D01*
X103381970Y-98540985D01*
X103390081Y-98522245D01*
X103397013Y-98478472D01*
X103399378Y-98467053D01*
X103410400Y-98424130D01*
X103410400Y-98403715D01*
X103411927Y-98384314D01*
X103415120Y-98364157D01*
X103410950Y-98320042D01*
X103410400Y-98308373D01*
X103410400Y-90696242D01*
X104860480Y-90696242D01*
X104864650Y-90740357D01*
X104865200Y-90752026D01*
X104865200Y-109308166D01*
X104863461Y-109323913D01*
X104863732Y-109323939D01*
X104862998Y-109331705D01*
X104865139Y-109399816D01*
X104865200Y-109403712D01*
X104865200Y-109431659D01*
X104865718Y-109435758D01*
X104866634Y-109447398D01*
X104868026Y-109491689D01*
X104868027Y-109491691D01*
X104873722Y-109511295D01*
X104877667Y-109530342D01*
X104880226Y-109550597D01*
X104880227Y-109550600D01*
X104880228Y-109550604D01*
X104896538Y-109591800D01*
X104900321Y-109602849D01*
X104912681Y-109645392D01*
X104923072Y-109662962D01*
X104931632Y-109680435D01*
X104939147Y-109699417D01*
X104965191Y-109735263D01*
X104971605Y-109745027D01*
X104994158Y-109783162D01*
X104994162Y-109783166D01*
X105008589Y-109797593D01*
X105021226Y-109812388D01*
X105033228Y-109828907D01*
X105046601Y-109839970D01*
X105067368Y-109857150D01*
X105076009Y-109865013D01*
X105817568Y-110606572D01*
X105851053Y-110667895D01*
X105846069Y-110737587D01*
X105817568Y-110781934D01*
X105683806Y-110915695D01*
X105552476Y-111103252D01*
X105552475Y-111103254D01*
X105455718Y-111310750D01*
X105455714Y-111310761D01*
X105396457Y-111531910D01*
X105396456Y-111531918D01*
X105376502Y-111759998D01*
X105376502Y-111760001D01*
X105396456Y-111988081D01*
X105396457Y-111988089D01*
X105455714Y-112209238D01*
X105455718Y-112209249D01*
X105541248Y-112392668D01*
X105552477Y-112416749D01*
X105683802Y-112604300D01*
X105845700Y-112766198D01*
X106033251Y-112897523D01*
X106127282Y-112941370D01*
X106240750Y-112994281D01*
X106240752Y-112994281D01*
X106240757Y-112994284D01*
X106461913Y-113053543D01*
X106624832Y-113067796D01*
X106689998Y-113073498D01*
X106690000Y-113073498D01*
X106690002Y-113073498D01*
X106747021Y-113068509D01*
X106918087Y-113053543D01*
X107139243Y-112994284D01*
X107346749Y-112897523D01*
X107534300Y-112766198D01*
X107696198Y-112604300D01*
X107827523Y-112416749D01*
X107924284Y-112209243D01*
X107983543Y-111988087D01*
X108003498Y-111760000D01*
X107999998Y-111720000D01*
X107983543Y-111531918D01*
X107983543Y-111531913D01*
X107924284Y-111310757D01*
X107901125Y-111261093D01*
X107827524Y-111103254D01*
X107827523Y-111103252D01*
X107827523Y-111103251D01*
X107696198Y-110915700D01*
X107534300Y-110753802D01*
X107511143Y-110737587D01*
X107376376Y-110643221D01*
X107332751Y-110588644D01*
X107324570Y-110547084D01*
X107323745Y-110547136D01*
X107323500Y-110543249D01*
X107323500Y-110543244D01*
X107322982Y-110539147D01*
X107322065Y-110527498D01*
X107321937Y-110523434D01*
X107320674Y-110483211D01*
X107314974Y-110463592D01*
X107311031Y-110444546D01*
X107308474Y-110424304D01*
X107308474Y-110424303D01*
X107292156Y-110383090D01*
X107288386Y-110372075D01*
X107276019Y-110329507D01*
X107265620Y-110311924D01*
X107257066Y-110294463D01*
X107249552Y-110275483D01*
X107223508Y-110239637D01*
X107217098Y-110229878D01*
X107194543Y-110191740D01*
X107194542Y-110191738D01*
X107180108Y-110177304D01*
X107167471Y-110162509D01*
X107155472Y-110145993D01*
X107155469Y-110145991D01*
X107155469Y-110145990D01*
X107121325Y-110117743D01*
X107112685Y-110109881D01*
X107040979Y-110038175D01*
X107007494Y-109976852D01*
X107012478Y-109907160D01*
X107054350Y-109851227D01*
X107096567Y-109830719D01*
X107103322Y-109828909D01*
X107139243Y-109819284D01*
X107346749Y-109722523D01*
X107534300Y-109591198D01*
X107696198Y-109429300D01*
X107827523Y-109241749D01*
X107924284Y-109034243D01*
X107983543Y-108813087D01*
X108003498Y-108585000D01*
X107990812Y-108440000D01*
X137526372Y-108440000D01*
X137546854Y-108700249D01*
X137607796Y-108954089D01*
X137607797Y-108954091D01*
X137707696Y-109195271D01*
X137844095Y-109417853D01*
X137844098Y-109417858D01*
X137864341Y-109441559D01*
X138013637Y-109616363D01*
X138113645Y-109701777D01*
X138212141Y-109785901D01*
X138212143Y-109785902D01*
X138212144Y-109785903D01*
X138240618Y-109803352D01*
X138434728Y-109922303D01*
X138519998Y-109957622D01*
X138675911Y-110022204D01*
X138929751Y-110083146D01*
X139190000Y-110103628D01*
X139450249Y-110083146D01*
X139704089Y-110022204D01*
X139945271Y-109922303D01*
X140167856Y-109785903D01*
X140366363Y-109616363D01*
X140535903Y-109417856D01*
X140672303Y-109195271D01*
X140772204Y-108954089D01*
X140833146Y-108700249D01*
X140853628Y-108440000D01*
X140833146Y-108179751D01*
X140772204Y-107925911D01*
X140672303Y-107684729D01*
X140672303Y-107684728D01*
X140535904Y-107462146D01*
X140535901Y-107462141D01*
X140474885Y-107390701D01*
X140366363Y-107263637D01*
X140257839Y-107170949D01*
X140167858Y-107094098D01*
X140167853Y-107094095D01*
X139945271Y-106957696D01*
X139704091Y-106857797D01*
X139704089Y-106857796D01*
X139530445Y-106816107D01*
X139450250Y-106796854D01*
X139190000Y-106776372D01*
X138929749Y-106796854D01*
X138769357Y-106835361D01*
X138675911Y-106857796D01*
X138675909Y-106857796D01*
X138675908Y-106857797D01*
X138434728Y-106957696D01*
X138212146Y-107094095D01*
X138212141Y-107094098D01*
X138013637Y-107263637D01*
X137844098Y-107462141D01*
X137844095Y-107462146D01*
X137707696Y-107684728D01*
X137628762Y-107875294D01*
X137607796Y-107925911D01*
X137598279Y-107965552D01*
X137557418Y-108135750D01*
X137546854Y-108179751D01*
X137526372Y-108440000D01*
X107990812Y-108440000D01*
X107983543Y-108356913D01*
X107924284Y-108135757D01*
X107827523Y-107928251D01*
X107696198Y-107740700D01*
X107534300Y-107578802D01*
X107346749Y-107447477D01*
X107346745Y-107447475D01*
X107139249Y-107350718D01*
X107139238Y-107350714D01*
X106918089Y-107291457D01*
X106918081Y-107291456D01*
X106690002Y-107271502D01*
X106689998Y-107271502D01*
X106461918Y-107291456D01*
X106461907Y-107291458D01*
X106288293Y-107337978D01*
X106218443Y-107336315D01*
X106160581Y-107297152D01*
X106133077Y-107232924D01*
X106132200Y-107218203D01*
X106132200Y-102331796D01*
X106151885Y-102264757D01*
X106204689Y-102219002D01*
X106273847Y-102209058D01*
X106288284Y-102212019D01*
X106461913Y-102258543D01*
X106624832Y-102272796D01*
X106689998Y-102278498D01*
X106690000Y-102278498D01*
X106690002Y-102278498D01*
X106747021Y-102273509D01*
X106918087Y-102258543D01*
X107139243Y-102199284D01*
X107346749Y-102102523D01*
X107534300Y-101971198D01*
X107696198Y-101809300D01*
X107827523Y-101621749D01*
X107924284Y-101414243D01*
X107983543Y-101193087D01*
X108003498Y-100965000D01*
X107983543Y-100736913D01*
X107924284Y-100515757D01*
X107827523Y-100308251D01*
X107696198Y-100120700D01*
X107534300Y-99958802D01*
X107346749Y-99827477D01*
X107346745Y-99827475D01*
X107139249Y-99730718D01*
X107139238Y-99730714D01*
X106918089Y-99671457D01*
X106918081Y-99671456D01*
X106690002Y-99651502D01*
X106689998Y-99651502D01*
X106461918Y-99671456D01*
X106461907Y-99671458D01*
X106288293Y-99717978D01*
X106218443Y-99716315D01*
X106160581Y-99677152D01*
X106133077Y-99612924D01*
X106132200Y-99598203D01*
X106132200Y-98524476D01*
X106151885Y-98457437D01*
X106204689Y-98411682D01*
X106273847Y-98401738D01*
X106288292Y-98404700D01*
X106451913Y-98448543D01*
X106614832Y-98462796D01*
X106679998Y-98468498D01*
X106680000Y-98468498D01*
X106680002Y-98468498D01*
X106737021Y-98463509D01*
X106908087Y-98448543D01*
X107129243Y-98389284D01*
X107336749Y-98292523D01*
X107524300Y-98161198D01*
X107686198Y-97999300D01*
X107817523Y-97811749D01*
X107914284Y-97604243D01*
X107973543Y-97383087D01*
X107993498Y-97155000D01*
X107991595Y-97133254D01*
X107978067Y-96978625D01*
X107973543Y-96926913D01*
X107914284Y-96705757D01*
X107817523Y-96498251D01*
X107686198Y-96310700D01*
X107524300Y-96148802D01*
X107336749Y-96017477D01*
X107290460Y-95995892D01*
X107129249Y-95920718D01*
X107129238Y-95920714D01*
X106908089Y-95861457D01*
X106908081Y-95861456D01*
X106680002Y-95841502D01*
X106679998Y-95841502D01*
X106451918Y-95861456D01*
X106451907Y-95861458D01*
X106288293Y-95905298D01*
X106218443Y-95903635D01*
X106160581Y-95864472D01*
X106133077Y-95800244D01*
X106132200Y-95785523D01*
X106132200Y-94950000D01*
X115176372Y-94950000D01*
X115196854Y-95210250D01*
X115211473Y-95271143D01*
X115257796Y-95464089D01*
X115257797Y-95464091D01*
X115357696Y-95705271D01*
X115494095Y-95927853D01*
X115494098Y-95927858D01*
X115570638Y-96017475D01*
X115663637Y-96126363D01*
X115689915Y-96148806D01*
X115862141Y-96295901D01*
X115862143Y-96295902D01*
X115862144Y-96295903D01*
X115886291Y-96310700D01*
X116084728Y-96432303D01*
X116150514Y-96459552D01*
X116325911Y-96532204D01*
X116579751Y-96593146D01*
X116840000Y-96613628D01*
X117100249Y-96593146D01*
X117354089Y-96532204D01*
X117595271Y-96432303D01*
X117817856Y-96295903D01*
X118016363Y-96126363D01*
X118185903Y-95927856D01*
X118322303Y-95705271D01*
X118422204Y-95464089D01*
X118483146Y-95210249D01*
X118503628Y-94950000D01*
X118483146Y-94689751D01*
X118422204Y-94435911D01*
X118357622Y-94279998D01*
X118322303Y-94194728D01*
X118185904Y-93972146D01*
X118185901Y-93972141D01*
X118079467Y-93847523D01*
X118016363Y-93773637D01*
X117864709Y-93644113D01*
X117817858Y-93604098D01*
X117817853Y-93604095D01*
X117595271Y-93467696D01*
X117374692Y-93376330D01*
X117354089Y-93367796D01*
X117180445Y-93326107D01*
X117100250Y-93306854D01*
X116840000Y-93286372D01*
X116579749Y-93306854D01*
X116419357Y-93345361D01*
X116325911Y-93367796D01*
X116325909Y-93367796D01*
X116325908Y-93367797D01*
X116084728Y-93467696D01*
X115862146Y-93604095D01*
X115862141Y-93604098D01*
X115663637Y-93773637D01*
X115494098Y-93972141D01*
X115494095Y-93972146D01*
X115357696Y-94194728D01*
X115263765Y-94421501D01*
X115257796Y-94435911D01*
X115235361Y-94529357D01*
X115196854Y-94689749D01*
X115176372Y-94950000D01*
X106132200Y-94950000D01*
X106132200Y-91030065D01*
X106151885Y-90963026D01*
X106168515Y-90942388D01*
X106267568Y-90843334D01*
X106328891Y-90809850D01*
X106387341Y-90811240D01*
X106451913Y-90828543D01*
X106614832Y-90842796D01*
X106679998Y-90848498D01*
X106680000Y-90848498D01*
X106680002Y-90848498D01*
X106739013Y-90843335D01*
X106908087Y-90828543D01*
X107129243Y-90769284D01*
X107336749Y-90672523D01*
X107524300Y-90541198D01*
X107686198Y-90379300D01*
X107817523Y-90191749D01*
X107914284Y-89984243D01*
X107973543Y-89763087D01*
X107993498Y-89535000D01*
X107991595Y-89513254D01*
X107976569Y-89341501D01*
X107973543Y-89306913D01*
X107914284Y-89085757D01*
X107912969Y-89082938D01*
X107817524Y-88878254D01*
X107817523Y-88878252D01*
X107817523Y-88878251D01*
X107686198Y-88690700D01*
X107524300Y-88528802D01*
X107336749Y-88397477D01*
X107264198Y-88363646D01*
X107129249Y-88300718D01*
X107129238Y-88300714D01*
X106908089Y-88241457D01*
X106908081Y-88241456D01*
X106680002Y-88221502D01*
X106679998Y-88221502D01*
X106451918Y-88241456D01*
X106451910Y-88241457D01*
X106230761Y-88300714D01*
X106230750Y-88300718D01*
X106023254Y-88397475D01*
X106023252Y-88397476D01*
X105952856Y-88446767D01*
X105835700Y-88528802D01*
X105835698Y-88528803D01*
X105835695Y-88528806D01*
X105673806Y-88690695D01*
X105542476Y-88878252D01*
X105542475Y-88878254D01*
X105445718Y-89085750D01*
X105445714Y-89085761D01*
X105386457Y-89306910D01*
X105386456Y-89306918D01*
X105366502Y-89534998D01*
X105366502Y-89535001D01*
X105386456Y-89763081D01*
X105386458Y-89763091D01*
X105403758Y-89827655D01*
X105402095Y-89897504D01*
X105371664Y-89947429D01*
X105109879Y-90209214D01*
X105097520Y-90219118D01*
X105097693Y-90219327D01*
X105091682Y-90224300D01*
X105045038Y-90273969D01*
X105042333Y-90276760D01*
X105022573Y-90296521D01*
X105022558Y-90296538D01*
X105020017Y-90299813D01*
X105012453Y-90308667D01*
X104982120Y-90340971D01*
X104982112Y-90340981D01*
X104972279Y-90358867D01*
X104961603Y-90375120D01*
X104949086Y-90391257D01*
X104949085Y-90391260D01*
X104931485Y-90431929D01*
X104926348Y-90442415D01*
X104905003Y-90481241D01*
X104905003Y-90481242D01*
X104899925Y-90501020D01*
X104893625Y-90519422D01*
X104885518Y-90538157D01*
X104878588Y-90581909D01*
X104876220Y-90593345D01*
X104865200Y-90636265D01*
X104865200Y-90656684D01*
X104863673Y-90676083D01*
X104860480Y-90696241D01*
X104860480Y-90696242D01*
X103410400Y-90696242D01*
X103410400Y-89941866D01*
X103430085Y-89874827D01*
X103446719Y-89854185D01*
X104772102Y-88528802D01*
X106267570Y-87033333D01*
X106328891Y-86999850D01*
X106387341Y-87001240D01*
X106451913Y-87018543D01*
X106614832Y-87032796D01*
X106679998Y-87038498D01*
X106680000Y-87038498D01*
X106680002Y-87038498D01*
X106739013Y-87033335D01*
X106908087Y-87018543D01*
X107129243Y-86959284D01*
X107336749Y-86862523D01*
X107524300Y-86731198D01*
X107686198Y-86569300D01*
X107817523Y-86381749D01*
X107914284Y-86174243D01*
X107973543Y-85953087D01*
X107993498Y-85725000D01*
X107993210Y-85721713D01*
X107983794Y-85614081D01*
X107973543Y-85496913D01*
X107914284Y-85275757D01*
X107881029Y-85204442D01*
X107846944Y-85131345D01*
X107817523Y-85068251D01*
X107686198Y-84880700D01*
X107524300Y-84718802D01*
X107336749Y-84587477D01*
X107336745Y-84587475D01*
X107129249Y-84490718D01*
X107129238Y-84490714D01*
X106908089Y-84431457D01*
X106908081Y-84431456D01*
X106680002Y-84411502D01*
X106679998Y-84411502D01*
X106451918Y-84431456D01*
X106451910Y-84431457D01*
X106230761Y-84490714D01*
X106230750Y-84490718D01*
X106023254Y-84587475D01*
X106023252Y-84587476D01*
X106023251Y-84587477D01*
X105835700Y-84718802D01*
X105835698Y-84718803D01*
X105835695Y-84718806D01*
X105673806Y-84880695D01*
X105673803Y-84880698D01*
X105673802Y-84880700D01*
X105639802Y-84929257D01*
X105542476Y-85068252D01*
X105542475Y-85068254D01*
X105445718Y-85275750D01*
X105445714Y-85275761D01*
X105386457Y-85496910D01*
X105386456Y-85496918D01*
X105366502Y-85724998D01*
X105366502Y-85725001D01*
X105386456Y-85953081D01*
X105386458Y-85953092D01*
X105403758Y-86017656D01*
X105402095Y-86087506D01*
X105371664Y-86137430D01*
X102459640Y-89049453D01*
X102398317Y-89082938D01*
X102328625Y-89077954D01*
X102300837Y-89063348D01*
X102256749Y-89032477D01*
X102256745Y-89032475D01*
X102049249Y-88935718D01*
X102049238Y-88935714D01*
X101828089Y-88876457D01*
X101828081Y-88876456D01*
X101600002Y-88856502D01*
X101599998Y-88856502D01*
X101371918Y-88876456D01*
X101371910Y-88876457D01*
X101150760Y-88935715D01*
X101150759Y-88935715D01*
X101150757Y-88935716D01*
X101141878Y-88939855D01*
X101139899Y-88940779D01*
X101070821Y-88951267D01*
X101007038Y-88922744D01*
X100968802Y-88864265D01*
X100963500Y-88828394D01*
X100963500Y-86943352D01*
X100983185Y-86876313D01*
X101016373Y-86841779D01*
X101174300Y-86731198D01*
X101336198Y-86569300D01*
X101467523Y-86381749D01*
X101564284Y-86174243D01*
X101623543Y-85953087D01*
X101643498Y-85725000D01*
X101643210Y-85721713D01*
X101633794Y-85614081D01*
X101623543Y-85496913D01*
X101564284Y-85275757D01*
X101531029Y-85204442D01*
X101496944Y-85131345D01*
X101467523Y-85068251D01*
X101336198Y-84880700D01*
X101174300Y-84718802D01*
X100986749Y-84587477D01*
X100986745Y-84587475D01*
X100779249Y-84490718D01*
X100779238Y-84490714D01*
X100558089Y-84431457D01*
X100558081Y-84431456D01*
X100330002Y-84411502D01*
X100329998Y-84411502D01*
X100101918Y-84431456D01*
X100101910Y-84431457D01*
X99880761Y-84490714D01*
X99880750Y-84490718D01*
X99673254Y-84587475D01*
X99673252Y-84587476D01*
X99673251Y-84587477D01*
X99485700Y-84718802D01*
X99485698Y-84718803D01*
X99484024Y-84719976D01*
X99417818Y-84742303D01*
X99350050Y-84725293D01*
X99302237Y-84674345D01*
X99288900Y-84618401D01*
X99288900Y-82594175D01*
X119057718Y-82594175D01*
X119067795Y-82857088D01*
X119117889Y-83115381D01*
X119117890Y-83115388D01*
X119206820Y-83362997D01*
X119206823Y-83363002D01*
X119270978Y-83480982D01*
X119332516Y-83594147D01*
X119450314Y-83748683D01*
X119492016Y-83803391D01*
X119681590Y-83985837D01*
X119896792Y-84137207D01*
X120056624Y-84216345D01*
X120132572Y-84253950D01*
X120132575Y-84253951D01*
X120132579Y-84253953D01*
X120383424Y-84333337D01*
X120643447Y-84373500D01*
X120643451Y-84373500D01*
X122450684Y-84373500D01*
X122647334Y-84358402D01*
X122903520Y-84298453D01*
X123013932Y-84253953D01*
X123147544Y-84200103D01*
X123147549Y-84200100D01*
X123147552Y-84200099D01*
X123373710Y-84065647D01*
X123373712Y-84065645D01*
X123373713Y-84065645D01*
X123423107Y-84024909D01*
X123558012Y-83913654D01*
X131941500Y-83913654D01*
X131948011Y-83974202D01*
X131948011Y-83974204D01*
X131982118Y-84065645D01*
X131999111Y-84111204D01*
X132086739Y-84228261D01*
X132203796Y-84315889D01*
X132340799Y-84366989D01*
X132368050Y-84369918D01*
X132401345Y-84373499D01*
X132401362Y-84373500D01*
X136518638Y-84373500D01*
X136518654Y-84373499D01*
X136545692Y-84370591D01*
X136579201Y-84366989D01*
X136716204Y-84315889D01*
X136833261Y-84228261D01*
X136920889Y-84111204D01*
X136971989Y-83974201D01*
X136975591Y-83940692D01*
X136978499Y-83913654D01*
X136978500Y-83913637D01*
X136978500Y-81406362D01*
X136978499Y-81406345D01*
X136975157Y-81375270D01*
X136971989Y-81345799D01*
X136967649Y-81334164D01*
X136937881Y-81254353D01*
X136920889Y-81208796D01*
X136833261Y-81091739D01*
X136716204Y-81004111D01*
X136669425Y-80986663D01*
X136579203Y-80953011D01*
X136518654Y-80946500D01*
X136518638Y-80946500D01*
X132401362Y-80946500D01*
X132401345Y-80946500D01*
X132340797Y-80953011D01*
X132340795Y-80953011D01*
X132203795Y-81004111D01*
X132086739Y-81091739D01*
X131999111Y-81208795D01*
X131948011Y-81345795D01*
X131948011Y-81345797D01*
X131941500Y-81406345D01*
X131941500Y-83913654D01*
X123558012Y-83913654D01*
X123576694Y-83898247D01*
X123751745Y-83701824D01*
X123751751Y-83701815D01*
X123894759Y-83480986D01*
X123894761Y-83480982D01*
X124002387Y-83240903D01*
X124002388Y-83240902D01*
X124002388Y-83240900D01*
X124002390Y-83240897D01*
X124072108Y-82987195D01*
X124102282Y-82725825D01*
X124092204Y-82462912D01*
X124089957Y-82451328D01*
X124072519Y-82361411D01*
X124042111Y-82204618D01*
X124042109Y-82204613D01*
X124042109Y-82204611D01*
X123953179Y-81957002D01*
X123953177Y-81956998D01*
X123827486Y-81725856D01*
X123667984Y-81516609D01*
X123478410Y-81334163D01*
X123263208Y-81182793D01*
X123136178Y-81119896D01*
X123027427Y-81066049D01*
X123027419Y-81066046D01*
X122776578Y-80986663D01*
X122672566Y-80970597D01*
X122516553Y-80946500D01*
X120709316Y-80946500D01*
X120709313Y-80946500D01*
X120512666Y-80961598D01*
X120512659Y-80961599D01*
X120256485Y-81021545D01*
X120256472Y-81021549D01*
X120012455Y-81119896D01*
X120012446Y-81119901D01*
X119786287Y-81254354D01*
X119786286Y-81254354D01*
X119583308Y-81421751D01*
X119583306Y-81421752D01*
X119408255Y-81618175D01*
X119408248Y-81618184D01*
X119265240Y-81839013D01*
X119265238Y-81839017D01*
X119157612Y-82079096D01*
X119157611Y-82079097D01*
X119087891Y-82332807D01*
X119057718Y-82594175D01*
X99288900Y-82594175D01*
X99288900Y-79211598D01*
X99308585Y-79144559D01*
X99361389Y-79098804D01*
X99430547Y-79088860D01*
X99484024Y-79110023D01*
X99485695Y-79111193D01*
X99485700Y-79111198D01*
X99673251Y-79242523D01*
X99798091Y-79300736D01*
X99880750Y-79339281D01*
X99880752Y-79339281D01*
X99880757Y-79339284D01*
X100101913Y-79398543D01*
X100264832Y-79412796D01*
X100329998Y-79418498D01*
X100330000Y-79418498D01*
X100330002Y-79418498D01*
X100389013Y-79413335D01*
X100558087Y-79398543D01*
X100779243Y-79339284D01*
X100986749Y-79242523D01*
X101174300Y-79111198D01*
X101336198Y-78949300D01*
X101446779Y-78791374D01*
X101501354Y-78747751D01*
X101542926Y-78739567D01*
X101542898Y-78739123D01*
X101542882Y-78738990D01*
X101542890Y-78738988D01*
X101542875Y-78738744D01*
X101546743Y-78738500D01*
X101546756Y-78738500D01*
X101562697Y-78736485D01*
X101570419Y-78735756D01*
X101626550Y-78732225D01*
X101634562Y-78729621D01*
X101657343Y-78724528D01*
X101665697Y-78723474D01*
X101717985Y-78702771D01*
X101725272Y-78700147D01*
X101778775Y-78682764D01*
X101785885Y-78678251D01*
X101806684Y-78667652D01*
X101814517Y-78664552D01*
X101860004Y-78631502D01*
X101866421Y-78627141D01*
X101913918Y-78597000D01*
X101919689Y-78590853D01*
X101937194Y-78575421D01*
X101944007Y-78570472D01*
X101979870Y-78527119D01*
X101984970Y-78521335D01*
X102023486Y-78480321D01*
X102027542Y-78472940D01*
X102040659Y-78453638D01*
X102046033Y-78447144D01*
X102069981Y-78396249D01*
X102073488Y-78389365D01*
X102100595Y-78340060D01*
X102102690Y-78331897D01*
X102110601Y-78309929D01*
X102114183Y-78302318D01*
X102124722Y-78247065D01*
X102126408Y-78239522D01*
X102140400Y-78185030D01*
X102140400Y-78176605D01*
X102142596Y-78153374D01*
X102144175Y-78145094D01*
X102144175Y-78145091D01*
X102140645Y-78088984D01*
X102140400Y-78081198D01*
X102140400Y-77483365D01*
X102160085Y-77416326D01*
X102176714Y-77395689D01*
X105332863Y-74239539D01*
X105394184Y-74206056D01*
X105463876Y-74211040D01*
X105519809Y-74252912D01*
X105532924Y-74274817D01*
X105552476Y-74316748D01*
X105552477Y-74316749D01*
X105683802Y-74504300D01*
X105845700Y-74666198D01*
X106033251Y-74797523D01*
X106158091Y-74855736D01*
X106240750Y-74894281D01*
X106240752Y-74894281D01*
X106240757Y-74894284D01*
X106461913Y-74953543D01*
X106624832Y-74967796D01*
X106689998Y-74973498D01*
X106690000Y-74973498D01*
X106690002Y-74973498D01*
X106749013Y-74968335D01*
X106918087Y-74953543D01*
X107139243Y-74894284D01*
X107346749Y-74797523D01*
X107534300Y-74666198D01*
X107696198Y-74504300D01*
X107806779Y-74346374D01*
X107861354Y-74302751D01*
X107902926Y-74294567D01*
X107902898Y-74294123D01*
X107902882Y-74293990D01*
X107902890Y-74293988D01*
X107902875Y-74293744D01*
X107906743Y-74293500D01*
X107906756Y-74293500D01*
X107922697Y-74291485D01*
X107930419Y-74290756D01*
X107986550Y-74287225D01*
X107994562Y-74284621D01*
X108017343Y-74279528D01*
X108025697Y-74278474D01*
X108077985Y-74257771D01*
X108085290Y-74255141D01*
X108138775Y-74237764D01*
X108138775Y-74237763D01*
X108144767Y-74235817D01*
X108214608Y-74233822D01*
X108274441Y-74269903D01*
X108305268Y-74332604D01*
X108297303Y-74402019D01*
X108270765Y-74441429D01*
X106291179Y-76421014D01*
X106278820Y-76430918D01*
X106278993Y-76431127D01*
X106272982Y-76436100D01*
X106226338Y-76485769D01*
X106223633Y-76488560D01*
X106203873Y-76508321D01*
X106203858Y-76508338D01*
X106201317Y-76511613D01*
X106193753Y-76520467D01*
X106163420Y-76552771D01*
X106163412Y-76552781D01*
X106153579Y-76570667D01*
X106142903Y-76586920D01*
X106130386Y-76603057D01*
X106130385Y-76603060D01*
X106112785Y-76643729D01*
X106107648Y-76654215D01*
X106086303Y-76693041D01*
X106086303Y-76693042D01*
X106081225Y-76712820D01*
X106074925Y-76731222D01*
X106066818Y-76749957D01*
X106059888Y-76793709D01*
X106057520Y-76805145D01*
X106046500Y-76848065D01*
X106046500Y-76868484D01*
X106044972Y-76887890D01*
X106041735Y-76908319D01*
X106011801Y-76971452D01*
X105990387Y-76990487D01*
X105835699Y-77098802D01*
X105673806Y-77260695D01*
X105673803Y-77260698D01*
X105673802Y-77260700D01*
X105638900Y-77310545D01*
X105542476Y-77448252D01*
X105542475Y-77448254D01*
X105445718Y-77655750D01*
X105445714Y-77655761D01*
X105386457Y-77876910D01*
X105386456Y-77876918D01*
X105366502Y-78104998D01*
X105366502Y-78105001D01*
X105386456Y-78333081D01*
X105386457Y-78333089D01*
X105445714Y-78554238D01*
X105445718Y-78554249D01*
X105542475Y-78761745D01*
X105542477Y-78761749D01*
X105673802Y-78949300D01*
X105835700Y-79111198D01*
X106023251Y-79242523D01*
X106148091Y-79300736D01*
X106230750Y-79339281D01*
X106230752Y-79339281D01*
X106230757Y-79339284D01*
X106451913Y-79398543D01*
X106614832Y-79412796D01*
X106679998Y-79418498D01*
X106680000Y-79418498D01*
X106680002Y-79418498D01*
X106739013Y-79413335D01*
X106908087Y-79398543D01*
X107129243Y-79339284D01*
X107336749Y-79242523D01*
X107524300Y-79111198D01*
X107686198Y-78949300D01*
X107817523Y-78761749D01*
X107914284Y-78554243D01*
X107973543Y-78333087D01*
X107993498Y-78105000D01*
X107973543Y-77876913D01*
X107914284Y-77655757D01*
X107912134Y-77651147D01*
X107847405Y-77512334D01*
X107829997Y-77475001D01*
X110446502Y-77475001D01*
X110466456Y-77703081D01*
X110466457Y-77703089D01*
X110525714Y-77924238D01*
X110525718Y-77924249D01*
X110602535Y-78088984D01*
X110622477Y-78131749D01*
X110753802Y-78319300D01*
X110915700Y-78481198D01*
X111103251Y-78612523D01*
X111143965Y-78631508D01*
X111310750Y-78709281D01*
X111310752Y-78709281D01*
X111310757Y-78709284D01*
X111531913Y-78768543D01*
X111694832Y-78782796D01*
X111759998Y-78788498D01*
X111760000Y-78788498D01*
X111760002Y-78788498D01*
X111817021Y-78783509D01*
X111988087Y-78768543D01*
X112209243Y-78709284D01*
X112416749Y-78612523D01*
X112604300Y-78481198D01*
X112766198Y-78319300D01*
X112897523Y-78131749D01*
X112994284Y-77924243D01*
X113053543Y-77703087D01*
X113073498Y-77475000D01*
X113053543Y-77246913D01*
X112994284Y-77025757D01*
X112980370Y-76995919D01*
X112931548Y-76891218D01*
X112897523Y-76818251D01*
X112766198Y-76630700D01*
X112604300Y-76468802D01*
X112416749Y-76337477D01*
X112416745Y-76337475D01*
X112209249Y-76240718D01*
X112209238Y-76240714D01*
X111988089Y-76181457D01*
X111988081Y-76181456D01*
X111760002Y-76161502D01*
X111759998Y-76161502D01*
X111531918Y-76181456D01*
X111531910Y-76181457D01*
X111310761Y-76240714D01*
X111310750Y-76240718D01*
X111103254Y-76337475D01*
X111103252Y-76337476D01*
X111071922Y-76359414D01*
X110915700Y-76468802D01*
X110915698Y-76468803D01*
X110915695Y-76468806D01*
X110753806Y-76630695D01*
X110753803Y-76630698D01*
X110753802Y-76630700D01*
X110685197Y-76728678D01*
X110622476Y-76818252D01*
X110622475Y-76818254D01*
X110525718Y-77025750D01*
X110525714Y-77025761D01*
X110466457Y-77246910D01*
X110466456Y-77246918D01*
X110446502Y-77474998D01*
X110446502Y-77475001D01*
X107829997Y-77475001D01*
X107817523Y-77448251D01*
X107686198Y-77260700D01*
X107552432Y-77126934D01*
X107518947Y-77065611D01*
X107523931Y-76995919D01*
X107552432Y-76951572D01*
X111265350Y-73238654D01*
X114301500Y-73238654D01*
X114308011Y-73299202D01*
X114308011Y-73299204D01*
X114357512Y-73431918D01*
X114359111Y-73436204D01*
X114446739Y-73553261D01*
X114563796Y-73640889D01*
X114700799Y-73691989D01*
X114728050Y-73694918D01*
X114761345Y-73698499D01*
X114761362Y-73698500D01*
X116458638Y-73698500D01*
X116458654Y-73698499D01*
X116485692Y-73695591D01*
X116519201Y-73691989D01*
X116656204Y-73640889D01*
X116773261Y-73553261D01*
X116860889Y-73436204D01*
X116886710Y-73366977D01*
X116914300Y-73293007D01*
X116956171Y-73237073D01*
X117021636Y-73212657D01*
X117089909Y-73227509D01*
X117118162Y-73248660D01*
X117265700Y-73396198D01*
X117453251Y-73527523D01*
X117508445Y-73553260D01*
X117660750Y-73624281D01*
X117660752Y-73624281D01*
X117660757Y-73624284D01*
X117881913Y-73683543D01*
X118044832Y-73697796D01*
X118109998Y-73703498D01*
X118110000Y-73703498D01*
X118110002Y-73703498D01*
X118167893Y-73698433D01*
X118338087Y-73683543D01*
X118559243Y-73624284D01*
X118766749Y-73527523D01*
X118954300Y-73396198D01*
X119116198Y-73234300D01*
X119247523Y-73046749D01*
X119344284Y-72839243D01*
X119403543Y-72618087D01*
X119423498Y-72390000D01*
X119423098Y-72385433D01*
X119404123Y-72168542D01*
X119403543Y-72161913D01*
X119344284Y-71940757D01*
X119339918Y-71931395D01*
X119267804Y-71776745D01*
X119247523Y-71733251D01*
X119116198Y-71545700D01*
X118954300Y-71383802D01*
X118766749Y-71252477D01*
X118766745Y-71252475D01*
X118559249Y-71155718D01*
X118559238Y-71155714D01*
X118338089Y-71096457D01*
X118338081Y-71096456D01*
X118110002Y-71076502D01*
X118109998Y-71076502D01*
X117881918Y-71096456D01*
X117881910Y-71096457D01*
X117660761Y-71155714D01*
X117660750Y-71155718D01*
X117453254Y-71252475D01*
X117453252Y-71252476D01*
X117375216Y-71307118D01*
X117283381Y-71371422D01*
X117265699Y-71383803D01*
X117118162Y-71531340D01*
X117056839Y-71564824D01*
X116987147Y-71559840D01*
X116931214Y-71517968D01*
X116914300Y-71486993D01*
X116875811Y-71383803D01*
X116860889Y-71343796D01*
X116773261Y-71226739D01*
X116656204Y-71139111D01*
X116642560Y-71134022D01*
X116519203Y-71088011D01*
X116458654Y-71081500D01*
X116458638Y-71081500D01*
X114761362Y-71081500D01*
X114761345Y-71081500D01*
X114700797Y-71088011D01*
X114700795Y-71088011D01*
X114563795Y-71139111D01*
X114446739Y-71226739D01*
X114359111Y-71343795D01*
X114308011Y-71480795D01*
X114308011Y-71480797D01*
X114301500Y-71541345D01*
X114301500Y-73238654D01*
X111265350Y-73238654D01*
X111716438Y-72787566D01*
X115998817Y-68505186D01*
X116011178Y-68495285D01*
X116011004Y-68495075D01*
X116017013Y-68490102D01*
X116017018Y-68490100D01*
X116063690Y-68440397D01*
X116066339Y-68437664D01*
X116086135Y-68417870D01*
X116088672Y-68414598D01*
X116096251Y-68405724D01*
X116126586Y-68373421D01*
X116136419Y-68355532D01*
X116147102Y-68339269D01*
X116159614Y-68323141D01*
X116177207Y-68282481D01*
X116182350Y-68271985D01*
X116203693Y-68233164D01*
X116203693Y-68233163D01*
X116203695Y-68233160D01*
X116208774Y-68213373D01*
X116215070Y-68194985D01*
X116223181Y-68176245D01*
X116230113Y-68132472D01*
X116232478Y-68121053D01*
X116243500Y-68078130D01*
X116243500Y-68057715D01*
X116245027Y-68038314D01*
X116248220Y-68018157D01*
X116244050Y-67974042D01*
X116243500Y-67962373D01*
X116243500Y-63662500D01*
X116263185Y-63595461D01*
X116315989Y-63549706D01*
X116367500Y-63538500D01*
X116458638Y-63538500D01*
X116458654Y-63538499D01*
X116485692Y-63535591D01*
X116519201Y-63531989D01*
X116656204Y-63480889D01*
X116773261Y-63393261D01*
X116860889Y-63276204D01*
X116878888Y-63227946D01*
X116914300Y-63133007D01*
X116956171Y-63077073D01*
X117021636Y-63052657D01*
X117089909Y-63067509D01*
X117118159Y-63088657D01*
X117265700Y-63236198D01*
X117298623Y-63259250D01*
X117342247Y-63313824D01*
X117351500Y-63360825D01*
X117351500Y-64705706D01*
X117350191Y-64723676D01*
X117346658Y-64747791D01*
X117351028Y-64797724D01*
X117351500Y-64808533D01*
X117351500Y-64814183D01*
X117355139Y-64845322D01*
X117355505Y-64848905D01*
X117362112Y-64924426D01*
X117363572Y-64931494D01*
X117363526Y-64931503D01*
X117365209Y-64939094D01*
X117365254Y-64939084D01*
X117366919Y-64946110D01*
X117392854Y-65017367D01*
X117394037Y-65020770D01*
X117417884Y-65092732D01*
X117417886Y-65092738D01*
X117417889Y-65092743D01*
X117420940Y-65099286D01*
X117420896Y-65099306D01*
X117424284Y-65106304D01*
X117424327Y-65106283D01*
X117427568Y-65112737D01*
X117469245Y-65176103D01*
X117471167Y-65179120D01*
X117510970Y-65243651D01*
X117510971Y-65243652D01*
X117510973Y-65243655D01*
X117515451Y-65249318D01*
X117515413Y-65249347D01*
X117520320Y-65255372D01*
X117520357Y-65255342D01*
X117525002Y-65260877D01*
X117580172Y-65312927D01*
X117582760Y-65315441D01*
X120584988Y-68317669D01*
X120618473Y-68378992D01*
X120620835Y-68416156D01*
X120606502Y-68579996D01*
X120606502Y-68580001D01*
X120626456Y-68808081D01*
X120626457Y-68808089D01*
X120685714Y-69029238D01*
X120685718Y-69029249D01*
X120776684Y-69224326D01*
X120782477Y-69236749D01*
X120913802Y-69424300D01*
X121075700Y-69586198D01*
X121263251Y-69717523D01*
X121388091Y-69775736D01*
X121470750Y-69814281D01*
X121470752Y-69814281D01*
X121470757Y-69814284D01*
X121691913Y-69873543D01*
X121854832Y-69887796D01*
X121919998Y-69893498D01*
X121920000Y-69893498D01*
X121920002Y-69893498D01*
X121977021Y-69888509D01*
X122148087Y-69873543D01*
X122369243Y-69814284D01*
X122576749Y-69717523D01*
X122764300Y-69586198D01*
X122926198Y-69424300D01*
X123057523Y-69236749D01*
X123154284Y-69029243D01*
X123213543Y-68808087D01*
X123233498Y-68580000D01*
X123213543Y-68351913D01*
X123154284Y-68130757D01*
X123149753Y-68121041D01*
X123077804Y-67966745D01*
X123057523Y-67923251D01*
X122926198Y-67735700D01*
X122764300Y-67573802D01*
X122576749Y-67442477D01*
X122576745Y-67442475D01*
X122369249Y-67345718D01*
X122369238Y-67345714D01*
X122148089Y-67286457D01*
X122148081Y-67286456D01*
X121920002Y-67266502D01*
X121919997Y-67266502D01*
X121756156Y-67280835D01*
X121687657Y-67267068D01*
X121657669Y-67244988D01*
X118904819Y-64492138D01*
X118871334Y-64430815D01*
X118868500Y-64404457D01*
X118868500Y-63360825D01*
X118888185Y-63293786D01*
X118921375Y-63259251D01*
X118954300Y-63236198D01*
X119116198Y-63074300D01*
X119247523Y-62886749D01*
X119344284Y-62679243D01*
X119403543Y-62458087D01*
X119423498Y-62230000D01*
X119422908Y-62223261D01*
X119412404Y-62103193D01*
X119403543Y-62001913D01*
X119344284Y-61780757D01*
X119247523Y-61573251D01*
X119116198Y-61385700D01*
X118954300Y-61223802D01*
X118766749Y-61092477D01*
X118766745Y-61092475D01*
X118559249Y-60995718D01*
X118559238Y-60995714D01*
X118425971Y-60960005D01*
X125586673Y-60960005D01*
X125605948Y-61192622D01*
X125663251Y-61418907D01*
X125757015Y-61632668D01*
X125884686Y-61828084D01*
X126042776Y-61999814D01*
X126042781Y-61999819D01*
X126193663Y-62117256D01*
X126234476Y-62173966D01*
X126241500Y-62215109D01*
X126241500Y-71063806D01*
X126240191Y-71081776D01*
X126236658Y-71105891D01*
X126239635Y-71139909D01*
X126241018Y-71155716D01*
X126241028Y-71155824D01*
X126241500Y-71166633D01*
X126241500Y-71172283D01*
X126245139Y-71203422D01*
X126245505Y-71207005D01*
X126252112Y-71282526D01*
X126253572Y-71289594D01*
X126253526Y-71289603D01*
X126255209Y-71297194D01*
X126255254Y-71297184D01*
X126256919Y-71304210D01*
X126282854Y-71375467D01*
X126284037Y-71378870D01*
X126295356Y-71413026D01*
X126307886Y-71450838D01*
X126307889Y-71450843D01*
X126310940Y-71457386D01*
X126310896Y-71457406D01*
X126314284Y-71464404D01*
X126314327Y-71464383D01*
X126317568Y-71470837D01*
X126359245Y-71534203D01*
X126361167Y-71537220D01*
X126400970Y-71601751D01*
X126400971Y-71601752D01*
X126400973Y-71601755D01*
X126405451Y-71607418D01*
X126405413Y-71607447D01*
X126410320Y-71613472D01*
X126410357Y-71613442D01*
X126415002Y-71618977D01*
X126470172Y-71671027D01*
X126472760Y-71673541D01*
X128366637Y-73567418D01*
X128400122Y-73628741D01*
X128395138Y-73698433D01*
X128353269Y-73754364D01*
X128336740Y-73766737D01*
X128249111Y-73883795D01*
X128195699Y-74026993D01*
X128153827Y-74082926D01*
X128088362Y-74107342D01*
X128020090Y-74092489D01*
X127991837Y-74071339D01*
X127844304Y-73923806D01*
X127844300Y-73923802D01*
X127656749Y-73792477D01*
X127613655Y-73772382D01*
X127449249Y-73695718D01*
X127449238Y-73695714D01*
X127228089Y-73636457D01*
X127228081Y-73636456D01*
X127000002Y-73616502D01*
X126999998Y-73616502D01*
X126771918Y-73636456D01*
X126771910Y-73636457D01*
X126550761Y-73695714D01*
X126550750Y-73695718D01*
X126343254Y-73792475D01*
X126343252Y-73792476D01*
X126343251Y-73792477D01*
X126155700Y-73923802D01*
X126155698Y-73923803D01*
X126155695Y-73923806D01*
X125993806Y-74085695D01*
X125993803Y-74085698D01*
X125993802Y-74085700D01*
X125957555Y-74137466D01*
X125862476Y-74273252D01*
X125862475Y-74273254D01*
X125765718Y-74480750D01*
X125765714Y-74480761D01*
X125706457Y-74701910D01*
X125706456Y-74701918D01*
X125686502Y-74929998D01*
X125686502Y-74930001D01*
X125706456Y-75158081D01*
X125706457Y-75158089D01*
X125765714Y-75379238D01*
X125765718Y-75379249D01*
X125862475Y-75586745D01*
X125862477Y-75586749D01*
X125993802Y-75774300D01*
X126155700Y-75936198D01*
X126343251Y-76067523D01*
X126398445Y-76093260D01*
X126550750Y-76164281D01*
X126550752Y-76164281D01*
X126550757Y-76164284D01*
X126771913Y-76223543D01*
X126934631Y-76237779D01*
X126999998Y-76243498D01*
X127000000Y-76243498D01*
X127000002Y-76243498D01*
X127065357Y-76237780D01*
X127228087Y-76223543D01*
X127449243Y-76164284D01*
X127656749Y-76067523D01*
X127844300Y-75936198D01*
X127991840Y-75788657D01*
X128053160Y-75755175D01*
X128122851Y-75760159D01*
X128178785Y-75802030D01*
X128195699Y-75833006D01*
X128234189Y-75936198D01*
X128249111Y-75976204D01*
X128336739Y-76093261D01*
X128453796Y-76180889D01*
X128566203Y-76222815D01*
X128588935Y-76231294D01*
X128590799Y-76231989D01*
X128618050Y-76234918D01*
X128651345Y-76238499D01*
X128651362Y-76238500D01*
X130348638Y-76238500D01*
X130348654Y-76238499D01*
X130375692Y-76235591D01*
X130409201Y-76231989D01*
X130411065Y-76231294D01*
X130433797Y-76222815D01*
X130546204Y-76180889D01*
X130663261Y-76093261D01*
X130750889Y-75976204D01*
X130801989Y-75839201D01*
X130807423Y-75788660D01*
X130808499Y-75778654D01*
X130808500Y-75778637D01*
X130808500Y-74930002D01*
X137154647Y-74930002D01*
X137174021Y-75151457D01*
X137174022Y-75151465D01*
X137231558Y-75366191D01*
X137231559Y-75366193D01*
X137231560Y-75366196D01*
X137267105Y-75442423D01*
X137325511Y-75567676D01*
X137338865Y-75586747D01*
X137453023Y-75749781D01*
X137610219Y-75906977D01*
X137792323Y-76034488D01*
X137993804Y-76128440D01*
X138208537Y-76185978D01*
X138366724Y-76199817D01*
X138429998Y-76205353D01*
X138430000Y-76205353D01*
X138430002Y-76205353D01*
X138485365Y-76200509D01*
X138651463Y-76185978D01*
X138866196Y-76128440D01*
X139067677Y-76034488D01*
X139249781Y-75906977D01*
X139406977Y-75749781D01*
X139534488Y-75567677D01*
X139628440Y-75366196D01*
X139685978Y-75151463D01*
X139703293Y-74953542D01*
X139705353Y-74930002D01*
X139705353Y-74929997D01*
X139689010Y-74743192D01*
X139685978Y-74708537D01*
X139628440Y-74493804D01*
X139534488Y-74292324D01*
X139534486Y-74292321D01*
X139534485Y-74292319D01*
X139406978Y-74110220D01*
X139332079Y-74035321D01*
X139249781Y-73953023D01*
X139067677Y-73825512D01*
X138953738Y-73772381D01*
X138901299Y-73726210D01*
X138882147Y-73659017D01*
X138902363Y-73592135D01*
X138953739Y-73547618D01*
X139067677Y-73494488D01*
X139249781Y-73366977D01*
X139406977Y-73209781D01*
X139534488Y-73027677D01*
X139628440Y-72826196D01*
X139685978Y-72611463D01*
X139705353Y-72390000D01*
X139704953Y-72385433D01*
X139691627Y-72233109D01*
X139685978Y-72168537D01*
X139628440Y-71953804D01*
X139534488Y-71752324D01*
X139534486Y-71752321D01*
X139534485Y-71752319D01*
X139406978Y-71570220D01*
X139354726Y-71517968D01*
X139249781Y-71413023D01*
X139076434Y-71291644D01*
X139032811Y-71237069D01*
X139025619Y-71167570D01*
X139057141Y-71105216D01*
X139115468Y-71070296D01*
X139131524Y-71065994D01*
X139275720Y-70992523D01*
X139298122Y-70981109D01*
X139298123Y-70981107D01*
X139298125Y-70981107D01*
X139443436Y-70863436D01*
X139561107Y-70718125D01*
X139568462Y-70703691D01*
X139599544Y-70642688D01*
X139645994Y-70551524D01*
X139694388Y-70370915D01*
X139700500Y-70293258D01*
X139700500Y-69406742D01*
X139694388Y-69329085D01*
X139645994Y-69148476D01*
X139616975Y-69091524D01*
X139561109Y-68981877D01*
X139453349Y-68848806D01*
X139443436Y-68836564D01*
X139327277Y-68742500D01*
X139298122Y-68718890D01*
X139131522Y-68634005D01*
X138950912Y-68585611D01*
X138873263Y-68579500D01*
X138873258Y-68579500D01*
X137986742Y-68579500D01*
X137986736Y-68579500D01*
X137909087Y-68585611D01*
X137909086Y-68585611D01*
X137728477Y-68634005D01*
X137561877Y-68718890D01*
X137416564Y-68836564D01*
X137298890Y-68981877D01*
X137214005Y-69148477D01*
X137165611Y-69329086D01*
X137165611Y-69329087D01*
X137159500Y-69406736D01*
X137159500Y-70293263D01*
X137165611Y-70370912D01*
X137165611Y-70370913D01*
X137214005Y-70551522D01*
X137298890Y-70718122D01*
X137320393Y-70744675D01*
X137416564Y-70863436D01*
X137489728Y-70922683D01*
X137561877Y-70981109D01*
X137671524Y-71036975D01*
X137728476Y-71065994D01*
X137740879Y-71069317D01*
X137744531Y-71070296D01*
X137804192Y-71106660D01*
X137834722Y-71169506D01*
X137826428Y-71238882D01*
X137783563Y-71291646D01*
X137610214Y-71413026D01*
X137453023Y-71570217D01*
X137325514Y-71752319D01*
X137325512Y-71752323D01*
X137231561Y-71953800D01*
X137174022Y-72168535D01*
X137174021Y-72168542D01*
X137154647Y-72389997D01*
X137154647Y-72390002D01*
X137174021Y-72611457D01*
X137174022Y-72611465D01*
X137231558Y-72826191D01*
X137231559Y-72826193D01*
X137231560Y-72826196D01*
X137237642Y-72839238D01*
X137325511Y-73027676D01*
X137338865Y-73046747D01*
X137453023Y-73209781D01*
X137610219Y-73366977D01*
X137792323Y-73494488D01*
X137887215Y-73538737D01*
X137906261Y-73547618D01*
X137958700Y-73593790D01*
X137977852Y-73660984D01*
X137957636Y-73727865D01*
X137906261Y-73772382D01*
X137792323Y-73825512D01*
X137792319Y-73825514D01*
X137610217Y-73953023D01*
X137453023Y-74110217D01*
X137325514Y-74292319D01*
X137325512Y-74292323D01*
X137231561Y-74493800D01*
X137174022Y-74708535D01*
X137174021Y-74708542D01*
X137154647Y-74929997D01*
X137154647Y-74930002D01*
X130808500Y-74930002D01*
X130808500Y-74081362D01*
X130808499Y-74081345D01*
X130803550Y-74035321D01*
X130801989Y-74020799D01*
X130800820Y-74017666D01*
X130765812Y-73923806D01*
X130750889Y-73883796D01*
X130663261Y-73766739D01*
X130546204Y-73679111D01*
X130528335Y-73672446D01*
X130409203Y-73628011D01*
X130361370Y-73622868D01*
X130296819Y-73596130D01*
X130256971Y-73538737D01*
X130251098Y-73510383D01*
X130247887Y-73473677D01*
X130247887Y-73473674D01*
X130247885Y-73473669D01*
X130246427Y-73466603D01*
X130246473Y-73466593D01*
X130244790Y-73459002D01*
X130244744Y-73459014D01*
X130243079Y-73451993D01*
X130243079Y-73451987D01*
X130217120Y-73380666D01*
X130215981Y-73377390D01*
X130192114Y-73305362D01*
X130192111Y-73305357D01*
X130189061Y-73298815D01*
X130189105Y-73298794D01*
X130185717Y-73291795D01*
X130185674Y-73291817D01*
X130182437Y-73285371D01*
X130158291Y-73248660D01*
X130140717Y-73221940D01*
X130138834Y-73218983D01*
X130099030Y-73154449D01*
X130094553Y-73148787D01*
X130094590Y-73148756D01*
X130089681Y-73142729D01*
X130089645Y-73142760D01*
X130085002Y-73137227D01*
X130029825Y-73085170D01*
X130027238Y-73082657D01*
X127794819Y-70850238D01*
X127761334Y-70788915D01*
X127758500Y-70762557D01*
X127758500Y-62215109D01*
X127778185Y-62148070D01*
X127806337Y-62117256D01*
X127881241Y-62058955D01*
X127957220Y-61999818D01*
X127957225Y-61999812D01*
X127960990Y-61996347D01*
X127961714Y-61997133D01*
X128017067Y-61963861D01*
X128086905Y-61965954D01*
X128144525Y-62005472D01*
X128164602Y-62040495D01*
X128189111Y-62106205D01*
X128222679Y-62151046D01*
X128276739Y-62223261D01*
X128393796Y-62310889D01*
X128530799Y-62361989D01*
X128558050Y-62364918D01*
X128591345Y-62368499D01*
X128591362Y-62368500D01*
X128782500Y-62368500D01*
X128849539Y-62388185D01*
X128895294Y-62440989D01*
X128906500Y-62492500D01*
X128906500Y-67361647D01*
X128886815Y-67428686D01*
X128853624Y-67463221D01*
X128695699Y-67573802D01*
X128533806Y-67735695D01*
X128533803Y-67735698D01*
X128533802Y-67735700D01*
X128517317Y-67759243D01*
X128402476Y-67923252D01*
X128402475Y-67923254D01*
X128305718Y-68130750D01*
X128305714Y-68130761D01*
X128246457Y-68351910D01*
X128246456Y-68351918D01*
X128226502Y-68579998D01*
X128226502Y-68580001D01*
X128246456Y-68808081D01*
X128246457Y-68808089D01*
X128305714Y-69029238D01*
X128305718Y-69029249D01*
X128396684Y-69224326D01*
X128402477Y-69236749D01*
X128533802Y-69424300D01*
X128695700Y-69586198D01*
X128883251Y-69717523D01*
X129008091Y-69775736D01*
X129090750Y-69814281D01*
X129090752Y-69814281D01*
X129090757Y-69814284D01*
X129311913Y-69873543D01*
X129474832Y-69887796D01*
X129539998Y-69893498D01*
X129540000Y-69893498D01*
X129540002Y-69893498D01*
X129597021Y-69888509D01*
X129768087Y-69873543D01*
X129989243Y-69814284D01*
X130196749Y-69717523D01*
X130384300Y-69586198D01*
X130546198Y-69424300D01*
X130677523Y-69236749D01*
X130774284Y-69029243D01*
X130833543Y-68808087D01*
X130853498Y-68580000D01*
X130833543Y-68351913D01*
X130774284Y-68130757D01*
X130769753Y-68121041D01*
X130697804Y-67966745D01*
X130677523Y-67923251D01*
X130546198Y-67735700D01*
X130384300Y-67573802D01*
X130333294Y-67538087D01*
X130226376Y-67463221D01*
X130182751Y-67408644D01*
X130173500Y-67361647D01*
X130173500Y-62492500D01*
X130193185Y-62425461D01*
X130245989Y-62379706D01*
X130297500Y-62368500D01*
X130488638Y-62368500D01*
X130488654Y-62368499D01*
X130515692Y-62365591D01*
X130549201Y-62361989D01*
X130686204Y-62310889D01*
X130803261Y-62223261D01*
X130890889Y-62106204D01*
X130941989Y-61969201D01*
X130945591Y-61935692D01*
X130948499Y-61908654D01*
X130948500Y-61908637D01*
X130948500Y-60011362D01*
X130948499Y-60011345D01*
X130942312Y-59953806D01*
X130941989Y-59950799D01*
X130936259Y-59935437D01*
X130915650Y-59880182D01*
X130890889Y-59813796D01*
X130803261Y-59696739D01*
X130686204Y-59609111D01*
X130549203Y-59558011D01*
X130488654Y-59551500D01*
X130488638Y-59551500D01*
X128591362Y-59551500D01*
X128591345Y-59551500D01*
X128530797Y-59558011D01*
X128530795Y-59558011D01*
X128393795Y-59609111D01*
X128276739Y-59696739D01*
X128189111Y-59813794D01*
X128164602Y-59879504D01*
X128122729Y-59935437D01*
X128057264Y-59959852D01*
X127988992Y-59944999D01*
X127961275Y-59923342D01*
X127960990Y-59923653D01*
X127957225Y-59920187D01*
X127957220Y-59920182D01*
X127773017Y-59776810D01*
X127773015Y-59776809D01*
X127773014Y-59776808D01*
X127773011Y-59776806D01*
X127567733Y-59665716D01*
X127567730Y-59665715D01*
X127567727Y-59665713D01*
X127567721Y-59665711D01*
X127567719Y-59665710D01*
X127346954Y-59589920D01*
X127152806Y-59557523D01*
X127116712Y-59551500D01*
X126883288Y-59551500D01*
X126847194Y-59557523D01*
X126653045Y-59589920D01*
X126432280Y-59665710D01*
X126432266Y-59665716D01*
X126226988Y-59776806D01*
X126226985Y-59776808D01*
X126042781Y-59920181D01*
X126042776Y-59920185D01*
X125884686Y-60091915D01*
X125757015Y-60287331D01*
X125663251Y-60501092D01*
X125605948Y-60727377D01*
X125586673Y-60959994D01*
X125586673Y-60960005D01*
X118425971Y-60960005D01*
X118338089Y-60936457D01*
X118338081Y-60936456D01*
X118110002Y-60916502D01*
X118109998Y-60916502D01*
X117881918Y-60936456D01*
X117881910Y-60936457D01*
X117660761Y-60995714D01*
X117660750Y-60995718D01*
X117453254Y-61092475D01*
X117453252Y-61092476D01*
X117265699Y-61223803D01*
X117118162Y-61371340D01*
X117056839Y-61404824D01*
X116987147Y-61399840D01*
X116931214Y-61357968D01*
X116914300Y-61326993D01*
X116875811Y-61223803D01*
X116860889Y-61183796D01*
X116773261Y-61066739D01*
X116656204Y-60979111D01*
X116519203Y-60928011D01*
X116458654Y-60921500D01*
X116458638Y-60921500D01*
X114761362Y-60921500D01*
X114761345Y-60921500D01*
X114700797Y-60928011D01*
X114700795Y-60928011D01*
X114563795Y-60979111D01*
X114446739Y-61066739D01*
X114359111Y-61183795D01*
X114308011Y-61320795D01*
X114308011Y-61320797D01*
X114301500Y-61381345D01*
X114301500Y-63078654D01*
X114308011Y-63139202D01*
X114308011Y-63139204D01*
X114357512Y-63271918D01*
X114359111Y-63276204D01*
X114446739Y-63393261D01*
X114563796Y-63480889D01*
X114700799Y-63531989D01*
X114728050Y-63534918D01*
X114761345Y-63538499D01*
X114761362Y-63538500D01*
X114852500Y-63538500D01*
X114919539Y-63558185D01*
X114965294Y-63610989D01*
X114976500Y-63662500D01*
X114976500Y-67684333D01*
X114956815Y-67751372D01*
X114940181Y-67772014D01*
X113212118Y-69500076D01*
X113150795Y-69533561D01*
X113081103Y-69528577D01*
X113025170Y-69486705D01*
X113004662Y-69444488D01*
X112994286Y-69405764D01*
X112994281Y-69405750D01*
X112915370Y-69236524D01*
X112897523Y-69198251D01*
X112766198Y-69010700D01*
X112604300Y-68848802D01*
X112416749Y-68717477D01*
X112416745Y-68717475D01*
X112209249Y-68620718D01*
X112209238Y-68620714D01*
X111988089Y-68561457D01*
X111988081Y-68561456D01*
X111760002Y-68541502D01*
X111759998Y-68541502D01*
X111531918Y-68561456D01*
X111531910Y-68561457D01*
X111310761Y-68620714D01*
X111310750Y-68620718D01*
X111103254Y-68717475D01*
X111103252Y-68717476D01*
X111032856Y-68766767D01*
X110915700Y-68848802D01*
X110915698Y-68848803D01*
X110915695Y-68848806D01*
X110753802Y-69010699D01*
X110643221Y-69168624D01*
X110588644Y-69212249D01*
X110547077Y-69220431D01*
X110547129Y-69221256D01*
X110543225Y-69221501D01*
X110539132Y-69222018D01*
X110527504Y-69222933D01*
X110483213Y-69224325D01*
X110483207Y-69224326D01*
X110463600Y-69230022D01*
X110444561Y-69233965D01*
X110424311Y-69236524D01*
X110424305Y-69236525D01*
X110424303Y-69236526D01*
X110423750Y-69236745D01*
X110383106Y-69252836D01*
X110372060Y-69256617D01*
X110329513Y-69268979D01*
X110329507Y-69268981D01*
X110311933Y-69279374D01*
X110294472Y-69287928D01*
X110275486Y-69295446D01*
X110275485Y-69295446D01*
X110239635Y-69321492D01*
X110229876Y-69327902D01*
X110191737Y-69350457D01*
X110177301Y-69364894D01*
X110162515Y-69377523D01*
X110145993Y-69389528D01*
X110145991Y-69389529D01*
X110145991Y-69389530D01*
X110145988Y-69389533D01*
X110117742Y-69423674D01*
X110109883Y-69432311D01*
X108204256Y-71337937D01*
X108142933Y-71371422D01*
X108073241Y-71366438D01*
X108017308Y-71324566D01*
X107992891Y-71259102D01*
X107993046Y-71239456D01*
X108003498Y-71120000D01*
X108002263Y-71105889D01*
X107991731Y-70985500D01*
X107983543Y-70891913D01*
X107924284Y-70670757D01*
X107916716Y-70654528D01*
X107855689Y-70523654D01*
X107827523Y-70463251D01*
X107696198Y-70275700D01*
X107534300Y-70113802D01*
X107346749Y-69982477D01*
X107303655Y-69962382D01*
X107251215Y-69916210D01*
X107232063Y-69849017D01*
X107252278Y-69782136D01*
X107303655Y-69737618D01*
X107306882Y-69736112D01*
X107346749Y-69717523D01*
X107534300Y-69586198D01*
X107696198Y-69424300D01*
X107827523Y-69236749D01*
X107924284Y-69029243D01*
X107983543Y-68808087D01*
X108003498Y-68580000D01*
X107983543Y-68351913D01*
X107924284Y-68130757D01*
X107919753Y-68121041D01*
X107847804Y-67966745D01*
X107827523Y-67923251D01*
X107696198Y-67735700D01*
X107534300Y-67573802D01*
X107346749Y-67442477D01*
X107303655Y-67422382D01*
X107251215Y-67376210D01*
X107232063Y-67309017D01*
X107252278Y-67242136D01*
X107303655Y-67197618D01*
X107306882Y-67196112D01*
X107346749Y-67177523D01*
X107534300Y-67046198D01*
X107696198Y-66884300D01*
X107827523Y-66696749D01*
X107924284Y-66489243D01*
X107983543Y-66268087D01*
X108003498Y-66040000D01*
X107983543Y-65811913D01*
X107924284Y-65590757D01*
X107827523Y-65383251D01*
X107696198Y-65195700D01*
X107534300Y-65033802D01*
X107346749Y-64902477D01*
X107303655Y-64882382D01*
X107251215Y-64836210D01*
X107232063Y-64769017D01*
X107252278Y-64702136D01*
X107303655Y-64657618D01*
X107306882Y-64656112D01*
X107346749Y-64637523D01*
X107534300Y-64506198D01*
X107696198Y-64344300D01*
X107827523Y-64156749D01*
X107924284Y-63949243D01*
X107983543Y-63728087D01*
X108000699Y-63531988D01*
X108003060Y-63505001D01*
X110446502Y-63505001D01*
X110466456Y-63733081D01*
X110466457Y-63733089D01*
X110525714Y-63954238D01*
X110525718Y-63954249D01*
X110620145Y-64156749D01*
X110622477Y-64161749D01*
X110753802Y-64349300D01*
X110915700Y-64511198D01*
X111103251Y-64642523D01*
X111135623Y-64657618D01*
X111310750Y-64739281D01*
X111310752Y-64739281D01*
X111310757Y-64739284D01*
X111531913Y-64798543D01*
X111694832Y-64812796D01*
X111759998Y-64818498D01*
X111760000Y-64818498D01*
X111760002Y-64818498D01*
X111817021Y-64813509D01*
X111988087Y-64798543D01*
X112209243Y-64739284D01*
X112416749Y-64642523D01*
X112604300Y-64511198D01*
X112766198Y-64349300D01*
X112897523Y-64161749D01*
X112994284Y-63954243D01*
X113053543Y-63733087D01*
X113073498Y-63505000D01*
X113073060Y-63499998D01*
X113053543Y-63276918D01*
X113053543Y-63276913D01*
X112994284Y-63055757D01*
X112992838Y-63052657D01*
X112897524Y-62848254D01*
X112897523Y-62848252D01*
X112897523Y-62848251D01*
X112766198Y-62660700D01*
X112604300Y-62498802D01*
X112416749Y-62367477D01*
X112416745Y-62367475D01*
X112209249Y-62270718D01*
X112209238Y-62270714D01*
X111988089Y-62211457D01*
X111988081Y-62211456D01*
X111760002Y-62191502D01*
X111759998Y-62191502D01*
X111531918Y-62211456D01*
X111531910Y-62211457D01*
X111310761Y-62270714D01*
X111310750Y-62270718D01*
X111103254Y-62367475D01*
X111103252Y-62367476D01*
X111103251Y-62367477D01*
X110915700Y-62498802D01*
X110915698Y-62498803D01*
X110915695Y-62498806D01*
X110753806Y-62660695D01*
X110622476Y-62848252D01*
X110622475Y-62848254D01*
X110525718Y-63055750D01*
X110525714Y-63055761D01*
X110466457Y-63276910D01*
X110466456Y-63276918D01*
X110446502Y-63504998D01*
X110446502Y-63505001D01*
X108003060Y-63505001D01*
X108003498Y-63500001D01*
X108003498Y-63499998D01*
X107997796Y-63434832D01*
X107983543Y-63271913D01*
X107924284Y-63050757D01*
X107827523Y-62843251D01*
X107696198Y-62655700D01*
X107534300Y-62493802D01*
X107346749Y-62362477D01*
X107345702Y-62361989D01*
X107303655Y-62342382D01*
X107251215Y-62296210D01*
X107232063Y-62229017D01*
X107252278Y-62162136D01*
X107303655Y-62117618D01*
X107311103Y-62114145D01*
X107346749Y-62097523D01*
X107534300Y-61966198D01*
X107696198Y-61804300D01*
X107827523Y-61616749D01*
X107924284Y-61409243D01*
X107983543Y-61188087D01*
X108003498Y-60960000D01*
X108003497Y-60959994D01*
X107983543Y-60731918D01*
X107983543Y-60731913D01*
X107924284Y-60510757D01*
X107916716Y-60494528D01*
X107865352Y-60384376D01*
X107827523Y-60303251D01*
X107696198Y-60115700D01*
X107534300Y-59953802D01*
X107346749Y-59822477D01*
X107328132Y-59813796D01*
X107303655Y-59802382D01*
X107251215Y-59756210D01*
X107232063Y-59689017D01*
X107252278Y-59622136D01*
X107303655Y-59577618D01*
X107306882Y-59576112D01*
X107346749Y-59557523D01*
X107534300Y-59426198D01*
X107696198Y-59264300D01*
X107827523Y-59076749D01*
X107924284Y-58869243D01*
X107983543Y-58648087D01*
X108003498Y-58420000D01*
X108003497Y-58419994D01*
X107983543Y-58191918D01*
X107983543Y-58191913D01*
X107924284Y-57970757D01*
X107827523Y-57763251D01*
X107696198Y-57575700D01*
X107534300Y-57413802D01*
X107346749Y-57282477D01*
X107346745Y-57282475D01*
X107139249Y-57185718D01*
X107139238Y-57185714D01*
X106918089Y-57126457D01*
X106918081Y-57126456D01*
X106690002Y-57106502D01*
X106689998Y-57106502D01*
X106461918Y-57126456D01*
X106461910Y-57126457D01*
X106240761Y-57185714D01*
X106240750Y-57185718D01*
X106033254Y-57282475D01*
X106033252Y-57282476D01*
X106033251Y-57282477D01*
X105845700Y-57413802D01*
X105845698Y-57413803D01*
X105845695Y-57413806D01*
X105683806Y-57575695D01*
X105683803Y-57575698D01*
X105683802Y-57575700D01*
X105668648Y-57597342D01*
X105552476Y-57763252D01*
X105552475Y-57763254D01*
X105455718Y-57970750D01*
X105455714Y-57970761D01*
X105396457Y-58191910D01*
X105396456Y-58191918D01*
X105376502Y-58419998D01*
X105376502Y-58420001D01*
X105396456Y-58648081D01*
X105396457Y-58648089D01*
X105455714Y-58869238D01*
X105455718Y-58869249D01*
X105508115Y-58981614D01*
X105552477Y-59076749D01*
X105683802Y-59264300D01*
X105845700Y-59426198D01*
X106002072Y-59535691D01*
X106033251Y-59557523D01*
X106076345Y-59577618D01*
X106128784Y-59623791D01*
X106147936Y-59690984D01*
X106127720Y-59757865D01*
X106076345Y-59802382D01*
X106033251Y-59822476D01*
X105931316Y-59893853D01*
X105845700Y-59953802D01*
X105845698Y-59953803D01*
X105845695Y-59953806D01*
X105683806Y-60115695D01*
X105683803Y-60115698D01*
X105683802Y-60115700D01*
X105601767Y-60232856D01*
X105552476Y-60303252D01*
X105552475Y-60303254D01*
X105455718Y-60510750D01*
X105455714Y-60510761D01*
X105396457Y-60731910D01*
X105396456Y-60731918D01*
X105376502Y-60959998D01*
X105376502Y-60960001D01*
X105396456Y-61188081D01*
X105396457Y-61188089D01*
X105455714Y-61409238D01*
X105455718Y-61409249D01*
X105532194Y-61573252D01*
X105552477Y-61616749D01*
X105683802Y-61804300D01*
X105845700Y-61966198D01*
X106033251Y-62097523D01*
X106076345Y-62117618D01*
X106128784Y-62163791D01*
X106147936Y-62230984D01*
X106127720Y-62297865D01*
X106076345Y-62342382D01*
X106033251Y-62362476D01*
X105908126Y-62450090D01*
X105845700Y-62493802D01*
X105845698Y-62493803D01*
X105845695Y-62493806D01*
X105683806Y-62655695D01*
X105683803Y-62655698D01*
X105683802Y-62655700D01*
X105667317Y-62679243D01*
X105552476Y-62843252D01*
X105552475Y-62843254D01*
X105455718Y-63050750D01*
X105455714Y-63050761D01*
X105396457Y-63271910D01*
X105396456Y-63271918D01*
X105376502Y-63499998D01*
X105376502Y-63500001D01*
X105396456Y-63728081D01*
X105396457Y-63728089D01*
X105455714Y-63949238D01*
X105455718Y-63949249D01*
X105543726Y-64137983D01*
X105552477Y-64156749D01*
X105683802Y-64344300D01*
X105845700Y-64506198D01*
X106033251Y-64637523D01*
X106076345Y-64657618D01*
X106128784Y-64703791D01*
X106147936Y-64770984D01*
X106127720Y-64837865D01*
X106076345Y-64882382D01*
X106033251Y-64902476D01*
X105908126Y-64990090D01*
X105845700Y-65033802D01*
X105845698Y-65033803D01*
X105845695Y-65033806D01*
X105683806Y-65195695D01*
X105683803Y-65195698D01*
X105683802Y-65195700D01*
X105601767Y-65312856D01*
X105552476Y-65383252D01*
X105552475Y-65383254D01*
X105455718Y-65590750D01*
X105455714Y-65590761D01*
X105396457Y-65811910D01*
X105396456Y-65811918D01*
X105376502Y-66039998D01*
X105376502Y-66040001D01*
X105396456Y-66268081D01*
X105396457Y-66268089D01*
X105455714Y-66489238D01*
X105455718Y-66489249D01*
X105532194Y-66653252D01*
X105552477Y-66696749D01*
X105683802Y-66884300D01*
X105845700Y-67046198D01*
X106033251Y-67177523D01*
X106076345Y-67197618D01*
X106128784Y-67243791D01*
X106147936Y-67310984D01*
X106127720Y-67377865D01*
X106076345Y-67422382D01*
X106033251Y-67442476D01*
X105908126Y-67530090D01*
X105845700Y-67573802D01*
X105845698Y-67573803D01*
X105845695Y-67573806D01*
X105683806Y-67735695D01*
X105683803Y-67735698D01*
X105683802Y-67735700D01*
X105667317Y-67759243D01*
X105552476Y-67923252D01*
X105552475Y-67923254D01*
X105455718Y-68130750D01*
X105455714Y-68130761D01*
X105396457Y-68351910D01*
X105396456Y-68351918D01*
X105376502Y-68579998D01*
X105376502Y-68580001D01*
X105396456Y-68808081D01*
X105396457Y-68808089D01*
X105455714Y-69029238D01*
X105455718Y-69029249D01*
X105546684Y-69224326D01*
X105552477Y-69236749D01*
X105683802Y-69424300D01*
X105845700Y-69586198D01*
X106033251Y-69717523D01*
X106076345Y-69737618D01*
X106128784Y-69783791D01*
X106147936Y-69850984D01*
X106127720Y-69917865D01*
X106076345Y-69962382D01*
X106033251Y-69982476D01*
X105908126Y-70070090D01*
X105845700Y-70113802D01*
X105845698Y-70113803D01*
X105845695Y-70113806D01*
X105683806Y-70275695D01*
X105683803Y-70275698D01*
X105683802Y-70275700D01*
X105617134Y-70370912D01*
X105552476Y-70463252D01*
X105552475Y-70463254D01*
X105455718Y-70670750D01*
X105455714Y-70670761D01*
X105396457Y-70891910D01*
X105396456Y-70891918D01*
X105376502Y-71119998D01*
X105376502Y-71120001D01*
X105396456Y-71348081D01*
X105396457Y-71348089D01*
X105455714Y-71569238D01*
X105455718Y-71569249D01*
X105552475Y-71776745D01*
X105552477Y-71776749D01*
X105678687Y-71956996D01*
X105701015Y-72023200D01*
X105684005Y-72090967D01*
X105664794Y-72115799D01*
X101118079Y-76662514D01*
X101105720Y-76672418D01*
X101105893Y-76672627D01*
X101099882Y-76677600D01*
X101053238Y-76727269D01*
X101050533Y-76730060D01*
X101030773Y-76749821D01*
X101030758Y-76749838D01*
X101028217Y-76753113D01*
X101020653Y-76761967D01*
X100990320Y-76794271D01*
X100990312Y-76794281D01*
X100980479Y-76812167D01*
X100969800Y-76828423D01*
X100955763Y-76846520D01*
X100899121Y-76887428D01*
X100829355Y-76891218D01*
X100805382Y-76882904D01*
X100787051Y-76874357D01*
X100779239Y-76870714D01*
X100558089Y-76811457D01*
X100558081Y-76811456D01*
X100330002Y-76791502D01*
X100329998Y-76791502D01*
X100101918Y-76811456D01*
X100101910Y-76811457D01*
X99880761Y-76870714D01*
X99880750Y-76870718D01*
X99673254Y-76967475D01*
X99673252Y-76967476D01*
X99673251Y-76967477D01*
X99485700Y-77098802D01*
X99485698Y-77098803D01*
X99484024Y-77099976D01*
X99417818Y-77122303D01*
X99350050Y-77105293D01*
X99302237Y-77054345D01*
X99288900Y-76998401D01*
X99288900Y-75867042D01*
X99308585Y-75800003D01*
X99325215Y-75779365D01*
X99560880Y-75543699D01*
X99574506Y-75531923D01*
X99594058Y-75517369D01*
X99596552Y-75514397D01*
X99626274Y-75478975D01*
X99633590Y-75470990D01*
X99637581Y-75467000D01*
X99657047Y-75442379D01*
X99659295Y-75439621D01*
X99663222Y-75434942D01*
X99708032Y-75381540D01*
X99708033Y-75381537D01*
X99712004Y-75375501D01*
X99712045Y-75375528D01*
X99716219Y-75368976D01*
X99716176Y-75368950D01*
X99719961Y-75362812D01*
X99719967Y-75362805D01*
X99752021Y-75294063D01*
X99753579Y-75290846D01*
X99787605Y-75223096D01*
X99787605Y-75223095D01*
X99787609Y-75223088D01*
X99787611Y-75223079D01*
X99790077Y-75216305D01*
X99790124Y-75216322D01*
X99792675Y-75208983D01*
X99792629Y-75208968D01*
X99794900Y-75202110D01*
X99794903Y-75202106D01*
X99810244Y-75127805D01*
X99811021Y-75124301D01*
X99816640Y-75100594D01*
X99828500Y-75050556D01*
X99828500Y-75050553D01*
X99829339Y-75043383D01*
X99829386Y-75043388D01*
X99830177Y-75035657D01*
X99830130Y-75035653D01*
X99830759Y-75028462D01*
X99830622Y-75023769D01*
X99828552Y-74952607D01*
X99828500Y-74949001D01*
X99828500Y-74790825D01*
X99848185Y-74723786D01*
X99881375Y-74689251D01*
X99914300Y-74666198D01*
X100076198Y-74504300D01*
X100207523Y-74316749D01*
X100304284Y-74109243D01*
X100363543Y-73888087D01*
X100383498Y-73660000D01*
X100363543Y-73431913D01*
X100304284Y-73210757D01*
X100296661Y-73194410D01*
X100207524Y-73003254D01*
X100207523Y-73003252D01*
X100207523Y-73003251D01*
X100076198Y-72815700D01*
X99914300Y-72653802D01*
X99726749Y-72522477D01*
X99706498Y-72513034D01*
X99683655Y-72502382D01*
X99631215Y-72456210D01*
X99612063Y-72389017D01*
X99632278Y-72322136D01*
X99683655Y-72277618D01*
X99686882Y-72276112D01*
X99726749Y-72257523D01*
X99914300Y-72126198D01*
X100076198Y-71964300D01*
X100207523Y-71776749D01*
X100304284Y-71569243D01*
X100363543Y-71348087D01*
X100383498Y-71120000D01*
X100382263Y-71105889D01*
X100371731Y-70985500D01*
X100363543Y-70891913D01*
X100304284Y-70670757D01*
X100296716Y-70654528D01*
X100235689Y-70523654D01*
X100207523Y-70463251D01*
X100076198Y-70275700D01*
X99914300Y-70113802D01*
X99726749Y-69982477D01*
X99683655Y-69962382D01*
X99631215Y-69916210D01*
X99612063Y-69849017D01*
X99632278Y-69782136D01*
X99683655Y-69737618D01*
X99686882Y-69736112D01*
X99726749Y-69717523D01*
X99914300Y-69586198D01*
X100076198Y-69424300D01*
X100207523Y-69236749D01*
X100304284Y-69029243D01*
X100363543Y-68808087D01*
X100383498Y-68580000D01*
X100363543Y-68351913D01*
X100304284Y-68130757D01*
X100299753Y-68121041D01*
X100227804Y-67966745D01*
X100207523Y-67923251D01*
X100076198Y-67735700D01*
X99914300Y-67573802D01*
X99726749Y-67442477D01*
X99683655Y-67422382D01*
X99631215Y-67376210D01*
X99612063Y-67309017D01*
X99632278Y-67242136D01*
X99683655Y-67197618D01*
X99686882Y-67196112D01*
X99726749Y-67177523D01*
X99914300Y-67046198D01*
X100076198Y-66884300D01*
X100207523Y-66696749D01*
X100304284Y-66489243D01*
X100363543Y-66268087D01*
X100383498Y-66040000D01*
X100363543Y-65811913D01*
X100304284Y-65590757D01*
X100207523Y-65383251D01*
X100076198Y-65195700D01*
X99914300Y-65033802D01*
X99726749Y-64902477D01*
X99683655Y-64882382D01*
X99631215Y-64836210D01*
X99612063Y-64769017D01*
X99632278Y-64702136D01*
X99683655Y-64657618D01*
X99686882Y-64656112D01*
X99726749Y-64637523D01*
X99914300Y-64506198D01*
X100076198Y-64344300D01*
X100207523Y-64156749D01*
X100304284Y-63949243D01*
X100363543Y-63728087D01*
X100380699Y-63531988D01*
X100383498Y-63500001D01*
X100383498Y-63499998D01*
X100377796Y-63434832D01*
X100363543Y-63271913D01*
X100304284Y-63050757D01*
X100207523Y-62843251D01*
X100076198Y-62655700D01*
X99914300Y-62493802D01*
X99726749Y-62362477D01*
X99725702Y-62361989D01*
X99683655Y-62342382D01*
X99631215Y-62296210D01*
X99612063Y-62229017D01*
X99632278Y-62162136D01*
X99683655Y-62117618D01*
X99691103Y-62114145D01*
X99726749Y-62097523D01*
X99914300Y-61966198D01*
X100076198Y-61804300D01*
X100207523Y-61616749D01*
X100304284Y-61409243D01*
X100363543Y-61188087D01*
X100383498Y-60960000D01*
X100383497Y-60959994D01*
X100363543Y-60731918D01*
X100363543Y-60731913D01*
X100304284Y-60510757D01*
X100296716Y-60494528D01*
X100245352Y-60384376D01*
X100207523Y-60303251D01*
X100076198Y-60115700D01*
X99914300Y-59953802D01*
X99906627Y-59948429D01*
X99863006Y-59893853D01*
X99855814Y-59824355D01*
X99887338Y-59762001D01*
X99947568Y-59726588D01*
X99964489Y-59723570D01*
X99979201Y-59721989D01*
X100116204Y-59670889D01*
X100233261Y-59583261D01*
X100320889Y-59466204D01*
X100371989Y-59329201D01*
X100375985Y-59292030D01*
X100378499Y-59268654D01*
X100378500Y-59268637D01*
X100378500Y-57571362D01*
X100378499Y-57571345D01*
X100375157Y-57540270D01*
X100371989Y-57510799D01*
X100320889Y-57373796D01*
X100233261Y-57256739D01*
X100116204Y-57169111D01*
X99979203Y-57118011D01*
X99918654Y-57111500D01*
X99918638Y-57111500D01*
X98221362Y-57111500D01*
X98221345Y-57111500D01*
X98160797Y-57118011D01*
X98160795Y-57118011D01*
X98023795Y-57169111D01*
X97906739Y-57256739D01*
X97819111Y-57373795D01*
X97768011Y-57510795D01*
X97768011Y-57510797D01*
X97761500Y-57571345D01*
X97761500Y-59268654D01*
X97768011Y-59329202D01*
X97768011Y-59329204D01*
X97812787Y-59449248D01*
X97819111Y-59466204D01*
X97906739Y-59583261D01*
X98023796Y-59670889D01*
X98123110Y-59707931D01*
X98160793Y-59721987D01*
X98160799Y-59721989D01*
X98175499Y-59723569D01*
X98240048Y-59750305D01*
X98279897Y-59807696D01*
X98282393Y-59877521D01*
X98246742Y-59937611D01*
X98233377Y-59948425D01*
X98229992Y-59950797D01*
X98225696Y-59953805D01*
X98063802Y-60115699D01*
X97953221Y-60273624D01*
X97898644Y-60317249D01*
X97857077Y-60325431D01*
X97857129Y-60326256D01*
X97853225Y-60326501D01*
X97849132Y-60327018D01*
X97837504Y-60327933D01*
X97793210Y-60329325D01*
X97793209Y-60329326D01*
X97773596Y-60335023D01*
X97754559Y-60338965D01*
X97734308Y-60341524D01*
X97734302Y-60341526D01*
X97693114Y-60357832D01*
X97682071Y-60361613D01*
X97639505Y-60373981D01*
X97639501Y-60373983D01*
X97621927Y-60384376D01*
X97604462Y-60392932D01*
X97585487Y-60400445D01*
X97585485Y-60400446D01*
X97549639Y-60426489D01*
X97539880Y-60432899D01*
X97501735Y-60455459D01*
X97487300Y-60469894D01*
X97472512Y-60482525D01*
X97455994Y-60494526D01*
X97455988Y-60494533D01*
X97427742Y-60528674D01*
X97419883Y-60537311D01*
X95218483Y-62738710D01*
X95157160Y-62772195D01*
X95087468Y-62767211D01*
X95031535Y-62725339D01*
X95029227Y-62722152D01*
X94999186Y-62679249D01*
X94986198Y-62660700D01*
X94824300Y-62498802D01*
X94636749Y-62367477D01*
X94636745Y-62367475D01*
X94429249Y-62270718D01*
X94429238Y-62270714D01*
X94208089Y-62211457D01*
X94208081Y-62211456D01*
X93980002Y-62191502D01*
X93979998Y-62191502D01*
X93751918Y-62211456D01*
X93751910Y-62211457D01*
X93530761Y-62270714D01*
X93530750Y-62270718D01*
X93323254Y-62367475D01*
X93323252Y-62367476D01*
X93323251Y-62367477D01*
X93135700Y-62498802D01*
X93135698Y-62498803D01*
X93135695Y-62498806D01*
X92973806Y-62660695D01*
X92842476Y-62848252D01*
X92842475Y-62848254D01*
X92745718Y-63055750D01*
X92745714Y-63055761D01*
X92686457Y-63276910D01*
X92686456Y-63276918D01*
X92666502Y-63504998D01*
X92666502Y-63505001D01*
X92686456Y-63733081D01*
X92686457Y-63733089D01*
X92745714Y-63954238D01*
X92745718Y-63954249D01*
X92840145Y-64156749D01*
X92842477Y-64161749D01*
X92973802Y-64349300D01*
X93135700Y-64511198D01*
X93323251Y-64642523D01*
X93355623Y-64657618D01*
X93530750Y-64739281D01*
X93530752Y-64739281D01*
X93530757Y-64739284D01*
X93751913Y-64798543D01*
X93914832Y-64812796D01*
X93979998Y-64818498D01*
X93980000Y-64818498D01*
X93980002Y-64818498D01*
X94037021Y-64813509D01*
X94208087Y-64798543D01*
X94429243Y-64739284D01*
X94636749Y-64642523D01*
X94824300Y-64511198D01*
X94986198Y-64349300D01*
X95096779Y-64191374D01*
X95151354Y-64147751D01*
X95198352Y-64138500D01*
X95264466Y-64138500D01*
X95280213Y-64140238D01*
X95280239Y-64139968D01*
X95288005Y-64140701D01*
X95288009Y-64140702D01*
X95356117Y-64138560D01*
X95360013Y-64138500D01*
X95387958Y-64138500D01*
X95387960Y-64138499D01*
X95389362Y-64138322D01*
X95392049Y-64137983D01*
X95403708Y-64137064D01*
X95447989Y-64135673D01*
X95467581Y-64129980D01*
X95486638Y-64126032D01*
X95506897Y-64123474D01*
X95548106Y-64107157D01*
X95559143Y-64103379D01*
X95601693Y-64091018D01*
X95619265Y-64080625D01*
X95636732Y-64072068D01*
X95655717Y-64064552D01*
X95691561Y-64038508D01*
X95701330Y-64032092D01*
X95739462Y-64009542D01*
X95753902Y-63995100D01*
X95768692Y-63982470D01*
X95785207Y-63970472D01*
X95813459Y-63936319D01*
X95821303Y-63927699D01*
X97916573Y-61832429D01*
X97977894Y-61798946D01*
X98047586Y-61803930D01*
X98091933Y-61832431D01*
X98225700Y-61966198D01*
X98413251Y-62097523D01*
X98456345Y-62117618D01*
X98508784Y-62163791D01*
X98527936Y-62230984D01*
X98507720Y-62297865D01*
X98456345Y-62342382D01*
X98413251Y-62362476D01*
X98288126Y-62450090D01*
X98225700Y-62493802D01*
X98225698Y-62493803D01*
X98225695Y-62493806D01*
X98063806Y-62655695D01*
X98063803Y-62655698D01*
X98063802Y-62655700D01*
X98047317Y-62679243D01*
X97932476Y-62843252D01*
X97932475Y-62843254D01*
X97835718Y-63050750D01*
X97835714Y-63050761D01*
X97776457Y-63271910D01*
X97776456Y-63271918D01*
X97756502Y-63499998D01*
X97756502Y-63500001D01*
X97776456Y-63728081D01*
X97776457Y-63728089D01*
X97835714Y-63949238D01*
X97835718Y-63949249D01*
X97923726Y-64137983D01*
X97932477Y-64156749D01*
X98063802Y-64344300D01*
X98225700Y-64506198D01*
X98413251Y-64637523D01*
X98456345Y-64657618D01*
X98508784Y-64703791D01*
X98527936Y-64770984D01*
X98507720Y-64837865D01*
X98456345Y-64882382D01*
X98413251Y-64902476D01*
X98288126Y-64990090D01*
X98225700Y-65033802D01*
X98225698Y-65033803D01*
X98225695Y-65033806D01*
X98063806Y-65195695D01*
X98063803Y-65195698D01*
X98063802Y-65195700D01*
X97981767Y-65312856D01*
X97932476Y-65383252D01*
X97932475Y-65383254D01*
X97835718Y-65590750D01*
X97835714Y-65590761D01*
X97776457Y-65811910D01*
X97776456Y-65811918D01*
X97756502Y-66039998D01*
X97756502Y-66040001D01*
X97776456Y-66268081D01*
X97776457Y-66268089D01*
X97835714Y-66489238D01*
X97835718Y-66489249D01*
X97912194Y-66653252D01*
X97932477Y-66696749D01*
X98063802Y-66884300D01*
X98225700Y-67046198D01*
X98413251Y-67177523D01*
X98456345Y-67197618D01*
X98508784Y-67243791D01*
X98527936Y-67310984D01*
X98507720Y-67377865D01*
X98456345Y-67422382D01*
X98413251Y-67442476D01*
X98288126Y-67530090D01*
X98225700Y-67573802D01*
X98225698Y-67573803D01*
X98225695Y-67573806D01*
X98063806Y-67735695D01*
X98063803Y-67735698D01*
X98063802Y-67735700D01*
X98047317Y-67759243D01*
X97932476Y-67923252D01*
X97932475Y-67923254D01*
X97835718Y-68130750D01*
X97835714Y-68130761D01*
X97776457Y-68351910D01*
X97776456Y-68351918D01*
X97756502Y-68579998D01*
X97756502Y-68580001D01*
X97776456Y-68808081D01*
X97776457Y-68808089D01*
X97835714Y-69029238D01*
X97835718Y-69029249D01*
X97926684Y-69224326D01*
X97932477Y-69236749D01*
X98063802Y-69424300D01*
X98225700Y-69586198D01*
X98413251Y-69717523D01*
X98456345Y-69737618D01*
X98508784Y-69783791D01*
X98527936Y-69850984D01*
X98507720Y-69917865D01*
X98456345Y-69962382D01*
X98413251Y-69982476D01*
X98288126Y-70070090D01*
X98225700Y-70113802D01*
X98225698Y-70113803D01*
X98225695Y-70113806D01*
X98063806Y-70275695D01*
X98063803Y-70275698D01*
X98063802Y-70275700D01*
X97953220Y-70433625D01*
X97898646Y-70477249D01*
X97857079Y-70485430D01*
X97857131Y-70486255D01*
X97853257Y-70486498D01*
X97837309Y-70488512D01*
X97829567Y-70489243D01*
X97773451Y-70492774D01*
X97773449Y-70492775D01*
X97765429Y-70495381D01*
X97742663Y-70500469D01*
X97740876Y-70500695D01*
X97734306Y-70501525D01*
X97734303Y-70501525D01*
X97734303Y-70501526D01*
X97716918Y-70508408D01*
X97682038Y-70522218D01*
X97674716Y-70524854D01*
X97621228Y-70542234D01*
X97621219Y-70542239D01*
X97614103Y-70546755D01*
X97593321Y-70557344D01*
X97585483Y-70560448D01*
X97585480Y-70560449D01*
X97585478Y-70560451D01*
X97540005Y-70593488D01*
X97533567Y-70597863D01*
X97486087Y-70627996D01*
X97486078Y-70628003D01*
X97480307Y-70634149D01*
X97462810Y-70649575D01*
X97455993Y-70654527D01*
X97455993Y-70654528D01*
X97420152Y-70697851D01*
X97415003Y-70703691D01*
X97376517Y-70744675D01*
X97376513Y-70744679D01*
X97372455Y-70752062D01*
X97359341Y-70771358D01*
X97353966Y-70777855D01*
X97330025Y-70828730D01*
X97326492Y-70835665D01*
X97299405Y-70884939D01*
X97299402Y-70884945D01*
X97297307Y-70893107D01*
X97289409Y-70915048D01*
X97285817Y-70922683D01*
X97285815Y-70922689D01*
X97275282Y-70977902D01*
X97273584Y-70985500D01*
X97259600Y-71039965D01*
X97259600Y-71048393D01*
X97257404Y-71071628D01*
X97255825Y-71079903D01*
X97255825Y-71079906D01*
X97259355Y-71136014D01*
X97259600Y-71143800D01*
X97259600Y-71880032D01*
X97239915Y-71947071D01*
X97223281Y-71967713D01*
X96403427Y-72787566D01*
X96342104Y-72821051D01*
X96272412Y-72816067D01*
X96228065Y-72787567D01*
X96228064Y-72787566D01*
X96094300Y-72653802D01*
X95906749Y-72522477D01*
X95906745Y-72522475D01*
X95699249Y-72425718D01*
X95699238Y-72425714D01*
X95478089Y-72366457D01*
X95478081Y-72366456D01*
X95250002Y-72346502D01*
X95249998Y-72346502D01*
X95021918Y-72366456D01*
X95021910Y-72366457D01*
X94800761Y-72425714D01*
X94800750Y-72425718D01*
X94593254Y-72522475D01*
X94593252Y-72522476D01*
X94593251Y-72522477D01*
X94405700Y-72653802D01*
X94405698Y-72653803D01*
X94405695Y-72653806D01*
X94243806Y-72815695D01*
X94243803Y-72815698D01*
X94243802Y-72815700D01*
X94227317Y-72839243D01*
X94112476Y-73003252D01*
X94112475Y-73003254D01*
X94015718Y-73210750D01*
X94015714Y-73210761D01*
X93956457Y-73431910D01*
X93956456Y-73431918D01*
X93936502Y-73659998D01*
X93936502Y-73660001D01*
X93956456Y-73888081D01*
X93956457Y-73888089D01*
X94015714Y-74109238D01*
X94015718Y-74109249D01*
X94112475Y-74316745D01*
X94112477Y-74316749D01*
X94243802Y-74504300D01*
X94405700Y-74666198D01*
X94593251Y-74797523D01*
X94718091Y-74855736D01*
X94800750Y-74894281D01*
X94800752Y-74894281D01*
X94800757Y-74894284D01*
X95021913Y-74953543D01*
X95184832Y-74967796D01*
X95249998Y-74973498D01*
X95250000Y-74973498D01*
X95250002Y-74973498D01*
X95309013Y-74968335D01*
X95478087Y-74953543D01*
X95699243Y-74894284D01*
X95906749Y-74797523D01*
X96094300Y-74666198D01*
X96256198Y-74504300D01*
X96366779Y-74346374D01*
X96421354Y-74302751D01*
X96462917Y-74294569D01*
X96462866Y-74293745D01*
X96466746Y-74293500D01*
X96466756Y-74293500D01*
X96468162Y-74293322D01*
X96470849Y-74292983D01*
X96482508Y-74292064D01*
X96526789Y-74290673D01*
X96546381Y-74284980D01*
X96565438Y-74281032D01*
X96585697Y-74278474D01*
X96626906Y-74262157D01*
X96637943Y-74258379D01*
X96680493Y-74246018D01*
X96698065Y-74235625D01*
X96715532Y-74227068D01*
X96734517Y-74219552D01*
X96770361Y-74193508D01*
X96780130Y-74187092D01*
X96784988Y-74184219D01*
X96818262Y-74164542D01*
X96832702Y-74150100D01*
X96847492Y-74137470D01*
X96864007Y-74125472D01*
X96892259Y-74091319D01*
X96900103Y-74082699D01*
X97557183Y-73425619D01*
X97618504Y-73392136D01*
X97688196Y-73397120D01*
X97744129Y-73438992D01*
X97768546Y-73504456D01*
X97768390Y-73524109D01*
X97756502Y-73659997D01*
X97756502Y-73660001D01*
X97776456Y-73888081D01*
X97776457Y-73888089D01*
X97835714Y-74109238D01*
X97835718Y-74109249D01*
X97932475Y-74316745D01*
X97932477Y-74316749D01*
X98063802Y-74504300D01*
X98063806Y-74504304D01*
X98171679Y-74612177D01*
X98205164Y-74673500D01*
X98200180Y-74743192D01*
X98171680Y-74787537D01*
X98080487Y-74878731D01*
X98039522Y-74919696D01*
X98025895Y-74931473D01*
X98006341Y-74946031D01*
X97974113Y-74984438D01*
X97966821Y-74992397D01*
X97962820Y-74996398D01*
X97943383Y-75020979D01*
X97941110Y-75023769D01*
X97892367Y-75081860D01*
X97888401Y-75087891D01*
X97888363Y-75087866D01*
X97884182Y-75094428D01*
X97884221Y-75094452D01*
X97880435Y-75100588D01*
X97867734Y-75127825D01*
X97848367Y-75169355D01*
X97846812Y-75172568D01*
X97812791Y-75240310D01*
X97810323Y-75247093D01*
X97810278Y-75247076D01*
X97807722Y-75254432D01*
X97807766Y-75254447D01*
X97805496Y-75261294D01*
X97790158Y-75335573D01*
X97789378Y-75339089D01*
X97771899Y-75412844D01*
X97771061Y-75420019D01*
X97771013Y-75420013D01*
X97770223Y-75427744D01*
X97770270Y-75427749D01*
X97769640Y-75434938D01*
X97771848Y-75510790D01*
X97771900Y-75514397D01*
X97771900Y-96907500D01*
X97752215Y-96974539D01*
X97699411Y-97020294D01*
X97647900Y-97031500D01*
X95110826Y-97031500D01*
X95043787Y-97011815D01*
X95009252Y-96978625D01*
X95006391Y-96974539D01*
X94986198Y-96945700D01*
X94824300Y-96783802D01*
X94636749Y-96652477D01*
X94593655Y-96632382D01*
X94541215Y-96586210D01*
X94522063Y-96519017D01*
X94542278Y-96452136D01*
X94593655Y-96407618D01*
X94596882Y-96406112D01*
X94636749Y-96387523D01*
X94824300Y-96256198D01*
X94986198Y-96094300D01*
X95117523Y-95906749D01*
X95214284Y-95699243D01*
X95273543Y-95478087D01*
X95293498Y-95250000D01*
X95273543Y-95021913D01*
X95214284Y-94800757D01*
X95117523Y-94593251D01*
X94986198Y-94405700D01*
X94824300Y-94243802D01*
X94636749Y-94112477D01*
X94593655Y-94092382D01*
X94541215Y-94046210D01*
X94522063Y-93979017D01*
X94542278Y-93912136D01*
X94593655Y-93867618D01*
X94596882Y-93866112D01*
X94636749Y-93847523D01*
X94824300Y-93716198D01*
X94986198Y-93554300D01*
X95117523Y-93366749D01*
X95214284Y-93159243D01*
X95273543Y-92938087D01*
X95293498Y-92710000D01*
X95273543Y-92481913D01*
X95214284Y-92260757D01*
X95117523Y-92053251D01*
X94986198Y-91865700D01*
X94824300Y-91703802D01*
X94636749Y-91572477D01*
X94616498Y-91563034D01*
X94593655Y-91552382D01*
X94541215Y-91506210D01*
X94522063Y-91439017D01*
X94542278Y-91372136D01*
X94593655Y-91327618D01*
X94616500Y-91316965D01*
X94636749Y-91307523D01*
X94824300Y-91176198D01*
X94986198Y-91014300D01*
X95117523Y-90826749D01*
X95214284Y-90619243D01*
X95273543Y-90398087D01*
X95292026Y-90186823D01*
X95293498Y-90170001D01*
X95293498Y-90169998D01*
X95277246Y-89984238D01*
X95273543Y-89941913D01*
X95214284Y-89720757D01*
X95117523Y-89513251D01*
X94986198Y-89325700D01*
X94824300Y-89163802D01*
X94666376Y-89053221D01*
X94622751Y-88998644D01*
X94613500Y-88951647D01*
X94613500Y-86005331D01*
X94615239Y-85989579D01*
X94614968Y-85989554D01*
X94615700Y-85981798D01*
X94615702Y-85981791D01*
X94613561Y-85913668D01*
X94613500Y-85909773D01*
X94613500Y-85881847D01*
X94613500Y-85881844D01*
X94612982Y-85877747D01*
X94612065Y-85866098D01*
X94610674Y-85821811D01*
X94604976Y-85802199D01*
X94601033Y-85783166D01*
X94598474Y-85762903D01*
X94582163Y-85721707D01*
X94578381Y-85710659D01*
X94566018Y-85668108D01*
X94566018Y-85668107D01*
X94555626Y-85650535D01*
X94547066Y-85633062D01*
X94539552Y-85614083D01*
X94513510Y-85578239D01*
X94507099Y-85568481D01*
X94484542Y-85530338D01*
X94470108Y-85515904D01*
X94457471Y-85501109D01*
X94445472Y-85484593D01*
X94445469Y-85484591D01*
X94445469Y-85484590D01*
X94411325Y-85456343D01*
X94402685Y-85448481D01*
X92702888Y-83748683D01*
X92692987Y-83736323D01*
X92692777Y-83736498D01*
X92687800Y-83730482D01*
X92658915Y-83703357D01*
X92623521Y-83643116D01*
X92619800Y-83612966D01*
X92619800Y-82544932D01*
X92621539Y-82529180D01*
X92621268Y-82529155D01*
X92622000Y-82521399D01*
X92622002Y-82521392D01*
X92619861Y-82453268D01*
X92619800Y-82449373D01*
X92619800Y-82421447D01*
X92619800Y-82421444D01*
X92619282Y-82417347D01*
X92618365Y-82405698D01*
X92616974Y-82361413D01*
X92616974Y-82361411D01*
X92611274Y-82341792D01*
X92607331Y-82322746D01*
X92604774Y-82302504D01*
X92604774Y-82302503D01*
X92588456Y-82261290D01*
X92584686Y-82250275D01*
X92572319Y-82207707D01*
X92561920Y-82190124D01*
X92553366Y-82172663D01*
X92545852Y-82153683D01*
X92519808Y-82117837D01*
X92513398Y-82108078D01*
X92496262Y-82079103D01*
X92490842Y-82069938D01*
X92476408Y-82055504D01*
X92463771Y-82040709D01*
X92451772Y-82024193D01*
X92451769Y-82024191D01*
X92451769Y-82024190D01*
X92417625Y-81995943D01*
X92408985Y-81988081D01*
X88938335Y-78517430D01*
X88904850Y-78456107D01*
X88906242Y-78397654D01*
X88912922Y-78372724D01*
X88923543Y-78333087D01*
X88943498Y-78105000D01*
X88923543Y-77876913D01*
X88866920Y-77665593D01*
X88868583Y-77595744D01*
X88907745Y-77537881D01*
X88971974Y-77510377D01*
X88986695Y-77509500D01*
X89355334Y-77509500D01*
X89422373Y-77529185D01*
X89443015Y-77545819D01*
X90391010Y-78493814D01*
X90400916Y-78506178D01*
X90401126Y-78506005D01*
X90406097Y-78512013D01*
X90406100Y-78512018D01*
X90455801Y-78558690D01*
X90458565Y-78561369D01*
X90478330Y-78581134D01*
X90481604Y-78583673D01*
X90490470Y-78591247D01*
X90522778Y-78621586D01*
X90540667Y-78631420D01*
X90556933Y-78642104D01*
X90573059Y-78654613D01*
X90613716Y-78672207D01*
X90624207Y-78677346D01*
X90663040Y-78698695D01*
X90682818Y-78703773D01*
X90701221Y-78710074D01*
X90719952Y-78718180D01*
X90719953Y-78718180D01*
X90719955Y-78718181D01*
X90763718Y-78725111D01*
X90775145Y-78727478D01*
X90818070Y-78738500D01*
X90838490Y-78738500D01*
X90857880Y-78740025D01*
X90878043Y-78743219D01*
X90878046Y-78743218D01*
X90878307Y-78743260D01*
X90941442Y-78773188D01*
X90960485Y-78794607D01*
X91068802Y-78949300D01*
X91230700Y-79111198D01*
X91418251Y-79242523D01*
X91543091Y-79300736D01*
X91625750Y-79339281D01*
X91625752Y-79339281D01*
X91625757Y-79339284D01*
X91846913Y-79398543D01*
X92009832Y-79412796D01*
X92074998Y-79418498D01*
X92075000Y-79418498D01*
X92075002Y-79418498D01*
X92134013Y-79413335D01*
X92303087Y-79398543D01*
X92524243Y-79339284D01*
X92731749Y-79242523D01*
X92919300Y-79111198D01*
X93081198Y-78949300D01*
X93212523Y-78761749D01*
X93309284Y-78554243D01*
X93368543Y-78333087D01*
X93388498Y-78105000D01*
X93368543Y-77876913D01*
X93309284Y-77655757D01*
X93307134Y-77651147D01*
X93242405Y-77512334D01*
X93212523Y-77448251D01*
X93081198Y-77260700D01*
X92919300Y-77098802D01*
X92731749Y-76967477D01*
X92731745Y-76967475D01*
X92524249Y-76870718D01*
X92524238Y-76870714D01*
X92303089Y-76811457D01*
X92303081Y-76811456D01*
X92075002Y-76791502D01*
X92074998Y-76791502D01*
X91846918Y-76811456D01*
X91846910Y-76811457D01*
X91625761Y-76870714D01*
X91625750Y-76870718D01*
X91418254Y-76967475D01*
X91418252Y-76967476D01*
X91230699Y-77098803D01*
X91096934Y-77232568D01*
X91035611Y-77266052D01*
X90965919Y-77261068D01*
X90921572Y-77232567D01*
X90176188Y-76487183D01*
X90166287Y-76474823D01*
X90166077Y-76474998D01*
X90161101Y-76468984D01*
X90161100Y-76468982D01*
X90111415Y-76422325D01*
X90108650Y-76419645D01*
X90088866Y-76399861D01*
X90085604Y-76397331D01*
X90076719Y-76389743D01*
X90044421Y-76359414D01*
X90044419Y-76359412D01*
X90026531Y-76349578D01*
X90010270Y-76338897D01*
X89994139Y-76326384D01*
X89953475Y-76308788D01*
X89942985Y-76303649D01*
X89904160Y-76282305D01*
X89904156Y-76282304D01*
X89884387Y-76277228D01*
X89865981Y-76270926D01*
X89847244Y-76262818D01*
X89847245Y-76262818D01*
X89803483Y-76255887D01*
X89792047Y-76253519D01*
X89777293Y-76249731D01*
X89749132Y-76242500D01*
X89749130Y-76242500D01*
X89728716Y-76242500D01*
X89709317Y-76240973D01*
X89689158Y-76237780D01*
X89689155Y-76237779D01*
X89669167Y-76239669D01*
X89600573Y-76226379D01*
X89550053Y-76178115D01*
X89533500Y-76116219D01*
X89533500Y-68742500D01*
X89553185Y-68675461D01*
X89605989Y-68629706D01*
X89657500Y-68618500D01*
X89748638Y-68618500D01*
X89748654Y-68618499D01*
X89775692Y-68615591D01*
X89809201Y-68611989D01*
X89946204Y-68560889D01*
X90063261Y-68473261D01*
X90150889Y-68356204D01*
X90201989Y-68219201D01*
X90207423Y-68168660D01*
X90208499Y-68158654D01*
X90208500Y-68158637D01*
X90208500Y-66461362D01*
X90208499Y-66461345D01*
X90205157Y-66430270D01*
X90201989Y-66400799D01*
X90150889Y-66263796D01*
X90063261Y-66146739D01*
X89946204Y-66059111D01*
X89894969Y-66040001D01*
X89809203Y-66008011D01*
X89748654Y-66001500D01*
X89748638Y-66001500D01*
X88051362Y-66001500D01*
X88051345Y-66001500D01*
X87990797Y-66008011D01*
X87990795Y-66008011D01*
X87853795Y-66059111D01*
X87736739Y-66146739D01*
X87649111Y-66263795D01*
X87595699Y-66406993D01*
X87553827Y-66462926D01*
X87488362Y-66487342D01*
X87420090Y-66472489D01*
X87391837Y-66451339D01*
X87244303Y-66303805D01*
X87244300Y-66303802D01*
X87211374Y-66280747D01*
X87167751Y-66226171D01*
X87158500Y-66179174D01*
X87158500Y-59550825D01*
X87178185Y-59483786D01*
X87211375Y-59449251D01*
X87244300Y-59426198D01*
X87391840Y-59278657D01*
X87453159Y-59245175D01*
X87522851Y-59250159D01*
X87578785Y-59292030D01*
X87595699Y-59323006D01*
X87642787Y-59449248D01*
X87649111Y-59466204D01*
X87736739Y-59583261D01*
X87853796Y-59670889D01*
X87961720Y-59711143D01*
X87990793Y-59721987D01*
X87990799Y-59721989D01*
X88018050Y-59724918D01*
X88051345Y-59728499D01*
X88051362Y-59728500D01*
X89748638Y-59728500D01*
X89748654Y-59728499D01*
X89775692Y-59725591D01*
X89809201Y-59721989D01*
X89809207Y-59721987D01*
X89838280Y-59711143D01*
X89946204Y-59670889D01*
X90063261Y-59583261D01*
X90150889Y-59466204D01*
X90201989Y-59329201D01*
X90205985Y-59292030D01*
X90208499Y-59268654D01*
X90208500Y-59268637D01*
X90208500Y-57571362D01*
X90208499Y-57571345D01*
X90205157Y-57540270D01*
X90201989Y-57510799D01*
X90150889Y-57373796D01*
X90063261Y-57256739D01*
X89946204Y-57169111D01*
X89809203Y-57118011D01*
X89748654Y-57111500D01*
X89748638Y-57111500D01*
X88051362Y-57111500D01*
X88051345Y-57111500D01*
X87990797Y-57118011D01*
X87990795Y-57118011D01*
X87853795Y-57169111D01*
X87736739Y-57256739D01*
X87649111Y-57373795D01*
X87595699Y-57516993D01*
X87553827Y-57572926D01*
X87488362Y-57597342D01*
X87420090Y-57582489D01*
X87391837Y-57561339D01*
X87244304Y-57413806D01*
X87244300Y-57413802D01*
X87056749Y-57282477D01*
X87056745Y-57282475D01*
X86849249Y-57185718D01*
X86849238Y-57185714D01*
X86628089Y-57126457D01*
X86628081Y-57126456D01*
X86400002Y-57106502D01*
X86399998Y-57106502D01*
X86171918Y-57126456D01*
X86171910Y-57126457D01*
X85950761Y-57185714D01*
X85950750Y-57185718D01*
X85743254Y-57282475D01*
X85743252Y-57282476D01*
X85743251Y-57282477D01*
X85555700Y-57413802D01*
X85555698Y-57413803D01*
X85555695Y-57413806D01*
X85393806Y-57575695D01*
X85393803Y-57575698D01*
X85393802Y-57575700D01*
X85378648Y-57597342D01*
X85262476Y-57763252D01*
X85262475Y-57763254D01*
X85165718Y-57970750D01*
X85165714Y-57970761D01*
X85106457Y-58191910D01*
X85106456Y-58191918D01*
X85086502Y-58419998D01*
X85086502Y-58420001D01*
X85106456Y-58648081D01*
X85106457Y-58648089D01*
X85165714Y-58869238D01*
X85165718Y-58869249D01*
X85218115Y-58981614D01*
X85262477Y-59076749D01*
X85393802Y-59264300D01*
X85393806Y-59264304D01*
X85555695Y-59426194D01*
X85555698Y-59426196D01*
X85555700Y-59426198D01*
X85588623Y-59449250D01*
X85632247Y-59503824D01*
X85641500Y-59550825D01*
X85641500Y-66179174D01*
X85621815Y-66246213D01*
X85588626Y-66280746D01*
X85555700Y-66303802D01*
X85555696Y-66303805D01*
X85393806Y-66465695D01*
X85393803Y-66465698D01*
X85393802Y-66465700D01*
X85377317Y-66489243D01*
X85262476Y-66653252D01*
X85262475Y-66653254D01*
X85165718Y-66860750D01*
X85165714Y-66860761D01*
X85106457Y-67081910D01*
X85106456Y-67081918D01*
X85086502Y-67309998D01*
X85086502Y-67310001D01*
X85106456Y-67538081D01*
X85106457Y-67538089D01*
X85165714Y-67759238D01*
X85165718Y-67759249D01*
X85242194Y-67923252D01*
X85262477Y-67966749D01*
X85393802Y-68154300D01*
X85555700Y-68316198D01*
X85743251Y-68447523D01*
X85845227Y-68495075D01*
X85950750Y-68544281D01*
X85950752Y-68544281D01*
X85950757Y-68544284D01*
X86171913Y-68603543D01*
X86334832Y-68617796D01*
X86399998Y-68623498D01*
X86400000Y-68623498D01*
X86400002Y-68623498D01*
X86457139Y-68618499D01*
X86628087Y-68603543D01*
X86849243Y-68544284D01*
X87056749Y-68447523D01*
X87244300Y-68316198D01*
X87391840Y-68168657D01*
X87453160Y-68135175D01*
X87522851Y-68140159D01*
X87578785Y-68182030D01*
X87595699Y-68213006D01*
X87647512Y-68351918D01*
X87649111Y-68356204D01*
X87736739Y-68473261D01*
X87853796Y-68560889D01*
X87990799Y-68611989D01*
X88018050Y-68614918D01*
X88051345Y-68618499D01*
X88051362Y-68618500D01*
X88142500Y-68618500D01*
X88209539Y-68638185D01*
X88255294Y-68690989D01*
X88266500Y-68742500D01*
X88266500Y-72318394D01*
X88246815Y-72385433D01*
X88194011Y-72431188D01*
X88124853Y-72441132D01*
X88090101Y-72430779D01*
X88085985Y-72428860D01*
X88079243Y-72425716D01*
X88053108Y-72418713D01*
X87858089Y-72366457D01*
X87858081Y-72366456D01*
X87630002Y-72346502D01*
X87629998Y-72346502D01*
X87401918Y-72366456D01*
X87401910Y-72366457D01*
X87180761Y-72425714D01*
X87180750Y-72425718D01*
X86973254Y-72522475D01*
X86973252Y-72522476D01*
X86973251Y-72522477D01*
X86785700Y-72653802D01*
X86785698Y-72653803D01*
X86785695Y-72653806D01*
X86623806Y-72815695D01*
X86623803Y-72815698D01*
X86623802Y-72815700D01*
X86607317Y-72839243D01*
X86492476Y-73003252D01*
X86492475Y-73003254D01*
X86395718Y-73210750D01*
X86395714Y-73210761D01*
X86336457Y-73431910D01*
X86336456Y-73431918D01*
X86316502Y-73659998D01*
X86316502Y-73660001D01*
X86336456Y-73888081D01*
X86336458Y-73888091D01*
X86353758Y-73952655D01*
X86352095Y-74022504D01*
X86321664Y-74072429D01*
X84863914Y-75530181D01*
X84802591Y-75563666D01*
X84776233Y-75566500D01*
X82615680Y-75566500D01*
X82548641Y-75546815D01*
X82511871Y-75510321D01*
X82395313Y-75331915D01*
X82237223Y-75160185D01*
X82233444Y-75156706D01*
X82234956Y-75155063D01*
X82199644Y-75105969D01*
X82195988Y-75036195D01*
X82230635Y-74975520D01*
X82254985Y-74957995D01*
X82254927Y-74957907D01*
X82257073Y-74956492D01*
X82259221Y-74954946D01*
X82260176Y-74954448D01*
X82411257Y-74831257D01*
X82534448Y-74680176D01*
X82624704Y-74507389D01*
X82678331Y-74319970D01*
X82688500Y-74205596D01*
X82688500Y-73194404D01*
X82678331Y-73080030D01*
X82624704Y-72892611D01*
X82534448Y-72719824D01*
X82451492Y-72618087D01*
X82411257Y-72568742D01*
X82260176Y-72445552D01*
X82172270Y-72399634D01*
X82087389Y-72355296D01*
X82087388Y-72355295D01*
X82087385Y-72355294D01*
X81963597Y-72319875D01*
X81899970Y-72301669D01*
X81899967Y-72301668D01*
X81899965Y-72301668D01*
X81828617Y-72295325D01*
X81785596Y-72291500D01*
X80774404Y-72291500D01*
X80731380Y-72295325D01*
X80662861Y-72281654D01*
X80612610Y-72233109D01*
X80596400Y-72171812D01*
X80596400Y-62550865D01*
X80616085Y-62483826D01*
X80632710Y-62463193D01*
X80783607Y-62312295D01*
X80844927Y-62278813D01*
X80911545Y-62282697D01*
X80933049Y-62290080D01*
X81163288Y-62328500D01*
X81396711Y-62328500D01*
X81396712Y-62328500D01*
X81626951Y-62290080D01*
X81847727Y-62214287D01*
X82053017Y-62103190D01*
X82237220Y-61959818D01*
X82395314Y-61788083D01*
X82522984Y-61592669D01*
X82616749Y-61378907D01*
X82674051Y-61152626D01*
X82690012Y-60960005D01*
X82693327Y-60920005D01*
X82693327Y-60919994D01*
X82677366Y-60727377D01*
X82674051Y-60687374D01*
X82616749Y-60461093D01*
X82522984Y-60247331D01*
X82437633Y-60116691D01*
X82395313Y-60051915D01*
X82237223Y-59880185D01*
X82237222Y-59880184D01*
X82237220Y-59880182D01*
X82092899Y-59767851D01*
X82052088Y-59711143D01*
X82048413Y-59641370D01*
X82083045Y-59580687D01*
X82092893Y-59572152D01*
X82237220Y-59459818D01*
X82395314Y-59288083D01*
X82522984Y-59092669D01*
X82616749Y-58878907D01*
X82674051Y-58652626D01*
X82693327Y-58420000D01*
X82691418Y-58396966D01*
X82680285Y-58262609D01*
X82674051Y-58187374D01*
X82616749Y-57961093D01*
X82522984Y-57747331D01*
X82395314Y-57551917D01*
X82395313Y-57551915D01*
X82237223Y-57380185D01*
X82233444Y-57376706D01*
X82234956Y-57375063D01*
X82199644Y-57325969D01*
X82195988Y-57256195D01*
X82230635Y-57195520D01*
X82254985Y-57177995D01*
X82254927Y-57177907D01*
X82257073Y-57176492D01*
X82259221Y-57174946D01*
X82260176Y-57174448D01*
X82411257Y-57051257D01*
X82534448Y-56900176D01*
X82624704Y-56727389D01*
X82678331Y-56539970D01*
X82688500Y-56425596D01*
X82688500Y-55885001D01*
X92666502Y-55885001D01*
X92686456Y-56113081D01*
X92686457Y-56113089D01*
X92745714Y-56334238D01*
X92745718Y-56334249D01*
X92841647Y-56539970D01*
X92842477Y-56541749D01*
X92973802Y-56729300D01*
X93135700Y-56891198D01*
X93323251Y-57022523D01*
X93384872Y-57051257D01*
X93530750Y-57119281D01*
X93530752Y-57119281D01*
X93530757Y-57119284D01*
X93751913Y-57178543D01*
X93914832Y-57192796D01*
X93979998Y-57198498D01*
X93980000Y-57198498D01*
X93980002Y-57198498D01*
X94037021Y-57193509D01*
X94208087Y-57178543D01*
X94429243Y-57119284D01*
X94636749Y-57022523D01*
X94824300Y-56891198D01*
X94986198Y-56729300D01*
X95117523Y-56541749D01*
X95214284Y-56334243D01*
X95273543Y-56113087D01*
X95293498Y-55885001D01*
X110446502Y-55885001D01*
X110466456Y-56113081D01*
X110466457Y-56113089D01*
X110525714Y-56334238D01*
X110525718Y-56334249D01*
X110621647Y-56539970D01*
X110622477Y-56541749D01*
X110753802Y-56729300D01*
X110915700Y-56891198D01*
X111103251Y-57022523D01*
X111164872Y-57051257D01*
X111310750Y-57119281D01*
X111310752Y-57119281D01*
X111310757Y-57119284D01*
X111531913Y-57178543D01*
X111694832Y-57192796D01*
X111759998Y-57198498D01*
X111760000Y-57198498D01*
X111760002Y-57198498D01*
X111817021Y-57193509D01*
X111988087Y-57178543D01*
X112209243Y-57119284D01*
X112308708Y-57072903D01*
X137295793Y-57072903D01*
X137305672Y-57380970D01*
X137305672Y-57380975D01*
X137305673Y-57380978D01*
X137354867Y-57685261D01*
X137399137Y-57834419D01*
X137442571Y-57980763D01*
X137536044Y-58191918D01*
X137567337Y-58262609D01*
X137727123Y-58526193D01*
X137727127Y-58526198D01*
X137727133Y-58526207D01*
X137919297Y-58767174D01*
X137919299Y-58767176D01*
X137919303Y-58767180D01*
X137919304Y-58767181D01*
X138140724Y-58981614D01*
X138289526Y-59092668D01*
X138387741Y-59165968D01*
X138387743Y-59165969D01*
X138387747Y-59165972D01*
X138656318Y-59317228D01*
X138797057Y-59374207D01*
X138942018Y-59432897D01*
X138942023Y-59432898D01*
X138942025Y-59432899D01*
X139240179Y-59511084D01*
X139545883Y-59550500D01*
X139545890Y-59550500D01*
X139776971Y-59550500D01*
X139776974Y-59550500D01*
X139776978Y-59550499D01*
X139776996Y-59550499D01*
X139879700Y-59543904D01*
X140007601Y-59535693D01*
X140310151Y-59476772D01*
X140602683Y-59379644D01*
X140602689Y-59379640D01*
X140602693Y-59379640D01*
X140833193Y-59268637D01*
X140880393Y-59245907D01*
X141138720Y-59077754D01*
X141373424Y-58877948D01*
X141580650Y-58649769D01*
X141756996Y-58396963D01*
X141899567Y-58123683D01*
X142006020Y-57834415D01*
X142074609Y-57533908D01*
X142104206Y-57227098D01*
X142094327Y-56919022D01*
X142045133Y-56614739D01*
X141957431Y-56319244D01*
X141957429Y-56319239D01*
X141957428Y-56319236D01*
X141832666Y-56037398D01*
X141832663Y-56037391D01*
X141672877Y-55773807D01*
X141672870Y-55773799D01*
X141672866Y-55773792D01*
X141480702Y-55532825D01*
X141480700Y-55532823D01*
X141380475Y-55435761D01*
X141259276Y-55318386D01*
X141130450Y-55222241D01*
X141012258Y-55134031D01*
X140974230Y-55112614D01*
X140743682Y-54982772D01*
X140706383Y-54967671D01*
X140457981Y-54867102D01*
X140290660Y-54823226D01*
X140159821Y-54788916D01*
X139854117Y-54749500D01*
X139623026Y-54749500D01*
X139623003Y-54749500D01*
X139392406Y-54764306D01*
X139392389Y-54764308D01*
X139089854Y-54823226D01*
X139089849Y-54823228D01*
X138797310Y-54920358D01*
X138797306Y-54920359D01*
X138519613Y-55054089D01*
X138519605Y-55054094D01*
X138261286Y-55222241D01*
X138261276Y-55222248D01*
X138026581Y-55422046D01*
X138026571Y-55422056D01*
X137819354Y-55650225D01*
X137819350Y-55650229D01*
X137643005Y-55903033D01*
X137643003Y-55903037D01*
X137500432Y-56176319D01*
X137500429Y-56176326D01*
X137393981Y-56465580D01*
X137393979Y-56465590D01*
X137325391Y-56766089D01*
X137295794Y-57072902D01*
X137295793Y-57072903D01*
X112308708Y-57072903D01*
X112416749Y-57022523D01*
X112604300Y-56891198D01*
X112766198Y-56729300D01*
X112897523Y-56541749D01*
X112994284Y-56334243D01*
X113053543Y-56113087D01*
X113073498Y-55885000D01*
X113053543Y-55656913D01*
X112994284Y-55435757D01*
X112987893Y-55422052D01*
X112897524Y-55228254D01*
X112897523Y-55228252D01*
X112897523Y-55228251D01*
X112766198Y-55040700D01*
X112604300Y-54878802D01*
X112416749Y-54747477D01*
X112416745Y-54747475D01*
X112209249Y-54650718D01*
X112209238Y-54650714D01*
X111988089Y-54591457D01*
X111988081Y-54591456D01*
X111760002Y-54571502D01*
X111759998Y-54571502D01*
X111531918Y-54591456D01*
X111531910Y-54591457D01*
X111310761Y-54650714D01*
X111310750Y-54650718D01*
X111103254Y-54747475D01*
X111103252Y-54747476D01*
X111079215Y-54764307D01*
X110915700Y-54878802D01*
X110915698Y-54878803D01*
X110915695Y-54878806D01*
X110753806Y-55040695D01*
X110753803Y-55040698D01*
X110753802Y-55040700D01*
X110703449Y-55112611D01*
X110622476Y-55228252D01*
X110622475Y-55228254D01*
X110525718Y-55435750D01*
X110525714Y-55435761D01*
X110466457Y-55656910D01*
X110466456Y-55656918D01*
X110446502Y-55884998D01*
X110446502Y-55885001D01*
X95293498Y-55885001D01*
X95293498Y-55885000D01*
X95273543Y-55656913D01*
X95214284Y-55435757D01*
X95207893Y-55422052D01*
X95117524Y-55228254D01*
X95117523Y-55228252D01*
X95117523Y-55228251D01*
X94986198Y-55040700D01*
X94824300Y-54878802D01*
X94636749Y-54747477D01*
X94636745Y-54747475D01*
X94429249Y-54650718D01*
X94429238Y-54650714D01*
X94208089Y-54591457D01*
X94208081Y-54591456D01*
X93980002Y-54571502D01*
X93979998Y-54571502D01*
X93751918Y-54591456D01*
X93751910Y-54591457D01*
X93530761Y-54650714D01*
X93530750Y-54650718D01*
X93323254Y-54747475D01*
X93323252Y-54747476D01*
X93299215Y-54764307D01*
X93135700Y-54878802D01*
X93135698Y-54878803D01*
X93135695Y-54878806D01*
X92973806Y-55040695D01*
X92973803Y-55040698D01*
X92973802Y-55040700D01*
X92923449Y-55112611D01*
X92842476Y-55228252D01*
X92842475Y-55228254D01*
X92745718Y-55435750D01*
X92745714Y-55435761D01*
X92686457Y-55656910D01*
X92686456Y-55656918D01*
X92666502Y-55884998D01*
X92666502Y-55885001D01*
X82688500Y-55885001D01*
X82688500Y-55414404D01*
X82678331Y-55300030D01*
X82624704Y-55112611D01*
X82534448Y-54939824D01*
X82475150Y-54867101D01*
X82411257Y-54788742D01*
X82260176Y-54665552D01*
X82087385Y-54575294D01*
X81975089Y-54543163D01*
X81899970Y-54521669D01*
X81899967Y-54521668D01*
X81899965Y-54521668D01*
X81830237Y-54515469D01*
X81785596Y-54511500D01*
X80774404Y-54511500D01*
X80740923Y-54514476D01*
X80660034Y-54521668D01*
X80660031Y-54521668D01*
X80660030Y-54521669D01*
X80622470Y-54532416D01*
X80472614Y-54575294D01*
X80299823Y-54665552D01*
X80148742Y-54788742D01*
X80025552Y-54939823D01*
X79935294Y-55112614D01*
X79881669Y-55300031D01*
X79881668Y-55300034D01*
X79871500Y-55414407D01*
X79871500Y-56425592D01*
X79881668Y-56539965D01*
X79881668Y-56539967D01*
X79881669Y-56539970D01*
X79903063Y-56614739D01*
X79935294Y-56727385D01*
X80025552Y-56900176D01*
X80148742Y-57051257D01*
X80216495Y-57106502D01*
X80299824Y-57174448D01*
X80300783Y-57174948D01*
X80301212Y-57175362D01*
X80305073Y-57177907D01*
X80304598Y-57178626D01*
X80351088Y-57223434D01*
X80367195Y-57291422D01*
X80343988Y-57357325D01*
X80325957Y-57376055D01*
X80326556Y-57376706D01*
X80322776Y-57380185D01*
X80164686Y-57551915D01*
X80037015Y-57747331D01*
X79943251Y-57961092D01*
X79885948Y-58187377D01*
X79866673Y-58419994D01*
X79866673Y-58420005D01*
X79885948Y-58652622D01*
X79943251Y-58878907D01*
X80037015Y-59092668D01*
X80164686Y-59288084D01*
X80322776Y-59459814D01*
X80322781Y-59459819D01*
X80467099Y-59572147D01*
X80507912Y-59628857D01*
X80511585Y-59698631D01*
X80476954Y-59759314D01*
X80467099Y-59767853D01*
X80322781Y-59880180D01*
X80322776Y-59880185D01*
X80164686Y-60051915D01*
X80037015Y-60247331D01*
X79943251Y-60461092D01*
X79885948Y-60687377D01*
X79866673Y-60919994D01*
X79866673Y-60920005D01*
X79885948Y-61152622D01*
X79922305Y-61296193D01*
X79919680Y-61366013D01*
X79889780Y-61414314D01*
X79574079Y-61730014D01*
X79561720Y-61739918D01*
X79561893Y-61740127D01*
X79555882Y-61745100D01*
X79509237Y-61794770D01*
X79506532Y-61797561D01*
X79486773Y-61817321D01*
X79486758Y-61817338D01*
X79484217Y-61820613D01*
X79476653Y-61829467D01*
X79446320Y-61861771D01*
X79446312Y-61861781D01*
X79436479Y-61879667D01*
X79425803Y-61895920D01*
X79413286Y-61912057D01*
X79413285Y-61912060D01*
X79395685Y-61952729D01*
X79390548Y-61963215D01*
X79369203Y-62002041D01*
X79369203Y-62002042D01*
X79364125Y-62021820D01*
X79357825Y-62040222D01*
X79349718Y-62058957D01*
X79342788Y-62102709D01*
X79340420Y-62114145D01*
X79329400Y-62157065D01*
X79329400Y-62177484D01*
X79327873Y-62196883D01*
X79324680Y-62217041D01*
X79324680Y-62217042D01*
X77470000Y-62217042D01*
X77470000Y-54346092D01*
X77470597Y-54333938D01*
X77488018Y-54157056D01*
X77492757Y-54133232D01*
X77542577Y-53968994D01*
X77551875Y-53946549D01*
X77632775Y-53795195D01*
X77646272Y-53774995D01*
X77755149Y-53642328D01*
X77772328Y-53625149D01*
X77904995Y-53516272D01*
X77925195Y-53502775D01*
X78076549Y-53421875D01*
X78098994Y-53412577D01*
X78263232Y-53362757D01*
X78287056Y-53358018D01*
X78463939Y-53340597D01*
X78476093Y-53340000D01*
X142503907Y-53340000D01*
X142516061Y-53340597D01*
G37*
%TD.AperFunction*%
%TA.AperFunction,NonConductor*%
G36*
X110737587Y-70698931D02*
G01*
X110781934Y-70727432D01*
X110915700Y-70861198D01*
X111103251Y-70992523D01*
X111205002Y-71039970D01*
X111310750Y-71089281D01*
X111310752Y-71089281D01*
X111310757Y-71089284D01*
X111310762Y-71089285D01*
X111310764Y-71089286D01*
X111349488Y-71099662D01*
X111409148Y-71136027D01*
X111439678Y-71198873D01*
X111431384Y-71268249D01*
X111405076Y-71307118D01*
X108641334Y-74070860D01*
X108580011Y-74104345D01*
X108510319Y-74099361D01*
X108454386Y-74057489D01*
X108429969Y-73992025D01*
X108444821Y-73923752D01*
X108460595Y-73895060D01*
X108462690Y-73886897D01*
X108470601Y-73864929D01*
X108474183Y-73857318D01*
X108484722Y-73802065D01*
X108486408Y-73794522D01*
X108500400Y-73740030D01*
X108500400Y-73731605D01*
X108502596Y-73708374D01*
X108504175Y-73700094D01*
X108504175Y-73700091D01*
X108500645Y-73643984D01*
X108500400Y-73636198D01*
X108500400Y-72884966D01*
X108520085Y-72817927D01*
X108536719Y-72797285D01*
X110606572Y-70727432D01*
X110667895Y-70693947D01*
X110737587Y-70698931D01*
G37*
%TD.AperFunction*%
%TA.AperFunction,NonConductor*%
G36*
X88222954Y-74907249D02*
G01*
X88261195Y-74965725D01*
X88266500Y-75001605D01*
X88266500Y-76118500D01*
X88246815Y-76185539D01*
X88194011Y-76231294D01*
X88142500Y-76242500D01*
X86242766Y-76242500D01*
X86175727Y-76222815D01*
X86129972Y-76170011D01*
X86120028Y-76100853D01*
X86149053Y-76037297D01*
X86155085Y-76030819D01*
X86411604Y-75774300D01*
X87217569Y-74968333D01*
X87278890Y-74934850D01*
X87337341Y-74936241D01*
X87355979Y-74941234D01*
X87401913Y-74953543D01*
X87564832Y-74967796D01*
X87629998Y-74973498D01*
X87630000Y-74973498D01*
X87630002Y-74973498D01*
X87689013Y-74968335D01*
X87858087Y-74953543D01*
X88079243Y-74894284D01*
X88090094Y-74889223D01*
X88159170Y-74878731D01*
X88222954Y-74907249D01*
G37*
%TD.AperFunction*%
%TA.AperFunction,NonConductor*%
G36*
X86340344Y-77529185D02*
G01*
X86386099Y-77581989D01*
X86396043Y-77651147D01*
X86393080Y-77665593D01*
X86336458Y-77876908D01*
X86336456Y-77876918D01*
X86316502Y-78104998D01*
X86316502Y-78105001D01*
X86336456Y-78333081D01*
X86336457Y-78333089D01*
X86395714Y-78554238D01*
X86395718Y-78554249D01*
X86492475Y-78761745D01*
X86492477Y-78761749D01*
X86623802Y-78949300D01*
X86785700Y-79111198D01*
X86973251Y-79242523D01*
X87098091Y-79300736D01*
X87180750Y-79339281D01*
X87180752Y-79339281D01*
X87180757Y-79339284D01*
X87401913Y-79398543D01*
X87564832Y-79412796D01*
X87629998Y-79418498D01*
X87630000Y-79418498D01*
X87630002Y-79418498D01*
X87689013Y-79413335D01*
X87858087Y-79398543D01*
X87922657Y-79381241D01*
X87992506Y-79382904D01*
X88042431Y-79413335D01*
X91316481Y-82687385D01*
X91349966Y-82748708D01*
X91352800Y-82775066D01*
X91352800Y-83823732D01*
X91333115Y-83890771D01*
X91316481Y-83911413D01*
X90480679Y-84747214D01*
X90468320Y-84757118D01*
X90468493Y-84757327D01*
X90462482Y-84762300D01*
X90415837Y-84811970D01*
X90413132Y-84814761D01*
X90393373Y-84834521D01*
X90393358Y-84834538D01*
X90390817Y-84837813D01*
X90383253Y-84846667D01*
X90352920Y-84878971D01*
X90352912Y-84878981D01*
X90343079Y-84896867D01*
X90332403Y-84913120D01*
X90319886Y-84929257D01*
X90319885Y-84929260D01*
X90302285Y-84969929D01*
X90297148Y-84980415D01*
X90275803Y-85019241D01*
X90275803Y-85019242D01*
X90270725Y-85039020D01*
X90264425Y-85057422D01*
X90256318Y-85076157D01*
X90249388Y-85119909D01*
X90247020Y-85131345D01*
X90236000Y-85174265D01*
X90236000Y-85194684D01*
X90234473Y-85214083D01*
X90231280Y-85234241D01*
X90231280Y-85234242D01*
X90235450Y-85278357D01*
X90236000Y-85290026D01*
X90236000Y-88768428D01*
X90216315Y-88835467D01*
X90163511Y-88881222D01*
X90094353Y-88891166D01*
X90030797Y-88862141D01*
X90010427Y-88839554D01*
X89906198Y-88690700D01*
X89744300Y-88528802D01*
X89586374Y-88418220D01*
X89542751Y-88363646D01*
X89534568Y-88322074D01*
X89534091Y-88322104D01*
X89533990Y-88322117D01*
X89533989Y-88322110D01*
X89533744Y-88322126D01*
X89533499Y-88318236D01*
X89531488Y-88302322D01*
X89530756Y-88294579D01*
X89527225Y-88238450D01*
X89524621Y-88230439D01*
X89519528Y-88207651D01*
X89518474Y-88199303D01*
X89497770Y-88147012D01*
X89495151Y-88139738D01*
X89477764Y-88086225D01*
X89473250Y-88079112D01*
X89462652Y-88058313D01*
X89462533Y-88058013D01*
X89459552Y-88050483D01*
X89426516Y-88005013D01*
X89422139Y-87998572D01*
X89392004Y-87951087D01*
X89391997Y-87951079D01*
X89385852Y-87945308D01*
X89370421Y-87927805D01*
X89365472Y-87920993D01*
X89322155Y-87885158D01*
X89316311Y-87880006D01*
X89275324Y-87841516D01*
X89275319Y-87841512D01*
X89267933Y-87837452D01*
X89248633Y-87824335D01*
X89242143Y-87818966D01*
X89209676Y-87803688D01*
X89191263Y-87795024D01*
X89184330Y-87791491D01*
X89135063Y-87764406D01*
X89135060Y-87764405D01*
X89126892Y-87762307D01*
X89104944Y-87754405D01*
X89097320Y-87750817D01*
X89097311Y-87750814D01*
X89042104Y-87740283D01*
X89034505Y-87738585D01*
X88980034Y-87724600D01*
X88980030Y-87724600D01*
X88971605Y-87724600D01*
X88948374Y-87722404D01*
X88940096Y-87720825D01*
X88940091Y-87720824D01*
X88883985Y-87724355D01*
X88876199Y-87724600D01*
X88874467Y-87724600D01*
X88807428Y-87704915D01*
X88786786Y-87688281D01*
X88189833Y-87091328D01*
X88156348Y-87030005D01*
X88161332Y-86960313D01*
X88203204Y-86904380D01*
X88225102Y-86891268D01*
X88286749Y-86862523D01*
X88474300Y-86731198D01*
X88636198Y-86569300D01*
X88767523Y-86381749D01*
X88864284Y-86174243D01*
X88923543Y-85953087D01*
X88943498Y-85725000D01*
X88943210Y-85721713D01*
X88933794Y-85614081D01*
X88923543Y-85496913D01*
X88864284Y-85275757D01*
X88831029Y-85204442D01*
X88796944Y-85131345D01*
X88767523Y-85068251D01*
X88636198Y-84880700D01*
X88474300Y-84718802D01*
X88286749Y-84587477D01*
X88286745Y-84587475D01*
X88079249Y-84490718D01*
X88079238Y-84490714D01*
X87858089Y-84431457D01*
X87858081Y-84431456D01*
X87630002Y-84411502D01*
X87629998Y-84411502D01*
X87401918Y-84431456D01*
X87401910Y-84431457D01*
X87180761Y-84490714D01*
X87180750Y-84490718D01*
X86973254Y-84587475D01*
X86973252Y-84587476D01*
X86973251Y-84587477D01*
X86785700Y-84718802D01*
X86785698Y-84718803D01*
X86785695Y-84718806D01*
X86623806Y-84880695D01*
X86492476Y-85068251D01*
X86463734Y-85129890D01*
X86417561Y-85182329D01*
X86350367Y-85201481D01*
X86283486Y-85181265D01*
X86263671Y-85165166D01*
X81404474Y-80305969D01*
X81370989Y-80244646D01*
X81375973Y-80174954D01*
X81417845Y-80119021D01*
X81471746Y-80095979D01*
X81626951Y-80070080D01*
X81847727Y-79994287D01*
X82053017Y-79883190D01*
X82237220Y-79739818D01*
X82395314Y-79568083D01*
X82522984Y-79372669D01*
X82616749Y-79158907D01*
X82674051Y-78932626D01*
X82685994Y-78788498D01*
X82693327Y-78700005D01*
X82693327Y-78699994D01*
X82674052Y-78467382D01*
X82674050Y-78467370D01*
X82637694Y-78323804D01*
X82640319Y-78253984D01*
X82670217Y-78205685D01*
X83330085Y-77545819D01*
X83391408Y-77512334D01*
X83417766Y-77509500D01*
X86273305Y-77509500D01*
X86340344Y-77529185D01*
G37*
%TD.AperFunction*%
%TA.AperFunction,NonConductor*%
G36*
X93307355Y-86493267D02*
G01*
X93342769Y-86553497D01*
X93346500Y-86583686D01*
X93346500Y-88951647D01*
X93326815Y-89018686D01*
X93293624Y-89053221D01*
X93135699Y-89163802D01*
X92973802Y-89325699D01*
X92934074Y-89382437D01*
X92879497Y-89426062D01*
X92809999Y-89433254D01*
X92747644Y-89401731D01*
X92712231Y-89341501D01*
X92708500Y-89311313D01*
X92708500Y-86943352D01*
X92728185Y-86876313D01*
X92761373Y-86841779D01*
X92919300Y-86731198D01*
X93081198Y-86569300D01*
X93120926Y-86512561D01*
X93175502Y-86468938D01*
X93245000Y-86461744D01*
X93307355Y-86493267D01*
G37*
%TD.AperFunction*%
%TA.AperFunction,NonConductor*%
G36*
X92913703Y-90934973D02*
G01*
X92934071Y-90957559D01*
X92973802Y-91014300D01*
X93135700Y-91176198D01*
X93323251Y-91307523D01*
X93366345Y-91327618D01*
X93418784Y-91373791D01*
X93437936Y-91440984D01*
X93417720Y-91507865D01*
X93366345Y-91552382D01*
X93323251Y-91572476D01*
X93198126Y-91660090D01*
X93135700Y-91703802D01*
X93135698Y-91703803D01*
X93135695Y-91703806D01*
X92973802Y-91865699D01*
X92934074Y-91922437D01*
X92879497Y-91966062D01*
X92809999Y-91973254D01*
X92747644Y-91941731D01*
X92712231Y-91881501D01*
X92708500Y-91851313D01*
X92708500Y-91028686D01*
X92728185Y-90961647D01*
X92780989Y-90915892D01*
X92850147Y-90905948D01*
X92913703Y-90934973D01*
G37*
%TD.AperFunction*%
%TA.AperFunction,NonConductor*%
G36*
X92913703Y-93474973D02*
G01*
X92934071Y-93497559D01*
X92973802Y-93554300D01*
X93135700Y-93716198D01*
X93323251Y-93847523D01*
X93366345Y-93867618D01*
X93418784Y-93913791D01*
X93437936Y-93980984D01*
X93417720Y-94047865D01*
X93366345Y-94092382D01*
X93323251Y-94112476D01*
X93205785Y-94194728D01*
X93135700Y-94243802D01*
X93135698Y-94243803D01*
X93135695Y-94243806D01*
X92973802Y-94405699D01*
X92934074Y-94462437D01*
X92879497Y-94506062D01*
X92809999Y-94513254D01*
X92747644Y-94481731D01*
X92712231Y-94421501D01*
X92708500Y-94391313D01*
X92708500Y-93568686D01*
X92728185Y-93501647D01*
X92780989Y-93455892D01*
X92850147Y-93445948D01*
X92913703Y-93474973D01*
G37*
%TD.AperFunction*%
%TA.AperFunction,NonConductor*%
G36*
X92913703Y-96014973D02*
G01*
X92934071Y-96037559D01*
X92973802Y-96094300D01*
X93135700Y-96256198D01*
X93323251Y-96387523D01*
X93366345Y-96407618D01*
X93418784Y-96453791D01*
X93437936Y-96520984D01*
X93417720Y-96587865D01*
X93366345Y-96632382D01*
X93323251Y-96652476D01*
X93198126Y-96740090D01*
X93135700Y-96783802D01*
X93135698Y-96783803D01*
X93135695Y-96783806D01*
X92973802Y-96945699D01*
X92934074Y-97002437D01*
X92879497Y-97046062D01*
X92809999Y-97053254D01*
X92747644Y-97021731D01*
X92712231Y-96961501D01*
X92708500Y-96931313D01*
X92708500Y-96108686D01*
X92728185Y-96041647D01*
X92780989Y-95995892D01*
X92850147Y-95985948D01*
X92913703Y-96014973D01*
G37*
%TD.AperFunction*%
M02*
