%TF.GenerationSoftware,KiCad,Pcbnew,7.0.10*%
%TF.CreationDate,2024-02-01T18:49:45+01:00*%
%TF.ProjectId,lux106_1_1,6c757831-3036-45f3-915f-312e6b696361,rev?*%
%TF.SameCoordinates,Original*%
%TF.FileFunction,Soldermask,Top*%
%TF.FilePolarity,Negative*%
%FSLAX46Y46*%
G04 Gerber Fmt 4.6, Leading zero omitted, Abs format (unit mm)*
G04 Created by KiCad (PCBNEW 7.0.10) date 2024-02-01 18:49:45*
%MOMM*%
%LPD*%
G01*
G04 APERTURE LIST*
G04 Aperture macros list*
%AMRoundRect*
0 Rectangle with rounded corners*
0 $1 Rounding radius*
0 $2 $3 $4 $5 $6 $7 $8 $9 X,Y pos of 4 corners*
0 Add a 4 corners polygon primitive as box body*
4,1,4,$2,$3,$4,$5,$6,$7,$8,$9,$2,$3,0*
0 Add four circle primitives for the rounded corners*
1,1,$1+$1,$2,$3*
1,1,$1+$1,$4,$5*
1,1,$1+$1,$6,$7*
1,1,$1+$1,$8,$9*
0 Add four rect primitives between the rounded corners*
20,1,$1+$1,$2,$3,$4,$5,0*
20,1,$1+$1,$4,$5,$6,$7,0*
20,1,$1+$1,$6,$7,$8,$9,0*
20,1,$1+$1,$8,$9,$2,$3,0*%
G04 Aperture macros list end*
%ADD10RoundRect,0.450000X0.450000X0.450000X-0.450000X0.450000X-0.450000X-0.450000X0.450000X-0.450000X0*%
%ADD11C,1.800000*%
%ADD12C,1.600000*%
%ADD13O,1.600000X1.600000*%
%ADD14R,3.000000X3.000000*%
%ADD15C,3.000000*%
%ADD16C,2.300000*%
%ADD17R,4.020000X2.410000*%
%ADD18O,4.020000X2.410000*%
%ADD19R,1.600000X1.600000*%
%ADD20C,4.300000*%
%ADD21R,1.800000X1.800000*%
G04 APERTURE END LIST*
D10*
%TO.C,RV4*%
X81280000Y-105490000D03*
D11*
X81280000Y-107990000D03*
X81280000Y-110490000D03*
%TD*%
D10*
%TO.C,RV1*%
X81280000Y-85170000D03*
D11*
X81280000Y-87670000D03*
X81280000Y-90170000D03*
%TD*%
D12*
%TO.C,R6*%
X92710000Y-91440000D03*
D13*
X92710000Y-83820000D03*
%TD*%
D14*
%TO.C,J1*%
X104140000Y-138430000D03*
D15*
X99060000Y-138430000D03*
%TD*%
D12*
%TO.C,R7*%
X99060000Y-91440000D03*
D13*
X99060000Y-83820000D03*
%TD*%
D12*
%TO.C,R8*%
X105410000Y-91440000D03*
D13*
X105410000Y-83820000D03*
%TD*%
D12*
%TO.C,C6*%
X93980000Y-132040000D03*
X93980000Y-129540000D03*
%TD*%
%TO.C,R3*%
X114300000Y-77475000D03*
D13*
X114300000Y-69855000D03*
%TD*%
D12*
%TO.C,R16*%
X111760000Y-116840000D03*
D13*
X111760000Y-109220000D03*
%TD*%
D16*
%TO.C,BT1*%
X122080000Y-93570000D03*
X144430000Y-107060000D03*
X122080000Y-120540000D03*
D17*
X139700000Y-81280000D03*
D18*
X126820000Y-81280000D03*
%TD*%
D12*
%TO.C,R12*%
X93970000Y-118115000D03*
D13*
X93970000Y-110495000D03*
%TD*%
D19*
%TO.C,U2*%
X106670000Y-113035000D03*
D13*
X106670000Y-110495000D03*
X106670000Y-107955000D03*
X106670000Y-105415000D03*
X106670000Y-102875000D03*
X106670000Y-100335000D03*
X106670000Y-97795000D03*
X99050000Y-97795000D03*
X99050000Y-100335000D03*
X99050000Y-102875000D03*
X99050000Y-105415000D03*
X99050000Y-107955000D03*
X99050000Y-110495000D03*
X99050000Y-113035000D03*
%TD*%
D12*
%TO.C,R10*%
X93970000Y-97795000D03*
D13*
X93970000Y-105415000D03*
%TD*%
D12*
%TO.C,R5*%
X146050000Y-55880000D03*
D13*
X138430000Y-55880000D03*
%TD*%
D10*
%TO.C,RV3*%
X81280000Y-125810000D03*
D11*
X81280000Y-128310000D03*
X81280000Y-130810000D03*
%TD*%
D12*
%TO.C,R14*%
X111750000Y-97790000D03*
D13*
X111750000Y-105410000D03*
%TD*%
D19*
%TO.C,C4*%
X119420000Y-71125000D03*
D12*
X121920000Y-71125000D03*
%TD*%
D19*
%TO.C,C2*%
X91400000Y-71125000D03*
D12*
X88900000Y-71125000D03*
%TD*%
%TO.C,R2*%
X96520000Y-78745000D03*
D13*
X96520000Y-71125000D03*
%TD*%
D12*
%TO.C,R9*%
X111760000Y-91440000D03*
D13*
X111760000Y-83820000D03*
%TD*%
D20*
%TO.C,SCRW 1*%
X81280000Y-55880000D03*
%TD*%
D19*
%TO.C,C3*%
X119420000Y-60965000D03*
D12*
X121920000Y-60965000D03*
%TD*%
%TO.C,R17*%
X106680000Y-124460000D03*
D13*
X106680000Y-116840000D03*
%TD*%
D12*
%TO.C,R4*%
X114300000Y-55885000D03*
D13*
X114300000Y-63505000D03*
%TD*%
D12*
%TO.C,R1*%
X96520000Y-55885000D03*
D13*
X96520000Y-63505000D03*
%TD*%
D20*
%TO.C,SCRW 2*%
X146050000Y-139700000D03*
%TD*%
D21*
%TO.C,D1*%
X134620000Y-60960000D03*
D11*
X132080000Y-60960000D03*
%TD*%
D12*
%TO.C,R11*%
X92710000Y-121920000D03*
D13*
X100330000Y-121920000D03*
%TD*%
D12*
%TO.C,R15*%
X111760000Y-128270000D03*
D13*
X111760000Y-120650000D03*
%TD*%
D19*
%TO.C,C5*%
X132040000Y-71120000D03*
D12*
X129540000Y-71120000D03*
%TD*%
D19*
%TO.C,SW1*%
X144780000Y-60960000D03*
D13*
X144780000Y-68580000D03*
%TD*%
D19*
%TO.C,C1*%
X91440000Y-62235000D03*
D12*
X88940000Y-62235000D03*
%TD*%
D10*
%TO.C,RV2*%
X81280000Y-64850000D03*
D11*
X81280000Y-67350000D03*
X81280000Y-69850000D03*
%TD*%
D12*
%TO.C,R13*%
X86360000Y-127000000D03*
D13*
X86360000Y-119380000D03*
%TD*%
D19*
%TO.C,U1*%
X101610000Y-58420000D03*
D13*
X101610000Y-60960000D03*
X101610000Y-63500000D03*
X101610000Y-66040000D03*
X101610000Y-68580000D03*
X101610000Y-71120000D03*
X101610000Y-73660000D03*
X109230000Y-73660000D03*
X109230000Y-71120000D03*
X109230000Y-68580000D03*
X109230000Y-66040000D03*
X109230000Y-63500000D03*
X109230000Y-60960000D03*
X109230000Y-58420000D03*
%TD*%
M02*
