%TF.GenerationSoftware,KiCad,Pcbnew,7.0.10*%
%TF.CreationDate,2024-02-01T18:49:45+01:00*%
%TF.ProjectId,lux106_1_1,6c757831-3036-45f3-915f-312e6b696361,rev?*%
%TF.SameCoordinates,Original*%
%TF.FileFunction,Copper,L2,Bot*%
%TF.FilePolarity,Positive*%
%FSLAX46Y46*%
G04 Gerber Fmt 4.6, Leading zero omitted, Abs format (unit mm)*
G04 Created by KiCad (PCBNEW 7.0.10) date 2024-02-01 18:49:45*
%MOMM*%
%LPD*%
G01*
G04 APERTURE LIST*
G04 Aperture macros list*
%AMRoundRect*
0 Rectangle with rounded corners*
0 $1 Rounding radius*
0 $2 $3 $4 $5 $6 $7 $8 $9 X,Y pos of 4 corners*
0 Add a 4 corners polygon primitive as box body*
4,1,4,$2,$3,$4,$5,$6,$7,$8,$9,$2,$3,0*
0 Add four circle primitives for the rounded corners*
1,1,$1+$1,$2,$3*
1,1,$1+$1,$4,$5*
1,1,$1+$1,$6,$7*
1,1,$1+$1,$8,$9*
0 Add four rect primitives between the rounded corners*
20,1,$1+$1,$2,$3,$4,$5,0*
20,1,$1+$1,$4,$5,$6,$7,0*
20,1,$1+$1,$6,$7,$8,$9,0*
20,1,$1+$1,$8,$9,$2,$3,0*%
G04 Aperture macros list end*
%TA.AperFunction,ComponentPad*%
%ADD10RoundRect,0.450000X0.450000X0.450000X-0.450000X0.450000X-0.450000X-0.450000X0.450000X-0.450000X0*%
%TD*%
%TA.AperFunction,ComponentPad*%
%ADD11C,1.800000*%
%TD*%
%TA.AperFunction,ComponentPad*%
%ADD12C,1.600000*%
%TD*%
%TA.AperFunction,ComponentPad*%
%ADD13O,1.600000X1.600000*%
%TD*%
%TA.AperFunction,ComponentPad*%
%ADD14R,3.000000X3.000000*%
%TD*%
%TA.AperFunction,ComponentPad*%
%ADD15C,3.000000*%
%TD*%
%TA.AperFunction,WasherPad*%
%ADD16C,2.300000*%
%TD*%
%TA.AperFunction,ComponentPad*%
%ADD17R,4.020000X2.410000*%
%TD*%
%TA.AperFunction,ComponentPad*%
%ADD18O,4.020000X2.410000*%
%TD*%
%TA.AperFunction,ComponentPad*%
%ADD19R,1.600000X1.600000*%
%TD*%
%TA.AperFunction,ComponentPad*%
%ADD20R,1.800000X1.800000*%
%TD*%
%TA.AperFunction,Conductor*%
%ADD21C,0.250000*%
%TD*%
%TA.AperFunction,Conductor*%
%ADD22C,0.500000*%
%TD*%
G04 APERTURE END LIST*
D10*
%TO.P,RV4,1,1*%
%TO.N,unconnected-(RV4-Pad1)*%
X81280000Y-105490000D03*
D11*
%TO.P,RV4,2,2*%
%TO.N,Net-(R4-Pad1)*%
X81280000Y-107990000D03*
%TO.P,RV4,3,3*%
%TO.N,Net-(C3-Pad1)*%
X81280000Y-110490000D03*
%TD*%
D10*
%TO.P,RV1,1,1*%
%TO.N,unconnected-(RV1-Pad1)*%
X81280000Y-85170000D03*
D11*
%TO.P,RV1,2,2*%
%TO.N,Net-(R2-Pad1)*%
X81280000Y-87670000D03*
%TO.P,RV1,3,3*%
%TO.N,Net-(C2-Pad1)*%
X81280000Y-90170000D03*
%TD*%
D12*
%TO.P,R6,1*%
%TO.N,Net-(U2C-+)*%
X92710000Y-91440000D03*
D13*
%TO.P,R6,2*%
%TO.N,Net-(C1-Pad1)*%
X92710000Y-83820000D03*
%TD*%
D14*
%TO.P,J1,1,Pin_1*%
%TO.N,GND*%
X104140000Y-138430000D03*
D15*
%TO.P,J1,2,Pin_2*%
%TO.N,Net-(J1-Pin_2)*%
X99060000Y-138430000D03*
%TD*%
D12*
%TO.P,R7,1*%
%TO.N,Net-(U2D-+)*%
X99060000Y-91440000D03*
D13*
%TO.P,R7,2*%
%TO.N,Net-(C2-Pad1)*%
X99060000Y-83820000D03*
%TD*%
D12*
%TO.P,R8,1*%
%TO.N,Net-(U2B-+)*%
X105410000Y-91440000D03*
D13*
%TO.P,R8,2*%
%TO.N,Net-(C4-Pad1)*%
X105410000Y-83820000D03*
%TD*%
D12*
%TO.P,C6,1*%
%TO.N,Net-(J1-Pin_2)*%
X93980000Y-132040000D03*
%TO.P,C6,2*%
%TO.N,OUT*%
X93980000Y-129540000D03*
%TD*%
%TO.P,R3,1*%
%TO.N,Net-(R3-Pad1)*%
X114300000Y-77475000D03*
D13*
%TO.P,R3,2*%
%TO.N,Net-(R3-Pad2)*%
X114300000Y-69855000D03*
%TD*%
D12*
%TO.P,R16,1*%
%TO.N,Net-(R16-Pad1)*%
X111760000Y-116840000D03*
D13*
%TO.P,R16,2*%
%TO.N,Net-(U2A--)*%
X111760000Y-109220000D03*
%TD*%
D16*
%TO.P,BT1,*%
%TO.N,*%
X122080000Y-93570000D03*
X144430000Y-107060000D03*
X122080000Y-120540000D03*
D17*
%TO.P,BT1,1,+*%
%TO.N,VCC*%
X139700000Y-81280000D03*
D18*
%TO.P,BT1,2,-*%
%TO.N,Net-(BT1--)*%
X126820000Y-81280000D03*
%TD*%
D12*
%TO.P,R12,1*%
%TO.N,Net-(R12-Pad1)*%
X93970000Y-118115000D03*
D13*
%TO.P,R12,2*%
%TO.N,Net-(U2D--)*%
X93970000Y-110495000D03*
%TD*%
D19*
%TO.P,U2,1*%
%TO.N,Net-(R16-Pad1)*%
X106670000Y-113035000D03*
D13*
%TO.P,U2,2,-*%
%TO.N,Net-(U2A--)*%
X106670000Y-110495000D03*
%TO.P,U2,3,+*%
%TO.N,Net-(U2A-+)*%
X106670000Y-107955000D03*
%TO.P,U2,4,V+*%
%TO.N,VCC*%
X106670000Y-105415000D03*
%TO.P,U2,5,+*%
%TO.N,Net-(U2B-+)*%
X106670000Y-102875000D03*
%TO.P,U2,6,-*%
%TO.N,Net-(U2B--)*%
X106670000Y-100335000D03*
%TO.P,U2,7*%
%TO.N,Net-(R14-Pad1)*%
X106670000Y-97795000D03*
%TO.P,U2,8*%
%TO.N,Net-(R10-Pad1)*%
X99050000Y-97795000D03*
%TO.P,U2,9,-*%
%TO.N,Net-(U2C--)*%
X99050000Y-100335000D03*
%TO.P,U2,10,+*%
%TO.N,Net-(U2C-+)*%
X99050000Y-102875000D03*
%TO.P,U2,11,V-*%
%TO.N,GND*%
X99050000Y-105415000D03*
%TO.P,U2,12,+*%
%TO.N,Net-(U2D-+)*%
X99050000Y-107955000D03*
%TO.P,U2,13,-*%
%TO.N,Net-(U2D--)*%
X99050000Y-110495000D03*
%TO.P,U2,14*%
%TO.N,Net-(R12-Pad1)*%
X99050000Y-113035000D03*
%TD*%
D12*
%TO.P,R10,1*%
%TO.N,Net-(R10-Pad1)*%
X93970000Y-97795000D03*
D13*
%TO.P,R10,2*%
%TO.N,Net-(U2C--)*%
X93970000Y-105415000D03*
%TD*%
D12*
%TO.P,R5,1*%
%TO.N,GND*%
X146050000Y-55880000D03*
D13*
%TO.P,R5,2*%
%TO.N,Net-(D1-K)*%
X138430000Y-55880000D03*
%TD*%
D10*
%TO.P,RV3,1,1*%
%TO.N,unconnected-(RV3-Pad1)*%
X81280000Y-125810000D03*
D11*
%TO.P,RV3,2,2*%
%TO.N,Net-(R3-Pad1)*%
X81280000Y-128310000D03*
%TO.P,RV3,3,3*%
%TO.N,Net-(C4-Pad1)*%
X81280000Y-130810000D03*
%TD*%
D12*
%TO.P,R14,1*%
%TO.N,Net-(R14-Pad1)*%
X111750000Y-97790000D03*
D13*
%TO.P,R14,2*%
%TO.N,Net-(U2B--)*%
X111750000Y-105410000D03*
%TD*%
D19*
%TO.P,C4,1*%
%TO.N,Net-(C4-Pad1)*%
X119420000Y-71125000D03*
D12*
%TO.P,C4,2*%
%TO.N,GND*%
X121920000Y-71125000D03*
%TD*%
D19*
%TO.P,C2,1*%
%TO.N,Net-(C2-Pad1)*%
X91400000Y-71125000D03*
D12*
%TO.P,C2,2*%
%TO.N,GND*%
X88900000Y-71125000D03*
%TD*%
%TO.P,R2,1*%
%TO.N,Net-(R2-Pad1)*%
X96520000Y-78745000D03*
D13*
%TO.P,R2,2*%
%TO.N,Net-(R2-Pad2)*%
X96520000Y-71125000D03*
%TD*%
D12*
%TO.P,R9,1*%
%TO.N,Net-(U2A-+)*%
X111760000Y-91440000D03*
D13*
%TO.P,R9,2*%
%TO.N,Net-(C3-Pad1)*%
X111760000Y-83820000D03*
%TD*%
D19*
%TO.P,C3,1*%
%TO.N,Net-(C3-Pad1)*%
X119420000Y-60965000D03*
D12*
%TO.P,C3,2*%
%TO.N,GND*%
X121920000Y-60965000D03*
%TD*%
%TO.P,R17,1*%
%TO.N,OUT*%
X106680000Y-124460000D03*
D13*
%TO.P,R17,2*%
%TO.N,Net-(R16-Pad1)*%
X106680000Y-116840000D03*
%TD*%
D12*
%TO.P,R4,1*%
%TO.N,Net-(R4-Pad1)*%
X114300000Y-55885000D03*
D13*
%TO.P,R4,2*%
%TO.N,Net-(R4-Pad2)*%
X114300000Y-63505000D03*
%TD*%
D12*
%TO.P,R1,1*%
%TO.N,Net-(R1-Pad1)*%
X96520000Y-55885000D03*
D13*
%TO.P,R1,2*%
%TO.N,Net-(R1-Pad2)*%
X96520000Y-63505000D03*
%TD*%
D20*
%TO.P,D1,1,K*%
%TO.N,Net-(D1-K)*%
X134620000Y-60960000D03*
D11*
%TO.P,D1,2,A*%
%TO.N,VCC*%
X132080000Y-60960000D03*
%TD*%
D12*
%TO.P,R11,1*%
%TO.N,OUT*%
X92710000Y-121920000D03*
D13*
%TO.P,R11,2*%
%TO.N,Net-(R10-Pad1)*%
X100330000Y-121920000D03*
%TD*%
D12*
%TO.P,R15,1*%
%TO.N,OUT*%
X111760000Y-128270000D03*
D13*
%TO.P,R15,2*%
%TO.N,Net-(R14-Pad1)*%
X111760000Y-120650000D03*
%TD*%
D19*
%TO.P,C5,1*%
%TO.N,VCC*%
X132040000Y-71120000D03*
D12*
%TO.P,C5,2*%
%TO.N,Net-(BT1--)*%
X129540000Y-71120000D03*
%TD*%
D19*
%TO.P,SW1,1,A*%
%TO.N,GND*%
X144780000Y-60960000D03*
D13*
%TO.P,SW1,2,B*%
%TO.N,Net-(BT1--)*%
X144780000Y-68580000D03*
%TD*%
D19*
%TO.P,C1,1*%
%TO.N,Net-(C1-Pad1)*%
X91440000Y-62235000D03*
D12*
%TO.P,C1,2*%
%TO.N,GND*%
X88940000Y-62235000D03*
%TD*%
D10*
%TO.P,RV2,1,1*%
%TO.N,unconnected-(RV2-Pad1)*%
X81280000Y-64850000D03*
D11*
%TO.P,RV2,2,2*%
%TO.N,Net-(R1-Pad1)*%
X81280000Y-67350000D03*
%TO.P,RV2,3,3*%
%TO.N,Net-(C1-Pad1)*%
X81280000Y-69850000D03*
%TD*%
D12*
%TO.P,R13,1*%
%TO.N,OUT*%
X86360000Y-127000000D03*
D13*
%TO.P,R13,2*%
%TO.N,Net-(R12-Pad1)*%
X86360000Y-119380000D03*
%TD*%
D19*
%TO.P,U1,1*%
%TO.N,Net-(C1-Pad1)*%
X101610000Y-58420000D03*
D13*
%TO.P,U1,2*%
%TO.N,Net-(R1-Pad2)*%
X101610000Y-60960000D03*
%TO.P,U1,3*%
%TO.N,unconnected-(U1-Pad3)*%
X101610000Y-63500000D03*
%TO.P,U1,4*%
%TO.N,unconnected-(U1-Pad4)*%
X101610000Y-66040000D03*
%TO.P,U1,5*%
%TO.N,Net-(C2-Pad1)*%
X101610000Y-68580000D03*
%TO.P,U1,6*%
%TO.N,Net-(R2-Pad2)*%
X101610000Y-71120000D03*
%TO.P,U1,7,VSS*%
%TO.N,GND*%
X101610000Y-73660000D03*
%TO.P,U1,8*%
%TO.N,Net-(R3-Pad2)*%
X109230000Y-73660000D03*
%TO.P,U1,9*%
%TO.N,Net-(C4-Pad1)*%
X109230000Y-71120000D03*
%TO.P,U1,10*%
%TO.N,unconnected-(U1-Pad10)*%
X109230000Y-68580000D03*
%TO.P,U1,11*%
%TO.N,unconnected-(U1-Pad11)*%
X109230000Y-66040000D03*
%TO.P,U1,12*%
%TO.N,Net-(R4-Pad2)*%
X109230000Y-63500000D03*
%TO.P,U1,13*%
%TO.N,Net-(C3-Pad1)*%
X109230000Y-60960000D03*
%TO.P,U1,14,VDD*%
%TO.N,VCC*%
X109230000Y-58420000D03*
%TD*%
D21*
%TO.N,Net-(R16-Pad1)*%
X106680000Y-116840000D02*
X111760000Y-116840000D01*
%TO.N,Net-(R12-Pad1)*%
X99050000Y-113035000D02*
X97873100Y-113035000D01*
X86360000Y-119380000D02*
X87536900Y-119380000D01*
X97873100Y-114211900D02*
X93970000Y-118115000D01*
X97873100Y-113035000D02*
X97873100Y-114211900D01*
X88801900Y-118115000D02*
X87536900Y-119380000D01*
X93970000Y-118115000D02*
X88801900Y-118115000D01*
%TO.N,Net-(R14-Pad1)*%
X111745000Y-97795000D02*
X111750000Y-97790000D01*
X106670000Y-97795000D02*
X111745000Y-97795000D01*
%TO.N,Net-(R10-Pad1)*%
X99050000Y-97795000D02*
X93970000Y-97795000D01*
%TO.N,Net-(U2B--)*%
X111745000Y-104233100D02*
X111750000Y-104233100D01*
X107846900Y-100335000D02*
X111745000Y-104233100D01*
X106670000Y-100335000D02*
X107846900Y-100335000D01*
X111750000Y-105410000D02*
X111750000Y-104233100D01*
%TO.N,Net-(U2A--)*%
X109121900Y-109220000D02*
X111760000Y-109220000D01*
X107846900Y-110495000D02*
X109121900Y-109220000D01*
X106670000Y-110495000D02*
X107846900Y-110495000D01*
%TO.N,Net-(R3-Pad1)*%
X85100900Y-124489100D02*
X81280000Y-128310000D01*
X85100900Y-112614100D02*
X85100900Y-124489100D01*
X98650000Y-99065000D02*
X85100900Y-112614100D01*
X99451000Y-99065000D02*
X98650000Y-99065000D01*
X114300000Y-84216000D02*
X99451000Y-99065000D01*
X114300000Y-77475000D02*
X114300000Y-84216000D01*
%TO.N,Net-(R2-Pad2)*%
X97701900Y-71120000D02*
X97696900Y-71125000D01*
X101610000Y-71120000D02*
X97701900Y-71120000D01*
X96520000Y-71125000D02*
X97696900Y-71125000D01*
%TO.N,Net-(R2-Pad1)*%
X90528500Y-87670000D02*
X81280000Y-87670000D01*
X96520000Y-81678500D02*
X90528500Y-87670000D01*
X96520000Y-78745000D02*
X96520000Y-81678500D01*
%TO.N,Net-(U2C--)*%
X99050000Y-100335000D02*
X93970000Y-105415000D01*
%TO.N,Net-(R1-Pad2)*%
X97888100Y-63505000D02*
X96520000Y-63505000D01*
X100433100Y-60960000D02*
X97888100Y-63505000D01*
X101610000Y-60960000D02*
X100433100Y-60960000D01*
%TO.N,Net-(R4-Pad2)*%
X113118100Y-63500000D02*
X113123100Y-63505000D01*
X109230000Y-63500000D02*
X113118100Y-63500000D01*
X114300000Y-63505000D02*
X113123100Y-63505000D01*
%TO.N,Net-(U2D--)*%
X99050000Y-110495000D02*
X93970000Y-110495000D01*
%TO.N,Net-(D1-K)*%
X137253100Y-57050000D02*
X137253100Y-55880000D01*
X134620000Y-59683100D02*
X137253100Y-57050000D01*
X134620000Y-60960000D02*
X134620000Y-59683100D01*
X138430000Y-55880000D02*
X137253100Y-55880000D01*
%TO.N,OUT*%
X110490000Y-128270000D02*
X106680000Y-124460000D01*
X111760000Y-128270000D02*
X110490000Y-128270000D01*
X92710000Y-121920000D02*
X95250000Y-124460000D01*
X95250000Y-124460000D02*
X106680000Y-124460000D01*
X87604200Y-128244200D02*
X86360000Y-127000000D01*
X92735800Y-128244200D02*
X87604200Y-128244200D01*
X92735800Y-128295800D02*
X92735800Y-128244200D01*
X93980000Y-129540000D02*
X92735800Y-128295800D01*
X95250000Y-125730000D02*
X95250000Y-124460000D01*
X92735800Y-128244200D02*
X95250000Y-125730000D01*
%TO.N,Net-(J1-Pin_2)*%
X99060000Y-137120000D02*
X99060000Y-138430000D01*
X93980000Y-132040000D02*
X99060000Y-137120000D01*
%TO.N,Net-(C4-Pad1)*%
X118238100Y-71120000D02*
X118243100Y-71125000D01*
X109230000Y-71120000D02*
X118238100Y-71120000D01*
X119420000Y-71125000D02*
X118243100Y-71125000D01*
X105005800Y-83820000D02*
X105410000Y-83820000D01*
X83703300Y-105122500D02*
X105005800Y-83820000D01*
X83703300Y-115482000D02*
X83703300Y-105122500D01*
X79970300Y-119215000D02*
X83703300Y-115482000D01*
X79970300Y-129500300D02*
X79970300Y-119215000D01*
X81280000Y-130810000D02*
X79970300Y-129500300D01*
%TO.N,Net-(C3-Pad1)*%
X118238100Y-60960000D02*
X118243100Y-60965000D01*
X109230000Y-60960000D02*
X118238100Y-60960000D01*
X119420000Y-60965000D02*
X118243100Y-60965000D01*
X83056200Y-108713800D02*
X81280000Y-110490000D01*
X83056200Y-104501900D02*
X83056200Y-108713800D01*
X104948100Y-82610000D02*
X83056200Y-104501900D01*
X109373100Y-82610000D02*
X104948100Y-82610000D01*
X110583100Y-83820000D02*
X109373100Y-82610000D01*
X111760000Y-83820000D02*
X110583100Y-83820000D01*
%TO.N,Net-(C2-Pad1)*%
X95121900Y-68580000D02*
X92576900Y-71125000D01*
X101610000Y-68580000D02*
X95121900Y-68580000D01*
X91400000Y-71125000D02*
X92576900Y-71125000D01*
X91533100Y-90170000D02*
X81280000Y-90170000D01*
X97883100Y-83820000D02*
X91533100Y-90170000D01*
X99060000Y-83820000D02*
X97883100Y-83820000D01*
%TO.N,GND*%
X144780000Y-60960000D02*
X143603100Y-60960000D01*
X91435000Y-73660000D02*
X101610000Y-73660000D01*
X88900000Y-71125000D02*
X91435000Y-73660000D01*
X101610000Y-73660000D02*
X102786900Y-73660000D01*
X99050000Y-105415000D02*
X99050000Y-104238100D01*
X99415800Y-104238100D02*
X99050000Y-104238100D01*
X100414600Y-103239300D02*
X99415800Y-104238100D01*
X100414600Y-99796700D02*
X100414600Y-103239300D01*
X115534700Y-84676600D02*
X100414600Y-99796700D01*
X115534700Y-74858500D02*
X115534700Y-84676600D01*
X103985400Y-74858500D02*
X115534700Y-74858500D01*
X102786900Y-73660000D02*
X103985400Y-74858500D01*
X121920000Y-60965000D02*
X123191900Y-62236900D01*
X142326200Y-62236900D02*
X143603100Y-60960000D01*
X123191900Y-62236900D02*
X142326200Y-62236900D01*
X118186500Y-74858500D02*
X121920000Y-71125000D01*
X115534700Y-74858500D02*
X118186500Y-74858500D01*
X121920000Y-63508800D02*
X123191900Y-62236900D01*
X121920000Y-71125000D02*
X121920000Y-63508800D01*
%TO.N,Net-(C1-Pad1)*%
X101610000Y-58420000D02*
X100433100Y-58420000D01*
X96618100Y-62235000D02*
X91440000Y-62235000D01*
X100433100Y-58420000D02*
X96618100Y-62235000D01*
X91440000Y-62235000D02*
X90263100Y-62235000D01*
X83015900Y-72949000D02*
X83015900Y-69850000D01*
X92710000Y-82643100D02*
X83015900Y-72949000D01*
X90263100Y-62602800D02*
X83015900Y-69850000D01*
X90263100Y-62235000D02*
X90263100Y-62602800D01*
X83015900Y-69850000D02*
X81280000Y-69850000D01*
X92710000Y-83820000D02*
X92710000Y-82643100D01*
%TO.N,Net-(BT1--)*%
X132080000Y-68580000D02*
X129540000Y-71120000D01*
X144780000Y-68580000D02*
X132080000Y-68580000D01*
D22*
%TO.N,VCC*%
X129540000Y-58420000D02*
X132080000Y-60960000D01*
X109230000Y-58420000D02*
X129540000Y-58420000D01*
X137188100Y-81813400D02*
X137188100Y-81280000D01*
X112283700Y-106717800D02*
X137188100Y-81813400D01*
X109274700Y-106717800D02*
X112283700Y-106717800D01*
X107971900Y-105415000D02*
X109274700Y-106717800D01*
X106670000Y-105415000D02*
X107971900Y-105415000D01*
X139700000Y-81280000D02*
X137188100Y-81280000D01*
%TD*%
M02*
