%TF.GenerationSoftware,KiCad,Pcbnew,7.0.10*%
%TF.CreationDate,2024-02-02T19:11:58+01:00*%
%TF.ProjectId,lux106_1_1,6c757831-3036-45f3-915f-312e6b696361,rev?*%
%TF.SameCoordinates,Original*%
%TF.FileFunction,Soldermask,Bot*%
%TF.FilePolarity,Negative*%
%FSLAX46Y46*%
G04 Gerber Fmt 4.6, Leading zero omitted, Abs format (unit mm)*
G04 Created by KiCad (PCBNEW 7.0.10) date 2024-02-02 19:11:58*
%MOMM*%
%LPD*%
G01*
G04 APERTURE LIST*
G04 Aperture macros list*
%AMRoundRect*
0 Rectangle with rounded corners*
0 $1 Rounding radius*
0 $2 $3 $4 $5 $6 $7 $8 $9 X,Y pos of 4 corners*
0 Add a 4 corners polygon primitive as box body*
4,1,4,$2,$3,$4,$5,$6,$7,$8,$9,$2,$3,0*
0 Add four circle primitives for the rounded corners*
1,1,$1+$1,$2,$3*
1,1,$1+$1,$4,$5*
1,1,$1+$1,$6,$7*
1,1,$1+$1,$8,$9*
0 Add four rect primitives between the rounded corners*
20,1,$1+$1,$2,$3,$4,$5,0*
20,1,$1+$1,$4,$5,$6,$7,0*
20,1,$1+$1,$6,$7,$8,$9,0*
20,1,$1+$1,$8,$9,$2,$3,0*%
G04 Aperture macros list end*
%ADD10RoundRect,0.450000X0.450000X0.450000X-0.450000X0.450000X-0.450000X-0.450000X0.450000X-0.450000X0*%
%ADD11C,1.800000*%
%ADD12C,1.600000*%
%ADD13O,1.600000X1.600000*%
%ADD14R,3.000000X3.000000*%
%ADD15C,3.000000*%
%ADD16C,2.300000*%
%ADD17R,4.020000X2.410000*%
%ADD18O,4.020000X2.410000*%
%ADD19R,1.600000X1.600000*%
%ADD20RoundRect,0.381000X-0.381000X-0.381000X0.381000X-0.381000X0.381000X0.381000X-0.381000X0.381000X0*%
%ADD21C,1.524000*%
%ADD22C,4.300000*%
%ADD23R,1.800000X1.800000*%
G04 APERTURE END LIST*
D10*
%TO.C,RV4*%
X81280000Y-91480000D03*
D11*
X81280000Y-93980000D03*
X81280000Y-96480000D03*
%TD*%
D10*
%TO.C,RV1*%
X81280000Y-73700000D03*
D11*
X81280000Y-76200000D03*
X81280000Y-78700000D03*
%TD*%
D12*
%TO.C,R6*%
X88900000Y-97155000D03*
D13*
X88900000Y-89535000D03*
%TD*%
D14*
%TO.C,J1*%
X104140000Y-132080000D03*
D15*
X99060000Y-132080000D03*
%TD*%
D12*
%TO.C,R7*%
X92075000Y-85725000D03*
D13*
X92075000Y-78105000D03*
%TD*%
D12*
%TO.C,R8*%
X100330000Y-85725000D03*
D13*
X100330000Y-78105000D03*
%TD*%
D12*
%TO.C,C6*%
X96520000Y-124460000D03*
X94020000Y-124460000D03*
%TD*%
%TO.C,R3*%
X111760000Y-77475000D03*
D13*
X111760000Y-69855000D03*
%TD*%
D12*
%TO.C,R16*%
X106690000Y-108585000D03*
D13*
X106690000Y-100965000D03*
%TD*%
D16*
%TO.C,BT1*%
X116840000Y-94950000D03*
X139190000Y-108440000D03*
X116840000Y-121920000D03*
D17*
X134460000Y-82660000D03*
D18*
X121580000Y-82660000D03*
%TD*%
D12*
%TO.C,R12*%
X88900000Y-108585000D03*
D13*
X88900000Y-100965000D03*
%TD*%
D19*
%TO.C,U2*%
X101600000Y-105410000D03*
D13*
X101600000Y-102870000D03*
X101600000Y-100330000D03*
X101600000Y-97790000D03*
X101600000Y-95250000D03*
X101600000Y-92710000D03*
X101600000Y-90170000D03*
X93980000Y-90170000D03*
X93980000Y-92710000D03*
X93980000Y-95250000D03*
X93980000Y-97790000D03*
X93980000Y-100330000D03*
X93980000Y-102870000D03*
X93980000Y-105410000D03*
%TD*%
D20*
%TO.C,SW2*%
X138430000Y-69850000D03*
D21*
X138430000Y-72390000D03*
X138430000Y-74930000D03*
%TD*%
D10*
%TO.C,RV5*%
X81280000Y-127000000D03*
D11*
X81280000Y-129500000D03*
X81280000Y-132000000D03*
%TD*%
D12*
%TO.C,R10*%
X87630000Y-78105000D03*
D13*
X87630000Y-85725000D03*
%TD*%
D12*
%TO.C,R5*%
X121920000Y-68580000D03*
D13*
X129540000Y-68580000D03*
%TD*%
D10*
%TO.C,RV3*%
X81280000Y-109220000D03*
D11*
X81280000Y-111720000D03*
X81280000Y-114220000D03*
%TD*%
D12*
%TO.C,R14*%
X106680000Y-89535000D03*
D13*
X106680000Y-97155000D03*
%TD*%
D19*
%TO.C,C4*%
X115610000Y-72390000D03*
D12*
X118110000Y-72390000D03*
%TD*%
D19*
%TO.C,C2*%
X88900000Y-67310000D03*
D12*
X86400000Y-67310000D03*
%TD*%
%TO.C,R2*%
X87630000Y-73660000D03*
D13*
X95250000Y-73660000D03*
%TD*%
D12*
%TO.C,R9*%
X106680000Y-85725000D03*
D13*
X106680000Y-78105000D03*
%TD*%
D22*
%TO.C,SCRW 1*%
X90170000Y-132080000D03*
%TD*%
D19*
%TO.C,C3*%
X115610000Y-62230000D03*
D12*
X118110000Y-62230000D03*
%TD*%
%TO.C,R17*%
X101600000Y-119380000D03*
D13*
X101600000Y-111760000D03*
%TD*%
D12*
%TO.C,R4*%
X111760000Y-55885000D03*
D13*
X111760000Y-63505000D03*
%TD*%
D12*
%TO.C,R1*%
X93980000Y-55885000D03*
D13*
X93980000Y-63505000D03*
%TD*%
D22*
%TO.C,SCRW 2*%
X139700000Y-57150000D03*
%TD*%
D23*
%TO.C,D1*%
X129540000Y-60960000D03*
D11*
X127000000Y-60960000D03*
%TD*%
D12*
%TO.C,R11*%
X95250000Y-119380000D03*
D13*
X95250000Y-111760000D03*
%TD*%
D12*
%TO.C,R15*%
X106690000Y-119380000D03*
D13*
X106690000Y-111760000D03*
%TD*%
D19*
%TO.C,C5*%
X129500000Y-74930000D03*
D12*
X127000000Y-74930000D03*
%TD*%
D19*
%TO.C,C1*%
X88900000Y-58420000D03*
D12*
X86400000Y-58420000D03*
%TD*%
D10*
%TO.C,RV2*%
X81280000Y-55920000D03*
D11*
X81280000Y-58420000D03*
X81280000Y-60920000D03*
%TD*%
D12*
%TO.C,R13*%
X88900000Y-119380000D03*
D13*
X88900000Y-111760000D03*
%TD*%
D19*
%TO.C,U1*%
X99070000Y-58420000D03*
D13*
X99070000Y-60960000D03*
X99070000Y-63500000D03*
X99070000Y-66040000D03*
X99070000Y-68580000D03*
X99070000Y-71120000D03*
X99070000Y-73660000D03*
X106690000Y-73660000D03*
X106690000Y-71120000D03*
X106690000Y-68580000D03*
X106690000Y-66040000D03*
X106690000Y-63500000D03*
X106690000Y-60960000D03*
X106690000Y-58420000D03*
%TD*%
M02*
