%TF.GenerationSoftware,KiCad,Pcbnew,7.0.10*%
%TF.CreationDate,2024-02-02T19:11:57+01:00*%
%TF.ProjectId,lux106_1_1,6c757831-3036-45f3-915f-312e6b696361,rev?*%
%TF.SameCoordinates,Original*%
%TF.FileFunction,Copper,L2,Bot*%
%TF.FilePolarity,Positive*%
%FSLAX46Y46*%
G04 Gerber Fmt 4.6, Leading zero omitted, Abs format (unit mm)*
G04 Created by KiCad (PCBNEW 7.0.10) date 2024-02-02 19:11:57*
%MOMM*%
%LPD*%
G01*
G04 APERTURE LIST*
G04 Aperture macros list*
%AMRoundRect*
0 Rectangle with rounded corners*
0 $1 Rounding radius*
0 $2 $3 $4 $5 $6 $7 $8 $9 X,Y pos of 4 corners*
0 Add a 4 corners polygon primitive as box body*
4,1,4,$2,$3,$4,$5,$6,$7,$8,$9,$2,$3,0*
0 Add four circle primitives for the rounded corners*
1,1,$1+$1,$2,$3*
1,1,$1+$1,$4,$5*
1,1,$1+$1,$6,$7*
1,1,$1+$1,$8,$9*
0 Add four rect primitives between the rounded corners*
20,1,$1+$1,$2,$3,$4,$5,0*
20,1,$1+$1,$4,$5,$6,$7,0*
20,1,$1+$1,$6,$7,$8,$9,0*
20,1,$1+$1,$8,$9,$2,$3,0*%
G04 Aperture macros list end*
%TA.AperFunction,ComponentPad*%
%ADD10RoundRect,0.450000X0.450000X0.450000X-0.450000X0.450000X-0.450000X-0.450000X0.450000X-0.450000X0*%
%TD*%
%TA.AperFunction,ComponentPad*%
%ADD11C,1.800000*%
%TD*%
%TA.AperFunction,ComponentPad*%
%ADD12C,1.600000*%
%TD*%
%TA.AperFunction,ComponentPad*%
%ADD13O,1.600000X1.600000*%
%TD*%
%TA.AperFunction,ComponentPad*%
%ADD14R,3.000000X3.000000*%
%TD*%
%TA.AperFunction,ComponentPad*%
%ADD15C,3.000000*%
%TD*%
%TA.AperFunction,WasherPad*%
%ADD16C,2.300000*%
%TD*%
%TA.AperFunction,ComponentPad*%
%ADD17R,4.020000X2.410000*%
%TD*%
%TA.AperFunction,ComponentPad*%
%ADD18O,4.020000X2.410000*%
%TD*%
%TA.AperFunction,ComponentPad*%
%ADD19R,1.600000X1.600000*%
%TD*%
%TA.AperFunction,ComponentPad*%
%ADD20RoundRect,0.381000X-0.381000X-0.381000X0.381000X-0.381000X0.381000X0.381000X-0.381000X0.381000X0*%
%TD*%
%TA.AperFunction,ComponentPad*%
%ADD21C,1.524000*%
%TD*%
%TA.AperFunction,ComponentPad*%
%ADD22R,1.800000X1.800000*%
%TD*%
%TA.AperFunction,Conductor*%
%ADD23C,0.500000*%
%TD*%
%TA.AperFunction,Conductor*%
%ADD24C,0.250000*%
%TD*%
G04 APERTURE END LIST*
D10*
%TO.P,RV4,1,1*%
%TO.N,unconnected-(RV4-Pad1)*%
X81280000Y-91480000D03*
D11*
%TO.P,RV4,2,2*%
%TO.N,Net-(R4-Pad1)*%
X81280000Y-93980000D03*
%TO.P,RV4,3,3*%
%TO.N,Net-(C3-Pad1)*%
X81280000Y-96480000D03*
%TD*%
D10*
%TO.P,RV1,1,1*%
%TO.N,unconnected-(RV1-Pad1)*%
X81280000Y-73700000D03*
D11*
%TO.P,RV1,2,2*%
%TO.N,Net-(R2-Pad1)*%
X81280000Y-76200000D03*
%TO.P,RV1,3,3*%
%TO.N,Net-(C2-Pad1)*%
X81280000Y-78700000D03*
%TD*%
D12*
%TO.P,R6,1*%
%TO.N,Net-(U2C-+)*%
X88900000Y-97155000D03*
D13*
%TO.P,R6,2*%
%TO.N,Net-(C1-Pad1)*%
X88900000Y-89535000D03*
%TD*%
D14*
%TO.P,J1,1,Pin_1*%
%TO.N,GND*%
X104140000Y-132080000D03*
D15*
%TO.P,J1,2,Pin_2*%
%TO.N,Net-(J1-Pin_2)*%
X99060000Y-132080000D03*
%TD*%
D12*
%TO.P,R7,1*%
%TO.N,Net-(U2D-+)*%
X92075000Y-85725000D03*
D13*
%TO.P,R7,2*%
%TO.N,Net-(C2-Pad1)*%
X92075000Y-78105000D03*
%TD*%
D12*
%TO.P,R8,1*%
%TO.N,Net-(U2B-+)*%
X100330000Y-85725000D03*
D13*
%TO.P,R8,2*%
%TO.N,Net-(C4-Pad1)*%
X100330000Y-78105000D03*
%TD*%
D12*
%TO.P,C6,1*%
%TO.N,Net-(J1-Pin_2)*%
X96520000Y-124460000D03*
%TO.P,C6,2*%
%TO.N,Net-(C6-Pad2)*%
X94020000Y-124460000D03*
%TD*%
%TO.P,R3,1*%
%TO.N,Net-(R3-Pad1)*%
X111760000Y-77475000D03*
D13*
%TO.P,R3,2*%
%TO.N,Net-(R3-Pad2)*%
X111760000Y-69855000D03*
%TD*%
D12*
%TO.P,R16,1*%
%TO.N,Net-(R16-Pad1)*%
X106690000Y-108585000D03*
D13*
%TO.P,R16,2*%
%TO.N,Net-(U2A--)*%
X106690000Y-100965000D03*
%TD*%
D16*
%TO.P,BT1,*%
%TO.N,*%
X116840000Y-94950000D03*
X139190000Y-108440000D03*
X116840000Y-121920000D03*
D17*
%TO.P,BT1,1,+*%
%TO.N,VCC*%
X134460000Y-82660000D03*
D18*
%TO.P,BT1,2,-*%
%TO.N,Net-(BT1--)*%
X121580000Y-82660000D03*
%TD*%
D12*
%TO.P,R12,1*%
%TO.N,Net-(R12-Pad1)*%
X88900000Y-108585000D03*
D13*
%TO.P,R12,2*%
%TO.N,Net-(U2D--)*%
X88900000Y-100965000D03*
%TD*%
D19*
%TO.P,U2,1*%
%TO.N,Net-(R16-Pad1)*%
X101600000Y-105410000D03*
D13*
%TO.P,U2,2,-*%
%TO.N,Net-(U2A--)*%
X101600000Y-102870000D03*
%TO.P,U2,3,+*%
%TO.N,Net-(U2A-+)*%
X101600000Y-100330000D03*
%TO.P,U2,4,V+*%
%TO.N,VCC*%
X101600000Y-97790000D03*
%TO.P,U2,5,+*%
%TO.N,Net-(U2B-+)*%
X101600000Y-95250000D03*
%TO.P,U2,6,-*%
%TO.N,Net-(U2B--)*%
X101600000Y-92710000D03*
%TO.P,U2,7*%
%TO.N,Net-(R14-Pad1)*%
X101600000Y-90170000D03*
%TO.P,U2,8*%
%TO.N,Net-(R10-Pad1)*%
X93980000Y-90170000D03*
%TO.P,U2,9,-*%
%TO.N,Net-(U2C--)*%
X93980000Y-92710000D03*
%TO.P,U2,10,+*%
%TO.N,Net-(U2C-+)*%
X93980000Y-95250000D03*
%TO.P,U2,11,V-*%
%TO.N,GND*%
X93980000Y-97790000D03*
%TO.P,U2,12,+*%
%TO.N,Net-(U2D-+)*%
X93980000Y-100330000D03*
%TO.P,U2,13,-*%
%TO.N,Net-(U2D--)*%
X93980000Y-102870000D03*
%TO.P,U2,14*%
%TO.N,Net-(R12-Pad1)*%
X93980000Y-105410000D03*
%TD*%
D20*
%TO.P,SW2,1,A*%
%TO.N,GND*%
X138430000Y-69850000D03*
D21*
%TO.P,SW2,2,B*%
%TO.N,Net-(BT1--)*%
X138430000Y-72390000D03*
%TO.P,SW2,3,C*%
%TO.N,unconnected-(SW2-C-Pad3)*%
X138430000Y-74930000D03*
%TD*%
D10*
%TO.P,RV5,1,1*%
%TO.N,unconnected-(RV5-Pad1)*%
X81280000Y-127000000D03*
D11*
%TO.P,RV5,2,2*%
%TO.N,Net-(C6-Pad2)*%
X81280000Y-129500000D03*
%TO.P,RV5,3,3*%
%TO.N,OUT*%
X81280000Y-132000000D03*
%TD*%
D12*
%TO.P,R10,1*%
%TO.N,Net-(R10-Pad1)*%
X87630000Y-78105000D03*
D13*
%TO.P,R10,2*%
%TO.N,Net-(U2C--)*%
X87630000Y-85725000D03*
%TD*%
D12*
%TO.P,R5,1*%
%TO.N,GND*%
X121920000Y-68580000D03*
D13*
%TO.P,R5,2*%
%TO.N,Net-(D1-K)*%
X129540000Y-68580000D03*
%TD*%
D10*
%TO.P,RV3,1,1*%
%TO.N,unconnected-(RV3-Pad1)*%
X81280000Y-109220000D03*
D11*
%TO.P,RV3,2,2*%
%TO.N,Net-(R3-Pad1)*%
X81280000Y-111720000D03*
%TO.P,RV3,3,3*%
%TO.N,Net-(C4-Pad1)*%
X81280000Y-114220000D03*
%TD*%
D12*
%TO.P,R14,1*%
%TO.N,Net-(R14-Pad1)*%
X106680000Y-89535000D03*
D13*
%TO.P,R14,2*%
%TO.N,Net-(U2B--)*%
X106680000Y-97155000D03*
%TD*%
D19*
%TO.P,C4,1*%
%TO.N,Net-(C4-Pad1)*%
X115610000Y-72390000D03*
D12*
%TO.P,C4,2*%
%TO.N,GND*%
X118110000Y-72390000D03*
%TD*%
D19*
%TO.P,C2,1*%
%TO.N,Net-(C2-Pad1)*%
X88900000Y-67310000D03*
D12*
%TO.P,C2,2*%
%TO.N,GND*%
X86400000Y-67310000D03*
%TD*%
%TO.P,R2,1*%
%TO.N,Net-(R2-Pad1)*%
X87630000Y-73660000D03*
D13*
%TO.P,R2,2*%
%TO.N,Net-(R2-Pad2)*%
X95250000Y-73660000D03*
%TD*%
D12*
%TO.P,R9,1*%
%TO.N,Net-(U2A-+)*%
X106680000Y-85725000D03*
D13*
%TO.P,R9,2*%
%TO.N,Net-(C3-Pad1)*%
X106680000Y-78105000D03*
%TD*%
D19*
%TO.P,C3,1*%
%TO.N,Net-(C3-Pad1)*%
X115610000Y-62230000D03*
D12*
%TO.P,C3,2*%
%TO.N,GND*%
X118110000Y-62230000D03*
%TD*%
%TO.P,R17,1*%
%TO.N,OUT*%
X101600000Y-119380000D03*
D13*
%TO.P,R17,2*%
%TO.N,Net-(R16-Pad1)*%
X101600000Y-111760000D03*
%TD*%
D12*
%TO.P,R4,1*%
%TO.N,Net-(R4-Pad1)*%
X111760000Y-55885000D03*
D13*
%TO.P,R4,2*%
%TO.N,Net-(R4-Pad2)*%
X111760000Y-63505000D03*
%TD*%
D12*
%TO.P,R1,1*%
%TO.N,Net-(R1-Pad1)*%
X93980000Y-55885000D03*
D13*
%TO.P,R1,2*%
%TO.N,Net-(R1-Pad2)*%
X93980000Y-63505000D03*
%TD*%
D22*
%TO.P,D1,1,K*%
%TO.N,Net-(D1-K)*%
X129540000Y-60960000D03*
D11*
%TO.P,D1,2,A*%
%TO.N,VCC*%
X127000000Y-60960000D03*
%TD*%
D12*
%TO.P,R11,1*%
%TO.N,OUT*%
X95250000Y-119380000D03*
D13*
%TO.P,R11,2*%
%TO.N,Net-(R10-Pad1)*%
X95250000Y-111760000D03*
%TD*%
D12*
%TO.P,R15,1*%
%TO.N,OUT*%
X106690000Y-119380000D03*
D13*
%TO.P,R15,2*%
%TO.N,Net-(R14-Pad1)*%
X106690000Y-111760000D03*
%TD*%
D19*
%TO.P,C5,1*%
%TO.N,VCC*%
X129500000Y-74930000D03*
D12*
%TO.P,C5,2*%
%TO.N,Net-(BT1--)*%
X127000000Y-74930000D03*
%TD*%
D19*
%TO.P,C1,1*%
%TO.N,Net-(C1-Pad1)*%
X88900000Y-58420000D03*
D12*
%TO.P,C1,2*%
%TO.N,GND*%
X86400000Y-58420000D03*
%TD*%
D10*
%TO.P,RV2,1,1*%
%TO.N,unconnected-(RV2-Pad1)*%
X81280000Y-55920000D03*
D11*
%TO.P,RV2,2,2*%
%TO.N,Net-(R1-Pad1)*%
X81280000Y-58420000D03*
%TO.P,RV2,3,3*%
%TO.N,Net-(C1-Pad1)*%
X81280000Y-60920000D03*
%TD*%
D12*
%TO.P,R13,1*%
%TO.N,OUT*%
X88900000Y-119380000D03*
D13*
%TO.P,R13,2*%
%TO.N,Net-(R12-Pad1)*%
X88900000Y-111760000D03*
%TD*%
D19*
%TO.P,U1,1*%
%TO.N,Net-(C1-Pad1)*%
X99070000Y-58420000D03*
D13*
%TO.P,U1,2*%
%TO.N,Net-(R1-Pad2)*%
X99070000Y-60960000D03*
%TO.P,U1,3*%
%TO.N,unconnected-(U1-Pad3)*%
X99070000Y-63500000D03*
%TO.P,U1,4*%
%TO.N,unconnected-(U1-Pad4)*%
X99070000Y-66040000D03*
%TO.P,U1,5*%
%TO.N,Net-(C2-Pad1)*%
X99070000Y-68580000D03*
%TO.P,U1,6*%
%TO.N,Net-(R2-Pad2)*%
X99070000Y-71120000D03*
%TO.P,U1,7,VSS*%
%TO.N,GND*%
X99070000Y-73660000D03*
%TO.P,U1,8*%
%TO.N,Net-(R3-Pad2)*%
X106690000Y-73660000D03*
%TO.P,U1,9*%
%TO.N,Net-(C4-Pad1)*%
X106690000Y-71120000D03*
%TO.P,U1,10*%
%TO.N,unconnected-(U1-Pad10)*%
X106690000Y-68580000D03*
%TO.P,U1,11*%
%TO.N,unconnected-(U1-Pad11)*%
X106690000Y-66040000D03*
%TO.P,U1,12*%
%TO.N,Net-(R4-Pad2)*%
X106690000Y-63500000D03*
%TO.P,U1,13*%
%TO.N,Net-(C3-Pad1)*%
X106690000Y-60960000D03*
%TO.P,U1,14,VDD*%
%TO.N,VCC*%
X106690000Y-58420000D03*
%TD*%
D23*
%TO.N,Net-(BT1--)*%
X127000000Y-74930000D02*
X129540000Y-72390000D01*
X129540000Y-72390000D02*
X138430000Y-72390000D01*
X121580000Y-82660000D02*
X121580000Y-80350000D01*
X121580000Y-80350000D02*
X127000000Y-74930000D01*
%TO.N,VCC*%
X134460000Y-82660000D02*
X134460000Y-82710000D01*
X134460000Y-82710000D02*
X118682700Y-98487300D01*
X118682700Y-98487300D02*
X103599200Y-98487300D01*
X103599200Y-98487300D02*
X102901900Y-97790000D01*
X102901900Y-97790000D02*
X101600000Y-97790000D01*
D24*
%TO.N,Net-(C6-Pad2)*%
X86320000Y-124460000D02*
X81280000Y-129500000D01*
X94020000Y-124460000D02*
X86320000Y-124460000D01*
%TO.N,Net-(R16-Pad1)*%
X101600000Y-111760000D02*
X101600000Y-110583100D01*
X102776900Y-106586900D02*
X104186600Y-107996500D01*
X102776900Y-105410000D02*
X102776900Y-106586900D01*
X106101500Y-107996500D02*
X104186600Y-107996500D01*
X106690000Y-108585000D02*
X106101500Y-107996500D01*
X104186600Y-107996500D02*
X101600000Y-110583100D01*
X101600000Y-105410000D02*
X102776900Y-105410000D01*
%TO.N,Net-(R12-Pad1)*%
X92075000Y-105410000D02*
X88900000Y-108585000D01*
X93980000Y-105410000D02*
X92075000Y-105410000D01*
%TO.N,Net-(R14-Pad1)*%
X106045000Y-90170000D02*
X106680000Y-89535000D01*
X101600000Y-90170000D02*
X106045000Y-90170000D01*
%TO.N,Net-(U2B--)*%
X106045000Y-95978100D02*
X106680000Y-95978100D01*
X102776900Y-92710000D02*
X106045000Y-95978100D01*
X101600000Y-92710000D02*
X102776900Y-92710000D01*
X106680000Y-97155000D02*
X106680000Y-95978100D01*
%TO.N,Net-(U2A--)*%
X104681900Y-100965000D02*
X106690000Y-100965000D01*
X102776900Y-102870000D02*
X104681900Y-100965000D01*
X101600000Y-102870000D02*
X102776900Y-102870000D01*
%TO.N,Net-(R3-Pad1)*%
X85411800Y-107588200D02*
X81280000Y-111720000D01*
X85411800Y-102788800D02*
X85411800Y-107588200D01*
X91680600Y-96520000D02*
X85411800Y-102788800D01*
X94421600Y-96520000D02*
X91680600Y-96520000D01*
X96636600Y-94305000D02*
X94421600Y-96520000D01*
X96636600Y-92598400D02*
X96636600Y-94305000D01*
X111760000Y-77475000D02*
X96636600Y-92598400D01*
%TO.N,Net-(U2C--)*%
X88806900Y-86664800D02*
X88806900Y-85725000D01*
X93675200Y-91533100D02*
X88806900Y-86664800D01*
X93980000Y-91533100D02*
X93675200Y-91533100D01*
X93980000Y-92710000D02*
X93980000Y-91533100D01*
X87630000Y-85725000D02*
X88806900Y-85725000D01*
%TO.N,Net-(R4-Pad2)*%
X110578100Y-63500000D02*
X110583100Y-63505000D01*
X106690000Y-63500000D02*
X110578100Y-63500000D01*
X111760000Y-63505000D02*
X110583100Y-63505000D01*
%TO.N,Net-(R4-Pad1)*%
X83018000Y-92242000D02*
X81280000Y-93980000D01*
X83018000Y-69024800D02*
X83018000Y-92242000D01*
X92352900Y-59689900D02*
X83018000Y-69024800D01*
X102087900Y-59689900D02*
X92352900Y-59689900D01*
X105892800Y-55885000D02*
X102087900Y-59689900D01*
X111760000Y-55885000D02*
X105892800Y-55885000D01*
%TO.N,Net-(U2D--)*%
X91981900Y-102870000D02*
X90076900Y-100965000D01*
X93980000Y-102870000D02*
X91981900Y-102870000D01*
X88900000Y-100965000D02*
X90076900Y-100965000D01*
%TO.N,Net-(R1-Pad1)*%
X83815000Y-55885000D02*
X81280000Y-58420000D01*
X93980000Y-55885000D02*
X83815000Y-55885000D01*
%TO.N,Net-(U2C-+)*%
X90805000Y-95250000D02*
X88900000Y-97155000D01*
X93980000Y-95250000D02*
X90805000Y-95250000D01*
%TO.N,OUT*%
X106690000Y-119380000D02*
X101600000Y-119380000D01*
X88900000Y-119380000D02*
X95250000Y-119380000D01*
X95250000Y-119380000D02*
X101600000Y-119380000D01*
%TO.N,Net-(C4-Pad1)*%
X113163100Y-71120000D02*
X114433100Y-72390000D01*
X106690000Y-71120000D02*
X113163100Y-71120000D01*
X115610000Y-72390000D02*
X114433100Y-72390000D01*
X100330000Y-78105000D02*
X99153100Y-78105000D01*
X79984300Y-112924300D02*
X81280000Y-114220000D01*
X79984300Y-108217800D02*
X79984300Y-112924300D01*
X84841300Y-103360800D02*
X79984300Y-108217800D01*
X84841300Y-86843600D02*
X84841300Y-103360800D01*
X91399300Y-80285600D02*
X84841300Y-86843600D01*
X96972500Y-80285600D02*
X91399300Y-80285600D01*
X99153100Y-78105000D02*
X96972500Y-80285600D01*
%TO.N,Net-(C3-Pad1)*%
X113163100Y-60960000D02*
X114433100Y-62230000D01*
X106690000Y-60960000D02*
X113163100Y-60960000D01*
X115610000Y-62230000D02*
X114433100Y-62230000D01*
X106680000Y-78105000D02*
X105503100Y-78105000D01*
X104254700Y-76856600D02*
X105503100Y-78105000D01*
X96414500Y-76856600D02*
X104254700Y-76856600D01*
X93737400Y-79533700D02*
X96414500Y-76856600D01*
X91441400Y-79533700D02*
X93737400Y-79533700D01*
X84127100Y-86848000D02*
X91441400Y-79533700D01*
X84127100Y-93632900D02*
X84127100Y-86848000D01*
X81280000Y-96480000D02*
X84127100Y-93632900D01*
%TO.N,Net-(C2-Pad1)*%
X91346900Y-68580000D02*
X90076900Y-67310000D01*
X99070000Y-68580000D02*
X91346900Y-68580000D01*
X88900000Y-67310000D02*
X90076900Y-67310000D01*
D23*
%TO.N,GND*%
X99070000Y-73660000D02*
X100371900Y-73660000D01*
X94625200Y-70517100D02*
X97768100Y-73660000D01*
X89607100Y-70517100D02*
X94625200Y-70517100D01*
X86400000Y-67310000D02*
X89607100Y-70517100D01*
X99070000Y-73660000D02*
X97768100Y-73660000D01*
X115525700Y-74974300D02*
X118110000Y-72390000D01*
X101686200Y-74974300D02*
X115525700Y-74974300D01*
X100371900Y-73660000D02*
X101686200Y-74974300D01*
X123259500Y-69919500D02*
X121920000Y-68580000D01*
X138360500Y-69919500D02*
X123259500Y-69919500D01*
X138430000Y-69850000D02*
X138360500Y-69919500D01*
X118110000Y-72390000D02*
X121920000Y-68580000D01*
D24*
%TO.N,Net-(C1-Pad1)*%
X85590900Y-60920000D02*
X81280000Y-60920000D01*
X87723100Y-58787800D02*
X85590900Y-60920000D01*
X87723100Y-58420000D02*
X87723100Y-58787800D01*
X88900000Y-58420000D02*
X87723100Y-58420000D01*
X99070000Y-58420000D02*
X88900000Y-58420000D01*
D23*
%TO.N,VCC*%
X124460000Y-58420000D02*
X127000000Y-60960000D01*
X106690000Y-58420000D02*
X124460000Y-58420000D01*
X134460000Y-82660000D02*
X131948100Y-82660000D01*
X129500000Y-80211900D02*
X131948100Y-82660000D01*
X129500000Y-74930000D02*
X129500000Y-80211900D01*
%TD*%
%TA.AperFunction,NonConductor*%
G36*
X142516061Y-53340597D02*
G01*
X142692941Y-53358018D01*
X142716769Y-53362757D01*
X142881001Y-53412576D01*
X142903453Y-53421877D01*
X143054798Y-53502772D01*
X143075010Y-53516277D01*
X143207666Y-53625145D01*
X143224854Y-53642333D01*
X143333722Y-53774989D01*
X143347227Y-53795201D01*
X143428121Y-53946543D01*
X143437424Y-53969001D01*
X143487240Y-54133224D01*
X143491982Y-54157065D01*
X143509403Y-54333938D01*
X143510000Y-54346092D01*
X143510000Y-134883907D01*
X143509403Y-134896061D01*
X143491982Y-135072934D01*
X143487240Y-135096775D01*
X143437424Y-135260998D01*
X143428121Y-135283456D01*
X143347227Y-135434798D01*
X143333722Y-135455010D01*
X143224854Y-135587666D01*
X143207666Y-135604854D01*
X143075010Y-135713722D01*
X143054798Y-135727227D01*
X142903456Y-135808121D01*
X142880998Y-135817424D01*
X142716775Y-135867240D01*
X142692934Y-135871982D01*
X142516061Y-135889403D01*
X142503907Y-135890000D01*
X78476093Y-135890000D01*
X78463939Y-135889403D01*
X78287065Y-135871982D01*
X78263224Y-135867240D01*
X78099001Y-135817424D01*
X78076543Y-135808121D01*
X77925201Y-135727227D01*
X77904989Y-135713722D01*
X77772333Y-135604854D01*
X77755145Y-135587666D01*
X77646277Y-135455010D01*
X77632772Y-135434798D01*
X77551878Y-135283456D01*
X77542575Y-135260998D01*
X77492757Y-135096769D01*
X77488018Y-135072941D01*
X77470597Y-134896061D01*
X77470000Y-134883907D01*
X77470000Y-132000005D01*
X79866673Y-132000005D01*
X79885948Y-132232622D01*
X79943251Y-132458907D01*
X80037015Y-132672668D01*
X80164686Y-132868084D01*
X80322776Y-133039814D01*
X80322780Y-133039818D01*
X80506983Y-133183190D01*
X80506985Y-133183191D01*
X80506988Y-133183193D01*
X80626331Y-133247777D01*
X80712273Y-133294287D01*
X80807463Y-133326966D01*
X80933045Y-133370079D01*
X80933047Y-133370079D01*
X80933049Y-133370080D01*
X81163288Y-133408500D01*
X81163289Y-133408500D01*
X81396711Y-133408500D01*
X81396712Y-133408500D01*
X81626951Y-133370080D01*
X81847727Y-133294287D01*
X82053017Y-133183190D01*
X82237220Y-133039818D01*
X82395314Y-132868083D01*
X82522984Y-132672669D01*
X82616749Y-132458907D01*
X82674051Y-132232626D01*
X82686698Y-132080000D01*
X82693087Y-132002903D01*
X87765793Y-132002903D01*
X87775672Y-132310970D01*
X87775672Y-132310975D01*
X87775673Y-132310978D01*
X87824867Y-132615261D01*
X87869137Y-132764419D01*
X87912571Y-132910763D01*
X88037333Y-133192601D01*
X88037337Y-133192609D01*
X88197123Y-133456193D01*
X88197127Y-133456198D01*
X88197133Y-133456207D01*
X88389297Y-133697174D01*
X88389299Y-133697176D01*
X88389303Y-133697180D01*
X88389304Y-133697181D01*
X88610724Y-133911614D01*
X88770540Y-134030888D01*
X88857741Y-134095968D01*
X88857743Y-134095969D01*
X88857747Y-134095972D01*
X89126318Y-134247228D01*
X89267057Y-134304207D01*
X89412018Y-134362897D01*
X89412023Y-134362898D01*
X89412025Y-134362899D01*
X89710179Y-134441084D01*
X90015883Y-134480500D01*
X90015890Y-134480500D01*
X90246971Y-134480500D01*
X90246974Y-134480500D01*
X90246978Y-134480499D01*
X90246996Y-134480499D01*
X90349700Y-134473904D01*
X90477601Y-134465693D01*
X90780151Y-134406772D01*
X91072683Y-134309644D01*
X91072689Y-134309640D01*
X91072693Y-134309640D01*
X91263571Y-134217717D01*
X91350393Y-134175907D01*
X91608720Y-134007754D01*
X91843424Y-133807948D01*
X92050650Y-133579769D01*
X92226996Y-133326963D01*
X92369567Y-133053683D01*
X92476020Y-132764415D01*
X92544609Y-132463908D01*
X92574206Y-132157098D01*
X92571734Y-132080000D01*
X97046807Y-132080000D01*
X97065557Y-132354130D01*
X97065558Y-132354132D01*
X97121458Y-132623141D01*
X97121463Y-132623158D01*
X97213476Y-132882056D01*
X97339889Y-133126024D01*
X97339893Y-133126030D01*
X97498340Y-133350499D01*
X97498343Y-133350502D01*
X97685889Y-133551314D01*
X97899031Y-133724718D01*
X97899033Y-133724719D01*
X97899034Y-133724720D01*
X98133801Y-133867485D01*
X98235388Y-133911610D01*
X98385823Y-133976953D01*
X98650404Y-134051085D01*
X98875245Y-134081989D01*
X98922614Y-134088500D01*
X98922615Y-134088500D01*
X99197386Y-134088500D01*
X99244755Y-134081989D01*
X99469596Y-134051085D01*
X99734177Y-133976953D01*
X99986200Y-133867484D01*
X100220969Y-133724718D01*
X100339047Y-133628654D01*
X102131500Y-133628654D01*
X102138011Y-133689202D01*
X102138011Y-133689204D01*
X102182300Y-133807943D01*
X102189111Y-133826204D01*
X102276739Y-133943261D01*
X102393796Y-134030889D01*
X102530799Y-134081989D01*
X102558050Y-134084918D01*
X102591345Y-134088499D01*
X102591362Y-134088500D01*
X105688638Y-134088500D01*
X105688654Y-134088499D01*
X105715692Y-134085591D01*
X105749201Y-134081989D01*
X105886204Y-134030889D01*
X106003261Y-133943261D01*
X106090889Y-133826204D01*
X106139013Y-133697181D01*
X106141988Y-133689204D01*
X106141988Y-133689203D01*
X106141989Y-133689201D01*
X106145591Y-133655692D01*
X106148499Y-133628654D01*
X106148500Y-133628637D01*
X106148500Y-130531362D01*
X106148499Y-130531345D01*
X106145157Y-130500270D01*
X106141989Y-130470799D01*
X106139014Y-130462823D01*
X106103678Y-130368084D01*
X106090889Y-130333796D01*
X106003261Y-130216739D01*
X105886204Y-130129111D01*
X105832060Y-130108916D01*
X105749203Y-130078011D01*
X105688654Y-130071500D01*
X105688638Y-130071500D01*
X102591362Y-130071500D01*
X102591345Y-130071500D01*
X102530797Y-130078011D01*
X102530795Y-130078011D01*
X102393795Y-130129111D01*
X102276739Y-130216739D01*
X102189111Y-130333795D01*
X102138011Y-130470795D01*
X102138011Y-130470797D01*
X102131500Y-130531345D01*
X102131500Y-133628654D01*
X100339047Y-133628654D01*
X100434111Y-133551314D01*
X100621657Y-133350502D01*
X100780111Y-133126023D01*
X100906523Y-132882058D01*
X100998538Y-132623153D01*
X100998539Y-132623146D01*
X100998541Y-132623141D01*
X101032669Y-132458907D01*
X101054442Y-132354130D01*
X101073193Y-132080000D01*
X101054442Y-131805870D01*
X101031629Y-131696089D01*
X100998541Y-131536858D01*
X100998536Y-131536841D01*
X100948333Y-131395585D01*
X100906523Y-131277942D01*
X100780111Y-131033977D01*
X100780110Y-131033975D01*
X100780106Y-131033969D01*
X100621659Y-130809500D01*
X100592829Y-130778631D01*
X100434111Y-130608686D01*
X100220969Y-130435282D01*
X100220967Y-130435281D01*
X100220965Y-130435279D01*
X99986198Y-130292514D01*
X99734178Y-130183047D01*
X99469602Y-130108916D01*
X99469597Y-130108915D01*
X99469596Y-130108915D01*
X99333490Y-130090207D01*
X99197386Y-130071500D01*
X99197385Y-130071500D01*
X98922615Y-130071500D01*
X98922614Y-130071500D01*
X98650404Y-130108915D01*
X98650397Y-130108916D01*
X98385821Y-130183047D01*
X98133801Y-130292514D01*
X97899034Y-130435279D01*
X97685892Y-130608683D01*
X97498340Y-130809500D01*
X97339893Y-131033969D01*
X97339889Y-131033975D01*
X97213476Y-131277943D01*
X97121463Y-131536841D01*
X97121458Y-131536858D01*
X97065558Y-131805867D01*
X97065557Y-131805869D01*
X97046807Y-132080000D01*
X92571734Y-132080000D01*
X92564327Y-131849022D01*
X92515133Y-131544739D01*
X92427431Y-131249244D01*
X92427429Y-131249239D01*
X92427428Y-131249236D01*
X92302666Y-130967398D01*
X92302663Y-130967391D01*
X92142877Y-130703807D01*
X92142870Y-130703799D01*
X92142866Y-130703792D01*
X91950702Y-130462825D01*
X91950700Y-130462823D01*
X91729279Y-130248389D01*
X91729276Y-130248386D01*
X91600450Y-130152241D01*
X91482258Y-130064031D01*
X91482253Y-130064028D01*
X91213682Y-129912772D01*
X91176383Y-129897671D01*
X90927981Y-129797102D01*
X90760660Y-129753226D01*
X90629821Y-129718916D01*
X90324117Y-129679500D01*
X90093026Y-129679500D01*
X90093003Y-129679500D01*
X89862406Y-129694306D01*
X89862389Y-129694308D01*
X89559854Y-129753226D01*
X89559849Y-129753228D01*
X89267310Y-129850358D01*
X89267306Y-129850359D01*
X88989613Y-129984089D01*
X88989605Y-129984094D01*
X88731286Y-130152241D01*
X88731276Y-130152248D01*
X88496581Y-130352046D01*
X88496571Y-130352056D01*
X88289354Y-130580225D01*
X88289350Y-130580229D01*
X88113005Y-130833033D01*
X88113003Y-130833037D01*
X87970432Y-131106319D01*
X87970429Y-131106326D01*
X87863981Y-131395580D01*
X87863979Y-131395590D01*
X87795391Y-131696089D01*
X87765794Y-132002902D01*
X87765793Y-132002903D01*
X82693087Y-132002903D01*
X82693327Y-132000005D01*
X82693327Y-131999994D01*
X82674051Y-131767377D01*
X82674051Y-131767374D01*
X82616749Y-131541093D01*
X82522984Y-131327331D01*
X82395314Y-131131917D01*
X82395313Y-131131915D01*
X82237223Y-130960185D01*
X82237222Y-130960184D01*
X82237220Y-130960182D01*
X82092899Y-130847851D01*
X82052088Y-130791143D01*
X82048413Y-130721370D01*
X82083045Y-130660687D01*
X82092893Y-130652152D01*
X82237220Y-130539818D01*
X82395314Y-130368083D01*
X82522984Y-130172669D01*
X82616749Y-129958907D01*
X82674051Y-129732626D01*
X82693327Y-129500000D01*
X82674051Y-129267374D01*
X82637694Y-129123804D01*
X82640319Y-129053984D01*
X82670217Y-129005685D01*
X86546085Y-125129819D01*
X86607408Y-125096334D01*
X86633766Y-125093500D01*
X92801648Y-125093500D01*
X92868687Y-125113185D01*
X92903220Y-125146373D01*
X93013802Y-125304300D01*
X93175700Y-125466198D01*
X93363251Y-125597523D01*
X93487142Y-125655294D01*
X93570750Y-125694281D01*
X93570752Y-125694281D01*
X93570757Y-125694284D01*
X93791913Y-125753543D01*
X93954832Y-125767796D01*
X94019998Y-125773498D01*
X94020000Y-125773498D01*
X94020002Y-125773498D01*
X94077021Y-125768509D01*
X94248087Y-125753543D01*
X94469243Y-125694284D01*
X94676749Y-125597523D01*
X94864300Y-125466198D01*
X95026198Y-125304300D01*
X95157523Y-125116749D01*
X95157616Y-125116548D01*
X95157680Y-125116475D01*
X95160228Y-125112063D01*
X95161114Y-125112574D01*
X95203785Y-125064108D01*
X95270978Y-125044953D01*
X95337860Y-125065165D01*
X95378922Y-125112553D01*
X95379772Y-125112063D01*
X95382317Y-125116471D01*
X95382383Y-125116547D01*
X95382477Y-125116749D01*
X95513802Y-125304300D01*
X95675700Y-125466198D01*
X95863251Y-125597523D01*
X95987142Y-125655294D01*
X96070750Y-125694281D01*
X96070752Y-125694281D01*
X96070757Y-125694284D01*
X96291913Y-125753543D01*
X96454832Y-125767796D01*
X96519998Y-125773498D01*
X96520000Y-125773498D01*
X96520002Y-125773498D01*
X96577021Y-125768509D01*
X96748087Y-125753543D01*
X96969243Y-125694284D01*
X97176749Y-125597523D01*
X97364300Y-125466198D01*
X97526198Y-125304300D01*
X97657523Y-125116749D01*
X97754284Y-124909243D01*
X97813543Y-124688087D01*
X97833498Y-124460000D01*
X97813543Y-124231913D01*
X97754284Y-124010757D01*
X97746716Y-123994528D01*
X97683980Y-123859989D01*
X97657523Y-123803251D01*
X97526198Y-123615700D01*
X97364300Y-123453802D01*
X97176749Y-123322477D01*
X97176745Y-123322475D01*
X96969249Y-123225718D01*
X96969238Y-123225714D01*
X96748089Y-123166457D01*
X96748081Y-123166456D01*
X96520002Y-123146502D01*
X96519998Y-123146502D01*
X96291918Y-123166456D01*
X96291910Y-123166457D01*
X96070761Y-123225714D01*
X96070750Y-123225718D01*
X95863254Y-123322475D01*
X95863252Y-123322476D01*
X95863251Y-123322477D01*
X95675700Y-123453802D01*
X95675698Y-123453803D01*
X95675695Y-123453806D01*
X95513806Y-123615695D01*
X95382477Y-123803250D01*
X95382431Y-123803347D01*
X95382379Y-123803459D01*
X95382313Y-123803534D01*
X95379772Y-123807937D01*
X95378886Y-123807426D01*
X95336207Y-123855896D01*
X95269013Y-123875046D01*
X95202132Y-123854828D01*
X95161075Y-123807447D01*
X95160228Y-123807937D01*
X95157688Y-123803538D01*
X95157620Y-123803459D01*
X95157523Y-123803251D01*
X95026198Y-123615700D01*
X94864300Y-123453802D01*
X94676749Y-123322477D01*
X94676745Y-123322475D01*
X94469249Y-123225718D01*
X94469238Y-123225714D01*
X94248089Y-123166457D01*
X94248081Y-123166456D01*
X94020002Y-123146502D01*
X94019998Y-123146502D01*
X93791918Y-123166456D01*
X93791910Y-123166457D01*
X93570761Y-123225714D01*
X93570750Y-123225718D01*
X93363254Y-123322475D01*
X93363252Y-123322476D01*
X93363251Y-123322477D01*
X93175700Y-123453802D01*
X93175698Y-123453803D01*
X93175695Y-123453806D01*
X93013806Y-123615695D01*
X93013803Y-123615698D01*
X93013802Y-123615700D01*
X92903220Y-123773625D01*
X92848646Y-123817249D01*
X92801648Y-123826500D01*
X86403629Y-123826500D01*
X86387886Y-123824761D01*
X86387861Y-123825033D01*
X86380093Y-123824298D01*
X86312001Y-123826439D01*
X86308106Y-123826500D01*
X86280143Y-123826500D01*
X86276031Y-123827019D01*
X86264402Y-123827934D01*
X86220111Y-123829326D01*
X86220108Y-123829327D01*
X86200505Y-123835022D01*
X86181459Y-123838966D01*
X86161203Y-123841526D01*
X86161201Y-123841526D01*
X86161199Y-123841527D01*
X86119998Y-123857839D01*
X86108951Y-123861621D01*
X86066406Y-123873982D01*
X86048833Y-123884374D01*
X86031370Y-123892929D01*
X86012385Y-123900446D01*
X86012384Y-123900447D01*
X85976543Y-123926487D01*
X85966781Y-123932899D01*
X85928637Y-123955458D01*
X85914196Y-123969898D01*
X85899408Y-123982527D01*
X85882897Y-123994523D01*
X85882892Y-123994528D01*
X85854652Y-124028663D01*
X85846792Y-124037301D01*
X82900181Y-126983913D01*
X82838858Y-127017398D01*
X82769166Y-127012414D01*
X82713233Y-126970542D01*
X82688816Y-126905078D01*
X82688500Y-126896232D01*
X82688500Y-126494410D01*
X82688500Y-126494404D01*
X82678331Y-126380030D01*
X82624704Y-126192611D01*
X82534448Y-126019824D01*
X82511705Y-125991933D01*
X82411257Y-125868742D01*
X82260176Y-125745552D01*
X82087385Y-125655294D01*
X81975089Y-125623163D01*
X81899970Y-125601669D01*
X81899967Y-125601668D01*
X81899965Y-125601668D01*
X81830237Y-125595469D01*
X81785596Y-125591500D01*
X80774404Y-125591500D01*
X80740923Y-125594476D01*
X80660034Y-125601668D01*
X80660031Y-125601668D01*
X80660030Y-125601669D01*
X80622470Y-125612416D01*
X80472614Y-125655294D01*
X80299823Y-125745552D01*
X80148742Y-125868742D01*
X80025552Y-126019823D01*
X79935294Y-126192614D01*
X79881669Y-126380031D01*
X79881668Y-126380034D01*
X79871500Y-126494407D01*
X79871500Y-127505592D01*
X79881668Y-127619965D01*
X79881668Y-127619967D01*
X79881669Y-127619970D01*
X79903163Y-127695089D01*
X79935294Y-127807385D01*
X80025552Y-127980176D01*
X80148742Y-128131257D01*
X80238713Y-128204618D01*
X80299824Y-128254448D01*
X80300783Y-128254948D01*
X80301212Y-128255362D01*
X80305073Y-128257907D01*
X80304598Y-128258626D01*
X80351088Y-128303434D01*
X80367195Y-128371422D01*
X80343988Y-128437325D01*
X80325957Y-128456055D01*
X80326556Y-128456706D01*
X80322776Y-128460185D01*
X80164686Y-128631915D01*
X80037015Y-128827331D01*
X79943251Y-129041092D01*
X79885948Y-129267377D01*
X79866673Y-129499994D01*
X79866673Y-129500005D01*
X79885948Y-129732622D01*
X79943251Y-129958907D01*
X80037015Y-130172668D01*
X80164686Y-130368084D01*
X80322776Y-130539814D01*
X80322781Y-130539819D01*
X80467099Y-130652147D01*
X80507912Y-130708857D01*
X80511585Y-130778631D01*
X80476954Y-130839314D01*
X80467099Y-130847853D01*
X80322781Y-130960180D01*
X80322776Y-130960185D01*
X80164686Y-131131915D01*
X80037015Y-131327331D01*
X79943251Y-131541092D01*
X79885948Y-131767377D01*
X79866673Y-131999994D01*
X79866673Y-132000005D01*
X77470000Y-132000005D01*
X77470000Y-121920000D01*
X115176372Y-121920000D01*
X115196854Y-122180249D01*
X115257796Y-122434089D01*
X115257797Y-122434091D01*
X115357696Y-122675271D01*
X115494095Y-122897853D01*
X115494098Y-122897858D01*
X115570949Y-122987839D01*
X115663637Y-123096363D01*
X115722343Y-123146502D01*
X115862141Y-123265901D01*
X115862146Y-123265904D01*
X116084728Y-123402303D01*
X116169998Y-123437622D01*
X116325911Y-123502204D01*
X116579751Y-123563146D01*
X116840000Y-123583628D01*
X117100249Y-123563146D01*
X117354089Y-123502204D01*
X117595271Y-123402303D01*
X117817856Y-123265903D01*
X118016363Y-123096363D01*
X118185903Y-122897856D01*
X118322303Y-122675271D01*
X118422204Y-122434089D01*
X118483146Y-122180249D01*
X118503628Y-121920000D01*
X118483146Y-121659751D01*
X118422204Y-121405911D01*
X118322303Y-121164729D01*
X118322303Y-121164728D01*
X118185904Y-120942146D01*
X118185901Y-120942141D01*
X118124885Y-120870701D01*
X118016363Y-120743637D01*
X117907839Y-120650949D01*
X117817858Y-120574098D01*
X117817853Y-120574095D01*
X117595271Y-120437696D01*
X117354091Y-120337797D01*
X117354089Y-120337796D01*
X117180445Y-120296107D01*
X117100250Y-120276854D01*
X116840000Y-120256372D01*
X116579749Y-120276854D01*
X116419357Y-120315361D01*
X116325911Y-120337796D01*
X116325909Y-120337796D01*
X116325908Y-120337797D01*
X116084728Y-120437696D01*
X115862146Y-120574095D01*
X115862141Y-120574098D01*
X115663637Y-120743637D01*
X115494098Y-120942141D01*
X115494095Y-120942146D01*
X115357696Y-121164728D01*
X115257797Y-121405908D01*
X115257796Y-121405911D01*
X115196854Y-121659751D01*
X115176372Y-121920000D01*
X77470000Y-121920000D01*
X77470000Y-119380001D01*
X87586502Y-119380001D01*
X87606456Y-119608081D01*
X87606457Y-119608089D01*
X87665714Y-119829238D01*
X87665718Y-119829249D01*
X87760815Y-120033185D01*
X87762477Y-120036749D01*
X87893802Y-120224300D01*
X88055700Y-120386198D01*
X88243251Y-120517523D01*
X88364571Y-120574095D01*
X88450750Y-120614281D01*
X88450752Y-120614281D01*
X88450757Y-120614284D01*
X88671913Y-120673543D01*
X88834832Y-120687796D01*
X88899998Y-120693498D01*
X88900000Y-120693498D01*
X88900002Y-120693498D01*
X88957021Y-120688509D01*
X89128087Y-120673543D01*
X89349243Y-120614284D01*
X89556749Y-120517523D01*
X89744300Y-120386198D01*
X89906198Y-120224300D01*
X90016779Y-120066374D01*
X90071354Y-120022751D01*
X90118352Y-120013500D01*
X94031648Y-120013500D01*
X94098687Y-120033185D01*
X94133220Y-120066373D01*
X94243802Y-120224300D01*
X94405700Y-120386198D01*
X94593251Y-120517523D01*
X94714571Y-120574095D01*
X94800750Y-120614281D01*
X94800752Y-120614281D01*
X94800757Y-120614284D01*
X95021913Y-120673543D01*
X95184832Y-120687796D01*
X95249998Y-120693498D01*
X95250000Y-120693498D01*
X95250002Y-120693498D01*
X95307021Y-120688509D01*
X95478087Y-120673543D01*
X95699243Y-120614284D01*
X95906749Y-120517523D01*
X96094300Y-120386198D01*
X96256198Y-120224300D01*
X96366779Y-120066374D01*
X96421354Y-120022751D01*
X96468352Y-120013500D01*
X100381648Y-120013500D01*
X100448687Y-120033185D01*
X100483220Y-120066373D01*
X100593802Y-120224300D01*
X100755700Y-120386198D01*
X100943251Y-120517523D01*
X101064571Y-120574095D01*
X101150750Y-120614281D01*
X101150752Y-120614281D01*
X101150757Y-120614284D01*
X101371913Y-120673543D01*
X101534832Y-120687796D01*
X101599998Y-120693498D01*
X101600000Y-120693498D01*
X101600002Y-120693498D01*
X101657021Y-120688509D01*
X101828087Y-120673543D01*
X102049243Y-120614284D01*
X102256749Y-120517523D01*
X102444300Y-120386198D01*
X102606198Y-120224300D01*
X102716779Y-120066374D01*
X102771354Y-120022751D01*
X102818352Y-120013500D01*
X105471648Y-120013500D01*
X105538687Y-120033185D01*
X105573220Y-120066373D01*
X105683802Y-120224300D01*
X105845700Y-120386198D01*
X106033251Y-120517523D01*
X106154571Y-120574095D01*
X106240750Y-120614281D01*
X106240752Y-120614281D01*
X106240757Y-120614284D01*
X106461913Y-120673543D01*
X106624832Y-120687796D01*
X106689998Y-120693498D01*
X106690000Y-120693498D01*
X106690002Y-120693498D01*
X106747021Y-120688509D01*
X106918087Y-120673543D01*
X107139243Y-120614284D01*
X107346749Y-120517523D01*
X107534300Y-120386198D01*
X107696198Y-120224300D01*
X107827523Y-120036749D01*
X107924284Y-119829243D01*
X107983543Y-119608087D01*
X108003498Y-119380000D01*
X107983543Y-119151913D01*
X107924284Y-118930757D01*
X107827523Y-118723251D01*
X107696198Y-118535700D01*
X107534300Y-118373802D01*
X107346749Y-118242477D01*
X107346745Y-118242475D01*
X107139249Y-118145718D01*
X107139238Y-118145714D01*
X106918089Y-118086457D01*
X106918081Y-118086456D01*
X106690002Y-118066502D01*
X106689998Y-118066502D01*
X106461918Y-118086456D01*
X106461910Y-118086457D01*
X106240761Y-118145714D01*
X106240750Y-118145718D01*
X106033254Y-118242475D01*
X106033252Y-118242476D01*
X106033251Y-118242477D01*
X105845700Y-118373802D01*
X105845698Y-118373803D01*
X105845695Y-118373806D01*
X105683806Y-118535695D01*
X105683803Y-118535698D01*
X105683802Y-118535700D01*
X105573220Y-118693625D01*
X105518646Y-118737249D01*
X105471648Y-118746500D01*
X102818352Y-118746500D01*
X102751313Y-118726815D01*
X102716779Y-118693626D01*
X102606198Y-118535700D01*
X102444300Y-118373802D01*
X102256749Y-118242477D01*
X102256745Y-118242475D01*
X102049249Y-118145718D01*
X102049238Y-118145714D01*
X101828089Y-118086457D01*
X101828081Y-118086456D01*
X101600002Y-118066502D01*
X101599998Y-118066502D01*
X101371918Y-118086456D01*
X101371910Y-118086457D01*
X101150761Y-118145714D01*
X101150750Y-118145718D01*
X100943254Y-118242475D01*
X100943252Y-118242476D01*
X100943251Y-118242477D01*
X100755700Y-118373802D01*
X100755698Y-118373803D01*
X100755695Y-118373806D01*
X100593806Y-118535695D01*
X100593803Y-118535698D01*
X100593802Y-118535700D01*
X100483220Y-118693625D01*
X100428646Y-118737249D01*
X100381648Y-118746500D01*
X96468352Y-118746500D01*
X96401313Y-118726815D01*
X96366779Y-118693626D01*
X96256198Y-118535700D01*
X96094300Y-118373802D01*
X95906749Y-118242477D01*
X95906745Y-118242475D01*
X95699249Y-118145718D01*
X95699238Y-118145714D01*
X95478089Y-118086457D01*
X95478081Y-118086456D01*
X95250002Y-118066502D01*
X95249998Y-118066502D01*
X95021918Y-118086456D01*
X95021910Y-118086457D01*
X94800761Y-118145714D01*
X94800750Y-118145718D01*
X94593254Y-118242475D01*
X94593252Y-118242476D01*
X94593251Y-118242477D01*
X94405700Y-118373802D01*
X94405698Y-118373803D01*
X94405695Y-118373806D01*
X94243806Y-118535695D01*
X94243803Y-118535698D01*
X94243802Y-118535700D01*
X94133220Y-118693625D01*
X94078646Y-118737249D01*
X94031648Y-118746500D01*
X90118352Y-118746500D01*
X90051313Y-118726815D01*
X90016779Y-118693626D01*
X89906198Y-118535700D01*
X89744300Y-118373802D01*
X89556749Y-118242477D01*
X89556745Y-118242475D01*
X89349249Y-118145718D01*
X89349238Y-118145714D01*
X89128089Y-118086457D01*
X89128081Y-118086456D01*
X88900002Y-118066502D01*
X88899998Y-118066502D01*
X88671918Y-118086456D01*
X88671910Y-118086457D01*
X88450761Y-118145714D01*
X88450750Y-118145718D01*
X88243254Y-118242475D01*
X88243252Y-118242476D01*
X88243251Y-118242477D01*
X88055700Y-118373802D01*
X88055698Y-118373803D01*
X88055695Y-118373806D01*
X87893806Y-118535695D01*
X87762476Y-118723252D01*
X87762475Y-118723254D01*
X87665718Y-118930750D01*
X87665714Y-118930761D01*
X87606457Y-119151910D01*
X87606456Y-119151918D01*
X87586502Y-119379998D01*
X87586502Y-119380001D01*
X77470000Y-119380001D01*
X77470000Y-108197742D01*
X79346080Y-108197742D01*
X79350250Y-108241857D01*
X79350800Y-108253526D01*
X79350800Y-112840666D01*
X79349061Y-112856413D01*
X79349332Y-112856439D01*
X79348598Y-112864205D01*
X79350739Y-112932316D01*
X79350800Y-112936212D01*
X79350800Y-112964159D01*
X79351318Y-112968258D01*
X79352234Y-112979898D01*
X79353626Y-113024189D01*
X79353627Y-113024191D01*
X79359322Y-113043795D01*
X79363267Y-113062842D01*
X79365826Y-113083097D01*
X79365827Y-113083100D01*
X79365828Y-113083104D01*
X79382138Y-113124300D01*
X79385921Y-113135349D01*
X79398281Y-113177892D01*
X79408672Y-113195462D01*
X79417232Y-113212935D01*
X79424747Y-113231917D01*
X79450791Y-113267763D01*
X79457205Y-113277527D01*
X79479758Y-113315662D01*
X79479762Y-113315666D01*
X79494189Y-113330093D01*
X79506826Y-113344888D01*
X79518828Y-113361407D01*
X79551507Y-113388442D01*
X79552968Y-113389650D01*
X79561609Y-113397513D01*
X79889780Y-113725684D01*
X79923265Y-113787007D01*
X79922305Y-113843805D01*
X79885948Y-113987377D01*
X79866673Y-114219994D01*
X79866673Y-114220005D01*
X79885948Y-114452622D01*
X79943251Y-114678907D01*
X80037015Y-114892668D01*
X80164686Y-115088084D01*
X80322776Y-115259814D01*
X80322780Y-115259818D01*
X80506983Y-115403190D01*
X80506985Y-115403191D01*
X80506988Y-115403193D01*
X80626331Y-115467777D01*
X80712273Y-115514287D01*
X80826914Y-115553643D01*
X80933045Y-115590079D01*
X80933047Y-115590079D01*
X80933049Y-115590080D01*
X81163288Y-115628500D01*
X81163289Y-115628500D01*
X81396711Y-115628500D01*
X81396712Y-115628500D01*
X81626951Y-115590080D01*
X81847727Y-115514287D01*
X82053017Y-115403190D01*
X82237220Y-115259818D01*
X82395314Y-115088083D01*
X82522984Y-114892669D01*
X82616749Y-114678907D01*
X82674051Y-114452626D01*
X82693327Y-114220000D01*
X82674051Y-113987374D01*
X82616749Y-113761093D01*
X82522984Y-113547331D01*
X82395313Y-113351915D01*
X82237223Y-113180185D01*
X82237222Y-113180184D01*
X82237220Y-113180182D01*
X82092899Y-113067851D01*
X82052088Y-113011143D01*
X82048413Y-112941370D01*
X82083045Y-112880687D01*
X82092893Y-112872152D01*
X82237220Y-112759818D01*
X82395314Y-112588083D01*
X82522984Y-112392669D01*
X82616749Y-112178907D01*
X82674051Y-111952626D01*
X82682618Y-111849236D01*
X82690013Y-111760001D01*
X87586502Y-111760001D01*
X87606456Y-111988081D01*
X87606457Y-111988089D01*
X87665714Y-112209238D01*
X87665718Y-112209249D01*
X87751248Y-112392668D01*
X87762477Y-112416749D01*
X87893802Y-112604300D01*
X88055700Y-112766198D01*
X88243251Y-112897523D01*
X88337282Y-112941370D01*
X88450750Y-112994281D01*
X88450752Y-112994281D01*
X88450757Y-112994284D01*
X88671913Y-113053543D01*
X88834832Y-113067796D01*
X88899998Y-113073498D01*
X88900000Y-113073498D01*
X88900002Y-113073498D01*
X88957021Y-113068509D01*
X89128087Y-113053543D01*
X89349243Y-112994284D01*
X89556749Y-112897523D01*
X89744300Y-112766198D01*
X89906198Y-112604300D01*
X90037523Y-112416749D01*
X90134284Y-112209243D01*
X90193543Y-111988087D01*
X90213498Y-111760001D01*
X93936502Y-111760001D01*
X93956456Y-111988081D01*
X93956457Y-111988089D01*
X94015714Y-112209238D01*
X94015718Y-112209249D01*
X94101248Y-112392668D01*
X94112477Y-112416749D01*
X94243802Y-112604300D01*
X94405700Y-112766198D01*
X94593251Y-112897523D01*
X94687282Y-112941370D01*
X94800750Y-112994281D01*
X94800752Y-112994281D01*
X94800757Y-112994284D01*
X95021913Y-113053543D01*
X95184832Y-113067796D01*
X95249998Y-113073498D01*
X95250000Y-113073498D01*
X95250002Y-113073498D01*
X95307021Y-113068509D01*
X95478087Y-113053543D01*
X95699243Y-112994284D01*
X95906749Y-112897523D01*
X96094300Y-112766198D01*
X96256198Y-112604300D01*
X96387523Y-112416749D01*
X96484284Y-112209243D01*
X96543543Y-111988087D01*
X96563498Y-111760000D01*
X96559998Y-111720000D01*
X96543543Y-111531918D01*
X96543543Y-111531913D01*
X96484284Y-111310757D01*
X96387523Y-111103251D01*
X96256198Y-110915700D01*
X96094300Y-110753802D01*
X95906749Y-110622477D01*
X95906745Y-110622475D01*
X95699249Y-110525718D01*
X95699238Y-110525714D01*
X95478089Y-110466457D01*
X95478081Y-110466456D01*
X95250002Y-110446502D01*
X95249998Y-110446502D01*
X95021918Y-110466456D01*
X95021910Y-110466457D01*
X94800761Y-110525714D01*
X94800750Y-110525718D01*
X94593254Y-110622475D01*
X94593252Y-110622476D01*
X94593251Y-110622477D01*
X94405700Y-110753802D01*
X94405698Y-110753803D01*
X94405695Y-110753806D01*
X94243806Y-110915695D01*
X94112476Y-111103252D01*
X94112475Y-111103254D01*
X94015718Y-111310750D01*
X94015714Y-111310761D01*
X93956457Y-111531910D01*
X93956456Y-111531918D01*
X93936502Y-111759998D01*
X93936502Y-111760001D01*
X90213498Y-111760001D01*
X90213498Y-111760000D01*
X90209998Y-111720000D01*
X90193543Y-111531918D01*
X90193543Y-111531913D01*
X90134284Y-111310757D01*
X90037523Y-111103251D01*
X89906198Y-110915700D01*
X89744300Y-110753802D01*
X89556749Y-110622477D01*
X89556745Y-110622475D01*
X89349249Y-110525718D01*
X89349238Y-110525714D01*
X89128089Y-110466457D01*
X89128081Y-110466456D01*
X88900002Y-110446502D01*
X88899998Y-110446502D01*
X88671918Y-110466456D01*
X88671910Y-110466457D01*
X88450761Y-110525714D01*
X88450750Y-110525718D01*
X88243254Y-110622475D01*
X88243252Y-110622476D01*
X88243251Y-110622477D01*
X88055700Y-110753802D01*
X88055698Y-110753803D01*
X88055695Y-110753806D01*
X87893806Y-110915695D01*
X87762476Y-111103252D01*
X87762475Y-111103254D01*
X87665718Y-111310750D01*
X87665714Y-111310761D01*
X87606457Y-111531910D01*
X87606456Y-111531918D01*
X87586502Y-111759998D01*
X87586502Y-111760001D01*
X82690013Y-111760001D01*
X82693327Y-111720005D01*
X82693327Y-111719994D01*
X82674052Y-111487382D01*
X82674050Y-111487370D01*
X82637694Y-111343804D01*
X82640319Y-111273984D01*
X82670217Y-111225685D01*
X85800615Y-108095287D01*
X85812980Y-108085383D01*
X85812806Y-108085173D01*
X85818812Y-108080203D01*
X85818818Y-108080200D01*
X85865506Y-108030480D01*
X85868155Y-108027747D01*
X85887935Y-108007969D01*
X85890470Y-108004699D01*
X85898059Y-107995815D01*
X85898615Y-107995222D01*
X85928386Y-107963521D01*
X85938220Y-107945630D01*
X85948898Y-107929374D01*
X85961414Y-107913240D01*
X85979009Y-107872578D01*
X85984150Y-107862085D01*
X86005491Y-107823267D01*
X86005495Y-107823260D01*
X86010574Y-107803474D01*
X86016872Y-107785082D01*
X86024981Y-107766345D01*
X86031913Y-107722572D01*
X86034278Y-107711153D01*
X86045300Y-107668230D01*
X86045300Y-107647815D01*
X86046827Y-107628414D01*
X86050020Y-107608257D01*
X86045850Y-107564142D01*
X86045300Y-107552473D01*
X86045300Y-103102565D01*
X86064985Y-103035526D01*
X86081614Y-103014889D01*
X87545757Y-101550745D01*
X87607078Y-101517262D01*
X87676770Y-101522246D01*
X87732703Y-101564118D01*
X87745818Y-101586023D01*
X87762476Y-101621748D01*
X87762477Y-101621749D01*
X87893802Y-101809300D01*
X88055700Y-101971198D01*
X88243251Y-102102523D01*
X88368091Y-102160736D01*
X88450750Y-102199281D01*
X88450752Y-102199281D01*
X88450757Y-102199284D01*
X88671913Y-102258543D01*
X88834832Y-102272796D01*
X88899998Y-102278498D01*
X88900000Y-102278498D01*
X88900002Y-102278498D01*
X88957021Y-102273509D01*
X89128087Y-102258543D01*
X89349243Y-102199284D01*
X89556749Y-102102523D01*
X89744300Y-101971198D01*
X89878068Y-101837429D01*
X89939387Y-101803947D01*
X90009079Y-101808931D01*
X90053427Y-101837432D01*
X91474812Y-103258817D01*
X91484719Y-103271183D01*
X91484929Y-103271010D01*
X91489896Y-103277014D01*
X91489899Y-103277017D01*
X91489900Y-103277018D01*
X91539586Y-103323675D01*
X91542351Y-103326356D01*
X91562123Y-103346129D01*
X91562127Y-103346132D01*
X91562130Y-103346135D01*
X91565412Y-103348681D01*
X91574272Y-103356249D01*
X91606579Y-103386586D01*
X91606581Y-103386587D01*
X91624462Y-103396417D01*
X91640729Y-103407102D01*
X91656860Y-103419615D01*
X91677057Y-103428354D01*
X91697525Y-103437210D01*
X91708004Y-103442344D01*
X91746840Y-103463695D01*
X91766616Y-103468772D01*
X91785023Y-103475074D01*
X91803755Y-103483181D01*
X91847530Y-103490113D01*
X91858945Y-103492478D01*
X91901870Y-103503500D01*
X91922284Y-103503500D01*
X91941683Y-103505027D01*
X91961843Y-103508220D01*
X92005957Y-103504050D01*
X92017626Y-103503500D01*
X92761648Y-103503500D01*
X92828687Y-103523185D01*
X92863220Y-103556373D01*
X92973802Y-103714300D01*
X93135700Y-103876198D01*
X93320565Y-104005642D01*
X93323251Y-104007523D01*
X93366345Y-104027618D01*
X93418784Y-104073791D01*
X93437936Y-104140984D01*
X93417720Y-104207865D01*
X93366345Y-104252382D01*
X93323251Y-104272476D01*
X93198126Y-104360090D01*
X93135700Y-104403802D01*
X93135698Y-104403803D01*
X93135695Y-104403806D01*
X92973806Y-104565695D01*
X92973803Y-104565698D01*
X92973802Y-104565700D01*
X92863220Y-104723625D01*
X92808646Y-104767249D01*
X92761648Y-104776500D01*
X92158634Y-104776500D01*
X92142886Y-104774761D01*
X92142861Y-104775032D01*
X92135094Y-104774298D01*
X92135091Y-104774298D01*
X92066983Y-104776439D01*
X92063087Y-104776500D01*
X92035136Y-104776500D01*
X92031040Y-104777018D01*
X92019402Y-104777934D01*
X91975112Y-104779326D01*
X91975109Y-104779327D01*
X91955506Y-104785022D01*
X91936458Y-104788966D01*
X91916203Y-104791526D01*
X91895743Y-104799626D01*
X91875001Y-104807838D01*
X91863954Y-104811620D01*
X91821407Y-104823981D01*
X91803833Y-104834374D01*
X91786372Y-104842928D01*
X91767386Y-104850446D01*
X91767385Y-104850446D01*
X91731535Y-104876492D01*
X91721776Y-104882902D01*
X91683637Y-104905457D01*
X91669201Y-104919894D01*
X91654415Y-104932523D01*
X91637893Y-104944528D01*
X91637891Y-104944529D01*
X91637891Y-104944530D01*
X91637888Y-104944533D01*
X91609642Y-104978674D01*
X91601783Y-104987311D01*
X89312429Y-107276664D01*
X89251106Y-107310149D01*
X89192655Y-107308758D01*
X89128087Y-107291457D01*
X89128085Y-107291456D01*
X89128081Y-107291456D01*
X88900002Y-107271502D01*
X88899998Y-107271502D01*
X88671918Y-107291456D01*
X88671910Y-107291457D01*
X88450761Y-107350714D01*
X88450750Y-107350718D01*
X88243254Y-107447475D01*
X88243252Y-107447476D01*
X88172856Y-107496767D01*
X88055700Y-107578802D01*
X88055698Y-107578803D01*
X88055695Y-107578806D01*
X87893806Y-107740695D01*
X87893803Y-107740698D01*
X87893802Y-107740700D01*
X87837107Y-107821669D01*
X87762476Y-107928252D01*
X87762475Y-107928254D01*
X87665718Y-108135750D01*
X87665714Y-108135761D01*
X87606457Y-108356910D01*
X87606456Y-108356918D01*
X87586502Y-108584998D01*
X87586502Y-108585001D01*
X87606456Y-108813081D01*
X87606457Y-108813089D01*
X87665714Y-109034238D01*
X87665718Y-109034249D01*
X87762475Y-109241745D01*
X87762477Y-109241749D01*
X87893802Y-109429300D01*
X88055700Y-109591198D01*
X88243251Y-109722523D01*
X88368091Y-109780736D01*
X88450750Y-109819281D01*
X88450752Y-109819281D01*
X88450757Y-109819284D01*
X88671913Y-109878543D01*
X88834832Y-109892796D01*
X88899998Y-109898498D01*
X88900000Y-109898498D01*
X88900002Y-109898498D01*
X88957021Y-109893509D01*
X89128087Y-109878543D01*
X89349243Y-109819284D01*
X89556749Y-109722523D01*
X89744300Y-109591198D01*
X89906198Y-109429300D01*
X90037523Y-109241749D01*
X90134284Y-109034243D01*
X90193543Y-108813087D01*
X90213498Y-108585000D01*
X90193543Y-108356913D01*
X90176241Y-108292341D01*
X90177904Y-108222491D01*
X90208333Y-108172569D01*
X92301086Y-106079819D01*
X92362409Y-106046334D01*
X92388767Y-106043500D01*
X92761648Y-106043500D01*
X92828687Y-106063185D01*
X92863220Y-106096373D01*
X92973802Y-106254300D01*
X93135700Y-106416198D01*
X93323251Y-106547523D01*
X93378445Y-106573260D01*
X93530750Y-106644281D01*
X93530752Y-106644281D01*
X93530757Y-106644284D01*
X93751913Y-106703543D01*
X93914832Y-106717796D01*
X93979998Y-106723498D01*
X93980000Y-106723498D01*
X93980002Y-106723498D01*
X94037139Y-106718499D01*
X94208087Y-106703543D01*
X94429243Y-106644284D01*
X94636749Y-106547523D01*
X94824300Y-106416198D01*
X94986198Y-106254300D01*
X95117523Y-106066749D01*
X95214284Y-105859243D01*
X95273543Y-105638087D01*
X95293498Y-105410000D01*
X95273543Y-105181913D01*
X95214284Y-104960757D01*
X95206716Y-104944528D01*
X95142977Y-104807838D01*
X95117523Y-104753251D01*
X94986198Y-104565700D01*
X94824300Y-104403802D01*
X94636749Y-104272477D01*
X94593655Y-104252382D01*
X94541215Y-104206210D01*
X94522063Y-104139017D01*
X94542278Y-104072136D01*
X94593655Y-104027618D01*
X94596882Y-104026112D01*
X94636749Y-104007523D01*
X94824300Y-103876198D01*
X94986198Y-103714300D01*
X95117523Y-103526749D01*
X95214284Y-103319243D01*
X95273543Y-103098087D01*
X95293498Y-102870000D01*
X95273543Y-102641913D01*
X95214284Y-102420757D01*
X95117523Y-102213251D01*
X94986198Y-102025700D01*
X94824300Y-101863802D01*
X94636749Y-101732477D01*
X94593655Y-101712382D01*
X94541215Y-101666210D01*
X94522063Y-101599017D01*
X94542278Y-101532136D01*
X94593655Y-101487618D01*
X94596882Y-101486112D01*
X94636749Y-101467523D01*
X94824300Y-101336198D01*
X94986198Y-101174300D01*
X95117523Y-100986749D01*
X95214284Y-100779243D01*
X95273543Y-100558087D01*
X95293257Y-100332750D01*
X95293498Y-100330001D01*
X95293498Y-100329998D01*
X95287796Y-100264832D01*
X95273543Y-100101913D01*
X95214284Y-99880757D01*
X95117523Y-99673251D01*
X94986198Y-99485700D01*
X94824300Y-99323802D01*
X94636749Y-99192477D01*
X94602284Y-99176406D01*
X94593655Y-99172382D01*
X94541215Y-99126210D01*
X94522063Y-99059017D01*
X94542278Y-98992136D01*
X94593655Y-98947618D01*
X94596882Y-98946112D01*
X94636749Y-98927523D01*
X94824300Y-98796198D01*
X94986198Y-98634300D01*
X95117523Y-98446749D01*
X95214284Y-98239243D01*
X95273543Y-98018087D01*
X95293498Y-97790000D01*
X95292123Y-97774289D01*
X95282404Y-97663193D01*
X95273543Y-97561913D01*
X95214284Y-97340757D01*
X95117523Y-97133251D01*
X95007001Y-96975410D01*
X94984675Y-96909206D01*
X95001685Y-96841438D01*
X95020892Y-96816611D01*
X97025417Y-94812086D01*
X97037777Y-94802186D01*
X97037603Y-94801976D01*
X97043615Y-94797001D01*
X97043618Y-94797000D01*
X97055328Y-94784530D01*
X97090256Y-94747334D01*
X97092975Y-94744528D01*
X97107580Y-94729925D01*
X97112735Y-94724770D01*
X97115272Y-94721498D01*
X97122848Y-94712627D01*
X97153186Y-94680321D01*
X97163019Y-94662432D01*
X97173702Y-94646169D01*
X97186214Y-94630041D01*
X97203807Y-94589381D01*
X97208950Y-94578885D01*
X97230293Y-94540064D01*
X97230293Y-94540063D01*
X97230295Y-94540060D01*
X97235374Y-94520273D01*
X97241670Y-94501885D01*
X97249781Y-94483145D01*
X97256713Y-94439372D01*
X97259078Y-94427953D01*
X97270100Y-94385030D01*
X97270100Y-94364615D01*
X97271627Y-94345214D01*
X97274820Y-94325057D01*
X97270650Y-94280942D01*
X97270100Y-94269273D01*
X97270100Y-92912165D01*
X97289785Y-92845126D01*
X97306414Y-92824489D01*
X100076819Y-90054083D01*
X100138140Y-90020600D01*
X100207832Y-90025584D01*
X100263765Y-90067456D01*
X100288182Y-90132920D01*
X100288026Y-90152571D01*
X100286502Y-90169994D01*
X100286502Y-90170001D01*
X100306456Y-90398081D01*
X100306457Y-90398089D01*
X100365714Y-90619238D01*
X100365718Y-90619249D01*
X100462475Y-90826745D01*
X100462477Y-90826749D01*
X100593802Y-91014300D01*
X100755700Y-91176198D01*
X100943251Y-91307523D01*
X100986345Y-91327618D01*
X101038784Y-91373791D01*
X101057936Y-91440984D01*
X101037720Y-91507865D01*
X100986345Y-91552382D01*
X100943251Y-91572476D01*
X100818126Y-91660090D01*
X100755700Y-91703802D01*
X100755698Y-91703803D01*
X100755695Y-91703806D01*
X100593806Y-91865695D01*
X100462476Y-92053252D01*
X100462475Y-92053254D01*
X100365718Y-92260750D01*
X100365714Y-92260761D01*
X100306457Y-92481910D01*
X100306456Y-92481918D01*
X100286502Y-92709998D01*
X100286502Y-92710001D01*
X100306456Y-92938081D01*
X100306457Y-92938089D01*
X100365714Y-93159238D01*
X100365718Y-93159249D01*
X100434770Y-93307331D01*
X100462477Y-93366749D01*
X100593802Y-93554300D01*
X100755700Y-93716198D01*
X100943251Y-93847523D01*
X100986345Y-93867618D01*
X101038784Y-93913791D01*
X101057936Y-93980984D01*
X101037720Y-94047865D01*
X100986345Y-94092382D01*
X100943251Y-94112476D01*
X100835389Y-94188003D01*
X100755700Y-94243802D01*
X100755698Y-94243803D01*
X100755695Y-94243806D01*
X100593806Y-94405695D01*
X100593803Y-94405698D01*
X100593802Y-94405700D01*
X100539575Y-94483144D01*
X100462476Y-94593252D01*
X100462475Y-94593254D01*
X100365718Y-94800750D01*
X100365714Y-94800761D01*
X100306457Y-95021910D01*
X100306456Y-95021918D01*
X100286502Y-95249998D01*
X100286502Y-95250001D01*
X100306456Y-95478081D01*
X100306457Y-95478089D01*
X100365714Y-95699238D01*
X100365718Y-95699249D01*
X100458065Y-95897287D01*
X100462477Y-95906749D01*
X100593802Y-96094300D01*
X100755700Y-96256198D01*
X100927644Y-96376595D01*
X100943251Y-96387523D01*
X100986345Y-96407618D01*
X101038784Y-96453791D01*
X101057936Y-96520984D01*
X101037720Y-96587865D01*
X100986345Y-96632382D01*
X100943251Y-96652476D01*
X100818126Y-96740090D01*
X100755700Y-96783802D01*
X100755698Y-96783803D01*
X100755695Y-96783806D01*
X100593806Y-96945695D01*
X100593803Y-96945698D01*
X100593802Y-96945700D01*
X100533725Y-97031499D01*
X100462476Y-97133252D01*
X100462475Y-97133254D01*
X100365718Y-97340750D01*
X100365714Y-97340761D01*
X100306457Y-97561910D01*
X100306456Y-97561918D01*
X100286502Y-97789998D01*
X100286502Y-97790001D01*
X100306456Y-98018081D01*
X100306457Y-98018089D01*
X100365714Y-98239238D01*
X100365718Y-98239249D01*
X100455548Y-98431889D01*
X100462477Y-98446749D01*
X100593802Y-98634300D01*
X100755700Y-98796198D01*
X100943251Y-98927523D01*
X100986345Y-98947618D01*
X101038784Y-98993791D01*
X101057936Y-99060984D01*
X101037720Y-99127865D01*
X100986345Y-99172382D01*
X100943251Y-99192476D01*
X100860184Y-99250641D01*
X100755700Y-99323802D01*
X100755698Y-99323803D01*
X100755695Y-99323806D01*
X100593806Y-99485695D01*
X100462476Y-99673252D01*
X100462475Y-99673254D01*
X100365718Y-99880750D01*
X100365714Y-99880761D01*
X100306457Y-100101910D01*
X100306456Y-100101918D01*
X100286502Y-100329998D01*
X100286502Y-100330001D01*
X100306456Y-100558081D01*
X100306457Y-100558089D01*
X100365714Y-100779238D01*
X100365718Y-100779249D01*
X100452334Y-100964998D01*
X100462477Y-100986749D01*
X100593802Y-101174300D01*
X100755700Y-101336198D01*
X100943251Y-101467523D01*
X100986345Y-101487618D01*
X101038784Y-101533791D01*
X101057936Y-101600984D01*
X101037720Y-101667865D01*
X100986345Y-101712382D01*
X100943251Y-101732476D01*
X100834064Y-101808931D01*
X100755700Y-101863802D01*
X100755698Y-101863803D01*
X100755695Y-101863806D01*
X100593806Y-102025695D01*
X100593803Y-102025698D01*
X100593802Y-102025700D01*
X100544754Y-102095748D01*
X100462476Y-102213252D01*
X100462475Y-102213254D01*
X100365718Y-102420750D01*
X100365714Y-102420761D01*
X100306457Y-102641910D01*
X100306456Y-102641918D01*
X100286502Y-102869998D01*
X100286502Y-102870001D01*
X100306456Y-103098081D01*
X100306457Y-103098089D01*
X100365714Y-103319238D01*
X100365718Y-103319249D01*
X100460815Y-103523185D01*
X100462477Y-103526749D01*
X100593802Y-103714300D01*
X100755700Y-103876198D01*
X100763370Y-103881568D01*
X100806993Y-103936144D01*
X100814185Y-104005642D01*
X100782663Y-104067997D01*
X100722433Y-104103410D01*
X100705501Y-104106430D01*
X100690797Y-104108011D01*
X100690795Y-104108011D01*
X100553795Y-104159111D01*
X100436739Y-104246739D01*
X100349111Y-104363795D01*
X100298011Y-104500795D01*
X100298011Y-104500797D01*
X100291500Y-104561345D01*
X100291500Y-106258654D01*
X100298011Y-106319202D01*
X100298011Y-106319204D01*
X100334189Y-106416198D01*
X100349111Y-106456204D01*
X100436739Y-106573261D01*
X100553796Y-106660889D01*
X100690799Y-106711989D01*
X100718050Y-106714918D01*
X100751345Y-106718499D01*
X100751362Y-106718500D01*
X102062339Y-106718500D01*
X102129378Y-106738185D01*
X102175133Y-106790989D01*
X102181414Y-106807899D01*
X102190892Y-106840516D01*
X102190892Y-106840517D01*
X102201277Y-106858076D01*
X102209838Y-106875550D01*
X102217346Y-106894513D01*
X102217352Y-106894524D01*
X102243396Y-106930370D01*
X102249807Y-106940129D01*
X102260198Y-106957697D01*
X102272372Y-106978280D01*
X102286795Y-106992702D01*
X102299433Y-107007499D01*
X102311425Y-107024004D01*
X102311428Y-107024007D01*
X102345577Y-107052258D01*
X102354215Y-107060118D01*
X103202992Y-107908834D01*
X103236479Y-107970156D01*
X103231497Y-108039847D01*
X103202995Y-108084199D01*
X101211179Y-110076014D01*
X101198820Y-110085918D01*
X101198993Y-110086127D01*
X101192982Y-110091100D01*
X101146338Y-110140769D01*
X101143633Y-110143560D01*
X101123873Y-110163321D01*
X101123858Y-110163338D01*
X101121317Y-110166613D01*
X101113753Y-110175467D01*
X101083420Y-110207771D01*
X101083412Y-110207781D01*
X101073579Y-110225667D01*
X101062903Y-110241920D01*
X101050386Y-110258057D01*
X101050385Y-110258060D01*
X101032785Y-110298729D01*
X101027648Y-110309215D01*
X101006303Y-110348041D01*
X101006303Y-110348042D01*
X101001225Y-110367820D01*
X100994925Y-110386222D01*
X100986818Y-110404957D01*
X100979888Y-110448709D01*
X100977520Y-110460145D01*
X100966500Y-110503065D01*
X100966500Y-110523484D01*
X100964972Y-110542890D01*
X100961735Y-110563319D01*
X100931801Y-110626452D01*
X100910387Y-110645487D01*
X100755699Y-110753802D01*
X100593806Y-110915695D01*
X100462476Y-111103252D01*
X100462475Y-111103254D01*
X100365718Y-111310750D01*
X100365714Y-111310761D01*
X100306457Y-111531910D01*
X100306456Y-111531918D01*
X100286502Y-111759998D01*
X100286502Y-111760001D01*
X100306456Y-111988081D01*
X100306457Y-111988089D01*
X100365714Y-112209238D01*
X100365718Y-112209249D01*
X100451248Y-112392668D01*
X100462477Y-112416749D01*
X100593802Y-112604300D01*
X100755700Y-112766198D01*
X100943251Y-112897523D01*
X101037282Y-112941370D01*
X101150750Y-112994281D01*
X101150752Y-112994281D01*
X101150757Y-112994284D01*
X101371913Y-113053543D01*
X101534832Y-113067796D01*
X101599998Y-113073498D01*
X101600000Y-113073498D01*
X101600002Y-113073498D01*
X101657021Y-113068509D01*
X101828087Y-113053543D01*
X102049243Y-112994284D01*
X102256749Y-112897523D01*
X102444300Y-112766198D01*
X102606198Y-112604300D01*
X102737523Y-112416749D01*
X102834284Y-112209243D01*
X102893543Y-111988087D01*
X102913498Y-111760001D01*
X105376502Y-111760001D01*
X105396456Y-111988081D01*
X105396457Y-111988089D01*
X105455714Y-112209238D01*
X105455718Y-112209249D01*
X105541248Y-112392668D01*
X105552477Y-112416749D01*
X105683802Y-112604300D01*
X105845700Y-112766198D01*
X106033251Y-112897523D01*
X106127282Y-112941370D01*
X106240750Y-112994281D01*
X106240752Y-112994281D01*
X106240757Y-112994284D01*
X106461913Y-113053543D01*
X106624832Y-113067796D01*
X106689998Y-113073498D01*
X106690000Y-113073498D01*
X106690002Y-113073498D01*
X106747021Y-113068509D01*
X106918087Y-113053543D01*
X107139243Y-112994284D01*
X107346749Y-112897523D01*
X107534300Y-112766198D01*
X107696198Y-112604300D01*
X107827523Y-112416749D01*
X107924284Y-112209243D01*
X107983543Y-111988087D01*
X108003498Y-111760000D01*
X107999998Y-111720000D01*
X107983543Y-111531918D01*
X107983543Y-111531913D01*
X107924284Y-111310757D01*
X107827523Y-111103251D01*
X107696198Y-110915700D01*
X107534300Y-110753802D01*
X107346749Y-110622477D01*
X107346745Y-110622475D01*
X107139249Y-110525718D01*
X107139238Y-110525714D01*
X106918089Y-110466457D01*
X106918081Y-110466456D01*
X106690002Y-110446502D01*
X106689998Y-110446502D01*
X106461918Y-110466456D01*
X106461910Y-110466457D01*
X106240761Y-110525714D01*
X106240750Y-110525718D01*
X106033254Y-110622475D01*
X106033252Y-110622476D01*
X106033251Y-110622477D01*
X105845700Y-110753802D01*
X105845698Y-110753803D01*
X105845695Y-110753806D01*
X105683806Y-110915695D01*
X105552476Y-111103252D01*
X105552475Y-111103254D01*
X105455718Y-111310750D01*
X105455714Y-111310761D01*
X105396457Y-111531910D01*
X105396456Y-111531918D01*
X105376502Y-111759998D01*
X105376502Y-111760001D01*
X102913498Y-111760001D01*
X102913498Y-111760000D01*
X102909998Y-111720000D01*
X102893543Y-111531918D01*
X102893543Y-111531913D01*
X102834284Y-111310757D01*
X102737523Y-111103251D01*
X102606198Y-110915700D01*
X102472432Y-110781934D01*
X102438947Y-110720611D01*
X102443931Y-110650919D01*
X102472432Y-110606572D01*
X104412686Y-108666319D01*
X104474009Y-108632834D01*
X104500367Y-108630000D01*
X105266814Y-108630000D01*
X105333853Y-108649685D01*
X105379608Y-108702489D01*
X105390342Y-108743192D01*
X105396456Y-108813082D01*
X105396457Y-108813089D01*
X105455714Y-109034238D01*
X105455718Y-109034249D01*
X105552475Y-109241745D01*
X105552477Y-109241749D01*
X105683802Y-109429300D01*
X105845700Y-109591198D01*
X106033251Y-109722523D01*
X106158091Y-109780736D01*
X106240750Y-109819281D01*
X106240752Y-109819281D01*
X106240757Y-109819284D01*
X106461913Y-109878543D01*
X106624832Y-109892796D01*
X106689998Y-109898498D01*
X106690000Y-109898498D01*
X106690002Y-109898498D01*
X106747021Y-109893509D01*
X106918087Y-109878543D01*
X107139243Y-109819284D01*
X107346749Y-109722523D01*
X107534300Y-109591198D01*
X107696198Y-109429300D01*
X107827523Y-109241749D01*
X107924284Y-109034243D01*
X107983543Y-108813087D01*
X108003498Y-108585000D01*
X107990812Y-108440000D01*
X137526372Y-108440000D01*
X137542874Y-108649685D01*
X137546854Y-108700249D01*
X137607796Y-108954089D01*
X137607797Y-108954091D01*
X137707696Y-109195271D01*
X137844095Y-109417853D01*
X137844098Y-109417858D01*
X137853874Y-109429304D01*
X138013637Y-109616363D01*
X138137935Y-109722523D01*
X138212141Y-109785901D01*
X138212146Y-109785904D01*
X138434728Y-109922303D01*
X138519998Y-109957622D01*
X138675911Y-110022204D01*
X138929751Y-110083146D01*
X139190000Y-110103628D01*
X139450249Y-110083146D01*
X139704089Y-110022204D01*
X139945271Y-109922303D01*
X140167856Y-109785903D01*
X140366363Y-109616363D01*
X140535903Y-109417856D01*
X140672303Y-109195271D01*
X140772204Y-108954089D01*
X140833146Y-108700249D01*
X140853628Y-108440000D01*
X140833146Y-108179751D01*
X140772204Y-107925911D01*
X140695485Y-107740695D01*
X140672303Y-107684728D01*
X140535904Y-107462146D01*
X140535901Y-107462141D01*
X140455876Y-107368444D01*
X140366363Y-107263637D01*
X140257839Y-107170949D01*
X140167858Y-107094098D01*
X140167853Y-107094095D01*
X139945271Y-106957696D01*
X139739410Y-106872426D01*
X139704089Y-106857796D01*
X139530445Y-106816107D01*
X139450250Y-106796854D01*
X139190000Y-106776372D01*
X138929749Y-106796854D01*
X138769357Y-106835361D01*
X138675911Y-106857796D01*
X138675909Y-106857796D01*
X138675908Y-106857797D01*
X138434728Y-106957696D01*
X138212146Y-107094095D01*
X138212141Y-107094098D01*
X138013637Y-107263637D01*
X137844098Y-107462141D01*
X137844095Y-107462146D01*
X137707696Y-107684728D01*
X137607797Y-107925908D01*
X137607796Y-107925911D01*
X137588094Y-108007977D01*
X137546854Y-108179749D01*
X137526372Y-108440000D01*
X107990812Y-108440000D01*
X107983543Y-108356913D01*
X107924284Y-108135757D01*
X107900696Y-108085173D01*
X107866559Y-108011965D01*
X107827523Y-107928251D01*
X107696198Y-107740700D01*
X107534300Y-107578802D01*
X107346749Y-107447477D01*
X107346745Y-107447475D01*
X107139249Y-107350718D01*
X107139238Y-107350714D01*
X106918089Y-107291457D01*
X106918081Y-107291456D01*
X106690002Y-107271502D01*
X106689998Y-107271502D01*
X106461918Y-107291456D01*
X106461911Y-107291457D01*
X106240760Y-107350715D01*
X106240751Y-107350718D01*
X106239322Y-107351385D01*
X106238295Y-107351612D01*
X106235676Y-107352566D01*
X106235550Y-107352221D01*
X106186924Y-107363000D01*
X106161116Y-107363000D01*
X106141717Y-107361473D01*
X106121558Y-107358280D01*
X106121557Y-107358280D01*
X106077443Y-107362450D01*
X106065774Y-107363000D01*
X104500350Y-107363000D01*
X104433311Y-107343315D01*
X104412672Y-107326684D01*
X104360417Y-107274433D01*
X103746830Y-106660888D01*
X103446722Y-106360801D01*
X103413235Y-106299479D01*
X103410400Y-106273117D01*
X103410400Y-105481605D01*
X103412596Y-105458374D01*
X103414175Y-105450094D01*
X103414175Y-105450091D01*
X103410645Y-105393984D01*
X103410400Y-105386198D01*
X103410400Y-105370144D01*
X103410399Y-105370136D01*
X103408388Y-105354222D01*
X103407656Y-105346479D01*
X103404125Y-105290350D01*
X103401521Y-105282339D01*
X103396428Y-105259551D01*
X103395374Y-105251203D01*
X103374670Y-105198912D01*
X103372051Y-105191638D01*
X103354664Y-105138125D01*
X103350150Y-105131012D01*
X103339552Y-105110213D01*
X103339433Y-105109913D01*
X103336452Y-105102383D01*
X103303416Y-105056913D01*
X103299039Y-105050472D01*
X103268904Y-105002987D01*
X103268897Y-105002979D01*
X103262752Y-104997208D01*
X103247321Y-104979705D01*
X103246572Y-104978674D01*
X103242372Y-104972893D01*
X103199055Y-104937058D01*
X103193211Y-104931906D01*
X103152224Y-104893416D01*
X103152219Y-104893412D01*
X103144833Y-104889352D01*
X103125533Y-104876235D01*
X103119043Y-104870866D01*
X103075652Y-104850448D01*
X103068163Y-104846924D01*
X103061230Y-104843391D01*
X103011963Y-104816306D01*
X103011960Y-104816305D01*
X103003792Y-104814207D01*
X102981822Y-104806295D01*
X102979683Y-104805288D01*
X102927414Y-104758924D01*
X102908500Y-104693099D01*
X102908500Y-104561362D01*
X102908499Y-104561345D01*
X102905157Y-104530270D01*
X102901989Y-104500799D01*
X102850889Y-104363796D01*
X102763261Y-104246739D01*
X102646204Y-104159111D01*
X102509203Y-104108011D01*
X102494498Y-104106430D01*
X102429947Y-104079691D01*
X102390100Y-104022298D01*
X102387607Y-103952473D01*
X102423261Y-103892385D01*
X102436624Y-103881572D01*
X102444300Y-103876198D01*
X102606198Y-103714300D01*
X102716779Y-103556374D01*
X102771354Y-103512751D01*
X102812917Y-103504569D01*
X102812866Y-103503745D01*
X102816746Y-103503500D01*
X102816756Y-103503500D01*
X102818162Y-103503322D01*
X102820849Y-103502983D01*
X102832508Y-103502064D01*
X102876789Y-103500673D01*
X102896381Y-103494980D01*
X102915438Y-103491032D01*
X102935697Y-103488474D01*
X102976906Y-103472157D01*
X102987943Y-103468379D01*
X103030493Y-103456018D01*
X103048065Y-103445625D01*
X103065532Y-103437068D01*
X103084517Y-103429552D01*
X103120361Y-103403508D01*
X103130130Y-103397092D01*
X103168262Y-103374542D01*
X103182702Y-103360100D01*
X103197492Y-103347470D01*
X103214007Y-103335472D01*
X103242259Y-103301319D01*
X103250103Y-103292699D01*
X104907986Y-101634819D01*
X104969309Y-101601334D01*
X104995667Y-101598500D01*
X105471648Y-101598500D01*
X105538687Y-101618185D01*
X105573220Y-101651373D01*
X105683802Y-101809300D01*
X105845700Y-101971198D01*
X106033251Y-102102523D01*
X106158091Y-102160736D01*
X106240750Y-102199281D01*
X106240752Y-102199281D01*
X106240757Y-102199284D01*
X106461913Y-102258543D01*
X106624832Y-102272796D01*
X106689998Y-102278498D01*
X106690000Y-102278498D01*
X106690002Y-102278498D01*
X106747021Y-102273509D01*
X106918087Y-102258543D01*
X107139243Y-102199284D01*
X107346749Y-102102523D01*
X107534300Y-101971198D01*
X107696198Y-101809300D01*
X107827523Y-101621749D01*
X107924284Y-101414243D01*
X107983543Y-101193087D01*
X108003498Y-100965000D01*
X107983543Y-100736913D01*
X107924284Y-100515757D01*
X107922224Y-100511340D01*
X107883314Y-100427897D01*
X107827523Y-100308251D01*
X107696198Y-100120700D01*
X107534300Y-99958802D01*
X107346749Y-99827477D01*
X107346745Y-99827475D01*
X107139249Y-99730718D01*
X107139238Y-99730714D01*
X106918089Y-99671457D01*
X106918081Y-99671456D01*
X106690002Y-99651502D01*
X106689998Y-99651502D01*
X106461918Y-99671456D01*
X106461910Y-99671457D01*
X106240761Y-99730714D01*
X106240750Y-99730718D01*
X106033254Y-99827475D01*
X106033252Y-99827476D01*
X106033251Y-99827477D01*
X105845700Y-99958802D01*
X105845698Y-99958803D01*
X105845695Y-99958806D01*
X105683806Y-100120695D01*
X105683803Y-100120698D01*
X105683802Y-100120700D01*
X105573220Y-100278625D01*
X105518646Y-100322249D01*
X105471648Y-100331500D01*
X104765531Y-100331500D01*
X104749779Y-100329760D01*
X104749754Y-100330032D01*
X104741992Y-100329298D01*
X104741991Y-100329298D01*
X104718637Y-100330032D01*
X104673869Y-100331439D01*
X104669974Y-100331500D01*
X104642044Y-100331500D01*
X104642041Y-100331500D01*
X104642025Y-100331501D01*
X104637932Y-100332018D01*
X104626304Y-100332933D01*
X104582013Y-100334325D01*
X104582007Y-100334326D01*
X104562400Y-100340022D01*
X104543361Y-100343965D01*
X104523111Y-100346524D01*
X104523105Y-100346525D01*
X104523103Y-100346526D01*
X104512325Y-100350792D01*
X104481906Y-100362836D01*
X104470860Y-100366617D01*
X104428313Y-100378979D01*
X104428307Y-100378981D01*
X104410733Y-100389374D01*
X104393272Y-100397928D01*
X104374286Y-100405446D01*
X104374285Y-100405446D01*
X104338435Y-100431492D01*
X104328676Y-100437902D01*
X104290537Y-100460457D01*
X104276101Y-100474894D01*
X104261315Y-100487523D01*
X104244793Y-100499528D01*
X104244791Y-100499529D01*
X104244791Y-100499530D01*
X104244788Y-100499533D01*
X104216542Y-100533674D01*
X104208683Y-100542311D01*
X102753427Y-101997566D01*
X102692104Y-102031051D01*
X102622412Y-102026067D01*
X102578065Y-101997567D01*
X102551691Y-101971193D01*
X102444300Y-101863802D01*
X102256749Y-101732477D01*
X102213655Y-101712382D01*
X102161215Y-101666210D01*
X102142063Y-101599017D01*
X102162278Y-101532136D01*
X102213655Y-101487618D01*
X102216882Y-101486112D01*
X102256749Y-101467523D01*
X102444300Y-101336198D01*
X102606198Y-101174300D01*
X102737523Y-100986749D01*
X102834284Y-100779243D01*
X102893543Y-100558087D01*
X102913257Y-100332750D01*
X102913498Y-100330001D01*
X102913498Y-100329998D01*
X102907796Y-100264832D01*
X102893543Y-100101913D01*
X102834284Y-99880757D01*
X102737523Y-99673251D01*
X102606198Y-99485700D01*
X102444300Y-99323802D01*
X102256749Y-99192477D01*
X102222284Y-99176406D01*
X102213655Y-99172382D01*
X102161215Y-99126210D01*
X102142063Y-99059017D01*
X102162278Y-98992136D01*
X102213655Y-98947618D01*
X102216882Y-98946112D01*
X102256749Y-98927523D01*
X102444300Y-98796198D01*
X102552180Y-98688317D01*
X102613499Y-98654835D01*
X102683191Y-98659819D01*
X102727539Y-98688320D01*
X103017396Y-98978177D01*
X103029177Y-98991809D01*
X103043731Y-99011358D01*
X103082145Y-99043591D01*
X103090108Y-99050889D01*
X103094100Y-99054881D01*
X103118685Y-99074321D01*
X103121479Y-99076597D01*
X103133079Y-99086330D01*
X103179560Y-99125332D01*
X103179562Y-99125333D01*
X103185596Y-99129302D01*
X103185569Y-99129342D01*
X103192121Y-99133516D01*
X103192147Y-99133475D01*
X103198291Y-99137265D01*
X103198294Y-99137267D01*
X103267040Y-99169323D01*
X103270231Y-99170869D01*
X103338011Y-99204909D01*
X103344794Y-99207377D01*
X103344777Y-99207422D01*
X103352125Y-99209976D01*
X103352141Y-99209931D01*
X103358989Y-99212199D01*
X103358994Y-99212202D01*
X103433312Y-99227546D01*
X103436731Y-99228305D01*
X103510544Y-99245800D01*
X103510545Y-99245800D01*
X103510549Y-99245801D01*
X103517717Y-99246639D01*
X103517711Y-99246686D01*
X103525442Y-99247476D01*
X103525447Y-99247429D01*
X103532637Y-99248058D01*
X103532641Y-99248057D01*
X103532642Y-99248058D01*
X103608458Y-99245852D01*
X103612064Y-99245800D01*
X118618406Y-99245800D01*
X118636376Y-99247109D01*
X118638562Y-99247429D01*
X118660489Y-99250641D01*
X118710427Y-99246271D01*
X118721234Y-99245800D01*
X118726875Y-99245800D01*
X118726880Y-99245800D01*
X118758070Y-99242153D01*
X118761551Y-99241798D01*
X118812522Y-99237339D01*
X118837118Y-99235188D01*
X118837120Y-99235187D01*
X118837126Y-99235187D01*
X118837131Y-99235185D01*
X118844193Y-99233727D01*
X118844202Y-99233774D01*
X118851797Y-99232090D01*
X118851787Y-99232044D01*
X118858808Y-99230379D01*
X118858813Y-99230379D01*
X118930114Y-99204426D01*
X118933408Y-99203281D01*
X119005438Y-99179414D01*
X119005444Y-99179410D01*
X119011984Y-99176361D01*
X119012005Y-99176406D01*
X119019002Y-99173019D01*
X119018980Y-99172975D01*
X119025428Y-99169736D01*
X119025432Y-99169735D01*
X119088803Y-99128053D01*
X119091810Y-99126137D01*
X119156351Y-99086330D01*
X119156356Y-99086324D01*
X119162019Y-99081848D01*
X119162050Y-99081887D01*
X119168074Y-99076980D01*
X119168042Y-99076942D01*
X119173564Y-99072306D01*
X119173574Y-99072301D01*
X119225662Y-99017089D01*
X119228109Y-99014570D01*
X133832862Y-84409819D01*
X133894185Y-84376334D01*
X133920543Y-84373500D01*
X136518638Y-84373500D01*
X136518654Y-84373499D01*
X136545692Y-84370591D01*
X136579201Y-84366989D01*
X136716204Y-84315889D01*
X136833261Y-84228261D01*
X136920889Y-84111204D01*
X136971989Y-83974201D01*
X136975591Y-83940692D01*
X136978499Y-83913654D01*
X136978500Y-83913637D01*
X136978500Y-81406358D01*
X136978499Y-81406345D01*
X136975157Y-81375270D01*
X136971989Y-81345799D01*
X136967649Y-81334164D01*
X136937881Y-81254353D01*
X136920889Y-81208796D01*
X136833261Y-81091739D01*
X136716204Y-81004111D01*
X136669425Y-80986663D01*
X136579203Y-80953011D01*
X136518654Y-80946500D01*
X136518638Y-80946500D01*
X132401362Y-80946500D01*
X132401345Y-80946500D01*
X132340797Y-80953011D01*
X132340795Y-80953011D01*
X132203795Y-81004111D01*
X132086739Y-81091739D01*
X131999111Y-81208795D01*
X131949851Y-81340862D01*
X131907979Y-81396795D01*
X131842514Y-81421211D01*
X131774242Y-81406358D01*
X131745989Y-81385208D01*
X130294819Y-79934038D01*
X130261334Y-79872715D01*
X130258500Y-79846357D01*
X130258500Y-76359574D01*
X130278185Y-76292535D01*
X130330989Y-76246780D01*
X130369245Y-76236285D01*
X130409201Y-76231989D01*
X130409204Y-76231988D01*
X130433033Y-76223100D01*
X130546204Y-76180889D01*
X130663261Y-76093261D01*
X130750889Y-75976204D01*
X130801989Y-75839201D01*
X130807423Y-75788660D01*
X130808499Y-75778654D01*
X130808500Y-75778637D01*
X130808500Y-74081362D01*
X130808499Y-74081345D01*
X130805157Y-74050270D01*
X130801989Y-74020799D01*
X130750889Y-73883796D01*
X130663261Y-73766739D01*
X130546204Y-73679111D01*
X130532560Y-73674022D01*
X130409203Y-73628011D01*
X130348654Y-73621500D01*
X130348638Y-73621500D01*
X129680543Y-73621500D01*
X129613504Y-73601815D01*
X129567749Y-73549011D01*
X129557805Y-73479853D01*
X129586830Y-73416297D01*
X129592862Y-73409819D01*
X129817862Y-73184819D01*
X129879185Y-73151334D01*
X129905543Y-73148500D01*
X137345563Y-73148500D01*
X137412602Y-73168185D01*
X137447136Y-73201374D01*
X137453023Y-73209781D01*
X137610219Y-73366977D01*
X137771422Y-73479853D01*
X137792323Y-73494488D01*
X137906261Y-73547618D01*
X137958700Y-73593790D01*
X137977852Y-73660984D01*
X137957636Y-73727865D01*
X137906261Y-73772382D01*
X137792323Y-73825512D01*
X137792319Y-73825514D01*
X137610217Y-73953023D01*
X137453023Y-74110217D01*
X137325514Y-74292319D01*
X137325512Y-74292323D01*
X137231561Y-74493800D01*
X137174022Y-74708535D01*
X137174021Y-74708542D01*
X137154647Y-74929997D01*
X137154647Y-74930002D01*
X137174021Y-75151457D01*
X137174022Y-75151465D01*
X137231558Y-75366191D01*
X137231559Y-75366193D01*
X137231560Y-75366196D01*
X137277716Y-75465177D01*
X137325511Y-75567676D01*
X137325512Y-75567677D01*
X137453023Y-75749781D01*
X137610219Y-75906977D01*
X137792323Y-76034488D01*
X137993804Y-76128440D01*
X138208537Y-76185978D01*
X138366724Y-76199817D01*
X138429998Y-76205353D01*
X138430000Y-76205353D01*
X138430002Y-76205353D01*
X138485365Y-76200509D01*
X138651463Y-76185978D01*
X138866196Y-76128440D01*
X139067677Y-76034488D01*
X139249781Y-75906977D01*
X139406977Y-75749781D01*
X139534488Y-75567677D01*
X139628440Y-75366196D01*
X139685978Y-75151463D01*
X139703134Y-74955362D01*
X139705353Y-74930002D01*
X139705353Y-74929997D01*
X139685978Y-74708542D01*
X139685978Y-74708537D01*
X139628440Y-74493804D01*
X139534488Y-74292324D01*
X139534486Y-74292321D01*
X139534485Y-74292319D01*
X139406978Y-74110220D01*
X139356464Y-74059706D01*
X139249781Y-73953023D01*
X139067677Y-73825512D01*
X138953738Y-73772381D01*
X138901299Y-73726210D01*
X138882147Y-73659017D01*
X138902363Y-73592135D01*
X138953739Y-73547618D01*
X139067677Y-73494488D01*
X139249781Y-73366977D01*
X139406977Y-73209781D01*
X139534488Y-73027677D01*
X139628440Y-72826196D01*
X139685978Y-72611463D01*
X139705353Y-72390000D01*
X139685978Y-72168537D01*
X139628440Y-71953804D01*
X139534488Y-71752324D01*
X139534486Y-71752321D01*
X139534485Y-71752319D01*
X139406978Y-71570220D01*
X139354726Y-71517968D01*
X139249781Y-71413023D01*
X139076434Y-71291644D01*
X139032811Y-71237069D01*
X139025619Y-71167570D01*
X139057141Y-71105216D01*
X139115468Y-71070296D01*
X139131524Y-71065994D01*
X139245389Y-71007977D01*
X139298122Y-70981109D01*
X139298123Y-70981107D01*
X139298125Y-70981107D01*
X139443436Y-70863436D01*
X139561107Y-70718125D01*
X139563727Y-70712984D01*
X139590860Y-70659731D01*
X139645994Y-70551524D01*
X139694388Y-70370915D01*
X139700500Y-70293258D01*
X139700500Y-69406742D01*
X139694388Y-69329085D01*
X139645994Y-69148476D01*
X139608432Y-69074756D01*
X139561109Y-68981877D01*
X139528679Y-68941830D01*
X139443436Y-68836564D01*
X139324720Y-68740429D01*
X139298122Y-68718890D01*
X139131522Y-68634005D01*
X138950912Y-68585611D01*
X138873263Y-68579500D01*
X138873258Y-68579500D01*
X137986742Y-68579500D01*
X137986736Y-68579500D01*
X137909087Y-68585611D01*
X137909086Y-68585611D01*
X137728477Y-68634005D01*
X137561877Y-68718890D01*
X137416564Y-68836564D01*
X137298890Y-68981877D01*
X137242122Y-69093294D01*
X137194148Y-69144091D01*
X137131637Y-69161000D01*
X130900580Y-69161000D01*
X130833541Y-69141315D01*
X130787786Y-69088511D01*
X130777842Y-69019353D01*
X130780805Y-69004906D01*
X130785598Y-68987018D01*
X130833543Y-68808087D01*
X130853498Y-68580000D01*
X130848895Y-68527393D01*
X130847796Y-68514832D01*
X130833543Y-68351913D01*
X130774284Y-68130757D01*
X130677523Y-67923251D01*
X130546198Y-67735700D01*
X130384300Y-67573802D01*
X130196749Y-67442477D01*
X130153655Y-67422382D01*
X129989249Y-67345718D01*
X129989238Y-67345714D01*
X129768089Y-67286457D01*
X129768081Y-67286456D01*
X129540002Y-67266502D01*
X129539998Y-67266502D01*
X129311918Y-67286456D01*
X129311910Y-67286457D01*
X129090761Y-67345714D01*
X129090750Y-67345718D01*
X128883254Y-67442475D01*
X128883252Y-67442476D01*
X128883251Y-67442477D01*
X128695700Y-67573802D01*
X128695698Y-67573803D01*
X128695695Y-67573806D01*
X128533806Y-67735695D01*
X128402476Y-67923252D01*
X128402475Y-67923254D01*
X128305718Y-68130750D01*
X128305714Y-68130761D01*
X128246457Y-68351910D01*
X128246456Y-68351918D01*
X128226502Y-68579998D01*
X128226502Y-68580001D01*
X128246456Y-68808081D01*
X128246457Y-68808088D01*
X128282269Y-68941739D01*
X128294401Y-68987017D01*
X128299195Y-69004906D01*
X128297532Y-69074756D01*
X128258370Y-69132619D01*
X128194141Y-69160123D01*
X128179420Y-69161000D01*
X123625043Y-69161000D01*
X123558004Y-69141315D01*
X123537362Y-69124681D01*
X123255010Y-68842329D01*
X123221525Y-68781006D01*
X123219163Y-68743844D01*
X123233498Y-68580000D01*
X123228895Y-68527393D01*
X123227796Y-68514832D01*
X123213543Y-68351913D01*
X123154284Y-68130757D01*
X123057523Y-67923251D01*
X122926198Y-67735700D01*
X122764300Y-67573802D01*
X122576749Y-67442477D01*
X122533655Y-67422382D01*
X122369249Y-67345718D01*
X122369238Y-67345714D01*
X122148089Y-67286457D01*
X122148081Y-67286456D01*
X121920002Y-67266502D01*
X121919998Y-67266502D01*
X121691918Y-67286456D01*
X121691910Y-67286457D01*
X121470761Y-67345714D01*
X121470750Y-67345718D01*
X121263254Y-67442475D01*
X121263252Y-67442476D01*
X121263251Y-67442477D01*
X121075700Y-67573802D01*
X121075698Y-67573803D01*
X121075695Y-67573806D01*
X120913806Y-67735695D01*
X120782476Y-67923252D01*
X120782475Y-67923254D01*
X120685718Y-68130750D01*
X120685714Y-68130761D01*
X120626457Y-68351910D01*
X120626456Y-68351918D01*
X120606502Y-68579998D01*
X120606502Y-68580002D01*
X120620835Y-68743841D01*
X120607068Y-68812341D01*
X120584988Y-68842329D01*
X118372329Y-71054988D01*
X118311006Y-71088473D01*
X118273841Y-71090835D01*
X118110002Y-71076502D01*
X118109998Y-71076502D01*
X117881918Y-71096456D01*
X117881910Y-71096457D01*
X117660761Y-71155714D01*
X117660750Y-71155718D01*
X117453254Y-71252475D01*
X117453252Y-71252476D01*
X117265699Y-71383803D01*
X117118162Y-71531340D01*
X117056839Y-71564824D01*
X116987147Y-71559840D01*
X116931214Y-71517968D01*
X116914300Y-71486993D01*
X116875811Y-71383803D01*
X116860889Y-71343796D01*
X116773261Y-71226739D01*
X116656204Y-71139111D01*
X116642560Y-71134022D01*
X116519203Y-71088011D01*
X116458654Y-71081500D01*
X116458638Y-71081500D01*
X114761362Y-71081500D01*
X114761345Y-71081500D01*
X114700797Y-71088011D01*
X114700795Y-71088011D01*
X114563795Y-71139111D01*
X114446738Y-71226740D01*
X114412199Y-71272878D01*
X114356265Y-71314748D01*
X114286573Y-71319732D01*
X114225252Y-71286247D01*
X113670188Y-70731183D01*
X113660287Y-70718823D01*
X113660077Y-70718998D01*
X113655101Y-70712984D01*
X113655100Y-70712982D01*
X113605415Y-70666325D01*
X113602650Y-70663645D01*
X113582866Y-70643861D01*
X113579604Y-70641331D01*
X113570719Y-70633743D01*
X113538421Y-70603414D01*
X113538419Y-70603412D01*
X113520531Y-70593578D01*
X113504270Y-70582897D01*
X113488139Y-70570384D01*
X113447475Y-70552788D01*
X113436985Y-70547649D01*
X113398160Y-70526305D01*
X113398156Y-70526304D01*
X113378387Y-70521228D01*
X113359981Y-70514926D01*
X113341244Y-70506818D01*
X113341245Y-70506818D01*
X113297483Y-70499887D01*
X113286047Y-70497519D01*
X113271293Y-70493731D01*
X113243132Y-70486500D01*
X113243130Y-70486500D01*
X113222716Y-70486500D01*
X113203317Y-70484973D01*
X113183158Y-70481780D01*
X113183157Y-70481780D01*
X113139043Y-70485950D01*
X113127374Y-70486500D01*
X113103937Y-70486500D01*
X113036898Y-70466815D01*
X112991143Y-70414011D01*
X112981199Y-70344853D01*
X112991555Y-70310095D01*
X112994284Y-70304243D01*
X113053543Y-70083087D01*
X113073498Y-69855000D01*
X113053543Y-69626913D01*
X112994284Y-69405757D01*
X112958531Y-69329085D01*
X112913813Y-69233185D01*
X112897523Y-69198251D01*
X112766198Y-69010700D01*
X112604300Y-68848802D01*
X112416749Y-68717477D01*
X112378755Y-68699760D01*
X112209249Y-68620718D01*
X112209238Y-68620714D01*
X111988089Y-68561457D01*
X111988081Y-68561456D01*
X111760002Y-68541502D01*
X111759998Y-68541502D01*
X111531918Y-68561456D01*
X111531910Y-68561457D01*
X111310761Y-68620714D01*
X111310750Y-68620718D01*
X111103254Y-68717475D01*
X111103252Y-68717476D01*
X111070472Y-68740429D01*
X110915700Y-68848802D01*
X110915698Y-68848803D01*
X110915695Y-68848806D01*
X110753806Y-69010695D01*
X110753803Y-69010698D01*
X110753802Y-69010700D01*
X110699318Y-69088511D01*
X110622476Y-69198252D01*
X110622475Y-69198254D01*
X110525718Y-69405750D01*
X110525714Y-69405761D01*
X110466457Y-69626910D01*
X110466456Y-69626918D01*
X110446502Y-69854998D01*
X110446502Y-69855001D01*
X110466456Y-70083081D01*
X110466457Y-70083089D01*
X110525714Y-70304238D01*
X110525715Y-70304240D01*
X110525716Y-70304243D01*
X110528445Y-70310095D01*
X110538937Y-70379173D01*
X110510417Y-70442957D01*
X110451941Y-70481196D01*
X110416063Y-70486500D01*
X107908352Y-70486500D01*
X107841313Y-70466815D01*
X107806779Y-70433626D01*
X107696198Y-70275700D01*
X107534300Y-70113802D01*
X107346749Y-69982477D01*
X107303655Y-69962382D01*
X107251215Y-69916210D01*
X107232063Y-69849017D01*
X107252278Y-69782136D01*
X107303655Y-69737618D01*
X107306882Y-69736112D01*
X107346749Y-69717523D01*
X107534300Y-69586198D01*
X107696198Y-69424300D01*
X107827523Y-69236749D01*
X107924284Y-69029243D01*
X107983543Y-68808087D01*
X108003498Y-68580000D01*
X107998895Y-68527393D01*
X107997796Y-68514832D01*
X107983543Y-68351913D01*
X107924284Y-68130757D01*
X107827523Y-67923251D01*
X107696198Y-67735700D01*
X107534300Y-67573802D01*
X107346749Y-67442477D01*
X107303655Y-67422382D01*
X107251215Y-67376210D01*
X107232063Y-67309017D01*
X107252278Y-67242136D01*
X107303655Y-67197618D01*
X107306882Y-67196112D01*
X107346749Y-67177523D01*
X107534300Y-67046198D01*
X107696198Y-66884300D01*
X107827523Y-66696749D01*
X107924284Y-66489243D01*
X107983543Y-66268087D01*
X108003498Y-66040000D01*
X107983543Y-65811913D01*
X107924284Y-65590757D01*
X107827523Y-65383251D01*
X107696198Y-65195700D01*
X107534300Y-65033802D01*
X107346749Y-64902477D01*
X107303655Y-64882382D01*
X107251215Y-64836210D01*
X107232063Y-64769017D01*
X107252278Y-64702136D01*
X107303655Y-64657618D01*
X107306882Y-64656112D01*
X107346749Y-64637523D01*
X107534300Y-64506198D01*
X107696198Y-64344300D01*
X107806779Y-64186374D01*
X107861354Y-64142751D01*
X107908352Y-64133500D01*
X110467931Y-64133500D01*
X110498772Y-64137397D01*
X110503064Y-64138499D01*
X110503070Y-64138500D01*
X110523484Y-64138500D01*
X110542875Y-64140025D01*
X110563043Y-64143220D01*
X110563046Y-64143219D01*
X110563307Y-64143261D01*
X110626443Y-64173189D01*
X110645484Y-64194607D01*
X110753802Y-64349300D01*
X110915700Y-64511198D01*
X111103251Y-64642523D01*
X111135623Y-64657618D01*
X111310750Y-64739281D01*
X111310752Y-64739281D01*
X111310757Y-64739284D01*
X111531913Y-64798543D01*
X111694832Y-64812796D01*
X111759998Y-64818498D01*
X111760000Y-64818498D01*
X111760002Y-64818498D01*
X111817021Y-64813509D01*
X111988087Y-64798543D01*
X112209243Y-64739284D01*
X112416749Y-64642523D01*
X112604300Y-64511198D01*
X112766198Y-64349300D01*
X112897523Y-64161749D01*
X112994284Y-63954243D01*
X113053543Y-63733087D01*
X113073498Y-63505000D01*
X113073060Y-63499998D01*
X113053543Y-63276918D01*
X113053543Y-63276913D01*
X112994284Y-63055757D01*
X112992838Y-63052657D01*
X112915473Y-62886745D01*
X112897523Y-62848251D01*
X112766198Y-62660700D01*
X112604300Y-62498802D01*
X112416749Y-62367477D01*
X112416745Y-62367475D01*
X112209249Y-62270718D01*
X112209238Y-62270714D01*
X111988089Y-62211457D01*
X111988081Y-62211456D01*
X111760002Y-62191502D01*
X111759998Y-62191502D01*
X111531918Y-62211456D01*
X111531910Y-62211457D01*
X111310761Y-62270714D01*
X111310750Y-62270718D01*
X111103254Y-62367475D01*
X111103252Y-62367476D01*
X111103251Y-62367477D01*
X110915700Y-62498802D01*
X110915698Y-62498803D01*
X110915695Y-62498806D01*
X110753802Y-62660699D01*
X110646919Y-62813343D01*
X110592342Y-62856968D01*
X110557021Y-62865668D01*
X110554050Y-62865949D01*
X110542374Y-62866500D01*
X107908352Y-62866500D01*
X107841313Y-62846815D01*
X107806779Y-62813626D01*
X107696198Y-62655700D01*
X107534300Y-62493802D01*
X107346749Y-62362477D01*
X107345702Y-62361989D01*
X107303655Y-62342382D01*
X107251215Y-62296210D01*
X107232063Y-62229017D01*
X107252278Y-62162136D01*
X107303655Y-62117618D01*
X107306882Y-62116112D01*
X107346749Y-62097523D01*
X107534300Y-61966198D01*
X107696198Y-61804300D01*
X107806779Y-61646374D01*
X107861354Y-61602751D01*
X107908352Y-61593500D01*
X112849334Y-61593500D01*
X112916373Y-61613185D01*
X112937015Y-61629819D01*
X113926010Y-62618814D01*
X113935916Y-62631178D01*
X113936126Y-62631005D01*
X113941097Y-62637013D01*
X113941100Y-62637018D01*
X113990801Y-62683690D01*
X113993565Y-62686369D01*
X114013330Y-62706134D01*
X114016604Y-62708673D01*
X114025470Y-62716247D01*
X114057778Y-62746586D01*
X114075667Y-62756420D01*
X114091933Y-62767104D01*
X114108059Y-62779613D01*
X114148716Y-62797207D01*
X114159207Y-62802346D01*
X114198040Y-62823695D01*
X114208339Y-62826339D01*
X114268375Y-62862076D01*
X114299561Y-62924600D01*
X114301500Y-62946443D01*
X114301500Y-63078654D01*
X114308011Y-63139202D01*
X114308011Y-63139204D01*
X114357512Y-63271918D01*
X114359111Y-63276204D01*
X114446739Y-63393261D01*
X114563796Y-63480889D01*
X114700799Y-63531989D01*
X114728050Y-63534918D01*
X114761345Y-63538499D01*
X114761362Y-63538500D01*
X116458638Y-63538500D01*
X116458654Y-63538499D01*
X116485692Y-63535591D01*
X116519201Y-63531989D01*
X116656204Y-63480889D01*
X116773261Y-63393261D01*
X116860889Y-63276204D01*
X116878888Y-63227946D01*
X116914300Y-63133007D01*
X116956171Y-63077073D01*
X117021636Y-63052657D01*
X117089909Y-63067509D01*
X117118162Y-63088660D01*
X117265700Y-63236198D01*
X117453251Y-63367523D01*
X117508445Y-63393260D01*
X117660750Y-63464281D01*
X117660752Y-63464281D01*
X117660757Y-63464284D01*
X117881913Y-63523543D01*
X118044832Y-63537796D01*
X118109998Y-63543498D01*
X118110000Y-63543498D01*
X118110002Y-63543498D01*
X118167139Y-63538499D01*
X118338087Y-63523543D01*
X118559243Y-63464284D01*
X118766749Y-63367523D01*
X118954300Y-63236198D01*
X119116198Y-63074300D01*
X119247523Y-62886749D01*
X119344284Y-62679243D01*
X119403543Y-62458087D01*
X119423498Y-62230000D01*
X119422908Y-62223261D01*
X119412404Y-62103193D01*
X119403543Y-62001913D01*
X119344284Y-61780757D01*
X119247523Y-61573251D01*
X119116198Y-61385700D01*
X118954300Y-61223802D01*
X118766749Y-61092477D01*
X118766745Y-61092475D01*
X118559249Y-60995718D01*
X118559238Y-60995714D01*
X118338089Y-60936457D01*
X118338081Y-60936456D01*
X118110002Y-60916502D01*
X118109998Y-60916502D01*
X117881918Y-60936456D01*
X117881910Y-60936457D01*
X117660761Y-60995714D01*
X117660750Y-60995718D01*
X117453254Y-61092475D01*
X117453252Y-61092476D01*
X117265699Y-61223803D01*
X117118162Y-61371340D01*
X117056839Y-61404824D01*
X116987147Y-61399840D01*
X116931214Y-61357968D01*
X116914300Y-61326993D01*
X116875811Y-61223803D01*
X116860889Y-61183796D01*
X116773261Y-61066739D01*
X116656204Y-60979111D01*
X116519203Y-60928011D01*
X116458654Y-60921500D01*
X116458638Y-60921500D01*
X114761362Y-60921500D01*
X114761345Y-60921500D01*
X114700797Y-60928011D01*
X114700795Y-60928011D01*
X114563795Y-60979111D01*
X114446738Y-61066740D01*
X114412199Y-61112878D01*
X114356265Y-61154748D01*
X114286573Y-61159732D01*
X114225252Y-61126247D01*
X113670188Y-60571183D01*
X113660287Y-60558823D01*
X113660077Y-60558998D01*
X113655101Y-60552984D01*
X113655100Y-60552982D01*
X113605415Y-60506325D01*
X113602650Y-60503645D01*
X113582866Y-60483861D01*
X113579604Y-60481331D01*
X113570719Y-60473743D01*
X113561458Y-60465047D01*
X113538421Y-60443414D01*
X113538419Y-60443412D01*
X113520531Y-60433578D01*
X113504270Y-60422897D01*
X113488139Y-60410384D01*
X113447475Y-60392788D01*
X113436985Y-60387649D01*
X113398160Y-60366305D01*
X113398156Y-60366304D01*
X113378387Y-60361228D01*
X113359981Y-60354926D01*
X113341244Y-60346818D01*
X113341245Y-60346818D01*
X113297483Y-60339887D01*
X113286047Y-60337519D01*
X113271293Y-60333731D01*
X113243132Y-60326500D01*
X113243130Y-60326500D01*
X113222716Y-60326500D01*
X113203317Y-60324973D01*
X113183158Y-60321780D01*
X113183157Y-60321780D01*
X113139043Y-60325950D01*
X113127374Y-60326500D01*
X107908352Y-60326500D01*
X107841313Y-60306815D01*
X107806779Y-60273626D01*
X107696198Y-60115700D01*
X107534300Y-59953802D01*
X107346749Y-59822477D01*
X107328132Y-59813796D01*
X107303655Y-59802382D01*
X107251215Y-59756210D01*
X107232063Y-59689017D01*
X107252278Y-59622136D01*
X107303655Y-59577618D01*
X107306882Y-59576112D01*
X107346749Y-59557523D01*
X107534300Y-59426198D01*
X107696198Y-59264300D01*
X107719252Y-59231374D01*
X107773829Y-59187751D01*
X107820826Y-59178500D01*
X124094457Y-59178500D01*
X124161496Y-59198185D01*
X124182138Y-59214819D01*
X125574060Y-60606741D01*
X125607545Y-60668064D01*
X125606629Y-60722286D01*
X125606793Y-60722314D01*
X125606610Y-60723408D01*
X125606586Y-60724855D01*
X125605949Y-60727368D01*
X125605948Y-60727376D01*
X125586673Y-60959994D01*
X125586673Y-60960005D01*
X125605948Y-61192622D01*
X125663251Y-61418907D01*
X125757015Y-61632668D01*
X125884686Y-61828084D01*
X126040308Y-61997133D01*
X126042780Y-61999818D01*
X126226983Y-62143190D01*
X126226985Y-62143191D01*
X126226988Y-62143193D01*
X126261992Y-62162136D01*
X126432273Y-62254287D01*
X126480129Y-62270716D01*
X126653045Y-62330079D01*
X126653047Y-62330079D01*
X126653049Y-62330080D01*
X126883288Y-62368500D01*
X126883289Y-62368500D01*
X127116711Y-62368500D01*
X127116712Y-62368500D01*
X127346951Y-62330080D01*
X127567727Y-62254287D01*
X127773017Y-62143190D01*
X127957220Y-61999818D01*
X127957231Y-61999805D01*
X127960990Y-61996347D01*
X127961714Y-61997133D01*
X128017067Y-61963861D01*
X128086905Y-61965954D01*
X128144525Y-62005472D01*
X128164602Y-62040495D01*
X128189111Y-62106205D01*
X128230981Y-62162136D01*
X128276739Y-62223261D01*
X128393796Y-62310889D01*
X128530799Y-62361989D01*
X128558050Y-62364918D01*
X128591345Y-62368499D01*
X128591362Y-62368500D01*
X130488638Y-62368500D01*
X130488654Y-62368499D01*
X130515692Y-62365591D01*
X130549201Y-62361989D01*
X130686204Y-62310889D01*
X130803261Y-62223261D01*
X130890889Y-62106204D01*
X130941989Y-61969201D01*
X130945591Y-61935692D01*
X130948499Y-61908654D01*
X130948500Y-61908637D01*
X130948500Y-60011362D01*
X130948499Y-60011345D01*
X130942312Y-59953806D01*
X130941989Y-59950799D01*
X130936259Y-59935437D01*
X130915650Y-59880182D01*
X130890889Y-59813796D01*
X130803261Y-59696739D01*
X130686204Y-59609111D01*
X130549203Y-59558011D01*
X130488654Y-59551500D01*
X130488638Y-59551500D01*
X128591362Y-59551500D01*
X128591345Y-59551500D01*
X128530797Y-59558011D01*
X128530795Y-59558011D01*
X128393795Y-59609111D01*
X128276739Y-59696739D01*
X128189111Y-59813794D01*
X128164602Y-59879504D01*
X128122729Y-59935437D01*
X128057264Y-59959852D01*
X127988992Y-59944999D01*
X127961275Y-59923342D01*
X127960990Y-59923653D01*
X127957225Y-59920187D01*
X127957220Y-59920182D01*
X127773017Y-59776810D01*
X127773015Y-59776809D01*
X127773014Y-59776808D01*
X127773011Y-59776806D01*
X127567733Y-59665716D01*
X127567730Y-59665715D01*
X127567727Y-59665713D01*
X127567721Y-59665711D01*
X127567719Y-59665710D01*
X127346954Y-59589920D01*
X127152806Y-59557523D01*
X127116712Y-59551500D01*
X126883288Y-59551500D01*
X126883287Y-59551500D01*
X126758469Y-59572327D01*
X126689104Y-59563945D01*
X126650380Y-59537699D01*
X125041804Y-57929123D01*
X125030022Y-57915490D01*
X125015472Y-57895946D01*
X125015471Y-57895945D01*
X125015469Y-57895942D01*
X125014380Y-57895028D01*
X124977059Y-57863711D01*
X124969085Y-57856404D01*
X124965102Y-57852421D01*
X124965096Y-57852416D01*
X124940512Y-57832976D01*
X124937719Y-57830701D01*
X124879642Y-57781970D01*
X124879640Y-57781968D01*
X124879635Y-57781965D01*
X124873605Y-57777999D01*
X124873630Y-57777959D01*
X124867069Y-57773779D01*
X124867045Y-57773820D01*
X124860907Y-57770034D01*
X124860906Y-57770033D01*
X124860903Y-57770032D01*
X124860899Y-57770029D01*
X124792160Y-57737974D01*
X124788916Y-57736404D01*
X124721185Y-57702389D01*
X124714401Y-57699920D01*
X124714416Y-57699876D01*
X124707071Y-57697322D01*
X124707057Y-57697367D01*
X124700205Y-57695096D01*
X124625926Y-57679758D01*
X124622408Y-57678978D01*
X124548653Y-57661499D01*
X124541482Y-57660661D01*
X124541487Y-57660612D01*
X124533757Y-57659822D01*
X124533753Y-57659870D01*
X124526562Y-57659240D01*
X124450707Y-57661448D01*
X124447101Y-57661500D01*
X107820826Y-57661500D01*
X107753787Y-57641815D01*
X107719252Y-57608625D01*
X107696198Y-57575700D01*
X107534300Y-57413802D01*
X107346749Y-57282477D01*
X107346745Y-57282475D01*
X107139249Y-57185718D01*
X107139238Y-57185714D01*
X106918089Y-57126457D01*
X106918081Y-57126456D01*
X106690002Y-57106502D01*
X106689998Y-57106502D01*
X106461918Y-57126456D01*
X106461910Y-57126457D01*
X106240761Y-57185714D01*
X106240750Y-57185718D01*
X106033254Y-57282475D01*
X106033252Y-57282476D01*
X106033251Y-57282477D01*
X105845700Y-57413802D01*
X105845698Y-57413803D01*
X105845695Y-57413806D01*
X105683806Y-57575695D01*
X105683803Y-57575698D01*
X105683802Y-57575700D01*
X105623725Y-57661499D01*
X105552476Y-57763252D01*
X105552475Y-57763254D01*
X105455718Y-57970750D01*
X105455714Y-57970761D01*
X105396457Y-58191910D01*
X105396456Y-58191918D01*
X105376502Y-58419998D01*
X105376502Y-58420001D01*
X105396456Y-58648081D01*
X105396457Y-58648089D01*
X105455714Y-58869238D01*
X105455718Y-58869249D01*
X105544306Y-59059227D01*
X105552477Y-59076749D01*
X105683802Y-59264300D01*
X105845700Y-59426198D01*
X106023220Y-59550499D01*
X106033251Y-59557523D01*
X106076345Y-59577618D01*
X106128784Y-59623791D01*
X106147936Y-59690984D01*
X106127720Y-59757865D01*
X106076345Y-59802382D01*
X106033251Y-59822476D01*
X105908126Y-59910090D01*
X105845700Y-59953802D01*
X105845698Y-59953803D01*
X105845695Y-59953806D01*
X105683806Y-60115695D01*
X105683803Y-60115698D01*
X105683802Y-60115700D01*
X105656022Y-60155374D01*
X105552476Y-60303252D01*
X105552475Y-60303254D01*
X105455718Y-60510750D01*
X105455714Y-60510761D01*
X105396457Y-60731910D01*
X105396456Y-60731918D01*
X105376502Y-60959998D01*
X105376502Y-60960001D01*
X105396456Y-61188081D01*
X105396457Y-61188089D01*
X105455714Y-61409238D01*
X105455718Y-61409249D01*
X105549180Y-61609679D01*
X105552477Y-61616749D01*
X105683802Y-61804300D01*
X105845700Y-61966198D01*
X106033251Y-62097523D01*
X106076345Y-62117618D01*
X106128784Y-62163791D01*
X106147936Y-62230984D01*
X106127720Y-62297865D01*
X106076345Y-62342382D01*
X106033251Y-62362476D01*
X105908126Y-62450090D01*
X105845700Y-62493802D01*
X105845698Y-62493803D01*
X105845695Y-62493806D01*
X105683806Y-62655695D01*
X105683803Y-62655698D01*
X105683802Y-62655700D01*
X105620163Y-62746586D01*
X105552476Y-62843252D01*
X105552475Y-62843254D01*
X105455718Y-63050750D01*
X105455714Y-63050761D01*
X105396457Y-63271910D01*
X105396456Y-63271918D01*
X105376502Y-63499998D01*
X105376502Y-63500001D01*
X105396456Y-63728081D01*
X105396457Y-63728089D01*
X105455714Y-63949238D01*
X105455718Y-63949249D01*
X105546168Y-64143220D01*
X105552477Y-64156749D01*
X105683802Y-64344300D01*
X105845700Y-64506198D01*
X106033251Y-64637523D01*
X106076345Y-64657618D01*
X106128784Y-64703791D01*
X106147936Y-64770984D01*
X106127720Y-64837865D01*
X106076345Y-64882382D01*
X106033251Y-64902476D01*
X105908126Y-64990090D01*
X105845700Y-65033802D01*
X105845698Y-65033803D01*
X105845695Y-65033806D01*
X105683806Y-65195695D01*
X105552476Y-65383252D01*
X105552475Y-65383254D01*
X105455718Y-65590750D01*
X105455714Y-65590761D01*
X105396457Y-65811910D01*
X105396456Y-65811918D01*
X105376502Y-66039998D01*
X105376502Y-66040001D01*
X105396456Y-66268081D01*
X105396457Y-66268089D01*
X105455714Y-66489238D01*
X105455718Y-66489249D01*
X105552475Y-66696745D01*
X105552477Y-66696749D01*
X105683802Y-66884300D01*
X105845700Y-67046198D01*
X106033251Y-67177523D01*
X106076345Y-67197618D01*
X106128784Y-67243791D01*
X106147936Y-67310984D01*
X106127720Y-67377865D01*
X106076345Y-67422382D01*
X106033251Y-67442476D01*
X105908126Y-67530090D01*
X105845700Y-67573802D01*
X105845698Y-67573803D01*
X105845695Y-67573806D01*
X105683806Y-67735695D01*
X105552476Y-67923252D01*
X105552475Y-67923254D01*
X105455718Y-68130750D01*
X105455714Y-68130761D01*
X105396457Y-68351910D01*
X105396456Y-68351918D01*
X105376502Y-68579998D01*
X105376502Y-68580001D01*
X105396456Y-68808081D01*
X105396457Y-68808089D01*
X105455714Y-69029238D01*
X105455718Y-69029249D01*
X105541635Y-69213499D01*
X105552477Y-69236749D01*
X105683802Y-69424300D01*
X105845700Y-69586198D01*
X106033251Y-69717523D01*
X106076345Y-69737618D01*
X106128784Y-69783791D01*
X106147936Y-69850984D01*
X106127720Y-69917865D01*
X106076345Y-69962382D01*
X106033251Y-69982476D01*
X105970775Y-70026223D01*
X105845700Y-70113802D01*
X105845698Y-70113803D01*
X105845695Y-70113806D01*
X105683806Y-70275695D01*
X105683803Y-70275698D01*
X105683802Y-70275700D01*
X105617134Y-70370912D01*
X105552476Y-70463252D01*
X105552475Y-70463254D01*
X105455718Y-70670750D01*
X105455714Y-70670761D01*
X105396457Y-70891910D01*
X105396456Y-70891918D01*
X105376502Y-71119998D01*
X105376502Y-71120001D01*
X105396456Y-71348081D01*
X105396457Y-71348089D01*
X105455714Y-71569238D01*
X105455718Y-71569249D01*
X105550815Y-71773185D01*
X105552477Y-71776749D01*
X105683802Y-71964300D01*
X105845700Y-72126198D01*
X106033251Y-72257523D01*
X106076345Y-72277618D01*
X106128784Y-72323791D01*
X106147936Y-72390984D01*
X106127720Y-72457865D01*
X106076345Y-72502382D01*
X106033251Y-72522476D01*
X105967176Y-72568743D01*
X105845700Y-72653802D01*
X105845698Y-72653803D01*
X105845695Y-72653806D01*
X105683806Y-72815695D01*
X105683803Y-72815698D01*
X105683802Y-72815700D01*
X105623725Y-72901499D01*
X105552476Y-73003252D01*
X105552475Y-73003254D01*
X105455718Y-73210750D01*
X105455714Y-73210761D01*
X105396457Y-73431910D01*
X105396456Y-73431918D01*
X105376502Y-73659998D01*
X105376502Y-73660001D01*
X105396456Y-73888081D01*
X105396457Y-73888088D01*
X105400641Y-73903703D01*
X105432017Y-74020799D01*
X105442443Y-74059706D01*
X105440780Y-74129556D01*
X105401618Y-74187419D01*
X105337389Y-74214923D01*
X105322668Y-74215800D01*
X102051743Y-74215800D01*
X101984704Y-74196115D01*
X101964062Y-74179481D01*
X100953704Y-73169123D01*
X100941922Y-73155490D01*
X100927372Y-73135946D01*
X100927371Y-73135945D01*
X100927369Y-73135942D01*
X100926280Y-73135028D01*
X100888959Y-73103711D01*
X100880985Y-73096404D01*
X100877002Y-73092421D01*
X100876996Y-73092416D01*
X100852412Y-73072976D01*
X100849619Y-73070701D01*
X100798344Y-73027677D01*
X100791540Y-73021968D01*
X100791535Y-73021965D01*
X100785505Y-73017999D01*
X100785530Y-73017959D01*
X100778969Y-73013779D01*
X100778945Y-73013820D01*
X100772807Y-73010034D01*
X100772806Y-73010033D01*
X100772803Y-73010032D01*
X100772799Y-73010029D01*
X100704060Y-72977974D01*
X100700816Y-72976404D01*
X100633085Y-72942389D01*
X100626301Y-72939920D01*
X100626316Y-72939876D01*
X100618971Y-72937322D01*
X100618957Y-72937367D01*
X100612105Y-72935096D01*
X100537826Y-72919758D01*
X100534308Y-72918978D01*
X100460553Y-72901499D01*
X100453382Y-72900661D01*
X100453387Y-72900612D01*
X100445657Y-72899822D01*
X100445653Y-72899870D01*
X100438462Y-72899240D01*
X100362607Y-72901448D01*
X100359001Y-72901500D01*
X100200826Y-72901500D01*
X100133787Y-72881815D01*
X100099252Y-72848625D01*
X100076198Y-72815700D01*
X99914300Y-72653802D01*
X99726749Y-72522477D01*
X99683655Y-72502382D01*
X99631215Y-72456210D01*
X99612063Y-72389017D01*
X99632278Y-72322136D01*
X99683655Y-72277618D01*
X99686882Y-72276112D01*
X99726749Y-72257523D01*
X99914300Y-72126198D01*
X100076198Y-71964300D01*
X100207523Y-71776749D01*
X100304284Y-71569243D01*
X100363543Y-71348087D01*
X100383498Y-71120000D01*
X100379149Y-71070296D01*
X100373697Y-71007977D01*
X100363543Y-70891913D01*
X100304284Y-70670757D01*
X100302232Y-70666357D01*
X100263314Y-70582897D01*
X100207523Y-70463251D01*
X100076198Y-70275700D01*
X99914300Y-70113802D01*
X99726749Y-69982477D01*
X99683655Y-69962382D01*
X99631215Y-69916210D01*
X99612063Y-69849017D01*
X99632278Y-69782136D01*
X99683655Y-69737618D01*
X99686882Y-69736112D01*
X99726749Y-69717523D01*
X99914300Y-69586198D01*
X100076198Y-69424300D01*
X100207523Y-69236749D01*
X100304284Y-69029243D01*
X100363543Y-68808087D01*
X100383498Y-68580000D01*
X100378895Y-68527393D01*
X100377796Y-68514832D01*
X100363543Y-68351913D01*
X100304284Y-68130757D01*
X100207523Y-67923251D01*
X100076198Y-67735700D01*
X99914300Y-67573802D01*
X99726749Y-67442477D01*
X99683655Y-67422382D01*
X99631215Y-67376210D01*
X99612063Y-67309017D01*
X99632278Y-67242136D01*
X99683655Y-67197618D01*
X99686882Y-67196112D01*
X99726749Y-67177523D01*
X99914300Y-67046198D01*
X100076198Y-66884300D01*
X100207523Y-66696749D01*
X100304284Y-66489243D01*
X100363543Y-66268087D01*
X100383498Y-66040000D01*
X100363543Y-65811913D01*
X100304284Y-65590757D01*
X100207523Y-65383251D01*
X100076198Y-65195700D01*
X99914300Y-65033802D01*
X99726749Y-64902477D01*
X99683655Y-64882382D01*
X99631215Y-64836210D01*
X99612063Y-64769017D01*
X99632278Y-64702136D01*
X99683655Y-64657618D01*
X99686882Y-64656112D01*
X99726749Y-64637523D01*
X99914300Y-64506198D01*
X100076198Y-64344300D01*
X100207523Y-64156749D01*
X100304284Y-63949243D01*
X100363543Y-63728087D01*
X100381438Y-63523542D01*
X100383498Y-63500001D01*
X100383498Y-63499998D01*
X100377796Y-63434832D01*
X100363543Y-63271913D01*
X100304284Y-63050757D01*
X100207523Y-62843251D01*
X100076198Y-62655700D01*
X99914300Y-62493802D01*
X99726749Y-62362477D01*
X99725702Y-62361989D01*
X99683655Y-62342382D01*
X99631215Y-62296210D01*
X99612063Y-62229017D01*
X99632278Y-62162136D01*
X99683655Y-62117618D01*
X99686882Y-62116112D01*
X99726749Y-62097523D01*
X99914300Y-61966198D01*
X100076198Y-61804300D01*
X100207523Y-61616749D01*
X100304284Y-61409243D01*
X100363543Y-61188087D01*
X100383498Y-60960000D01*
X100383497Y-60959994D01*
X100363543Y-60731918D01*
X100363543Y-60731913D01*
X100304284Y-60510757D01*
X100299175Y-60499802D01*
X100288685Y-60430726D01*
X100317206Y-60366942D01*
X100375682Y-60328703D01*
X100411559Y-60323400D01*
X102004266Y-60323400D01*
X102020013Y-60325138D01*
X102020039Y-60324868D01*
X102027805Y-60325601D01*
X102027809Y-60325602D01*
X102095917Y-60323460D01*
X102099813Y-60323400D01*
X102127758Y-60323400D01*
X102127760Y-60323399D01*
X102129162Y-60323222D01*
X102131849Y-60322883D01*
X102143508Y-60321964D01*
X102187789Y-60320573D01*
X102207381Y-60314880D01*
X102226438Y-60310932D01*
X102246697Y-60308374D01*
X102287906Y-60292057D01*
X102298943Y-60288279D01*
X102341493Y-60275918D01*
X102359065Y-60265525D01*
X102376532Y-60256968D01*
X102395517Y-60249452D01*
X102431361Y-60223408D01*
X102441130Y-60216992D01*
X102479262Y-60194442D01*
X102493702Y-60180000D01*
X102508492Y-60167370D01*
X102525007Y-60155372D01*
X102553259Y-60121219D01*
X102561103Y-60112599D01*
X106118885Y-56554819D01*
X106180208Y-56521334D01*
X106206566Y-56518500D01*
X110541648Y-56518500D01*
X110608687Y-56538185D01*
X110643220Y-56571373D01*
X110753802Y-56729300D01*
X110915700Y-56891198D01*
X111103251Y-57022523D01*
X111164872Y-57051257D01*
X111310750Y-57119281D01*
X111310752Y-57119281D01*
X111310757Y-57119284D01*
X111531913Y-57178543D01*
X111694832Y-57192796D01*
X111759998Y-57198498D01*
X111760000Y-57198498D01*
X111760002Y-57198498D01*
X111817021Y-57193509D01*
X111988087Y-57178543D01*
X112209243Y-57119284D01*
X112308708Y-57072903D01*
X137295793Y-57072903D01*
X137305672Y-57380970D01*
X137305672Y-57380975D01*
X137305673Y-57380978D01*
X137354867Y-57685261D01*
X137399137Y-57834419D01*
X137442571Y-57980763D01*
X137536044Y-58191918D01*
X137567337Y-58262609D01*
X137727123Y-58526193D01*
X137727127Y-58526198D01*
X137727133Y-58526207D01*
X137919297Y-58767174D01*
X137919299Y-58767176D01*
X137919303Y-58767180D01*
X137919304Y-58767181D01*
X138140724Y-58981614D01*
X138285803Y-59089889D01*
X138387741Y-59165968D01*
X138387743Y-59165969D01*
X138387747Y-59165972D01*
X138656318Y-59317228D01*
X138797057Y-59374207D01*
X138942018Y-59432897D01*
X138942023Y-59432898D01*
X138942025Y-59432899D01*
X139240179Y-59511084D01*
X139545883Y-59550500D01*
X139545890Y-59550500D01*
X139776971Y-59550500D01*
X139776974Y-59550500D01*
X139776978Y-59550499D01*
X139776996Y-59550499D01*
X139879700Y-59543904D01*
X140007601Y-59535693D01*
X140310151Y-59476772D01*
X140602683Y-59379644D01*
X140602689Y-59379640D01*
X140602693Y-59379640D01*
X140836175Y-59267201D01*
X140880393Y-59245907D01*
X141138720Y-59077754D01*
X141373424Y-58877948D01*
X141580650Y-58649769D01*
X141756996Y-58396963D01*
X141899567Y-58123683D01*
X142006020Y-57834415D01*
X142074609Y-57533908D01*
X142104206Y-57227098D01*
X142094327Y-56919022D01*
X142045133Y-56614739D01*
X141957431Y-56319244D01*
X141957429Y-56319239D01*
X141957428Y-56319236D01*
X141832666Y-56037398D01*
X141832663Y-56037391D01*
X141672877Y-55773807D01*
X141672870Y-55773799D01*
X141672866Y-55773792D01*
X141480702Y-55532825D01*
X141480700Y-55532823D01*
X141403611Y-55458167D01*
X141259276Y-55318386D01*
X141098806Y-55198624D01*
X141012258Y-55134031D01*
X140974230Y-55112614D01*
X140743682Y-54982772D01*
X140706383Y-54967671D01*
X140457981Y-54867102D01*
X140290660Y-54823226D01*
X140159821Y-54788916D01*
X139854117Y-54749500D01*
X139623026Y-54749500D01*
X139623003Y-54749500D01*
X139392406Y-54764306D01*
X139392389Y-54764308D01*
X139089854Y-54823226D01*
X139089849Y-54823228D01*
X138797310Y-54920358D01*
X138797306Y-54920359D01*
X138519613Y-55054089D01*
X138519605Y-55054094D01*
X138261286Y-55222241D01*
X138261276Y-55222248D01*
X138026581Y-55422046D01*
X138026571Y-55422056D01*
X137819354Y-55650225D01*
X137819350Y-55650229D01*
X137643005Y-55903033D01*
X137643003Y-55903037D01*
X137500432Y-56176319D01*
X137500429Y-56176326D01*
X137393981Y-56465580D01*
X137393979Y-56465590D01*
X137325391Y-56766089D01*
X137295794Y-57072902D01*
X137295793Y-57072903D01*
X112308708Y-57072903D01*
X112416749Y-57022523D01*
X112604300Y-56891198D01*
X112766198Y-56729300D01*
X112897523Y-56541749D01*
X112994284Y-56334243D01*
X113053543Y-56113087D01*
X113073498Y-55885000D01*
X113053543Y-55656913D01*
X112994284Y-55435757D01*
X112987893Y-55422052D01*
X112930994Y-55300030D01*
X112897523Y-55228251D01*
X112766198Y-55040700D01*
X112604300Y-54878802D01*
X112416749Y-54747477D01*
X112416745Y-54747475D01*
X112209249Y-54650718D01*
X112209238Y-54650714D01*
X111988089Y-54591457D01*
X111988081Y-54591456D01*
X111760002Y-54571502D01*
X111759998Y-54571502D01*
X111531918Y-54591456D01*
X111531910Y-54591457D01*
X111310761Y-54650714D01*
X111310750Y-54650718D01*
X111103254Y-54747475D01*
X111103252Y-54747476D01*
X111079215Y-54764307D01*
X110915700Y-54878802D01*
X110915698Y-54878803D01*
X110915695Y-54878806D01*
X110753806Y-55040695D01*
X110753803Y-55040698D01*
X110753802Y-55040700D01*
X110643220Y-55198625D01*
X110588646Y-55242249D01*
X110541648Y-55251500D01*
X105976434Y-55251500D01*
X105960686Y-55249761D01*
X105960661Y-55250032D01*
X105952894Y-55249298D01*
X105952891Y-55249298D01*
X105884783Y-55251439D01*
X105880887Y-55251500D01*
X105852936Y-55251500D01*
X105848840Y-55252018D01*
X105837202Y-55252934D01*
X105792911Y-55254326D01*
X105792908Y-55254327D01*
X105773305Y-55260022D01*
X105754259Y-55263966D01*
X105734003Y-55266526D01*
X105734001Y-55266526D01*
X105733999Y-55266527D01*
X105692798Y-55282839D01*
X105681751Y-55286621D01*
X105639206Y-55298982D01*
X105621633Y-55309374D01*
X105604170Y-55317929D01*
X105585185Y-55325446D01*
X105585184Y-55325447D01*
X105549343Y-55351487D01*
X105539581Y-55357899D01*
X105501437Y-55380458D01*
X105486996Y-55394898D01*
X105472208Y-55407527D01*
X105455697Y-55419523D01*
X105455692Y-55419528D01*
X105427452Y-55453663D01*
X105419592Y-55462301D01*
X101861814Y-59020081D01*
X101800491Y-59053566D01*
X101774133Y-59056400D01*
X100502500Y-59056400D01*
X100435461Y-59036715D01*
X100389706Y-58983911D01*
X100378500Y-58932400D01*
X100378500Y-57571362D01*
X100378499Y-57571345D01*
X100375157Y-57540270D01*
X100371989Y-57510799D01*
X100320889Y-57373796D01*
X100233261Y-57256739D01*
X100116204Y-57169111D01*
X99979203Y-57118011D01*
X99918654Y-57111500D01*
X99918638Y-57111500D01*
X98221362Y-57111500D01*
X98221345Y-57111500D01*
X98160797Y-57118011D01*
X98160795Y-57118011D01*
X98023795Y-57169111D01*
X97906739Y-57256739D01*
X97819111Y-57373795D01*
X97768011Y-57510795D01*
X97768011Y-57510797D01*
X97761500Y-57571345D01*
X97761500Y-57662500D01*
X97741815Y-57729539D01*
X97689011Y-57775294D01*
X97637500Y-57786500D01*
X90332500Y-57786500D01*
X90265461Y-57766815D01*
X90219706Y-57714011D01*
X90208500Y-57662500D01*
X90208500Y-57571362D01*
X90208499Y-57571345D01*
X90205157Y-57540270D01*
X90201989Y-57510799D01*
X90150889Y-57373796D01*
X90063261Y-57256739D01*
X89946204Y-57169111D01*
X89809203Y-57118011D01*
X89748654Y-57111500D01*
X89748638Y-57111500D01*
X88051362Y-57111500D01*
X88051345Y-57111500D01*
X87990797Y-57118011D01*
X87990795Y-57118011D01*
X87853795Y-57169111D01*
X87736739Y-57256739D01*
X87649111Y-57373795D01*
X87595699Y-57516993D01*
X87553827Y-57572926D01*
X87488362Y-57597342D01*
X87420090Y-57582489D01*
X87391837Y-57561339D01*
X87244304Y-57413806D01*
X87244300Y-57413802D01*
X87056749Y-57282477D01*
X87056745Y-57282475D01*
X86849249Y-57185718D01*
X86849238Y-57185714D01*
X86628089Y-57126457D01*
X86628081Y-57126456D01*
X86400002Y-57106502D01*
X86399998Y-57106502D01*
X86171918Y-57126456D01*
X86171910Y-57126457D01*
X85950761Y-57185714D01*
X85950750Y-57185718D01*
X85743254Y-57282475D01*
X85743252Y-57282476D01*
X85743251Y-57282477D01*
X85555700Y-57413802D01*
X85555698Y-57413803D01*
X85555695Y-57413806D01*
X85393806Y-57575695D01*
X85393803Y-57575698D01*
X85393802Y-57575700D01*
X85333725Y-57661499D01*
X85262476Y-57763252D01*
X85262475Y-57763254D01*
X85165718Y-57970750D01*
X85165714Y-57970761D01*
X85106457Y-58191910D01*
X85106456Y-58191918D01*
X85086502Y-58419998D01*
X85086502Y-58420001D01*
X85106456Y-58648081D01*
X85106457Y-58648089D01*
X85165714Y-58869238D01*
X85165718Y-58869249D01*
X85254306Y-59059227D01*
X85262477Y-59076749D01*
X85393802Y-59264300D01*
X85555700Y-59426198D01*
X85743251Y-59557523D01*
X85782731Y-59575932D01*
X85797046Y-59582608D01*
X85849486Y-59628780D01*
X85868638Y-59695973D01*
X85848422Y-59762855D01*
X85832323Y-59782671D01*
X85364814Y-60250181D01*
X85303491Y-60283666D01*
X85277133Y-60286500D01*
X82615680Y-60286500D01*
X82548641Y-60266815D01*
X82511871Y-60230321D01*
X82395313Y-60051915D01*
X82237223Y-59880185D01*
X82237222Y-59880184D01*
X82237220Y-59880182D01*
X82092899Y-59767851D01*
X82052088Y-59711143D01*
X82048413Y-59641370D01*
X82083045Y-59580687D01*
X82092893Y-59572152D01*
X82237220Y-59459818D01*
X82395314Y-59288083D01*
X82522984Y-59092669D01*
X82616749Y-58878907D01*
X82674051Y-58652626D01*
X82693327Y-58420000D01*
X82691418Y-58396966D01*
X82674052Y-58187382D01*
X82674050Y-58187370D01*
X82637694Y-58043804D01*
X82640319Y-57973984D01*
X82670217Y-57925685D01*
X84041085Y-56554819D01*
X84102408Y-56521334D01*
X84128766Y-56518500D01*
X92761648Y-56518500D01*
X92828687Y-56538185D01*
X92863220Y-56571373D01*
X92973802Y-56729300D01*
X93135700Y-56891198D01*
X93323251Y-57022523D01*
X93384872Y-57051257D01*
X93530750Y-57119281D01*
X93530752Y-57119281D01*
X93530757Y-57119284D01*
X93751913Y-57178543D01*
X93914832Y-57192796D01*
X93979998Y-57198498D01*
X93980000Y-57198498D01*
X93980002Y-57198498D01*
X94037021Y-57193509D01*
X94208087Y-57178543D01*
X94429243Y-57119284D01*
X94636749Y-57022523D01*
X94824300Y-56891198D01*
X94986198Y-56729300D01*
X95117523Y-56541749D01*
X95214284Y-56334243D01*
X95273543Y-56113087D01*
X95293498Y-55885000D01*
X95273543Y-55656913D01*
X95214284Y-55435757D01*
X95207893Y-55422052D01*
X95150994Y-55300030D01*
X95117523Y-55228251D01*
X94986198Y-55040700D01*
X94824300Y-54878802D01*
X94636749Y-54747477D01*
X94636745Y-54747475D01*
X94429249Y-54650718D01*
X94429238Y-54650714D01*
X94208089Y-54591457D01*
X94208081Y-54591456D01*
X93980002Y-54571502D01*
X93979998Y-54571502D01*
X93751918Y-54591456D01*
X93751910Y-54591457D01*
X93530761Y-54650714D01*
X93530750Y-54650718D01*
X93323254Y-54747475D01*
X93323252Y-54747476D01*
X93299215Y-54764307D01*
X93135700Y-54878802D01*
X93135698Y-54878803D01*
X93135695Y-54878806D01*
X92973806Y-55040695D01*
X92973803Y-55040698D01*
X92973802Y-55040700D01*
X92863220Y-55198625D01*
X92808646Y-55242249D01*
X92761648Y-55251500D01*
X83898629Y-55251500D01*
X83882886Y-55249761D01*
X83882861Y-55250033D01*
X83875093Y-55249298D01*
X83807001Y-55251439D01*
X83803106Y-55251500D01*
X83775143Y-55251500D01*
X83771031Y-55252019D01*
X83759402Y-55252934D01*
X83715111Y-55254326D01*
X83715108Y-55254327D01*
X83695505Y-55260022D01*
X83676459Y-55263966D01*
X83656203Y-55266526D01*
X83656201Y-55266526D01*
X83615007Y-55282835D01*
X83603964Y-55286616D01*
X83561404Y-55298982D01*
X83561403Y-55298983D01*
X83543824Y-55309378D01*
X83526364Y-55317932D01*
X83507384Y-55325447D01*
X83507382Y-55325448D01*
X83471545Y-55351485D01*
X83461785Y-55357896D01*
X83423638Y-55380456D01*
X83409196Y-55394898D01*
X83394408Y-55407527D01*
X83377897Y-55419523D01*
X83377892Y-55419528D01*
X83349652Y-55453663D01*
X83341792Y-55462301D01*
X82900181Y-55903913D01*
X82838858Y-55937398D01*
X82769167Y-55932414D01*
X82713233Y-55890543D01*
X82688816Y-55825078D01*
X82688500Y-55816232D01*
X82688500Y-55414410D01*
X82688500Y-55414404D01*
X82678331Y-55300030D01*
X82624704Y-55112611D01*
X82534448Y-54939824D01*
X82475150Y-54867101D01*
X82411257Y-54788742D01*
X82260176Y-54665552D01*
X82087385Y-54575294D01*
X81975089Y-54543163D01*
X81899970Y-54521669D01*
X81899967Y-54521668D01*
X81899965Y-54521668D01*
X81830237Y-54515469D01*
X81785596Y-54511500D01*
X80774404Y-54511500D01*
X80740923Y-54514476D01*
X80660034Y-54521668D01*
X80660031Y-54521668D01*
X80660030Y-54521669D01*
X80622470Y-54532416D01*
X80472614Y-54575294D01*
X80299823Y-54665552D01*
X80148742Y-54788742D01*
X80025552Y-54939823D01*
X79935294Y-55112614D01*
X79881669Y-55300031D01*
X79881668Y-55300034D01*
X79879409Y-55325446D01*
X79872112Y-55407527D01*
X79871500Y-55414407D01*
X79871500Y-56425592D01*
X79881668Y-56539965D01*
X79881668Y-56539967D01*
X79881669Y-56539970D01*
X79903063Y-56614739D01*
X79935294Y-56727385D01*
X80025552Y-56900176D01*
X80148742Y-57051257D01*
X80216495Y-57106502D01*
X80299824Y-57174448D01*
X80300783Y-57174948D01*
X80301212Y-57175362D01*
X80305073Y-57177907D01*
X80304598Y-57178626D01*
X80351088Y-57223434D01*
X80367195Y-57291422D01*
X80343988Y-57357325D01*
X80325957Y-57376055D01*
X80326556Y-57376706D01*
X80322776Y-57380185D01*
X80164686Y-57551915D01*
X80037015Y-57747331D01*
X79943251Y-57961092D01*
X79885948Y-58187377D01*
X79866673Y-58419994D01*
X79866673Y-58420005D01*
X79885948Y-58652622D01*
X79943251Y-58878907D01*
X80037015Y-59092668D01*
X80164686Y-59288084D01*
X80322776Y-59459814D01*
X80322781Y-59459819D01*
X80467099Y-59572147D01*
X80507912Y-59628857D01*
X80511585Y-59698631D01*
X80476954Y-59759314D01*
X80467099Y-59767853D01*
X80322781Y-59880180D01*
X80322776Y-59880185D01*
X80164686Y-60051915D01*
X80037015Y-60247331D01*
X79943251Y-60461092D01*
X79885948Y-60687377D01*
X79866673Y-60919994D01*
X79866673Y-60920005D01*
X79885948Y-61152622D01*
X79943251Y-61378907D01*
X80037015Y-61592668D01*
X80164686Y-61788084D01*
X80322776Y-61959814D01*
X80322780Y-61959818D01*
X80506983Y-62103190D01*
X80506985Y-62103191D01*
X80506988Y-62103193D01*
X80580902Y-62143193D01*
X80712273Y-62214287D01*
X80826914Y-62253643D01*
X80933045Y-62290079D01*
X80933047Y-62290079D01*
X80933049Y-62290080D01*
X81163288Y-62328500D01*
X81163289Y-62328500D01*
X81396711Y-62328500D01*
X81396712Y-62328500D01*
X81626951Y-62290080D01*
X81847727Y-62214287D01*
X82053017Y-62103190D01*
X82237220Y-61959818D01*
X82395314Y-61788083D01*
X82496851Y-61632669D01*
X82511871Y-61609679D01*
X82565017Y-61564322D01*
X82615680Y-61553500D01*
X85507266Y-61553500D01*
X85523013Y-61555238D01*
X85523039Y-61554968D01*
X85530805Y-61555701D01*
X85530809Y-61555702D01*
X85598917Y-61553560D01*
X85602813Y-61553500D01*
X85630758Y-61553500D01*
X85630760Y-61553499D01*
X85632162Y-61553322D01*
X85634849Y-61552983D01*
X85646508Y-61552064D01*
X85690789Y-61550673D01*
X85710381Y-61544980D01*
X85729438Y-61541032D01*
X85749697Y-61538474D01*
X85790906Y-61522157D01*
X85801943Y-61518379D01*
X85844493Y-61506018D01*
X85862065Y-61495625D01*
X85879532Y-61487068D01*
X85898517Y-61479552D01*
X85934361Y-61453508D01*
X85944130Y-61447092D01*
X85982262Y-61424542D01*
X85996702Y-61410100D01*
X86011492Y-61397470D01*
X86028007Y-61385472D01*
X86056259Y-61351319D01*
X86064103Y-61342699D01*
X87711912Y-59694890D01*
X87773233Y-59661407D01*
X87842925Y-59666391D01*
X87848231Y-59668813D01*
X87853795Y-59670888D01*
X87853796Y-59670889D01*
X87899308Y-59687864D01*
X87990792Y-59721987D01*
X87990795Y-59721987D01*
X87990799Y-59721989D01*
X88020270Y-59725157D01*
X88051345Y-59728499D01*
X88051362Y-59728500D01*
X89748638Y-59728500D01*
X89748654Y-59728499D01*
X89775692Y-59725591D01*
X89809201Y-59721989D01*
X89809207Y-59721987D01*
X89838280Y-59711143D01*
X89946204Y-59670889D01*
X90063261Y-59583261D01*
X90150889Y-59466204D01*
X90201989Y-59329201D01*
X90205591Y-59295692D01*
X90208499Y-59268654D01*
X90208500Y-59268637D01*
X90208500Y-59177500D01*
X90228185Y-59110461D01*
X90280989Y-59064706D01*
X90332500Y-59053500D01*
X91793683Y-59053500D01*
X91860722Y-59073185D01*
X91906477Y-59125989D01*
X91916421Y-59195147D01*
X91889205Y-59256566D01*
X91887533Y-59258586D01*
X91879692Y-59267201D01*
X82629179Y-68517714D01*
X82616820Y-68527618D01*
X82616993Y-68527827D01*
X82610982Y-68532800D01*
X82564338Y-68582469D01*
X82561633Y-68585260D01*
X82541873Y-68605021D01*
X82541858Y-68605038D01*
X82539317Y-68608313D01*
X82531753Y-68617167D01*
X82501420Y-68649471D01*
X82501412Y-68649481D01*
X82491579Y-68667367D01*
X82480903Y-68683620D01*
X82468386Y-68699757D01*
X82468385Y-68699760D01*
X82450785Y-68740429D01*
X82445648Y-68750915D01*
X82424303Y-68789741D01*
X82424303Y-68789742D01*
X82419225Y-68809520D01*
X82412925Y-68827922D01*
X82404818Y-68846657D01*
X82397888Y-68890409D01*
X82395520Y-68901845D01*
X82384500Y-68944765D01*
X82384500Y-68965184D01*
X82382973Y-68984583D01*
X82382588Y-68987017D01*
X82379780Y-69004743D01*
X82382096Y-69029243D01*
X82383950Y-69048857D01*
X82384500Y-69060526D01*
X82384500Y-72305823D01*
X82364815Y-72372862D01*
X82312011Y-72418617D01*
X82242853Y-72428561D01*
X82203089Y-72415732D01*
X82087385Y-72355294D01*
X81971499Y-72322136D01*
X81899970Y-72301669D01*
X81899967Y-72301668D01*
X81899965Y-72301668D01*
X81830237Y-72295469D01*
X81785596Y-72291500D01*
X80774404Y-72291500D01*
X80740923Y-72294476D01*
X80660034Y-72301668D01*
X80660031Y-72301668D01*
X80660030Y-72301669D01*
X80622470Y-72312416D01*
X80472614Y-72355294D01*
X80299823Y-72445552D01*
X80148742Y-72568742D01*
X80025552Y-72719823D01*
X79935294Y-72892614D01*
X79896649Y-73027676D01*
X79883688Y-73072976D01*
X79881669Y-73080031D01*
X79881668Y-73080034D01*
X79875581Y-73148500D01*
X79871500Y-73194404D01*
X79871500Y-74205596D01*
X79872450Y-74216278D01*
X79881668Y-74319965D01*
X79881668Y-74319967D01*
X79881669Y-74319970D01*
X79898869Y-74380082D01*
X79935294Y-74507385D01*
X80025552Y-74680176D01*
X80148742Y-74831257D01*
X80175499Y-74853074D01*
X80299824Y-74954448D01*
X80300783Y-74954948D01*
X80301212Y-74955362D01*
X80305073Y-74957907D01*
X80304598Y-74958626D01*
X80351088Y-75003434D01*
X80367195Y-75071422D01*
X80343988Y-75137325D01*
X80325957Y-75156055D01*
X80326556Y-75156706D01*
X80322776Y-75160185D01*
X80164686Y-75331915D01*
X80037015Y-75527331D01*
X79943251Y-75741092D01*
X79885948Y-75967377D01*
X79866673Y-76199994D01*
X79866673Y-76200005D01*
X79885948Y-76432622D01*
X79943251Y-76658907D01*
X80037015Y-76872668D01*
X80164686Y-77068084D01*
X80322776Y-77239814D01*
X80322781Y-77239819D01*
X80467099Y-77352147D01*
X80507912Y-77408857D01*
X80511585Y-77478631D01*
X80476954Y-77539314D01*
X80467099Y-77547853D01*
X80322781Y-77660180D01*
X80322776Y-77660185D01*
X80164686Y-77831915D01*
X80037015Y-78027331D01*
X79943251Y-78241092D01*
X79885948Y-78467377D01*
X79866673Y-78699994D01*
X79866673Y-78700005D01*
X79885948Y-78932622D01*
X79943251Y-79158907D01*
X80037015Y-79372668D01*
X80164686Y-79568084D01*
X80242029Y-79652100D01*
X80322780Y-79739818D01*
X80506983Y-79883190D01*
X80506985Y-79883191D01*
X80506988Y-79883193D01*
X80533830Y-79897719D01*
X80712273Y-79994287D01*
X80785596Y-80019459D01*
X80933045Y-80070079D01*
X80933047Y-80070079D01*
X80933049Y-80070080D01*
X81163288Y-80108500D01*
X81163289Y-80108500D01*
X81396711Y-80108500D01*
X81396712Y-80108500D01*
X81626951Y-80070080D01*
X81847727Y-79994287D01*
X82053017Y-79883190D01*
X82184339Y-79780977D01*
X82249331Y-79755335D01*
X82317871Y-79768901D01*
X82368196Y-79817369D01*
X82384500Y-79878831D01*
X82384500Y-90085823D01*
X82364815Y-90152862D01*
X82312011Y-90198617D01*
X82242853Y-90208561D01*
X82203089Y-90195732D01*
X82087385Y-90135294D01*
X81975089Y-90103163D01*
X81899970Y-90081669D01*
X81899967Y-90081668D01*
X81899965Y-90081668D01*
X81830237Y-90075469D01*
X81785596Y-90071500D01*
X80774404Y-90071500D01*
X80740923Y-90074476D01*
X80660034Y-90081668D01*
X80660031Y-90081668D01*
X80660030Y-90081669D01*
X80622470Y-90092416D01*
X80472614Y-90135294D01*
X80299823Y-90225552D01*
X80148742Y-90348742D01*
X80025552Y-90499823D01*
X79935294Y-90672614D01*
X79881669Y-90860031D01*
X79881668Y-90860034D01*
X79871500Y-90974407D01*
X79871500Y-91985592D01*
X79881668Y-92099965D01*
X79881668Y-92099967D01*
X79881669Y-92099970D01*
X79898956Y-92160384D01*
X79935294Y-92287385D01*
X79935295Y-92287388D01*
X79935296Y-92287389D01*
X79990235Y-92392565D01*
X80025552Y-92460176D01*
X80148742Y-92611257D01*
X80176789Y-92634126D01*
X80299824Y-92734448D01*
X80300783Y-92734948D01*
X80301212Y-92735362D01*
X80305073Y-92737907D01*
X80304598Y-92738626D01*
X80351088Y-92783434D01*
X80367195Y-92851422D01*
X80343988Y-92917325D01*
X80325957Y-92936055D01*
X80326556Y-92936706D01*
X80322776Y-92940185D01*
X80164686Y-93111915D01*
X80037015Y-93307331D01*
X79943251Y-93521092D01*
X79885948Y-93747377D01*
X79866673Y-93979994D01*
X79866673Y-93980005D01*
X79885948Y-94212622D01*
X79943251Y-94438907D01*
X80037015Y-94652668D01*
X80164686Y-94848084D01*
X80322776Y-95019814D01*
X80322781Y-95019819D01*
X80467099Y-95132147D01*
X80507912Y-95188857D01*
X80511585Y-95258631D01*
X80476954Y-95319314D01*
X80467099Y-95327853D01*
X80322781Y-95440180D01*
X80322776Y-95440185D01*
X80164686Y-95611915D01*
X80037015Y-95807331D01*
X79943251Y-96021092D01*
X79885948Y-96247377D01*
X79866673Y-96479994D01*
X79866673Y-96480005D01*
X79885948Y-96712622D01*
X79943251Y-96938907D01*
X80037015Y-97152668D01*
X80164686Y-97348084D01*
X80196911Y-97383089D01*
X80322780Y-97519818D01*
X80506983Y-97663190D01*
X80506985Y-97663191D01*
X80506988Y-97663193D01*
X80561108Y-97692481D01*
X80712273Y-97774287D01*
X80821384Y-97811745D01*
X80933045Y-97850079D01*
X80933047Y-97850079D01*
X80933049Y-97850080D01*
X81163288Y-97888500D01*
X81163289Y-97888500D01*
X81396711Y-97888500D01*
X81396712Y-97888500D01*
X81626951Y-97850080D01*
X81847727Y-97774287D01*
X82053017Y-97663190D01*
X82237220Y-97519818D01*
X82395314Y-97348083D01*
X82522984Y-97152669D01*
X82616749Y-96938907D01*
X82674051Y-96712626D01*
X82689001Y-96532204D01*
X82693327Y-96480005D01*
X82693327Y-96479994D01*
X82674052Y-96247382D01*
X82674050Y-96247370D01*
X82637694Y-96103804D01*
X82640319Y-96033984D01*
X82670217Y-95985685D01*
X83996120Y-94659782D01*
X84057442Y-94626299D01*
X84127134Y-94631283D01*
X84183067Y-94673155D01*
X84207484Y-94738619D01*
X84207800Y-94747465D01*
X84207800Y-103047032D01*
X84188115Y-103114071D01*
X84171481Y-103134713D01*
X79595479Y-107710714D01*
X79583120Y-107720618D01*
X79583293Y-107720827D01*
X79577282Y-107725800D01*
X79530638Y-107775469D01*
X79527933Y-107778260D01*
X79508173Y-107798021D01*
X79508158Y-107798038D01*
X79505617Y-107801313D01*
X79498053Y-107810167D01*
X79467720Y-107842471D01*
X79467712Y-107842481D01*
X79457879Y-107860367D01*
X79447203Y-107876620D01*
X79434686Y-107892757D01*
X79434685Y-107892760D01*
X79417085Y-107933429D01*
X79411948Y-107943915D01*
X79390603Y-107982741D01*
X79390603Y-107982742D01*
X79385525Y-108002520D01*
X79379225Y-108020922D01*
X79371118Y-108039657D01*
X79364188Y-108083409D01*
X79361820Y-108094845D01*
X79350800Y-108137765D01*
X79350800Y-108158184D01*
X79349273Y-108177583D01*
X79346080Y-108197741D01*
X79346080Y-108197742D01*
X77470000Y-108197742D01*
X77470000Y-54346092D01*
X77470597Y-54333938D01*
X77488018Y-54157056D01*
X77492757Y-54133232D01*
X77542577Y-53968994D01*
X77551875Y-53946549D01*
X77632775Y-53795195D01*
X77646272Y-53774995D01*
X77755149Y-53642328D01*
X77772328Y-53625149D01*
X77904995Y-53516272D01*
X77925195Y-53502775D01*
X78076549Y-53421875D01*
X78098994Y-53412577D01*
X78263232Y-53362757D01*
X78287056Y-53358018D01*
X78463939Y-53340597D01*
X78476093Y-53340000D01*
X142503907Y-53340000D01*
X142516061Y-53340597D01*
G37*
%TD.AperFunction*%
%TA.AperFunction,NonConductor*%
G36*
X97795480Y-60343085D02*
G01*
X97841235Y-60395889D01*
X97851179Y-60465047D01*
X97840825Y-60499800D01*
X97838393Y-60505016D01*
X97835715Y-60510759D01*
X97835714Y-60510761D01*
X97776457Y-60731910D01*
X97776456Y-60731918D01*
X97756502Y-60959998D01*
X97756502Y-60960001D01*
X97776456Y-61188081D01*
X97776457Y-61188089D01*
X97835714Y-61409238D01*
X97835718Y-61409249D01*
X97929180Y-61609679D01*
X97932477Y-61616749D01*
X98063802Y-61804300D01*
X98225700Y-61966198D01*
X98413251Y-62097523D01*
X98456345Y-62117618D01*
X98508784Y-62163791D01*
X98527936Y-62230984D01*
X98507720Y-62297865D01*
X98456345Y-62342382D01*
X98413251Y-62362476D01*
X98288126Y-62450090D01*
X98225700Y-62493802D01*
X98225698Y-62493803D01*
X98225695Y-62493806D01*
X98063806Y-62655695D01*
X98063803Y-62655698D01*
X98063802Y-62655700D01*
X98000163Y-62746586D01*
X97932476Y-62843252D01*
X97932475Y-62843254D01*
X97835718Y-63050750D01*
X97835714Y-63050761D01*
X97776457Y-63271910D01*
X97776456Y-63271918D01*
X97756502Y-63499998D01*
X97756502Y-63500001D01*
X97776456Y-63728081D01*
X97776457Y-63728089D01*
X97835714Y-63949238D01*
X97835718Y-63949249D01*
X97926168Y-64143220D01*
X97932477Y-64156749D01*
X98063802Y-64344300D01*
X98225700Y-64506198D01*
X98413251Y-64637523D01*
X98456345Y-64657618D01*
X98508784Y-64703791D01*
X98527936Y-64770984D01*
X98507720Y-64837865D01*
X98456345Y-64882382D01*
X98413251Y-64902476D01*
X98288126Y-64990090D01*
X98225700Y-65033802D01*
X98225698Y-65033803D01*
X98225695Y-65033806D01*
X98063806Y-65195695D01*
X97932476Y-65383252D01*
X97932475Y-65383254D01*
X97835718Y-65590750D01*
X97835714Y-65590761D01*
X97776457Y-65811910D01*
X97776456Y-65811918D01*
X97756502Y-66039998D01*
X97756502Y-66040001D01*
X97776456Y-66268081D01*
X97776457Y-66268089D01*
X97835714Y-66489238D01*
X97835718Y-66489249D01*
X97932475Y-66696745D01*
X97932477Y-66696749D01*
X98063802Y-66884300D01*
X98225700Y-67046198D01*
X98413251Y-67177523D01*
X98456345Y-67197618D01*
X98508784Y-67243791D01*
X98527936Y-67310984D01*
X98507720Y-67377865D01*
X98456345Y-67422382D01*
X98413251Y-67442476D01*
X98288126Y-67530090D01*
X98225700Y-67573802D01*
X98225698Y-67573803D01*
X98225695Y-67573806D01*
X98063806Y-67735695D01*
X98063803Y-67735698D01*
X98063802Y-67735700D01*
X97953220Y-67893625D01*
X97898646Y-67937249D01*
X97851648Y-67946500D01*
X91660667Y-67946500D01*
X91593628Y-67926815D01*
X91572986Y-67910181D01*
X90583988Y-66921183D01*
X90574087Y-66908823D01*
X90573877Y-66908998D01*
X90568901Y-66902984D01*
X90568900Y-66902982D01*
X90519215Y-66856325D01*
X90516450Y-66853645D01*
X90496666Y-66833861D01*
X90493404Y-66831331D01*
X90484519Y-66823743D01*
X90452221Y-66793414D01*
X90452219Y-66793412D01*
X90434331Y-66783578D01*
X90418070Y-66772897D01*
X90401939Y-66760384D01*
X90361275Y-66742788D01*
X90350785Y-66737649D01*
X90311960Y-66716305D01*
X90311954Y-66716303D01*
X90301657Y-66713659D01*
X90241621Y-66677918D01*
X90210438Y-66615393D01*
X90208500Y-66593556D01*
X90208500Y-66461362D01*
X90208499Y-66461345D01*
X90205157Y-66430270D01*
X90201989Y-66400799D01*
X90150889Y-66263796D01*
X90063261Y-66146739D01*
X89946204Y-66059111D01*
X89809203Y-66008011D01*
X89748654Y-66001500D01*
X89748638Y-66001500D01*
X88051362Y-66001500D01*
X88051345Y-66001500D01*
X87990797Y-66008011D01*
X87990795Y-66008011D01*
X87853795Y-66059111D01*
X87736739Y-66146739D01*
X87649111Y-66263795D01*
X87595699Y-66406993D01*
X87553827Y-66462926D01*
X87488362Y-66487342D01*
X87420090Y-66472489D01*
X87391837Y-66451339D01*
X87244304Y-66303806D01*
X87244300Y-66303802D01*
X87056749Y-66172477D01*
X87019112Y-66154927D01*
X86966675Y-66108757D01*
X86947522Y-66041564D01*
X86967737Y-65974682D01*
X86983832Y-65954870D01*
X89433702Y-63505001D01*
X92666502Y-63505001D01*
X92686456Y-63733081D01*
X92686457Y-63733089D01*
X92745714Y-63954238D01*
X92745718Y-63954249D01*
X92840145Y-64156749D01*
X92842477Y-64161749D01*
X92973802Y-64349300D01*
X93135700Y-64511198D01*
X93323251Y-64642523D01*
X93355623Y-64657618D01*
X93530750Y-64739281D01*
X93530752Y-64739281D01*
X93530757Y-64739284D01*
X93751913Y-64798543D01*
X93914832Y-64812796D01*
X93979998Y-64818498D01*
X93980000Y-64818498D01*
X93980002Y-64818498D01*
X94037021Y-64813509D01*
X94208087Y-64798543D01*
X94429243Y-64739284D01*
X94636749Y-64642523D01*
X94824300Y-64511198D01*
X94986198Y-64349300D01*
X95117523Y-64161749D01*
X95214284Y-63954243D01*
X95273543Y-63733087D01*
X95293498Y-63505000D01*
X95293060Y-63499998D01*
X95273543Y-63276918D01*
X95273543Y-63276913D01*
X95214284Y-63055757D01*
X95212838Y-63052657D01*
X95135473Y-62886745D01*
X95117523Y-62848251D01*
X94986198Y-62660700D01*
X94824300Y-62498802D01*
X94636749Y-62367477D01*
X94636745Y-62367475D01*
X94429249Y-62270718D01*
X94429238Y-62270714D01*
X94208089Y-62211457D01*
X94208081Y-62211456D01*
X93980002Y-62191502D01*
X93979998Y-62191502D01*
X93751918Y-62211456D01*
X93751910Y-62211457D01*
X93530761Y-62270714D01*
X93530750Y-62270718D01*
X93323254Y-62367475D01*
X93323252Y-62367476D01*
X93323251Y-62367477D01*
X93135700Y-62498802D01*
X93135698Y-62498803D01*
X93135695Y-62498806D01*
X92973806Y-62660695D01*
X92973803Y-62660698D01*
X92973802Y-62660700D01*
X92913664Y-62746586D01*
X92842476Y-62848252D01*
X92842475Y-62848254D01*
X92745718Y-63055750D01*
X92745714Y-63055761D01*
X92686457Y-63276910D01*
X92686456Y-63276918D01*
X92666502Y-63504998D01*
X92666502Y-63505001D01*
X89433702Y-63505001D01*
X92578985Y-60359719D01*
X92640308Y-60326234D01*
X92666666Y-60323400D01*
X97728441Y-60323400D01*
X97795480Y-60343085D01*
G37*
%TD.AperFunction*%
%TA.AperFunction,NonConductor*%
G36*
X90284743Y-68413747D02*
G01*
X90284747Y-68413751D01*
X90839810Y-68968814D01*
X90849716Y-68981178D01*
X90849926Y-68981005D01*
X90854897Y-68987013D01*
X90854900Y-68987018D01*
X90904601Y-69033690D01*
X90907365Y-69036369D01*
X90927130Y-69056134D01*
X90930404Y-69058673D01*
X90939270Y-69066247D01*
X90971578Y-69096586D01*
X90989467Y-69106420D01*
X91005733Y-69117104D01*
X91021859Y-69129613D01*
X91062516Y-69147207D01*
X91073007Y-69152346D01*
X91111840Y-69173695D01*
X91131618Y-69178773D01*
X91150019Y-69185073D01*
X91168755Y-69193181D01*
X91212530Y-69200113D01*
X91223945Y-69202478D01*
X91266870Y-69213500D01*
X91287284Y-69213500D01*
X91306683Y-69215027D01*
X91326843Y-69218220D01*
X91370957Y-69214050D01*
X91382626Y-69213500D01*
X97851648Y-69213500D01*
X97918687Y-69233185D01*
X97953220Y-69266373D01*
X98063802Y-69424300D01*
X98225700Y-69586198D01*
X98413251Y-69717523D01*
X98456345Y-69737618D01*
X98508784Y-69783791D01*
X98527936Y-69850984D01*
X98507720Y-69917865D01*
X98456345Y-69962382D01*
X98413251Y-69982476D01*
X98350775Y-70026223D01*
X98225700Y-70113802D01*
X98225698Y-70113803D01*
X98225695Y-70113806D01*
X98063806Y-70275695D01*
X98063803Y-70275698D01*
X98063802Y-70275700D01*
X97997134Y-70370912D01*
X97932476Y-70463252D01*
X97932475Y-70463254D01*
X97835718Y-70670750D01*
X97835714Y-70670761D01*
X97776457Y-70891910D01*
X97776456Y-70891918D01*
X97756502Y-71119998D01*
X97756502Y-71120001D01*
X97776456Y-71348081D01*
X97776457Y-71348089D01*
X97835714Y-71569238D01*
X97835718Y-71569249D01*
X97930815Y-71773185D01*
X97932477Y-71776749D01*
X98063802Y-71964300D01*
X98225700Y-72126198D01*
X98413251Y-72257523D01*
X98456345Y-72277618D01*
X98508784Y-72323791D01*
X98527936Y-72390984D01*
X98507720Y-72457865D01*
X98456345Y-72502382D01*
X98413251Y-72522476D01*
X98225699Y-72653803D01*
X98117822Y-72761680D01*
X98056499Y-72795164D01*
X97986807Y-72790180D01*
X97942460Y-72761679D01*
X95207004Y-70026223D01*
X95195222Y-70012590D01*
X95180672Y-69993046D01*
X95180671Y-69993045D01*
X95180669Y-69993042D01*
X95179580Y-69992128D01*
X95142259Y-69960811D01*
X95134285Y-69953504D01*
X95130302Y-69949521D01*
X95130296Y-69949516D01*
X95105712Y-69930076D01*
X95102919Y-69927801D01*
X95044842Y-69879070D01*
X95044840Y-69879068D01*
X95044835Y-69879065D01*
X95038805Y-69875099D01*
X95038830Y-69875059D01*
X95032269Y-69870879D01*
X95032245Y-69870920D01*
X95026107Y-69867134D01*
X95026106Y-69867133D01*
X95026103Y-69867132D01*
X95026099Y-69867129D01*
X94957360Y-69835074D01*
X94954116Y-69833504D01*
X94886385Y-69799489D01*
X94879601Y-69797020D01*
X94879616Y-69796976D01*
X94872271Y-69794422D01*
X94872257Y-69794467D01*
X94865405Y-69792196D01*
X94791126Y-69776858D01*
X94787608Y-69776078D01*
X94713853Y-69758599D01*
X94706682Y-69757761D01*
X94706687Y-69757712D01*
X94698957Y-69756922D01*
X94698953Y-69756970D01*
X94691762Y-69756340D01*
X94615907Y-69758548D01*
X94612301Y-69758600D01*
X89972643Y-69758600D01*
X89905604Y-69738915D01*
X89884962Y-69722281D01*
X88992862Y-68830181D01*
X88959377Y-68768858D01*
X88964361Y-68699166D01*
X89006233Y-68643233D01*
X89071697Y-68618816D01*
X89080543Y-68618500D01*
X89748638Y-68618500D01*
X89748654Y-68618499D01*
X89775692Y-68615591D01*
X89809201Y-68611989D01*
X89946204Y-68560889D01*
X90063261Y-68473261D01*
X90097801Y-68427120D01*
X90153731Y-68385251D01*
X90223422Y-68380265D01*
X90284743Y-68413747D01*
G37*
%TD.AperFunction*%
%TA.AperFunction,NonConductor*%
G36*
X112916373Y-71773185D02*
G01*
X112937015Y-71789819D01*
X113926010Y-72778814D01*
X113935916Y-72791178D01*
X113936126Y-72791005D01*
X113941097Y-72797013D01*
X113941100Y-72797018D01*
X113990801Y-72843690D01*
X113993565Y-72846369D01*
X114013330Y-72866134D01*
X114016604Y-72868673D01*
X114025470Y-72876247D01*
X114057778Y-72906586D01*
X114075667Y-72916420D01*
X114091933Y-72927104D01*
X114108059Y-72939613D01*
X114148716Y-72957207D01*
X114159207Y-72962346D01*
X114198040Y-72983695D01*
X114208339Y-72986339D01*
X114268375Y-73022076D01*
X114299561Y-73084600D01*
X114301500Y-73106443D01*
X114301500Y-73238654D01*
X114308011Y-73299202D01*
X114308011Y-73299204D01*
X114357512Y-73431918D01*
X114359111Y-73436204D01*
X114446739Y-73553261D01*
X114563796Y-73640889D01*
X114700799Y-73691989D01*
X114728050Y-73694918D01*
X114761345Y-73698499D01*
X114761362Y-73698500D01*
X115429457Y-73698500D01*
X115496496Y-73718185D01*
X115542251Y-73770989D01*
X115552195Y-73840147D01*
X115523170Y-73903703D01*
X115517138Y-73910181D01*
X115247838Y-74179481D01*
X115186515Y-74212966D01*
X115160157Y-74215800D01*
X108057332Y-74215800D01*
X107990293Y-74196115D01*
X107944538Y-74143311D01*
X107934594Y-74074153D01*
X107937557Y-74059706D01*
X107983543Y-73888087D01*
X108003498Y-73660000D01*
X107983543Y-73431913D01*
X107924284Y-73210757D01*
X107923830Y-73209784D01*
X107836301Y-73022076D01*
X107827523Y-73003251D01*
X107696198Y-72815700D01*
X107534300Y-72653802D01*
X107346749Y-72522477D01*
X107303655Y-72502382D01*
X107251215Y-72456210D01*
X107232063Y-72389017D01*
X107252278Y-72322136D01*
X107303655Y-72277618D01*
X107306882Y-72276112D01*
X107346749Y-72257523D01*
X107534300Y-72126198D01*
X107696198Y-71964300D01*
X107806779Y-71806374D01*
X107861354Y-71762751D01*
X107908352Y-71753500D01*
X112849334Y-71753500D01*
X112916373Y-71773185D01*
G37*
%TD.AperFunction*%
%TA.AperFunction,NonConductor*%
G36*
X82317871Y-77268901D02*
G01*
X82368196Y-77317369D01*
X82384500Y-77378831D01*
X82384500Y-77521168D01*
X82364815Y-77588207D01*
X82312011Y-77633962D01*
X82242853Y-77643906D01*
X82184338Y-77619022D01*
X82111833Y-77562589D01*
X82092899Y-77547852D01*
X82052088Y-77491143D01*
X82048413Y-77421370D01*
X82083044Y-77360687D01*
X82092893Y-77352152D01*
X82184339Y-77280977D01*
X82249331Y-77255335D01*
X82317871Y-77268901D01*
G37*
%TD.AperFunction*%
%TA.AperFunction,NonConductor*%
G36*
X98639772Y-77509785D02*
G01*
X98685527Y-77562589D01*
X98695471Y-77631747D01*
X98666446Y-77695303D01*
X98660414Y-77701781D01*
X96746414Y-79615781D01*
X96685091Y-79649266D01*
X96658733Y-79652100D01*
X94814266Y-79652100D01*
X94747227Y-79632415D01*
X94701472Y-79579611D01*
X94691528Y-79510453D01*
X94720553Y-79446897D01*
X94726585Y-79440419D01*
X95605636Y-78561369D01*
X96640586Y-77526419D01*
X96701909Y-77492934D01*
X96728267Y-77490100D01*
X98572733Y-77490100D01*
X98639772Y-77509785D01*
G37*
%TD.AperFunction*%
%TA.AperFunction,NonConductor*%
G36*
X83412934Y-92845483D02*
G01*
X83468867Y-92887355D01*
X83493284Y-92952819D01*
X83493600Y-92961665D01*
X83493600Y-93319132D01*
X83473915Y-93386171D01*
X83457281Y-93406813D01*
X82897090Y-93967003D01*
X82835767Y-94000488D01*
X82766075Y-93995504D01*
X82710142Y-93953632D01*
X82685833Y-93889564D01*
X82674051Y-93747374D01*
X82637694Y-93603804D01*
X82640319Y-93533984D01*
X82670217Y-93485685D01*
X83281919Y-92873984D01*
X83343242Y-92840499D01*
X83412934Y-92845483D01*
G37*
%TD.AperFunction*%
%TA.AperFunction,NonConductor*%
G36*
X91188504Y-95903185D02*
G01*
X91234259Y-95955989D01*
X91244203Y-96025147D01*
X91216989Y-96086565D01*
X91215226Y-96088695D01*
X91207383Y-96097311D01*
X90384345Y-96920349D01*
X90323022Y-96953834D01*
X90253330Y-96948850D01*
X90197397Y-96906978D01*
X90176887Y-96864754D01*
X90176239Y-96862335D01*
X90177906Y-96792485D01*
X90208333Y-96742570D01*
X91031086Y-95919819D01*
X91092409Y-95886334D01*
X91118767Y-95883500D01*
X91121465Y-95883500D01*
X91188504Y-95903185D01*
G37*
%TD.AperFunction*%
%TA.AperFunction,NonConductor*%
G36*
X85175880Y-67865337D02*
G01*
X85231813Y-67907209D01*
X85244928Y-67929115D01*
X85262477Y-67966749D01*
X85393802Y-68154300D01*
X85555700Y-68316198D01*
X85743251Y-68447523D01*
X85798445Y-68473260D01*
X85950750Y-68544281D01*
X85950752Y-68544281D01*
X85950757Y-68544284D01*
X86171913Y-68603543D01*
X86327636Y-68617167D01*
X86399998Y-68623498D01*
X86400000Y-68623498D01*
X86400001Y-68623498D01*
X86418825Y-68621850D01*
X86563842Y-68609163D01*
X86632340Y-68622929D01*
X86662329Y-68645010D01*
X89025296Y-71007977D01*
X89037077Y-71021609D01*
X89051631Y-71041158D01*
X89090045Y-71073391D01*
X89098008Y-71080689D01*
X89102000Y-71084681D01*
X89126585Y-71104121D01*
X89129379Y-71106397D01*
X89145591Y-71120000D01*
X89187460Y-71155132D01*
X89187462Y-71155133D01*
X89193496Y-71159102D01*
X89193469Y-71159142D01*
X89200017Y-71163314D01*
X89200043Y-71163273D01*
X89206190Y-71167064D01*
X89206194Y-71167067D01*
X89211425Y-71169506D01*
X89274918Y-71199113D01*
X89278166Y-71200685D01*
X89345914Y-71234710D01*
X89352695Y-71237178D01*
X89352678Y-71237223D01*
X89360016Y-71239774D01*
X89360032Y-71239729D01*
X89366888Y-71242000D01*
X89366889Y-71242000D01*
X89366893Y-71242002D01*
X89441201Y-71257344D01*
X89444664Y-71258112D01*
X89518444Y-71275600D01*
X89518446Y-71275600D01*
X89525617Y-71276439D01*
X89525611Y-71276486D01*
X89533342Y-71277276D01*
X89533347Y-71277229D01*
X89540537Y-71277858D01*
X89540541Y-71277857D01*
X89540542Y-71277858D01*
X89616358Y-71275652D01*
X89619964Y-71275600D01*
X94259657Y-71275600D01*
X94326696Y-71295285D01*
X94347338Y-71311919D01*
X95183275Y-72147856D01*
X95216760Y-72209179D01*
X95211776Y-72278871D01*
X95169904Y-72334804D01*
X95106402Y-72359065D01*
X95021917Y-72366456D01*
X95021910Y-72366457D01*
X94800761Y-72425714D01*
X94800750Y-72425718D01*
X94593254Y-72522475D01*
X94593252Y-72522476D01*
X94593251Y-72522477D01*
X94405700Y-72653802D01*
X94405698Y-72653803D01*
X94405695Y-72653806D01*
X94243806Y-72815695D01*
X94243803Y-72815698D01*
X94243802Y-72815700D01*
X94183725Y-72901499D01*
X94112476Y-73003252D01*
X94112475Y-73003254D01*
X94015718Y-73210750D01*
X94015714Y-73210761D01*
X93956457Y-73431910D01*
X93956456Y-73431918D01*
X93936502Y-73659998D01*
X93936502Y-73660001D01*
X93956456Y-73888081D01*
X93956457Y-73888089D01*
X94015714Y-74109238D01*
X94015718Y-74109249D01*
X94112475Y-74316745D01*
X94112477Y-74316749D01*
X94243802Y-74504300D01*
X94405700Y-74666198D01*
X94593251Y-74797523D01*
X94712381Y-74853074D01*
X94800750Y-74894281D01*
X94800752Y-74894281D01*
X94800757Y-74894284D01*
X95021913Y-74953543D01*
X95184832Y-74967796D01*
X95249998Y-74973498D01*
X95250000Y-74973498D01*
X95250002Y-74973498D01*
X95307021Y-74968509D01*
X95478087Y-74953543D01*
X95699243Y-74894284D01*
X95906749Y-74797523D01*
X96094300Y-74666198D01*
X96256198Y-74504300D01*
X96387523Y-74316749D01*
X96484284Y-74109243D01*
X96543543Y-73888087D01*
X96550934Y-73803596D01*
X96576386Y-73738530D01*
X96632976Y-73697551D01*
X96702738Y-73693672D01*
X96762143Y-73726724D01*
X97186296Y-74150877D01*
X97198078Y-74164510D01*
X97209223Y-74179481D01*
X97212631Y-74184058D01*
X97251035Y-74216283D01*
X97259001Y-74223582D01*
X97263000Y-74227581D01*
X97287570Y-74247008D01*
X97290366Y-74249286D01*
X97336106Y-74287665D01*
X97348460Y-74298032D01*
X97348462Y-74298033D01*
X97354496Y-74302002D01*
X97354470Y-74302041D01*
X97361027Y-74306218D01*
X97361053Y-74306178D01*
X97367191Y-74309964D01*
X97367195Y-74309967D01*
X97388647Y-74319970D01*
X97435931Y-74342019D01*
X97439144Y-74343574D01*
X97506912Y-74377609D01*
X97506917Y-74377610D01*
X97513706Y-74380082D01*
X97513689Y-74380128D01*
X97521024Y-74382677D01*
X97521040Y-74382632D01*
X97527889Y-74384902D01*
X97527894Y-74384903D01*
X97602250Y-74400256D01*
X97605657Y-74401011D01*
X97679444Y-74418500D01*
X97679450Y-74418500D01*
X97686617Y-74419338D01*
X97686611Y-74419386D01*
X97694342Y-74420177D01*
X97694347Y-74420130D01*
X97701537Y-74420759D01*
X97701541Y-74420758D01*
X97701542Y-74420759D01*
X97777393Y-74418552D01*
X97780999Y-74418500D01*
X97939174Y-74418500D01*
X98006213Y-74438185D01*
X98040746Y-74471373D01*
X98063802Y-74504300D01*
X98225700Y-74666198D01*
X98413251Y-74797523D01*
X98532381Y-74853074D01*
X98620750Y-74894281D01*
X98620752Y-74894281D01*
X98620757Y-74894284D01*
X98841913Y-74953543D01*
X99004832Y-74967796D01*
X99069998Y-74973498D01*
X99070000Y-74973498D01*
X99070002Y-74973498D01*
X99127021Y-74968509D01*
X99298087Y-74953543D01*
X99519243Y-74894284D01*
X99726749Y-74797523D01*
X99914300Y-74666198D01*
X100022180Y-74558317D01*
X100083499Y-74524835D01*
X100153191Y-74529819D01*
X100197539Y-74558320D01*
X101104396Y-75465177D01*
X101116177Y-75478809D01*
X101130731Y-75498358D01*
X101169135Y-75530583D01*
X101177101Y-75537882D01*
X101181100Y-75541881D01*
X101205670Y-75561308D01*
X101208466Y-75563586D01*
X101220079Y-75573330D01*
X101266560Y-75612332D01*
X101266562Y-75612333D01*
X101272596Y-75616302D01*
X101272570Y-75616341D01*
X101279127Y-75620518D01*
X101279153Y-75620478D01*
X101285291Y-75624264D01*
X101285295Y-75624267D01*
X101354031Y-75656319D01*
X101357244Y-75657874D01*
X101425012Y-75691909D01*
X101425017Y-75691910D01*
X101431806Y-75694382D01*
X101431789Y-75694428D01*
X101439124Y-75696977D01*
X101439140Y-75696932D01*
X101445989Y-75699202D01*
X101445994Y-75699203D01*
X101520350Y-75714556D01*
X101523757Y-75715311D01*
X101597544Y-75732800D01*
X101597550Y-75732800D01*
X101604717Y-75733638D01*
X101604711Y-75733686D01*
X101612442Y-75734477D01*
X101612447Y-75734430D01*
X101619637Y-75735059D01*
X101619641Y-75735058D01*
X101619642Y-75735059D01*
X101695493Y-75732852D01*
X101699099Y-75732800D01*
X115461406Y-75732800D01*
X115479376Y-75734109D01*
X115481874Y-75734474D01*
X115503489Y-75737641D01*
X115553427Y-75733271D01*
X115564234Y-75732800D01*
X115569875Y-75732800D01*
X115569880Y-75732800D01*
X115601070Y-75729153D01*
X115604551Y-75728798D01*
X115655522Y-75724339D01*
X115680118Y-75722188D01*
X115680120Y-75722187D01*
X115680126Y-75722187D01*
X115680131Y-75722185D01*
X115687193Y-75720727D01*
X115687202Y-75720774D01*
X115694797Y-75719090D01*
X115694787Y-75719044D01*
X115701808Y-75717379D01*
X115701813Y-75717379D01*
X115773114Y-75691426D01*
X115776408Y-75690281D01*
X115848438Y-75666414D01*
X115848444Y-75666410D01*
X115854984Y-75663361D01*
X115855005Y-75663406D01*
X115862002Y-75660019D01*
X115861980Y-75659975D01*
X115868428Y-75656736D01*
X115868432Y-75656735D01*
X115931803Y-75615053D01*
X115934810Y-75613137D01*
X115999351Y-75573330D01*
X115999356Y-75573324D01*
X116005019Y-75568848D01*
X116005050Y-75568887D01*
X116011074Y-75563980D01*
X116011042Y-75563942D01*
X116016564Y-75559306D01*
X116016574Y-75559301D01*
X116068662Y-75504089D01*
X116071109Y-75501570D01*
X117847671Y-73725008D01*
X117908992Y-73691525D01*
X117946154Y-73689163D01*
X118087987Y-73701572D01*
X118109999Y-73703498D01*
X118110000Y-73703498D01*
X118110002Y-73703498D01*
X118167139Y-73698499D01*
X118338087Y-73683543D01*
X118559243Y-73624284D01*
X118766749Y-73527523D01*
X118954300Y-73396198D01*
X119116198Y-73234300D01*
X119247523Y-73046749D01*
X119344284Y-72839243D01*
X119403543Y-72618087D01*
X119423498Y-72390000D01*
X119409163Y-72226156D01*
X119422929Y-72157658D01*
X119445007Y-72127672D01*
X121657671Y-69915008D01*
X121718992Y-69881525D01*
X121756154Y-69879163D01*
X121897987Y-69891572D01*
X121919999Y-69893498D01*
X121920000Y-69893498D01*
X121920001Y-69893498D01*
X121938825Y-69891850D01*
X122083842Y-69879163D01*
X122152340Y-69892929D01*
X122182329Y-69915010D01*
X122677696Y-70410377D01*
X122689477Y-70424009D01*
X122704031Y-70443558D01*
X122742445Y-70475791D01*
X122750408Y-70483089D01*
X122754400Y-70487081D01*
X122778985Y-70506521D01*
X122781779Y-70508797D01*
X122802645Y-70526305D01*
X122839860Y-70557532D01*
X122839862Y-70557533D01*
X122845896Y-70561502D01*
X122845869Y-70561542D01*
X122852421Y-70565716D01*
X122852447Y-70565675D01*
X122858591Y-70569465D01*
X122858594Y-70569467D01*
X122927340Y-70601523D01*
X122930531Y-70603069D01*
X122998311Y-70637109D01*
X123005094Y-70639577D01*
X123005077Y-70639622D01*
X123012425Y-70642176D01*
X123012441Y-70642131D01*
X123019289Y-70644399D01*
X123019294Y-70644402D01*
X123093612Y-70659746D01*
X123097031Y-70660505D01*
X123170844Y-70678000D01*
X123170845Y-70678000D01*
X123170849Y-70678001D01*
X123178017Y-70678839D01*
X123178011Y-70678886D01*
X123185742Y-70679676D01*
X123185747Y-70679629D01*
X123192937Y-70680258D01*
X123192941Y-70680257D01*
X123192942Y-70680258D01*
X123268773Y-70678051D01*
X123272379Y-70678000D01*
X137207255Y-70678000D01*
X137274294Y-70697685D01*
X137303621Y-70723964D01*
X137416564Y-70863436D01*
X137521830Y-70948679D01*
X137561877Y-70981109D01*
X137641367Y-71021610D01*
X137728476Y-71065994D01*
X137740879Y-71069317D01*
X137744531Y-71070296D01*
X137804192Y-71106660D01*
X137834722Y-71169506D01*
X137826428Y-71238882D01*
X137783563Y-71291646D01*
X137610214Y-71413026D01*
X137453026Y-71570214D01*
X137447138Y-71578624D01*
X137392561Y-71622248D01*
X137345563Y-71631500D01*
X129604294Y-71631500D01*
X129586324Y-71630191D01*
X129562206Y-71626658D01*
X129515411Y-71630753D01*
X129512272Y-71631028D01*
X129501466Y-71631500D01*
X129495816Y-71631500D01*
X129464678Y-71635139D01*
X129461095Y-71635505D01*
X129385576Y-71642112D01*
X129378503Y-71643573D01*
X129378493Y-71643526D01*
X129370905Y-71645209D01*
X129370916Y-71645255D01*
X129363890Y-71646920D01*
X129292661Y-71672844D01*
X129289260Y-71674026D01*
X129217260Y-71697886D01*
X129210713Y-71700939D01*
X129210693Y-71700896D01*
X129203701Y-71704280D01*
X129203723Y-71704323D01*
X129197273Y-71707562D01*
X129133908Y-71749237D01*
X129130868Y-71751173D01*
X129066351Y-71790968D01*
X129060686Y-71795448D01*
X129060656Y-71795410D01*
X129054627Y-71800322D01*
X129054657Y-71800357D01*
X129049126Y-71804997D01*
X128997052Y-71860191D01*
X128994541Y-71862776D01*
X127262329Y-73594988D01*
X127201006Y-73628473D01*
X127163841Y-73630835D01*
X127000002Y-73616502D01*
X126999998Y-73616502D01*
X126771918Y-73636456D01*
X126771910Y-73636457D01*
X126550761Y-73695714D01*
X126550750Y-73695718D01*
X126343254Y-73792475D01*
X126343252Y-73792476D01*
X126343251Y-73792477D01*
X126155700Y-73923802D01*
X126155698Y-73923803D01*
X126155695Y-73923806D01*
X125993806Y-74085695D01*
X125993803Y-74085698D01*
X125993802Y-74085700D01*
X125924931Y-74184058D01*
X125862476Y-74273252D01*
X125862475Y-74273254D01*
X125765718Y-74480750D01*
X125765714Y-74480761D01*
X125706457Y-74701910D01*
X125706456Y-74701918D01*
X125686502Y-74929998D01*
X125686502Y-74930002D01*
X125700835Y-75093841D01*
X125687068Y-75162341D01*
X125664988Y-75192329D01*
X121089122Y-79768195D01*
X121075495Y-79779973D01*
X121055941Y-79794531D01*
X121023713Y-79832938D01*
X121016421Y-79840897D01*
X121012420Y-79844898D01*
X120992983Y-79869479D01*
X120990710Y-79872269D01*
X120941967Y-79930360D01*
X120938001Y-79936391D01*
X120937963Y-79936366D01*
X120933782Y-79942928D01*
X120933821Y-79942952D01*
X120930035Y-79949088D01*
X120911168Y-79989547D01*
X120897967Y-80017855D01*
X120896412Y-80021068D01*
X120862391Y-80088810D01*
X120859923Y-80095593D01*
X120859878Y-80095576D01*
X120857322Y-80102932D01*
X120857366Y-80102947D01*
X120855096Y-80109794D01*
X120839758Y-80184073D01*
X120838978Y-80187589D01*
X120821499Y-80261344D01*
X120820661Y-80268519D01*
X120820613Y-80268513D01*
X120819823Y-80276244D01*
X120819870Y-80276249D01*
X120819240Y-80283438D01*
X120821448Y-80359290D01*
X120821500Y-80362897D01*
X120821500Y-80823042D01*
X120801815Y-80890081D01*
X120749011Y-80935836D01*
X120706993Y-80946678D01*
X120512666Y-80961598D01*
X120512659Y-80961599D01*
X120256485Y-81021545D01*
X120256472Y-81021549D01*
X120012455Y-81119896D01*
X120012446Y-81119901D01*
X119786287Y-81254354D01*
X119786286Y-81254354D01*
X119583308Y-81421751D01*
X119583306Y-81421752D01*
X119408255Y-81618175D01*
X119408248Y-81618184D01*
X119265240Y-81839013D01*
X119265238Y-81839017D01*
X119157612Y-82079096D01*
X119157611Y-82079097D01*
X119087891Y-82332807D01*
X119057718Y-82594175D01*
X119067795Y-82857088D01*
X119117889Y-83115381D01*
X119117890Y-83115388D01*
X119206820Y-83362997D01*
X119227493Y-83401013D01*
X119332514Y-83594144D01*
X119492016Y-83803391D01*
X119681590Y-83985837D01*
X119896792Y-84137207D01*
X120056624Y-84216345D01*
X120132572Y-84253950D01*
X120132575Y-84253951D01*
X120132579Y-84253953D01*
X120383424Y-84333337D01*
X120643447Y-84373500D01*
X120643451Y-84373500D01*
X122450684Y-84373500D01*
X122647334Y-84358402D01*
X122903520Y-84298453D01*
X123013932Y-84253953D01*
X123147544Y-84200103D01*
X123147549Y-84200100D01*
X123147552Y-84200099D01*
X123373710Y-84065647D01*
X123373712Y-84065645D01*
X123373713Y-84065645D01*
X123423107Y-84024909D01*
X123576694Y-83898247D01*
X123751745Y-83701824D01*
X123821478Y-83594144D01*
X123894759Y-83480986D01*
X123894761Y-83480982D01*
X124002390Y-83240897D01*
X124072108Y-82987195D01*
X124102282Y-82725825D01*
X124092204Y-82462912D01*
X124042111Y-82204618D01*
X124042109Y-82204613D01*
X124042109Y-82204611D01*
X123953179Y-81957002D01*
X123953177Y-81956998D01*
X123827486Y-81725856D01*
X123667984Y-81516609D01*
X123478410Y-81334163D01*
X123263208Y-81182793D01*
X123136178Y-81119896D01*
X123027427Y-81066049D01*
X123027419Y-81066046D01*
X122776578Y-80986663D01*
X122672566Y-80970597D01*
X122516553Y-80946500D01*
X122516550Y-80946500D01*
X122462500Y-80946500D01*
X122395461Y-80926815D01*
X122349706Y-80874011D01*
X122338500Y-80822500D01*
X122338500Y-80715542D01*
X122358185Y-80648503D01*
X122374814Y-80627866D01*
X126737671Y-76265008D01*
X126798992Y-76231525D01*
X126836154Y-76229163D01*
X126968179Y-76240714D01*
X126999999Y-76243498D01*
X127000000Y-76243498D01*
X127000002Y-76243498D01*
X127061402Y-76238126D01*
X127228087Y-76223543D01*
X127449243Y-76164284D01*
X127656749Y-76067523D01*
X127844300Y-75936198D01*
X127991840Y-75788657D01*
X128053160Y-75755175D01*
X128122851Y-75760159D01*
X128178785Y-75802030D01*
X128195699Y-75833006D01*
X128245819Y-75967377D01*
X128249111Y-75976204D01*
X128336739Y-76093261D01*
X128453796Y-76180889D01*
X128519386Y-76205353D01*
X128590795Y-76231988D01*
X128590798Y-76231989D01*
X128630755Y-76236285D01*
X128695306Y-76263023D01*
X128735155Y-76320415D01*
X128741500Y-76359574D01*
X128741500Y-80147606D01*
X128740191Y-80165576D01*
X128736658Y-80189691D01*
X128741028Y-80239624D01*
X128741500Y-80250433D01*
X128741500Y-80256083D01*
X128745139Y-80287222D01*
X128745505Y-80290805D01*
X128752112Y-80366326D01*
X128753572Y-80373394D01*
X128753526Y-80373403D01*
X128755209Y-80380994D01*
X128755254Y-80380984D01*
X128756919Y-80388010D01*
X128782854Y-80459267D01*
X128784037Y-80462670D01*
X128807884Y-80534632D01*
X128807886Y-80534638D01*
X128807889Y-80534643D01*
X128810940Y-80541186D01*
X128810896Y-80541206D01*
X128814284Y-80548204D01*
X128814327Y-80548183D01*
X128817568Y-80554637D01*
X128859245Y-80618003D01*
X128861167Y-80621020D01*
X128900970Y-80685551D01*
X128900971Y-80685552D01*
X128900973Y-80685555D01*
X128905451Y-80691218D01*
X128905413Y-80691247D01*
X128910320Y-80697272D01*
X128910357Y-80697242D01*
X128915002Y-80702777D01*
X128970172Y-80754827D01*
X128972760Y-80757341D01*
X131366296Y-83150877D01*
X131378077Y-83164509D01*
X131392631Y-83184058D01*
X131431045Y-83216291D01*
X131439008Y-83223589D01*
X131443000Y-83227581D01*
X131467585Y-83247021D01*
X131470379Y-83249297D01*
X131514939Y-83286686D01*
X131528460Y-83298032D01*
X131528462Y-83298033D01*
X131534496Y-83302002D01*
X131534469Y-83302042D01*
X131541021Y-83306216D01*
X131541047Y-83306175D01*
X131547191Y-83309965D01*
X131547194Y-83309967D01*
X131615940Y-83342023D01*
X131619131Y-83343569D01*
X131686911Y-83377609D01*
X131693694Y-83380077D01*
X131693677Y-83380122D01*
X131701025Y-83382676D01*
X131701041Y-83382631D01*
X131707889Y-83384899D01*
X131707894Y-83384902D01*
X131782211Y-83400246D01*
X131785660Y-83401011D01*
X131846098Y-83415336D01*
X131906790Y-83449950D01*
X131939133Y-83511883D01*
X131941500Y-83535993D01*
X131941500Y-83913654D01*
X131948010Y-83974201D01*
X131967731Y-84027072D01*
X131972715Y-84096764D01*
X131939231Y-84158087D01*
X131939230Y-84158087D01*
X118404838Y-97692481D01*
X118343515Y-97725966D01*
X118317157Y-97728800D01*
X108042509Y-97728800D01*
X107975470Y-97709115D01*
X107929715Y-97656311D01*
X107919771Y-97587153D01*
X107922734Y-97572706D01*
X107925627Y-97561910D01*
X107973543Y-97383087D01*
X107993498Y-97155000D01*
X107992885Y-97147999D01*
X107985827Y-97067322D01*
X107973543Y-96926913D01*
X107914284Y-96705757D01*
X107817523Y-96498251D01*
X107686198Y-96310700D01*
X107524300Y-96148802D01*
X107366374Y-96038220D01*
X107322751Y-95983646D01*
X107314568Y-95942074D01*
X107314091Y-95942104D01*
X107313990Y-95942117D01*
X107313989Y-95942110D01*
X107313744Y-95942126D01*
X107313499Y-95938236D01*
X107313449Y-95937846D01*
X107311486Y-95922308D01*
X107310756Y-95914579D01*
X107307225Y-95858450D01*
X107304621Y-95850439D01*
X107299528Y-95827651D01*
X107298474Y-95819303D01*
X107277770Y-95767012D01*
X107275151Y-95759738D01*
X107257764Y-95706225D01*
X107253250Y-95699112D01*
X107242652Y-95678313D01*
X107242533Y-95678013D01*
X107239552Y-95670483D01*
X107206516Y-95625013D01*
X107202139Y-95618572D01*
X107172004Y-95571087D01*
X107171997Y-95571079D01*
X107165852Y-95565308D01*
X107150421Y-95547805D01*
X107145472Y-95540993D01*
X107102155Y-95505158D01*
X107096311Y-95500006D01*
X107055324Y-95461516D01*
X107055319Y-95461512D01*
X107047933Y-95457452D01*
X107028633Y-95444335D01*
X107022143Y-95438966D01*
X106989676Y-95423688D01*
X106971263Y-95415024D01*
X106964330Y-95411491D01*
X106915063Y-95384406D01*
X106915060Y-95384405D01*
X106906892Y-95382307D01*
X106884944Y-95374405D01*
X106877320Y-95370817D01*
X106877311Y-95370814D01*
X106822104Y-95360283D01*
X106814505Y-95358585D01*
X106760034Y-95344600D01*
X106760030Y-95344600D01*
X106751605Y-95344600D01*
X106728374Y-95342404D01*
X106720096Y-95340825D01*
X106720091Y-95340824D01*
X106663985Y-95344355D01*
X106656199Y-95344600D01*
X106358767Y-95344600D01*
X106291728Y-95324915D01*
X106271086Y-95308281D01*
X105912805Y-94950000D01*
X115176372Y-94950000D01*
X115196854Y-95210250D01*
X115216107Y-95290445D01*
X115257796Y-95464089D01*
X115257797Y-95464091D01*
X115357696Y-95705271D01*
X115494095Y-95927853D01*
X115494098Y-95927858D01*
X115547110Y-95989927D01*
X115663637Y-96126363D01*
X115689915Y-96148806D01*
X115862141Y-96295901D01*
X115862143Y-96295902D01*
X115862144Y-96295903D01*
X115886291Y-96310700D01*
X116084728Y-96432303D01*
X116169998Y-96467622D01*
X116325911Y-96532204D01*
X116579751Y-96593146D01*
X116840000Y-96613628D01*
X117100249Y-96593146D01*
X117354089Y-96532204D01*
X117595271Y-96432303D01*
X117817856Y-96295903D01*
X118016363Y-96126363D01*
X118185903Y-95927856D01*
X118322303Y-95705271D01*
X118422204Y-95464089D01*
X118483146Y-95210249D01*
X118503628Y-94950000D01*
X118483146Y-94689751D01*
X118422204Y-94435911D01*
X118353180Y-94269273D01*
X118322303Y-94194728D01*
X118185904Y-93972146D01*
X118185901Y-93972141D01*
X118079467Y-93847523D01*
X118016363Y-93773637D01*
X117907839Y-93680949D01*
X117817858Y-93604098D01*
X117817853Y-93604095D01*
X117595271Y-93467696D01*
X117354091Y-93367797D01*
X117354089Y-93367796D01*
X117180445Y-93326107D01*
X117100250Y-93306854D01*
X116840000Y-93286372D01*
X116579749Y-93306854D01*
X116419357Y-93345361D01*
X116325911Y-93367796D01*
X116325909Y-93367796D01*
X116325908Y-93367797D01*
X116084728Y-93467696D01*
X115862146Y-93604095D01*
X115862141Y-93604098D01*
X115663637Y-93773637D01*
X115494098Y-93972141D01*
X115494095Y-93972146D01*
X115357696Y-94194728D01*
X115261097Y-94427941D01*
X115257796Y-94435911D01*
X115237538Y-94520293D01*
X115196854Y-94689749D01*
X115176372Y-94950000D01*
X105912805Y-94950000D01*
X103283988Y-92321183D01*
X103274087Y-92308823D01*
X103273877Y-92308998D01*
X103268901Y-92302984D01*
X103268900Y-92302982D01*
X103219215Y-92256325D01*
X103216450Y-92253645D01*
X103196666Y-92233861D01*
X103193404Y-92231331D01*
X103184519Y-92223743D01*
X103183803Y-92223071D01*
X103152221Y-92193414D01*
X103152219Y-92193412D01*
X103134331Y-92183578D01*
X103118070Y-92172897D01*
X103101939Y-92160384D01*
X103061275Y-92142788D01*
X103050785Y-92137649D01*
X103011960Y-92116305D01*
X103011956Y-92116304D01*
X102992187Y-92111228D01*
X102973781Y-92104926D01*
X102955044Y-92096818D01*
X102955045Y-92096818D01*
X102911283Y-92089887D01*
X102899847Y-92087519D01*
X102885093Y-92083731D01*
X102856932Y-92076500D01*
X102856930Y-92076500D01*
X102836516Y-92076500D01*
X102817112Y-92074972D01*
X102796681Y-92071735D01*
X102733548Y-92041803D01*
X102714516Y-92020393D01*
X102606198Y-91865700D01*
X102444300Y-91703802D01*
X102256749Y-91572477D01*
X102213655Y-91552382D01*
X102161215Y-91506210D01*
X102142063Y-91439017D01*
X102162278Y-91372136D01*
X102213655Y-91327618D01*
X102216882Y-91326112D01*
X102256749Y-91307523D01*
X102444300Y-91176198D01*
X102606198Y-91014300D01*
X102716779Y-90856374D01*
X102771354Y-90812751D01*
X102818352Y-90803500D01*
X105961366Y-90803500D01*
X105977113Y-90805238D01*
X105977139Y-90804968D01*
X105984905Y-90805701D01*
X105984909Y-90805702D01*
X106053017Y-90803560D01*
X106056913Y-90803500D01*
X106084858Y-90803500D01*
X106084860Y-90803499D01*
X106086262Y-90803322D01*
X106088949Y-90802983D01*
X106100608Y-90802064D01*
X106144889Y-90800673D01*
X106164481Y-90794980D01*
X106183538Y-90791032D01*
X106203797Y-90788474D01*
X106205445Y-90787821D01*
X106206836Y-90787693D01*
X106211353Y-90786534D01*
X106211539Y-90787262D01*
X106275017Y-90781437D01*
X106283172Y-90783328D01*
X106451913Y-90828543D01*
X106614832Y-90842796D01*
X106679998Y-90848498D01*
X106680000Y-90848498D01*
X106680002Y-90848498D01*
X106737021Y-90843509D01*
X106908087Y-90828543D01*
X107129243Y-90769284D01*
X107336749Y-90672523D01*
X107524300Y-90541198D01*
X107686198Y-90379300D01*
X107817523Y-90191749D01*
X107914284Y-89984243D01*
X107973543Y-89763087D01*
X107993498Y-89535000D01*
X107991595Y-89513254D01*
X107983726Y-89423307D01*
X107973543Y-89306913D01*
X107914284Y-89085757D01*
X107817523Y-88878251D01*
X107686198Y-88690700D01*
X107524300Y-88528802D01*
X107336749Y-88397477D01*
X107336745Y-88397475D01*
X107129249Y-88300718D01*
X107129238Y-88300714D01*
X106908089Y-88241457D01*
X106908081Y-88241456D01*
X106680002Y-88221502D01*
X106679998Y-88221502D01*
X106451918Y-88241456D01*
X106451910Y-88241457D01*
X106230761Y-88300714D01*
X106230750Y-88300718D01*
X106023254Y-88397475D01*
X106023252Y-88397476D01*
X106023251Y-88397477D01*
X105835700Y-88528802D01*
X105835698Y-88528803D01*
X105835695Y-88528806D01*
X105673806Y-88690695D01*
X105673803Y-88690698D01*
X105673802Y-88690700D01*
X105600321Y-88795642D01*
X105542476Y-88878252D01*
X105542475Y-88878254D01*
X105445718Y-89085750D01*
X105445714Y-89085761D01*
X105386457Y-89306910D01*
X105386456Y-89306918D01*
X105376274Y-89423307D01*
X105350822Y-89488376D01*
X105294231Y-89529355D01*
X105252746Y-89536500D01*
X102818352Y-89536500D01*
X102751313Y-89516815D01*
X102716779Y-89483626D01*
X102606198Y-89325700D01*
X102444300Y-89163802D01*
X102256749Y-89032477D01*
X102256745Y-89032475D01*
X102049249Y-88935718D01*
X102049238Y-88935714D01*
X101828089Y-88876457D01*
X101828081Y-88876456D01*
X101600002Y-88856502D01*
X101599995Y-88856502D01*
X101582571Y-88858026D01*
X101514071Y-88844258D01*
X101463889Y-88795642D01*
X101447957Y-88727613D01*
X101471334Y-88661770D01*
X101484079Y-88646823D01*
X104405901Y-85725001D01*
X105366502Y-85725001D01*
X105386456Y-85953081D01*
X105386457Y-85953089D01*
X105445714Y-86174238D01*
X105445718Y-86174249D01*
X105507556Y-86306860D01*
X105542477Y-86381749D01*
X105673802Y-86569300D01*
X105835700Y-86731198D01*
X106023251Y-86862523D01*
X106095554Y-86896238D01*
X106230750Y-86959281D01*
X106230752Y-86959281D01*
X106230757Y-86959284D01*
X106451913Y-87018543D01*
X106614832Y-87032796D01*
X106679998Y-87038498D01*
X106680000Y-87038498D01*
X106680002Y-87038498D01*
X106737021Y-87033509D01*
X106908087Y-87018543D01*
X107129243Y-86959284D01*
X107336749Y-86862523D01*
X107524300Y-86731198D01*
X107686198Y-86569300D01*
X107817523Y-86381749D01*
X107914284Y-86174243D01*
X107973543Y-85953087D01*
X107993498Y-85725000D01*
X107973543Y-85496913D01*
X107914284Y-85275757D01*
X107817523Y-85068251D01*
X107686198Y-84880700D01*
X107524300Y-84718802D01*
X107336749Y-84587477D01*
X107336745Y-84587475D01*
X107129249Y-84490718D01*
X107129238Y-84490714D01*
X106908089Y-84431457D01*
X106908081Y-84431456D01*
X106680002Y-84411502D01*
X106679998Y-84411502D01*
X106451918Y-84431456D01*
X106451910Y-84431457D01*
X106230761Y-84490714D01*
X106230750Y-84490718D01*
X106023254Y-84587475D01*
X106023252Y-84587476D01*
X105952856Y-84636767D01*
X105835700Y-84718802D01*
X105835698Y-84718803D01*
X105835695Y-84718806D01*
X105673806Y-84880695D01*
X105542476Y-85068252D01*
X105542475Y-85068254D01*
X105445718Y-85275750D01*
X105445714Y-85275761D01*
X105386457Y-85496910D01*
X105386456Y-85496918D01*
X105366502Y-85724998D01*
X105366502Y-85725001D01*
X104405901Y-85725001D01*
X111347569Y-78783333D01*
X111408890Y-78749850D01*
X111467341Y-78751241D01*
X111485979Y-78756234D01*
X111531913Y-78768543D01*
X111694832Y-78782796D01*
X111759998Y-78788498D01*
X111760000Y-78788498D01*
X111760002Y-78788498D01*
X111819013Y-78783335D01*
X111988087Y-78768543D01*
X112209243Y-78709284D01*
X112416749Y-78612523D01*
X112604300Y-78481198D01*
X112766198Y-78319300D01*
X112897523Y-78131749D01*
X112994284Y-77924243D01*
X113053543Y-77703087D01*
X113073498Y-77475000D01*
X113053543Y-77246913D01*
X112994284Y-77025757D01*
X112897523Y-76818251D01*
X112766198Y-76630700D01*
X112604300Y-76468802D01*
X112416749Y-76337477D01*
X112416745Y-76337475D01*
X112209249Y-76240718D01*
X112209238Y-76240714D01*
X111988089Y-76181457D01*
X111988081Y-76181456D01*
X111760002Y-76161502D01*
X111759998Y-76161502D01*
X111531918Y-76181456D01*
X111531910Y-76181457D01*
X111310761Y-76240714D01*
X111310750Y-76240718D01*
X111103254Y-76337475D01*
X111103252Y-76337476D01*
X111051958Y-76373393D01*
X110915700Y-76468802D01*
X110915698Y-76468803D01*
X110915695Y-76468806D01*
X110753806Y-76630695D01*
X110753803Y-76630698D01*
X110753802Y-76630700D01*
X110671767Y-76747856D01*
X110622476Y-76818252D01*
X110622475Y-76818254D01*
X110525718Y-77025750D01*
X110525714Y-77025761D01*
X110466457Y-77246910D01*
X110466456Y-77246918D01*
X110446502Y-77474998D01*
X110446502Y-77475001D01*
X110466456Y-77703081D01*
X110466458Y-77703091D01*
X110483758Y-77767655D01*
X110482095Y-77837504D01*
X110451664Y-77887429D01*
X96247779Y-92091314D01*
X96235420Y-92101218D01*
X96235593Y-92101427D01*
X96229582Y-92106400D01*
X96182938Y-92156069D01*
X96180233Y-92158860D01*
X96160473Y-92178621D01*
X96160458Y-92178638D01*
X96157917Y-92181913D01*
X96150353Y-92190767D01*
X96120020Y-92223071D01*
X96120012Y-92223081D01*
X96110179Y-92240967D01*
X96099503Y-92257220D01*
X96086986Y-92273357D01*
X96086985Y-92273360D01*
X96069385Y-92314029D01*
X96064248Y-92324515D01*
X96042903Y-92363341D01*
X96042903Y-92363342D01*
X96037825Y-92383120D01*
X96031525Y-92401522D01*
X96023418Y-92420257D01*
X96016488Y-92464009D01*
X96014120Y-92475445D01*
X96003100Y-92518365D01*
X96003100Y-92538784D01*
X96001573Y-92558183D01*
X95998380Y-92578341D01*
X95998380Y-92578342D01*
X96002550Y-92622457D01*
X96003100Y-92634126D01*
X96003100Y-93991233D01*
X95983415Y-94058272D01*
X95966781Y-94078914D01*
X95349254Y-94696440D01*
X95287931Y-94729925D01*
X95218239Y-94724941D01*
X95162306Y-94683069D01*
X95149191Y-94661164D01*
X95145795Y-94653882D01*
X95117523Y-94593251D01*
X94986198Y-94405700D01*
X94824300Y-94243802D01*
X94636749Y-94112477D01*
X94593655Y-94092382D01*
X94541215Y-94046210D01*
X94522063Y-93979017D01*
X94542278Y-93912136D01*
X94593655Y-93867618D01*
X94596882Y-93866112D01*
X94636749Y-93847523D01*
X94824300Y-93716198D01*
X94986198Y-93554300D01*
X95117523Y-93366749D01*
X95214284Y-93159243D01*
X95273543Y-92938087D01*
X95293498Y-92710000D01*
X95291127Y-92682904D01*
X95284859Y-92611257D01*
X95273543Y-92481913D01*
X95214284Y-92260757D01*
X95212232Y-92256357D01*
X95173314Y-92172897D01*
X95117523Y-92053251D01*
X94986198Y-91865700D01*
X94824300Y-91703802D01*
X94666374Y-91593220D01*
X94622751Y-91538646D01*
X94614568Y-91497074D01*
X94614091Y-91497104D01*
X94613990Y-91497117D01*
X94613989Y-91497110D01*
X94613744Y-91497126D01*
X94613499Y-91493236D01*
X94611488Y-91477322D01*
X94610756Y-91469579D01*
X94607225Y-91413450D01*
X94607224Y-91413449D01*
X94606735Y-91405662D01*
X94609035Y-91405517D01*
X94614673Y-91347522D01*
X94657957Y-91292674D01*
X94658224Y-91292485D01*
X94824300Y-91176198D01*
X94986198Y-91014300D01*
X95117523Y-90826749D01*
X95214284Y-90619243D01*
X95273543Y-90398087D01*
X95293498Y-90170000D01*
X95293497Y-90169994D01*
X95284880Y-90071500D01*
X95273543Y-89941913D01*
X95214284Y-89720757D01*
X95210135Y-89711860D01*
X95175736Y-89638091D01*
X95117523Y-89513251D01*
X94986198Y-89325700D01*
X94824300Y-89163802D01*
X94636749Y-89032477D01*
X94636745Y-89032475D01*
X94429249Y-88935718D01*
X94429238Y-88935714D01*
X94208089Y-88876457D01*
X94208081Y-88876456D01*
X93980002Y-88856502D01*
X93979998Y-88856502D01*
X93751918Y-88876456D01*
X93751910Y-88876457D01*
X93530761Y-88935714D01*
X93530750Y-88935718D01*
X93323254Y-89032475D01*
X93323252Y-89032476D01*
X93323251Y-89032477D01*
X93135700Y-89163802D01*
X93135698Y-89163803D01*
X93135695Y-89163806D01*
X92973806Y-89325695D01*
X92842476Y-89513252D01*
X92842474Y-89513256D01*
X92824704Y-89551363D01*
X92778531Y-89603802D01*
X92711337Y-89622953D01*
X92644456Y-89602736D01*
X92624642Y-89586638D01*
X91083840Y-88045836D01*
X89476719Y-86438714D01*
X89443234Y-86377391D01*
X89440400Y-86351033D01*
X89440400Y-85796605D01*
X89442596Y-85773374D01*
X89444175Y-85765094D01*
X89444175Y-85765091D01*
X89441653Y-85725001D01*
X90761502Y-85725001D01*
X90781456Y-85953081D01*
X90781457Y-85953089D01*
X90840714Y-86174238D01*
X90840718Y-86174249D01*
X90902556Y-86306860D01*
X90937477Y-86381749D01*
X91068802Y-86569300D01*
X91230700Y-86731198D01*
X91418251Y-86862523D01*
X91490554Y-86896238D01*
X91625750Y-86959281D01*
X91625752Y-86959281D01*
X91625757Y-86959284D01*
X91846913Y-87018543D01*
X92009832Y-87032796D01*
X92074998Y-87038498D01*
X92075000Y-87038498D01*
X92075002Y-87038498D01*
X92132021Y-87033509D01*
X92303087Y-87018543D01*
X92524243Y-86959284D01*
X92731749Y-86862523D01*
X92919300Y-86731198D01*
X93081198Y-86569300D01*
X93212523Y-86381749D01*
X93309284Y-86174243D01*
X93368543Y-85953087D01*
X93388498Y-85725001D01*
X99016502Y-85725001D01*
X99036456Y-85953081D01*
X99036457Y-85953089D01*
X99095714Y-86174238D01*
X99095718Y-86174249D01*
X99157556Y-86306860D01*
X99192477Y-86381749D01*
X99323802Y-86569300D01*
X99485700Y-86731198D01*
X99673251Y-86862523D01*
X99745554Y-86896238D01*
X99880750Y-86959281D01*
X99880752Y-86959281D01*
X99880757Y-86959284D01*
X100101913Y-87018543D01*
X100264832Y-87032796D01*
X100329998Y-87038498D01*
X100330000Y-87038498D01*
X100330002Y-87038498D01*
X100387021Y-87033509D01*
X100558087Y-87018543D01*
X100779243Y-86959284D01*
X100986749Y-86862523D01*
X101174300Y-86731198D01*
X101336198Y-86569300D01*
X101467523Y-86381749D01*
X101564284Y-86174243D01*
X101623543Y-85953087D01*
X101643498Y-85725000D01*
X101623543Y-85496913D01*
X101564284Y-85275757D01*
X101467523Y-85068251D01*
X101336198Y-84880700D01*
X101174300Y-84718802D01*
X100986749Y-84587477D01*
X100986745Y-84587475D01*
X100779249Y-84490718D01*
X100779238Y-84490714D01*
X100558089Y-84431457D01*
X100558081Y-84431456D01*
X100330002Y-84411502D01*
X100329998Y-84411502D01*
X100101918Y-84431456D01*
X100101910Y-84431457D01*
X99880761Y-84490714D01*
X99880750Y-84490718D01*
X99673254Y-84587475D01*
X99673252Y-84587476D01*
X99602856Y-84636767D01*
X99485700Y-84718802D01*
X99485698Y-84718803D01*
X99485695Y-84718806D01*
X99323806Y-84880695D01*
X99192476Y-85068252D01*
X99192475Y-85068254D01*
X99095718Y-85275750D01*
X99095714Y-85275761D01*
X99036457Y-85496910D01*
X99036456Y-85496918D01*
X99016502Y-85724998D01*
X99016502Y-85725001D01*
X93388498Y-85725001D01*
X93388498Y-85725000D01*
X93368543Y-85496913D01*
X93309284Y-85275757D01*
X93212523Y-85068251D01*
X93081198Y-84880700D01*
X92919300Y-84718802D01*
X92731749Y-84587477D01*
X92731745Y-84587475D01*
X92524249Y-84490718D01*
X92524238Y-84490714D01*
X92303089Y-84431457D01*
X92303081Y-84431456D01*
X92075002Y-84411502D01*
X92074998Y-84411502D01*
X91846918Y-84431456D01*
X91846910Y-84431457D01*
X91625761Y-84490714D01*
X91625750Y-84490718D01*
X91418254Y-84587475D01*
X91418252Y-84587476D01*
X91347856Y-84636767D01*
X91230700Y-84718802D01*
X91230698Y-84718803D01*
X91230695Y-84718806D01*
X91068806Y-84880695D01*
X90937476Y-85068252D01*
X90937475Y-85068254D01*
X90840718Y-85275750D01*
X90840714Y-85275761D01*
X90781457Y-85496910D01*
X90781456Y-85496918D01*
X90761502Y-85724998D01*
X90761502Y-85725001D01*
X89441653Y-85725001D01*
X89440645Y-85708984D01*
X89440400Y-85701198D01*
X89440400Y-85685144D01*
X89440399Y-85685136D01*
X89438388Y-85669222D01*
X89437656Y-85661479D01*
X89434125Y-85605350D01*
X89431521Y-85597339D01*
X89426428Y-85574551D01*
X89425374Y-85566203D01*
X89404670Y-85513912D01*
X89402051Y-85506638D01*
X89384664Y-85453125D01*
X89380150Y-85446012D01*
X89369552Y-85425213D01*
X89369433Y-85424913D01*
X89366452Y-85417383D01*
X89333416Y-85371913D01*
X89329039Y-85365472D01*
X89298904Y-85317987D01*
X89298897Y-85317979D01*
X89292752Y-85312208D01*
X89277321Y-85294705D01*
X89272372Y-85287893D01*
X89229055Y-85252058D01*
X89223211Y-85246906D01*
X89182224Y-85208416D01*
X89182219Y-85208412D01*
X89174833Y-85204352D01*
X89155533Y-85191235D01*
X89149043Y-85185866D01*
X89116576Y-85170588D01*
X89098163Y-85161924D01*
X89091230Y-85158391D01*
X89041963Y-85131306D01*
X89041960Y-85131305D01*
X89033792Y-85129207D01*
X89011844Y-85121305D01*
X89004220Y-85117717D01*
X89004211Y-85117714D01*
X88949004Y-85107183D01*
X88941405Y-85105485D01*
X88886934Y-85091500D01*
X88886930Y-85091500D01*
X88878505Y-85091500D01*
X88855274Y-85089304D01*
X88846996Y-85087725D01*
X88839206Y-85087235D01*
X88839399Y-85084166D01*
X88785177Y-85071850D01*
X88744025Y-85034693D01*
X88636198Y-84880700D01*
X88474300Y-84718802D01*
X88286749Y-84587477D01*
X88247134Y-84569004D01*
X88194696Y-84522832D01*
X88175545Y-84455638D01*
X88195761Y-84388757D01*
X88211855Y-84368947D01*
X91625385Y-80955419D01*
X91686708Y-80921934D01*
X91713066Y-80919100D01*
X96888866Y-80919100D01*
X96904613Y-80920838D01*
X96904639Y-80920568D01*
X96912405Y-80921301D01*
X96912409Y-80921302D01*
X96980517Y-80919160D01*
X96984413Y-80919100D01*
X97012358Y-80919100D01*
X97012360Y-80919099D01*
X97013762Y-80918922D01*
X97016449Y-80918583D01*
X97028108Y-80917664D01*
X97072389Y-80916273D01*
X97091981Y-80910580D01*
X97111038Y-80906632D01*
X97131297Y-80904074D01*
X97172506Y-80887757D01*
X97183543Y-80883979D01*
X97226093Y-80871618D01*
X97243665Y-80861225D01*
X97261132Y-80852668D01*
X97280117Y-80845152D01*
X97315961Y-80819108D01*
X97325730Y-80812692D01*
X97363862Y-80790142D01*
X97378302Y-80775700D01*
X97393092Y-80763070D01*
X97409607Y-80751072D01*
X97437859Y-80716919D01*
X97445703Y-80708299D01*
X99176575Y-78977428D01*
X99237894Y-78943946D01*
X99307586Y-78948930D01*
X99351933Y-78977431D01*
X99485700Y-79111198D01*
X99673251Y-79242523D01*
X99798091Y-79300736D01*
X99880750Y-79339281D01*
X99880752Y-79339281D01*
X99880757Y-79339284D01*
X100101913Y-79398543D01*
X100264832Y-79412796D01*
X100329998Y-79418498D01*
X100330000Y-79418498D01*
X100330002Y-79418498D01*
X100387021Y-79413509D01*
X100558087Y-79398543D01*
X100779243Y-79339284D01*
X100986749Y-79242523D01*
X101174300Y-79111198D01*
X101336198Y-78949300D01*
X101467523Y-78761749D01*
X101564284Y-78554243D01*
X101623543Y-78333087D01*
X101643498Y-78105000D01*
X101623543Y-77876913D01*
X101570290Y-77678172D01*
X101562883Y-77650528D01*
X101564159Y-77650185D01*
X101560124Y-77586795D01*
X101594087Y-77525736D01*
X101655670Y-77492731D01*
X101681080Y-77490100D01*
X103940934Y-77490100D01*
X104007973Y-77509785D01*
X104028615Y-77526419D01*
X104996010Y-78493814D01*
X105005916Y-78506178D01*
X105006126Y-78506005D01*
X105011097Y-78512013D01*
X105011100Y-78512018D01*
X105060801Y-78558690D01*
X105063565Y-78561369D01*
X105083330Y-78581134D01*
X105086604Y-78583673D01*
X105095470Y-78591247D01*
X105127778Y-78621586D01*
X105145667Y-78631420D01*
X105161933Y-78642104D01*
X105178059Y-78654613D01*
X105218716Y-78672207D01*
X105229207Y-78677346D01*
X105268040Y-78698695D01*
X105287818Y-78703773D01*
X105306219Y-78710073D01*
X105324955Y-78718181D01*
X105368730Y-78725113D01*
X105380145Y-78727478D01*
X105423070Y-78738500D01*
X105443484Y-78738500D01*
X105462875Y-78740025D01*
X105483043Y-78743220D01*
X105483046Y-78743219D01*
X105483307Y-78743261D01*
X105546443Y-78773189D01*
X105565484Y-78794607D01*
X105673802Y-78949300D01*
X105835700Y-79111198D01*
X106023251Y-79242523D01*
X106148091Y-79300736D01*
X106230750Y-79339281D01*
X106230752Y-79339281D01*
X106230757Y-79339284D01*
X106451913Y-79398543D01*
X106614832Y-79412796D01*
X106679998Y-79418498D01*
X106680000Y-79418498D01*
X106680002Y-79418498D01*
X106737021Y-79413509D01*
X106908087Y-79398543D01*
X107129243Y-79339284D01*
X107336749Y-79242523D01*
X107524300Y-79111198D01*
X107686198Y-78949300D01*
X107817523Y-78761749D01*
X107914284Y-78554243D01*
X107973543Y-78333087D01*
X107993498Y-78105000D01*
X107973543Y-77876913D01*
X107914284Y-77655757D01*
X107906716Y-77639528D01*
X107853973Y-77526419D01*
X107817523Y-77448251D01*
X107686198Y-77260700D01*
X107524300Y-77098802D01*
X107336749Y-76967477D01*
X107336745Y-76967475D01*
X107129249Y-76870718D01*
X107129238Y-76870714D01*
X106908089Y-76811457D01*
X106908081Y-76811456D01*
X106680002Y-76791502D01*
X106679998Y-76791502D01*
X106451918Y-76811456D01*
X106451910Y-76811457D01*
X106230761Y-76870714D01*
X106230750Y-76870718D01*
X106023254Y-76967475D01*
X106023252Y-76967476D01*
X105835699Y-77098803D01*
X105701934Y-77232568D01*
X105640611Y-77266052D01*
X105570919Y-77261068D01*
X105526572Y-77232567D01*
X104761788Y-76467783D01*
X104751887Y-76455423D01*
X104751677Y-76455598D01*
X104746701Y-76449584D01*
X104746700Y-76449582D01*
X104697015Y-76402925D01*
X104694250Y-76400245D01*
X104674466Y-76380461D01*
X104671204Y-76377931D01*
X104662319Y-76370343D01*
X104630021Y-76340014D01*
X104630019Y-76340012D01*
X104612131Y-76330178D01*
X104595870Y-76319497D01*
X104579739Y-76306984D01*
X104539075Y-76289388D01*
X104528585Y-76284249D01*
X104489760Y-76262905D01*
X104489756Y-76262904D01*
X104469987Y-76257828D01*
X104451581Y-76251526D01*
X104432844Y-76243418D01*
X104432845Y-76243418D01*
X104389083Y-76236487D01*
X104377647Y-76234119D01*
X104362893Y-76230331D01*
X104334732Y-76223100D01*
X104334730Y-76223100D01*
X104314316Y-76223100D01*
X104294917Y-76221573D01*
X104274758Y-76218380D01*
X104274757Y-76218380D01*
X104230643Y-76222550D01*
X104218974Y-76223100D01*
X96498134Y-76223100D01*
X96482386Y-76221361D01*
X96482361Y-76221632D01*
X96474594Y-76220898D01*
X96474591Y-76220898D01*
X96406483Y-76223039D01*
X96402587Y-76223100D01*
X96374636Y-76223100D01*
X96370540Y-76223618D01*
X96358902Y-76224534D01*
X96314611Y-76225926D01*
X96314608Y-76225927D01*
X96295005Y-76231622D01*
X96275959Y-76235566D01*
X96255703Y-76238126D01*
X96255701Y-76238126D01*
X96255699Y-76238127D01*
X96214498Y-76254439D01*
X96203451Y-76258221D01*
X96160906Y-76270582D01*
X96143331Y-76280975D01*
X96125873Y-76289528D01*
X96106883Y-76297048D01*
X96071035Y-76323092D01*
X96061276Y-76329502D01*
X96023137Y-76352057D01*
X96008701Y-76366494D01*
X95993915Y-76379123D01*
X95977393Y-76391128D01*
X95977391Y-76391129D01*
X95977391Y-76391130D01*
X95977388Y-76391133D01*
X95949142Y-76425274D01*
X95941283Y-76433911D01*
X93511314Y-78863881D01*
X93449991Y-78897366D01*
X93423633Y-78900200D01*
X93342603Y-78900200D01*
X93275564Y-78880515D01*
X93229809Y-78827711D01*
X93219865Y-78758553D01*
X93230221Y-78723796D01*
X93295564Y-78583666D01*
X93309284Y-78554243D01*
X93368543Y-78333087D01*
X93388498Y-78105000D01*
X93368543Y-77876913D01*
X93309284Y-77655757D01*
X93301716Y-77639528D01*
X93248973Y-77526419D01*
X93212523Y-77448251D01*
X93081198Y-77260700D01*
X92919300Y-77098802D01*
X92731749Y-76967477D01*
X92731745Y-76967475D01*
X92524249Y-76870718D01*
X92524238Y-76870714D01*
X92303089Y-76811457D01*
X92303081Y-76811456D01*
X92075002Y-76791502D01*
X92074998Y-76791502D01*
X91846918Y-76811456D01*
X91846910Y-76811457D01*
X91625761Y-76870714D01*
X91625750Y-76870718D01*
X91418254Y-76967475D01*
X91418252Y-76967476D01*
X91418251Y-76967477D01*
X91230700Y-77098802D01*
X91230698Y-77098803D01*
X91230695Y-77098806D01*
X91068806Y-77260695D01*
X91068803Y-77260698D01*
X91068802Y-77260700D01*
X91029122Y-77317369D01*
X90937476Y-77448252D01*
X90937475Y-77448254D01*
X90840718Y-77655750D01*
X90840714Y-77655761D01*
X90781457Y-77876910D01*
X90781456Y-77876918D01*
X90761502Y-78104998D01*
X90761502Y-78105001D01*
X90781456Y-78333081D01*
X90781457Y-78333089D01*
X90840714Y-78554238D01*
X90840718Y-78554249D01*
X90923937Y-78732712D01*
X90937477Y-78761749D01*
X91032352Y-78897245D01*
X91054679Y-78963449D01*
X91037669Y-79031217D01*
X91009447Y-79062313D01*
X91009983Y-79062884D01*
X91004292Y-79068228D01*
X90976052Y-79102363D01*
X90968192Y-79111001D01*
X83863181Y-86216013D01*
X83801858Y-86249498D01*
X83732166Y-86244514D01*
X83676233Y-86202642D01*
X83651816Y-86137178D01*
X83651500Y-86128332D01*
X83651500Y-78105001D01*
X86316502Y-78105001D01*
X86336456Y-78333081D01*
X86336457Y-78333089D01*
X86395714Y-78554238D01*
X86395718Y-78554249D01*
X86478937Y-78732712D01*
X86492477Y-78761749D01*
X86623802Y-78949300D01*
X86785700Y-79111198D01*
X86973251Y-79242523D01*
X87098091Y-79300736D01*
X87180750Y-79339281D01*
X87180752Y-79339281D01*
X87180757Y-79339284D01*
X87401913Y-79398543D01*
X87564832Y-79412796D01*
X87629998Y-79418498D01*
X87630000Y-79418498D01*
X87630002Y-79418498D01*
X87687021Y-79413509D01*
X87858087Y-79398543D01*
X88079243Y-79339284D01*
X88286749Y-79242523D01*
X88474300Y-79111198D01*
X88636198Y-78949300D01*
X88767523Y-78761749D01*
X88864284Y-78554243D01*
X88923543Y-78333087D01*
X88943498Y-78105000D01*
X88923543Y-77876913D01*
X88864284Y-77655757D01*
X88856716Y-77639528D01*
X88803973Y-77526419D01*
X88767523Y-77448251D01*
X88636198Y-77260700D01*
X88474300Y-77098802D01*
X88286749Y-76967477D01*
X88286745Y-76967475D01*
X88079249Y-76870718D01*
X88079238Y-76870714D01*
X87858089Y-76811457D01*
X87858081Y-76811456D01*
X87630002Y-76791502D01*
X87629998Y-76791502D01*
X87401918Y-76811456D01*
X87401910Y-76811457D01*
X87180761Y-76870714D01*
X87180750Y-76870718D01*
X86973254Y-76967475D01*
X86973252Y-76967476D01*
X86973251Y-76967477D01*
X86785700Y-77098802D01*
X86785698Y-77098803D01*
X86785695Y-77098806D01*
X86623806Y-77260695D01*
X86623803Y-77260698D01*
X86623802Y-77260700D01*
X86584122Y-77317369D01*
X86492476Y-77448252D01*
X86492475Y-77448254D01*
X86395718Y-77655750D01*
X86395714Y-77655761D01*
X86336457Y-77876910D01*
X86336456Y-77876918D01*
X86316502Y-78104998D01*
X86316502Y-78105001D01*
X83651500Y-78105001D01*
X83651500Y-73660001D01*
X86316502Y-73660001D01*
X86336456Y-73888081D01*
X86336457Y-73888089D01*
X86395714Y-74109238D01*
X86395718Y-74109249D01*
X86492475Y-74316745D01*
X86492477Y-74316749D01*
X86623802Y-74504300D01*
X86785700Y-74666198D01*
X86973251Y-74797523D01*
X87092381Y-74853074D01*
X87180750Y-74894281D01*
X87180752Y-74894281D01*
X87180757Y-74894284D01*
X87401913Y-74953543D01*
X87564832Y-74967796D01*
X87629998Y-74973498D01*
X87630000Y-74973498D01*
X87630002Y-74973498D01*
X87687021Y-74968509D01*
X87858087Y-74953543D01*
X88079243Y-74894284D01*
X88286749Y-74797523D01*
X88474300Y-74666198D01*
X88636198Y-74504300D01*
X88767523Y-74316749D01*
X88864284Y-74109243D01*
X88923543Y-73888087D01*
X88943498Y-73660000D01*
X88923543Y-73431913D01*
X88864284Y-73210757D01*
X88863830Y-73209784D01*
X88776301Y-73022076D01*
X88767523Y-73003251D01*
X88636198Y-72815700D01*
X88474300Y-72653802D01*
X88286749Y-72522477D01*
X88243655Y-72502382D01*
X88079249Y-72425718D01*
X88079238Y-72425714D01*
X87858089Y-72366457D01*
X87858081Y-72366456D01*
X87630002Y-72346502D01*
X87629998Y-72346502D01*
X87401918Y-72366456D01*
X87401910Y-72366457D01*
X87180761Y-72425714D01*
X87180750Y-72425718D01*
X86973254Y-72522475D01*
X86973252Y-72522476D01*
X86973251Y-72522477D01*
X86785700Y-72653802D01*
X86785698Y-72653803D01*
X86785695Y-72653806D01*
X86623806Y-72815695D01*
X86623803Y-72815698D01*
X86623802Y-72815700D01*
X86563725Y-72901499D01*
X86492476Y-73003252D01*
X86492475Y-73003254D01*
X86395718Y-73210750D01*
X86395714Y-73210761D01*
X86336457Y-73431910D01*
X86336456Y-73431918D01*
X86316502Y-73659998D01*
X86316502Y-73660001D01*
X83651500Y-73660001D01*
X83651500Y-69338565D01*
X83671185Y-69271526D01*
X83687814Y-69250889D01*
X85044865Y-67893837D01*
X85106188Y-67860353D01*
X85175880Y-67865337D01*
G37*
%TD.AperFunction*%
%TA.AperFunction,NonConductor*%
G36*
X102709081Y-93553931D02*
G01*
X102753428Y-93582432D01*
X105521598Y-96350602D01*
X105555083Y-96411925D01*
X105550099Y-96481617D01*
X105544607Y-96493270D01*
X105544765Y-96493344D01*
X105445718Y-96705750D01*
X105445714Y-96705761D01*
X105386457Y-96926910D01*
X105386456Y-96926918D01*
X105366502Y-97154998D01*
X105366502Y-97155001D01*
X105386456Y-97383081D01*
X105386457Y-97383088D01*
X105437266Y-97572706D01*
X105435603Y-97642556D01*
X105396441Y-97700419D01*
X105332212Y-97727923D01*
X105317491Y-97728800D01*
X103964743Y-97728800D01*
X103897704Y-97709115D01*
X103877062Y-97692481D01*
X103483704Y-97299123D01*
X103471922Y-97285490D01*
X103457372Y-97265946D01*
X103457371Y-97265945D01*
X103457369Y-97265942D01*
X103456280Y-97265028D01*
X103418959Y-97233711D01*
X103410985Y-97226404D01*
X103407002Y-97222421D01*
X103406996Y-97222416D01*
X103382412Y-97202976D01*
X103379619Y-97200701D01*
X103326743Y-97156334D01*
X103321540Y-97151968D01*
X103321535Y-97151965D01*
X103315505Y-97147999D01*
X103315530Y-97147959D01*
X103308969Y-97143779D01*
X103308945Y-97143820D01*
X103302807Y-97140034D01*
X103302806Y-97140033D01*
X103302803Y-97140032D01*
X103302799Y-97140029D01*
X103234060Y-97107974D01*
X103230816Y-97106404D01*
X103163085Y-97072389D01*
X103156301Y-97069920D01*
X103156316Y-97069876D01*
X103148971Y-97067322D01*
X103148957Y-97067367D01*
X103142105Y-97065096D01*
X103067826Y-97049758D01*
X103064308Y-97048978D01*
X102990553Y-97031499D01*
X102983382Y-97030661D01*
X102983387Y-97030612D01*
X102975657Y-97029822D01*
X102975653Y-97029870D01*
X102968462Y-97029240D01*
X102892607Y-97031448D01*
X102889001Y-97031500D01*
X102730826Y-97031500D01*
X102663787Y-97011815D01*
X102629252Y-96978625D01*
X102606198Y-96945700D01*
X102444300Y-96783802D01*
X102256749Y-96652477D01*
X102213655Y-96632382D01*
X102161215Y-96586210D01*
X102142063Y-96519017D01*
X102162278Y-96452136D01*
X102213655Y-96407618D01*
X102216882Y-96406112D01*
X102256749Y-96387523D01*
X102444300Y-96256198D01*
X102606198Y-96094300D01*
X102737523Y-95906749D01*
X102834284Y-95699243D01*
X102893543Y-95478087D01*
X102913498Y-95250000D01*
X102893543Y-95021913D01*
X102834284Y-94800757D01*
X102826716Y-94784528D01*
X102793183Y-94712615D01*
X102737523Y-94593251D01*
X102606198Y-94405700D01*
X102444300Y-94243802D01*
X102256749Y-94112477D01*
X102213655Y-94092382D01*
X102161215Y-94046210D01*
X102142063Y-93979017D01*
X102162278Y-93912136D01*
X102213655Y-93867618D01*
X102216882Y-93866112D01*
X102256749Y-93847523D01*
X102444300Y-93716198D01*
X102578066Y-93582432D01*
X102639389Y-93548947D01*
X102709081Y-93553931D01*
G37*
%TD.AperFunction*%
%TA.AperFunction,NonConductor*%
G36*
X86404956Y-86278359D02*
G01*
X86460890Y-86320231D01*
X86474003Y-86342132D01*
X86492477Y-86381749D01*
X86623802Y-86569300D01*
X86785700Y-86731198D01*
X86973251Y-86862523D01*
X87045554Y-86896238D01*
X87180750Y-86959281D01*
X87180752Y-86959281D01*
X87180757Y-86959284D01*
X87401913Y-87018543D01*
X87564832Y-87032796D01*
X87629998Y-87038498D01*
X87630000Y-87038498D01*
X87630002Y-87038498D01*
X87687021Y-87033509D01*
X87858087Y-87018543D01*
X88079243Y-86959284D01*
X88105040Y-86947254D01*
X88174114Y-86936762D01*
X88237898Y-86965280D01*
X88257763Y-86986752D01*
X88273392Y-87008264D01*
X88279805Y-87018027D01*
X88302356Y-87056159D01*
X88302358Y-87056162D01*
X88302362Y-87056166D01*
X88316789Y-87070593D01*
X88329426Y-87085388D01*
X88341428Y-87101907D01*
X88374107Y-87128942D01*
X88375568Y-87130150D01*
X88384209Y-87138013D01*
X89292032Y-88045836D01*
X89325517Y-88107159D01*
X89320533Y-88176851D01*
X89278661Y-88232784D01*
X89213197Y-88257201D01*
X89172259Y-88253292D01*
X89128095Y-88241459D01*
X89128092Y-88241458D01*
X89128087Y-88241457D01*
X89128084Y-88241456D01*
X89128081Y-88241456D01*
X88900002Y-88221502D01*
X88899998Y-88221502D01*
X88671918Y-88241456D01*
X88671910Y-88241457D01*
X88450761Y-88300714D01*
X88450750Y-88300718D01*
X88243254Y-88397475D01*
X88243252Y-88397476D01*
X88243251Y-88397477D01*
X88055700Y-88528802D01*
X88055698Y-88528803D01*
X88055695Y-88528806D01*
X87893806Y-88690695D01*
X87893803Y-88690698D01*
X87893802Y-88690700D01*
X87820321Y-88795642D01*
X87762476Y-88878252D01*
X87762475Y-88878254D01*
X87665718Y-89085750D01*
X87665714Y-89085761D01*
X87606457Y-89306910D01*
X87606456Y-89306918D01*
X87586502Y-89534998D01*
X87586502Y-89535001D01*
X87606456Y-89763081D01*
X87606457Y-89763089D01*
X87665714Y-89984238D01*
X87665718Y-89984249D01*
X87752334Y-90169998D01*
X87762477Y-90191749D01*
X87893802Y-90379300D01*
X88055700Y-90541198D01*
X88243251Y-90672523D01*
X88368091Y-90730736D01*
X88450750Y-90769281D01*
X88450752Y-90769281D01*
X88450757Y-90769284D01*
X88671913Y-90828543D01*
X88834832Y-90842796D01*
X88899998Y-90848498D01*
X88900000Y-90848498D01*
X88900002Y-90848498D01*
X88957021Y-90843509D01*
X89128087Y-90828543D01*
X89349243Y-90769284D01*
X89556749Y-90672523D01*
X89744300Y-90541198D01*
X89906198Y-90379300D01*
X90037523Y-90191749D01*
X90134284Y-89984243D01*
X90193543Y-89763087D01*
X90213498Y-89535000D01*
X90211595Y-89513254D01*
X90203726Y-89423307D01*
X90193543Y-89306913D01*
X90181707Y-89262740D01*
X90183370Y-89192892D01*
X90222532Y-89135029D01*
X90286761Y-89107525D01*
X90355663Y-89119111D01*
X90389161Y-89142965D01*
X91746018Y-90499823D01*
X92957100Y-91710905D01*
X92990585Y-91772228D01*
X92985601Y-91841920D01*
X92970994Y-91869709D01*
X92842479Y-92053246D01*
X92842475Y-92053254D01*
X92745718Y-92260750D01*
X92745714Y-92260761D01*
X92686457Y-92481910D01*
X92686456Y-92481918D01*
X92666502Y-92709998D01*
X92666502Y-92710001D01*
X92686456Y-92938081D01*
X92686457Y-92938089D01*
X92745714Y-93159238D01*
X92745718Y-93159249D01*
X92814770Y-93307331D01*
X92842477Y-93366749D01*
X92973802Y-93554300D01*
X93135700Y-93716198D01*
X93323251Y-93847523D01*
X93366345Y-93867618D01*
X93418784Y-93913791D01*
X93437936Y-93980984D01*
X93417720Y-94047865D01*
X93366345Y-94092382D01*
X93323251Y-94112476D01*
X93215389Y-94188003D01*
X93135700Y-94243802D01*
X93135698Y-94243803D01*
X93135695Y-94243806D01*
X92973806Y-94405695D01*
X92973803Y-94405698D01*
X92973802Y-94405700D01*
X92863220Y-94563625D01*
X92808646Y-94607249D01*
X92761648Y-94616500D01*
X90888631Y-94616500D01*
X90872879Y-94614760D01*
X90872854Y-94615032D01*
X90865092Y-94614298D01*
X90865091Y-94614298D01*
X90841737Y-94615032D01*
X90796969Y-94616439D01*
X90793074Y-94616500D01*
X90765144Y-94616500D01*
X90765141Y-94616500D01*
X90765125Y-94616501D01*
X90761032Y-94617018D01*
X90749404Y-94617933D01*
X90705113Y-94619325D01*
X90705107Y-94619326D01*
X90685500Y-94625022D01*
X90666461Y-94628965D01*
X90646211Y-94631524D01*
X90646205Y-94631525D01*
X90646203Y-94631526D01*
X90635425Y-94635792D01*
X90605006Y-94647836D01*
X90593960Y-94651617D01*
X90551413Y-94663979D01*
X90551407Y-94663981D01*
X90533833Y-94674374D01*
X90516372Y-94682928D01*
X90497386Y-94690446D01*
X90497385Y-94690446D01*
X90461535Y-94716492D01*
X90451776Y-94722902D01*
X90413637Y-94745457D01*
X90399201Y-94759894D01*
X90384415Y-94772523D01*
X90367893Y-94784528D01*
X90367891Y-94784529D01*
X90367891Y-94784530D01*
X90367888Y-94784533D01*
X90339642Y-94818674D01*
X90331783Y-94827311D01*
X89312429Y-95846664D01*
X89251106Y-95880149D01*
X89192655Y-95878758D01*
X89128087Y-95861457D01*
X89128085Y-95861456D01*
X89128081Y-95861456D01*
X88900002Y-95841502D01*
X88899998Y-95841502D01*
X88671918Y-95861456D01*
X88671910Y-95861457D01*
X88450761Y-95920714D01*
X88450750Y-95920718D01*
X88243254Y-96017475D01*
X88243252Y-96017476D01*
X88190337Y-96054528D01*
X88055700Y-96148802D01*
X88055698Y-96148803D01*
X88055695Y-96148806D01*
X87893806Y-96310695D01*
X87893803Y-96310698D01*
X87893802Y-96310700D01*
X87847662Y-96376595D01*
X87762476Y-96498252D01*
X87762475Y-96498254D01*
X87665718Y-96705750D01*
X87665714Y-96705761D01*
X87606457Y-96926910D01*
X87606456Y-96926918D01*
X87586502Y-97154998D01*
X87586502Y-97155001D01*
X87606456Y-97383081D01*
X87606457Y-97383089D01*
X87665714Y-97604238D01*
X87665718Y-97604249D01*
X87745006Y-97774283D01*
X87762477Y-97811749D01*
X87893802Y-97999300D01*
X88055700Y-98161198D01*
X88243251Y-98292523D01*
X88368091Y-98350736D01*
X88450750Y-98389281D01*
X88450752Y-98389281D01*
X88450757Y-98389284D01*
X88609761Y-98431889D01*
X88669422Y-98468254D01*
X88699951Y-98531101D01*
X88691656Y-98600476D01*
X88665349Y-98639345D01*
X85686481Y-101618214D01*
X85625158Y-101651699D01*
X85555466Y-101646715D01*
X85499533Y-101604843D01*
X85475116Y-101539379D01*
X85474800Y-101530533D01*
X85474800Y-87157365D01*
X85494485Y-87090326D01*
X85511115Y-87069688D01*
X86273944Y-86306858D01*
X86335265Y-86273375D01*
X86404956Y-86278359D01*
G37*
%TD.AperFunction*%
%TA.AperFunction,NonConductor*%
G36*
X92705434Y-97173185D02*
G01*
X92751189Y-97225989D01*
X92761133Y-97295147D01*
X92750777Y-97329903D01*
X92748828Y-97334082D01*
X92745716Y-97340755D01*
X92745714Y-97340761D01*
X92686457Y-97561910D01*
X92686456Y-97561918D01*
X92666502Y-97789998D01*
X92666502Y-97790001D01*
X92686456Y-98018081D01*
X92686457Y-98018089D01*
X92745714Y-98239238D01*
X92745718Y-98239249D01*
X92835548Y-98431889D01*
X92842477Y-98446749D01*
X92973802Y-98634300D01*
X93135700Y-98796198D01*
X93323251Y-98927523D01*
X93366345Y-98947618D01*
X93418784Y-98993791D01*
X93437936Y-99060984D01*
X93417720Y-99127865D01*
X93366345Y-99172382D01*
X93323251Y-99192476D01*
X93240184Y-99250641D01*
X93135700Y-99323802D01*
X93135698Y-99323803D01*
X93135695Y-99323806D01*
X92973806Y-99485695D01*
X92842476Y-99673252D01*
X92842475Y-99673254D01*
X92745718Y-99880750D01*
X92745714Y-99880761D01*
X92686457Y-100101910D01*
X92686456Y-100101918D01*
X92666502Y-100329998D01*
X92666502Y-100330001D01*
X92686456Y-100558081D01*
X92686457Y-100558089D01*
X92745714Y-100779238D01*
X92745718Y-100779249D01*
X92832334Y-100964998D01*
X92842477Y-100986749D01*
X92973802Y-101174300D01*
X93135700Y-101336198D01*
X93323251Y-101467523D01*
X93366345Y-101487618D01*
X93418784Y-101533791D01*
X93437936Y-101600984D01*
X93417720Y-101667865D01*
X93366345Y-101712382D01*
X93323251Y-101732476D01*
X93214064Y-101808931D01*
X93135700Y-101863802D01*
X93135698Y-101863803D01*
X93135695Y-101863806D01*
X92973806Y-102025695D01*
X92973803Y-102025698D01*
X92973802Y-102025700D01*
X92863220Y-102183625D01*
X92808646Y-102227249D01*
X92761648Y-102236500D01*
X92295666Y-102236500D01*
X92228627Y-102216815D01*
X92207985Y-102200181D01*
X90583988Y-100576183D01*
X90574087Y-100563823D01*
X90573877Y-100563998D01*
X90568902Y-100557986D01*
X90568900Y-100557982D01*
X90519231Y-100511340D01*
X90516434Y-100508629D01*
X90496666Y-100488861D01*
X90493404Y-100486331D01*
X90484519Y-100478743D01*
X90452221Y-100448414D01*
X90452219Y-100448412D01*
X90434331Y-100438578D01*
X90418070Y-100427897D01*
X90401939Y-100415384D01*
X90361275Y-100397788D01*
X90350785Y-100392649D01*
X90311960Y-100371305D01*
X90311956Y-100371304D01*
X90292187Y-100366228D01*
X90273781Y-100359926D01*
X90255044Y-100351818D01*
X90255045Y-100351818D01*
X90211283Y-100344887D01*
X90199847Y-100342519D01*
X90185093Y-100338731D01*
X90156932Y-100331500D01*
X90156930Y-100331500D01*
X90136516Y-100331500D01*
X90117112Y-100329972D01*
X90096681Y-100326735D01*
X90033548Y-100296803D01*
X90014516Y-100275393D01*
X89906198Y-100120700D01*
X89744300Y-99958802D01*
X89556749Y-99827477D01*
X89556750Y-99827477D01*
X89556748Y-99827476D01*
X89532574Y-99816204D01*
X89521022Y-99810817D01*
X89468584Y-99764646D01*
X89449432Y-99697452D01*
X89469648Y-99630571D01*
X89485742Y-99610760D01*
X91906686Y-97189819D01*
X91968009Y-97156334D01*
X91994367Y-97153500D01*
X92638395Y-97153500D01*
X92705434Y-97173185D01*
G37*
%TD.AperFunction*%
%TA.AperFunction,NonConductor*%
G36*
X84697634Y-104502884D02*
G01*
X84753567Y-104544756D01*
X84777984Y-104610220D01*
X84778300Y-104619066D01*
X84778300Y-107274433D01*
X84758615Y-107341472D01*
X84741981Y-107362114D01*
X82900181Y-109203914D01*
X82838858Y-109237399D01*
X82769166Y-109232415D01*
X82713233Y-109190543D01*
X82688816Y-109125079D01*
X82688500Y-109116233D01*
X82688500Y-108714410D01*
X82688500Y-108714404D01*
X82678331Y-108600030D01*
X82624704Y-108412611D01*
X82534448Y-108239824D01*
X82500135Y-108197743D01*
X82411257Y-108088742D01*
X82260176Y-107965552D01*
X82188772Y-107928254D01*
X82087389Y-107875296D01*
X82087388Y-107875295D01*
X82087385Y-107875294D01*
X81972670Y-107842471D01*
X81899970Y-107821669D01*
X81899967Y-107821668D01*
X81899965Y-107821668D01*
X81830237Y-107815469D01*
X81785596Y-107811500D01*
X81785592Y-107811500D01*
X81585866Y-107811500D01*
X81518827Y-107791815D01*
X81473072Y-107739011D01*
X81463128Y-107669853D01*
X81492153Y-107606297D01*
X81498185Y-107599819D01*
X84566619Y-104531385D01*
X84627942Y-104497900D01*
X84697634Y-104502884D01*
G37*
%TD.AperFunction*%
M02*
