%TF.GenerationSoftware,KiCad,Pcbnew,6.0.11+dfsg-1~bpo11+1*%
%TF.CreationDate,2023-11-19T23:21:45+01:00*%
%TF.ProjectId,lux106_002,6c757831-3036-45f3-9030-322e6b696361,rev?*%
%TF.SameCoordinates,Original*%
%TF.FileFunction,Legend,Top*%
%TF.FilePolarity,Positive*%
%FSLAX46Y46*%
G04 Gerber Fmt 4.6, Leading zero omitted, Abs format (unit mm)*
G04 Created by KiCad (PCBNEW 6.0.11+dfsg-1~bpo11+1) date 2023-11-19 23:21:45*
%MOMM*%
%LPD*%
G01*
G04 APERTURE LIST*
%ADD10C,0.150000*%
%ADD11C,0.120000*%
G04 APERTURE END LIST*
D10*
X77011785Y-124107380D02*
X76535595Y-124107380D01*
X76535595Y-123107380D01*
X77345119Y-123107380D02*
X77345119Y-123916904D01*
X77392738Y-124012142D01*
X77440357Y-124059761D01*
X77535595Y-124107380D01*
X77726071Y-124107380D01*
X77821309Y-124059761D01*
X77868928Y-124012142D01*
X77916547Y-123916904D01*
X77916547Y-123107380D01*
X78297500Y-123107380D02*
X78964166Y-124107380D01*
X78964166Y-123107380D02*
X78297500Y-124107380D01*
X79916547Y-124012142D02*
X79868928Y-124059761D01*
X79726071Y-124107380D01*
X79630833Y-124107380D01*
X79487976Y-124059761D01*
X79392738Y-123964523D01*
X79345119Y-123869285D01*
X79297500Y-123678809D01*
X79297500Y-123535952D01*
X79345119Y-123345476D01*
X79392738Y-123250238D01*
X79487976Y-123155000D01*
X79630833Y-123107380D01*
X79726071Y-123107380D01*
X79868928Y-123155000D01*
X79916547Y-123202619D01*
X80345119Y-124107380D02*
X80345119Y-123107380D01*
X80345119Y-123583571D02*
X80916547Y-123583571D01*
X80916547Y-124107380D02*
X80916547Y-123107380D01*
X81583214Y-123107380D02*
X81773690Y-123107380D01*
X81868928Y-123155000D01*
X81964166Y-123250238D01*
X82011785Y-123440714D01*
X82011785Y-123774047D01*
X81964166Y-123964523D01*
X81868928Y-124059761D01*
X81773690Y-124107380D01*
X81583214Y-124107380D01*
X81487976Y-124059761D01*
X81392738Y-123964523D01*
X81345119Y-123774047D01*
X81345119Y-123440714D01*
X81392738Y-123250238D01*
X81487976Y-123155000D01*
X81583214Y-123107380D01*
X83011785Y-124107380D02*
X82678452Y-123631190D01*
X82440357Y-124107380D02*
X82440357Y-123107380D01*
X82821309Y-123107380D01*
X82916547Y-123155000D01*
X82964166Y-123202619D01*
X83011785Y-123297857D01*
X83011785Y-123440714D01*
X82964166Y-123535952D01*
X82916547Y-123583571D01*
X82821309Y-123631190D01*
X82440357Y-123631190D01*
X83440357Y-124107380D02*
X83440357Y-123107380D01*
X83678452Y-123107380D01*
X83821309Y-123155000D01*
X83916547Y-123250238D01*
X83964166Y-123345476D01*
X84011785Y-123535952D01*
X84011785Y-123678809D01*
X83964166Y-123869285D01*
X83916547Y-123964523D01*
X83821309Y-124059761D01*
X83678452Y-124107380D01*
X83440357Y-124107380D01*
X85726071Y-124107380D02*
X85154642Y-124107380D01*
X85440357Y-124107380D02*
X85440357Y-123107380D01*
X85345119Y-123250238D01*
X85249880Y-123345476D01*
X85154642Y-123393095D01*
X86154642Y-124012142D02*
X86202261Y-124059761D01*
X86154642Y-124107380D01*
X86107023Y-124059761D01*
X86154642Y-124012142D01*
X86154642Y-124107380D01*
X86821309Y-123107380D02*
X86916547Y-123107380D01*
X87011785Y-123155000D01*
X87059404Y-123202619D01*
X87107023Y-123297857D01*
X87154642Y-123488333D01*
X87154642Y-123726428D01*
X87107023Y-123916904D01*
X87059404Y-124012142D01*
X87011785Y-124059761D01*
X86916547Y-124107380D01*
X86821309Y-124107380D01*
X86726071Y-124059761D01*
X86678452Y-124012142D01*
X86630833Y-123916904D01*
X86583214Y-123726428D01*
X86583214Y-123488333D01*
X86630833Y-123297857D01*
X86678452Y-123202619D01*
X86726071Y-123155000D01*
X86821309Y-123107380D01*
X76392738Y-125050714D02*
X76773690Y-125050714D01*
X76535595Y-125717380D02*
X76535595Y-124860238D01*
X76583214Y-124765000D01*
X76678452Y-124717380D01*
X76773690Y-124717380D01*
X77107023Y-125717380D02*
X77107023Y-125050714D01*
X77107023Y-125241190D02*
X77154642Y-125145952D01*
X77202261Y-125098333D01*
X77297500Y-125050714D01*
X77392738Y-125050714D01*
X78154642Y-125717380D02*
X78154642Y-125193571D01*
X78107023Y-125098333D01*
X78011785Y-125050714D01*
X77821309Y-125050714D01*
X77726071Y-125098333D01*
X78154642Y-125669761D02*
X78059404Y-125717380D01*
X77821309Y-125717380D01*
X77726071Y-125669761D01*
X77678452Y-125574523D01*
X77678452Y-125479285D01*
X77726071Y-125384047D01*
X77821309Y-125336428D01*
X78059404Y-125336428D01*
X78154642Y-125288809D01*
X78630833Y-125050714D02*
X78630833Y-125717380D01*
X78630833Y-125145952D02*
X78678452Y-125098333D01*
X78773690Y-125050714D01*
X78916547Y-125050714D01*
X79011785Y-125098333D01*
X79059404Y-125193571D01*
X79059404Y-125717380D01*
X79916547Y-125669761D02*
X79821309Y-125717380D01*
X79630833Y-125717380D01*
X79535595Y-125669761D01*
X79487976Y-125574523D01*
X79487976Y-125193571D01*
X79535595Y-125098333D01*
X79630833Y-125050714D01*
X79821309Y-125050714D01*
X79916547Y-125098333D01*
X79964166Y-125193571D01*
X79964166Y-125288809D01*
X79487976Y-125384047D01*
X80821309Y-125050714D02*
X80821309Y-125717380D01*
X80392738Y-125050714D02*
X80392738Y-125574523D01*
X80440357Y-125669761D01*
X80535595Y-125717380D01*
X80678452Y-125717380D01*
X80773690Y-125669761D01*
X80821309Y-125622142D01*
X81297500Y-125717380D02*
X81297500Y-125050714D01*
X81297500Y-125145952D02*
X81345119Y-125098333D01*
X81440357Y-125050714D01*
X81583214Y-125050714D01*
X81678452Y-125098333D01*
X81726071Y-125193571D01*
X81726071Y-125717380D01*
X81726071Y-125193571D02*
X81773690Y-125098333D01*
X81868928Y-125050714D01*
X82011785Y-125050714D01*
X82107023Y-125098333D01*
X82154642Y-125193571D01*
X82154642Y-125717380D01*
X83345119Y-124812619D02*
X83392738Y-124765000D01*
X83487976Y-124717380D01*
X83726071Y-124717380D01*
X83821309Y-124765000D01*
X83868928Y-124812619D01*
X83916547Y-124907857D01*
X83916547Y-125003095D01*
X83868928Y-125145952D01*
X83297500Y-125717380D01*
X83916547Y-125717380D01*
X84535595Y-124717380D02*
X84630833Y-124717380D01*
X84726071Y-124765000D01*
X84773690Y-124812619D01*
X84821309Y-124907857D01*
X84868928Y-125098333D01*
X84868928Y-125336428D01*
X84821309Y-125526904D01*
X84773690Y-125622142D01*
X84726071Y-125669761D01*
X84630833Y-125717380D01*
X84535595Y-125717380D01*
X84440357Y-125669761D01*
X84392738Y-125622142D01*
X84345119Y-125526904D01*
X84297500Y-125336428D01*
X84297500Y-125098333D01*
X84345119Y-124907857D01*
X84392738Y-124812619D01*
X84440357Y-124765000D01*
X84535595Y-124717380D01*
X85249880Y-124812619D02*
X85297500Y-124765000D01*
X85392738Y-124717380D01*
X85630833Y-124717380D01*
X85726071Y-124765000D01*
X85773690Y-124812619D01*
X85821309Y-124907857D01*
X85821309Y-125003095D01*
X85773690Y-125145952D01*
X85202261Y-125717380D01*
X85821309Y-125717380D01*
X86154642Y-124717380D02*
X86773690Y-124717380D01*
X86440357Y-125098333D01*
X86583214Y-125098333D01*
X86678452Y-125145952D01*
X86726071Y-125193571D01*
X86773690Y-125288809D01*
X86773690Y-125526904D01*
X86726071Y-125622142D01*
X86678452Y-125669761D01*
X86583214Y-125717380D01*
X86297500Y-125717380D01*
X86202261Y-125669761D01*
X86154642Y-125622142D01*
X87202261Y-125622142D02*
X87249880Y-125669761D01*
X87202261Y-125717380D01*
X87154642Y-125669761D01*
X87202261Y-125622142D01*
X87202261Y-125717380D01*
X88202261Y-125717380D02*
X87630833Y-125717380D01*
X87916547Y-125717380D02*
X87916547Y-124717380D01*
X87821309Y-124860238D01*
X87726071Y-124955476D01*
X87630833Y-125003095D01*
X89154642Y-125717380D02*
X88583214Y-125717380D01*
X88868928Y-125717380D02*
X88868928Y-124717380D01*
X88773690Y-124860238D01*
X88678452Y-124955476D01*
X88583214Y-125003095D01*
%TO.C,R11*%
X104592380Y-74302857D02*
X104116190Y-74636190D01*
X104592380Y-74874285D02*
X103592380Y-74874285D01*
X103592380Y-74493333D01*
X103640000Y-74398095D01*
X103687619Y-74350476D01*
X103782857Y-74302857D01*
X103925714Y-74302857D01*
X104020952Y-74350476D01*
X104068571Y-74398095D01*
X104116190Y-74493333D01*
X104116190Y-74874285D01*
X104592380Y-73350476D02*
X104592380Y-73921904D01*
X104592380Y-73636190D02*
X103592380Y-73636190D01*
X103735238Y-73731428D01*
X103830476Y-73826666D01*
X103878095Y-73921904D01*
X104592380Y-72398095D02*
X104592380Y-72969523D01*
X104592380Y-72683809D02*
X103592380Y-72683809D01*
X103735238Y-72779047D01*
X103830476Y-72874285D01*
X103878095Y-72969523D01*
%TO.C,R1*%
X74872380Y-92876666D02*
X74396190Y-93210000D01*
X74872380Y-93448095D02*
X73872380Y-93448095D01*
X73872380Y-93067142D01*
X73920000Y-92971904D01*
X73967619Y-92924285D01*
X74062857Y-92876666D01*
X74205714Y-92876666D01*
X74300952Y-92924285D01*
X74348571Y-92971904D01*
X74396190Y-93067142D01*
X74396190Y-93448095D01*
X74872380Y-91924285D02*
X74872380Y-92495714D01*
X74872380Y-92210000D02*
X73872380Y-92210000D01*
X74015238Y-92305238D01*
X74110476Y-92400476D01*
X74158095Y-92495714D01*
%TO.C,BT1*%
X121218571Y-62485714D02*
X121266190Y-62342857D01*
X121313809Y-62295238D01*
X121409047Y-62247619D01*
X121551904Y-62247619D01*
X121647142Y-62295238D01*
X121694761Y-62342857D01*
X121742380Y-62438095D01*
X121742380Y-62819047D01*
X120742380Y-62819047D01*
X120742380Y-62485714D01*
X120790000Y-62390476D01*
X120837619Y-62342857D01*
X120932857Y-62295238D01*
X121028095Y-62295238D01*
X121123333Y-62342857D01*
X121170952Y-62390476D01*
X121218571Y-62485714D01*
X121218571Y-62819047D01*
X120742380Y-61961904D02*
X120742380Y-61390476D01*
X121742380Y-61676190D02*
X120742380Y-61676190D01*
X121742380Y-60533333D02*
X121742380Y-61104761D01*
X121742380Y-60819047D02*
X120742380Y-60819047D01*
X120885238Y-60914285D01*
X120980476Y-61009523D01*
X121028095Y-61104761D01*
%TO.C,R9*%
X114572380Y-100496666D02*
X114096190Y-100830000D01*
X114572380Y-101068095D02*
X113572380Y-101068095D01*
X113572380Y-100687142D01*
X113620000Y-100591904D01*
X113667619Y-100544285D01*
X113762857Y-100496666D01*
X113905714Y-100496666D01*
X114000952Y-100544285D01*
X114048571Y-100591904D01*
X114096190Y-100687142D01*
X114096190Y-101068095D01*
X114572380Y-100020476D02*
X114572380Y-99830000D01*
X114524761Y-99734761D01*
X114477142Y-99687142D01*
X114334285Y-99591904D01*
X114143809Y-99544285D01*
X113762857Y-99544285D01*
X113667619Y-99591904D01*
X113620000Y-99639523D01*
X113572380Y-99734761D01*
X113572380Y-99925238D01*
X113620000Y-100020476D01*
X113667619Y-100068095D01*
X113762857Y-100115714D01*
X114000952Y-100115714D01*
X114096190Y-100068095D01*
X114143809Y-100020476D01*
X114191428Y-99925238D01*
X114191428Y-99734761D01*
X114143809Y-99639523D01*
X114096190Y-99591904D01*
X114000952Y-99544285D01*
%TO.C,R16*%
X104412380Y-118752857D02*
X103936190Y-119086190D01*
X104412380Y-119324285D02*
X103412380Y-119324285D01*
X103412380Y-118943333D01*
X103460000Y-118848095D01*
X103507619Y-118800476D01*
X103602857Y-118752857D01*
X103745714Y-118752857D01*
X103840952Y-118800476D01*
X103888571Y-118848095D01*
X103936190Y-118943333D01*
X103936190Y-119324285D01*
X104412380Y-117800476D02*
X104412380Y-118371904D01*
X104412380Y-118086190D02*
X103412380Y-118086190D01*
X103555238Y-118181428D01*
X103650476Y-118276666D01*
X103698095Y-118371904D01*
X103412380Y-116943333D02*
X103412380Y-117133809D01*
X103460000Y-117229047D01*
X103507619Y-117276666D01*
X103650476Y-117371904D01*
X103840952Y-117419523D01*
X104221904Y-117419523D01*
X104317142Y-117371904D01*
X104364761Y-117324285D01*
X104412380Y-117229047D01*
X104412380Y-117038571D01*
X104364761Y-116943333D01*
X104317142Y-116895714D01*
X104221904Y-116848095D01*
X103983809Y-116848095D01*
X103888571Y-116895714D01*
X103840952Y-116943333D01*
X103793333Y-117038571D01*
X103793333Y-117229047D01*
X103840952Y-117324285D01*
X103888571Y-117371904D01*
X103983809Y-117419523D01*
%TO.C,C4*%
X115867142Y-87766666D02*
X115914761Y-87814285D01*
X115962380Y-87957142D01*
X115962380Y-88052380D01*
X115914761Y-88195238D01*
X115819523Y-88290476D01*
X115724285Y-88338095D01*
X115533809Y-88385714D01*
X115390952Y-88385714D01*
X115200476Y-88338095D01*
X115105238Y-88290476D01*
X115010000Y-88195238D01*
X114962380Y-88052380D01*
X114962380Y-87957142D01*
X115010000Y-87814285D01*
X115057619Y-87766666D01*
X115295714Y-86909523D02*
X115962380Y-86909523D01*
X114914761Y-87147619D02*
X115629047Y-87385714D01*
X115629047Y-86766666D01*
%TO.C,U1*%
X95768095Y-70747380D02*
X95768095Y-71556904D01*
X95815714Y-71652142D01*
X95863333Y-71699761D01*
X95958571Y-71747380D01*
X96149047Y-71747380D01*
X96244285Y-71699761D01*
X96291904Y-71652142D01*
X96339523Y-71556904D01*
X96339523Y-70747380D01*
X97339523Y-71747380D02*
X96768095Y-71747380D01*
X97053809Y-71747380D02*
X97053809Y-70747380D01*
X96958571Y-70890238D01*
X96863333Y-70985476D01*
X96768095Y-71033095D01*
%TO.C,R3*%
X79012380Y-101766666D02*
X78536190Y-102100000D01*
X79012380Y-102338095D02*
X78012380Y-102338095D01*
X78012380Y-101957142D01*
X78060000Y-101861904D01*
X78107619Y-101814285D01*
X78202857Y-101766666D01*
X78345714Y-101766666D01*
X78440952Y-101814285D01*
X78488571Y-101861904D01*
X78536190Y-101957142D01*
X78536190Y-102338095D01*
X78012380Y-101433333D02*
X78012380Y-100814285D01*
X78393333Y-101147619D01*
X78393333Y-101004761D01*
X78440952Y-100909523D01*
X78488571Y-100861904D01*
X78583809Y-100814285D01*
X78821904Y-100814285D01*
X78917142Y-100861904D01*
X78964761Y-100909523D01*
X79012380Y-101004761D01*
X79012380Y-101290476D01*
X78964761Y-101385714D01*
X78917142Y-101433333D01*
%TO.C,C3*%
X114093333Y-72807142D02*
X114045714Y-72854761D01*
X113902857Y-72902380D01*
X113807619Y-72902380D01*
X113664761Y-72854761D01*
X113569523Y-72759523D01*
X113521904Y-72664285D01*
X113474285Y-72473809D01*
X113474285Y-72330952D01*
X113521904Y-72140476D01*
X113569523Y-72045238D01*
X113664761Y-71950000D01*
X113807619Y-71902380D01*
X113902857Y-71902380D01*
X114045714Y-71950000D01*
X114093333Y-71997619D01*
X114426666Y-71902380D02*
X115045714Y-71902380D01*
X114712380Y-72283333D01*
X114855238Y-72283333D01*
X114950476Y-72330952D01*
X114998095Y-72378571D01*
X115045714Y-72473809D01*
X115045714Y-72711904D01*
X114998095Y-72807142D01*
X114950476Y-72854761D01*
X114855238Y-72902380D01*
X114569523Y-72902380D01*
X114474285Y-72854761D01*
X114426666Y-72807142D01*
%TO.C,C1*%
X86427142Y-78906666D02*
X86474761Y-78954285D01*
X86522380Y-79097142D01*
X86522380Y-79192380D01*
X86474761Y-79335238D01*
X86379523Y-79430476D01*
X86284285Y-79478095D01*
X86093809Y-79525714D01*
X85950952Y-79525714D01*
X85760476Y-79478095D01*
X85665238Y-79430476D01*
X85570000Y-79335238D01*
X85522380Y-79192380D01*
X85522380Y-79097142D01*
X85570000Y-78954285D01*
X85617619Y-78906666D01*
X86522380Y-77954285D02*
X86522380Y-78525714D01*
X86522380Y-78240000D02*
X85522380Y-78240000D01*
X85665238Y-78335238D01*
X85760476Y-78430476D01*
X85808095Y-78525714D01*
%TO.C,C2*%
X81637142Y-89066666D02*
X81684761Y-89114285D01*
X81732380Y-89257142D01*
X81732380Y-89352380D01*
X81684761Y-89495238D01*
X81589523Y-89590476D01*
X81494285Y-89638095D01*
X81303809Y-89685714D01*
X81160952Y-89685714D01*
X80970476Y-89638095D01*
X80875238Y-89590476D01*
X80780000Y-89495238D01*
X80732380Y-89352380D01*
X80732380Y-89257142D01*
X80780000Y-89114285D01*
X80827619Y-89066666D01*
X80827619Y-88685714D02*
X80780000Y-88638095D01*
X80732380Y-88542857D01*
X80732380Y-88304761D01*
X80780000Y-88209523D01*
X80827619Y-88161904D01*
X80922857Y-88114285D01*
X81018095Y-88114285D01*
X81160952Y-88161904D01*
X81732380Y-88733333D01*
X81732380Y-88114285D01*
%TO.C,D1*%
X91971904Y-59992380D02*
X91971904Y-58992380D01*
X92210000Y-58992380D01*
X92352857Y-59040000D01*
X92448095Y-59135238D01*
X92495714Y-59230476D01*
X92543333Y-59420952D01*
X92543333Y-59563809D01*
X92495714Y-59754285D01*
X92448095Y-59849523D01*
X92352857Y-59944761D01*
X92210000Y-59992380D01*
X91971904Y-59992380D01*
X93495714Y-59992380D02*
X92924285Y-59992380D01*
X93210000Y-59992380D02*
X93210000Y-58992380D01*
X93114761Y-59135238D01*
X93019523Y-59230476D01*
X92924285Y-59278095D01*
%TO.C,R8*%
X108252380Y-97956666D02*
X107776190Y-98290000D01*
X108252380Y-98528095D02*
X107252380Y-98528095D01*
X107252380Y-98147142D01*
X107300000Y-98051904D01*
X107347619Y-98004285D01*
X107442857Y-97956666D01*
X107585714Y-97956666D01*
X107680952Y-98004285D01*
X107728571Y-98051904D01*
X107776190Y-98147142D01*
X107776190Y-98528095D01*
X107680952Y-97385238D02*
X107633333Y-97480476D01*
X107585714Y-97528095D01*
X107490476Y-97575714D01*
X107442857Y-97575714D01*
X107347619Y-97528095D01*
X107300000Y-97480476D01*
X107252380Y-97385238D01*
X107252380Y-97194761D01*
X107300000Y-97099523D01*
X107347619Y-97051904D01*
X107442857Y-97004285D01*
X107490476Y-97004285D01*
X107585714Y-97051904D01*
X107633333Y-97099523D01*
X107680952Y-97194761D01*
X107680952Y-97385238D01*
X107728571Y-97480476D01*
X107776190Y-97528095D01*
X107871428Y-97575714D01*
X108061904Y-97575714D01*
X108157142Y-97528095D01*
X108204761Y-97480476D01*
X108252380Y-97385238D01*
X108252380Y-97194761D01*
X108204761Y-97099523D01*
X108157142Y-97051904D01*
X108061904Y-97004285D01*
X107871428Y-97004285D01*
X107776190Y-97051904D01*
X107728571Y-97099523D01*
X107680952Y-97194761D01*
%TO.C,C5*%
X107607142Y-64916666D02*
X107654761Y-64964285D01*
X107702380Y-65107142D01*
X107702380Y-65202380D01*
X107654761Y-65345238D01*
X107559523Y-65440476D01*
X107464285Y-65488095D01*
X107273809Y-65535714D01*
X107130952Y-65535714D01*
X106940476Y-65488095D01*
X106845238Y-65440476D01*
X106750000Y-65345238D01*
X106702380Y-65202380D01*
X106702380Y-65107142D01*
X106750000Y-64964285D01*
X106797619Y-64916666D01*
X106702380Y-64011904D02*
X106702380Y-64488095D01*
X107178571Y-64535714D01*
X107130952Y-64488095D01*
X107083333Y-64392857D01*
X107083333Y-64154761D01*
X107130952Y-64059523D01*
X107178571Y-64011904D01*
X107273809Y-63964285D01*
X107511904Y-63964285D01*
X107607142Y-64011904D01*
X107654761Y-64059523D01*
X107702380Y-64154761D01*
X107702380Y-64392857D01*
X107654761Y-64488095D01*
X107607142Y-64535714D01*
%TO.C,R13*%
X84092380Y-66788716D02*
X83616190Y-67122049D01*
X84092380Y-67360144D02*
X83092380Y-67360144D01*
X83092380Y-66979192D01*
X83140000Y-66883954D01*
X83187619Y-66836335D01*
X83282857Y-66788716D01*
X83425714Y-66788716D01*
X83520952Y-66836335D01*
X83568571Y-66883954D01*
X83616190Y-66979192D01*
X83616190Y-67360144D01*
X84092380Y-65836335D02*
X84092380Y-66407763D01*
X84092380Y-66122049D02*
X83092380Y-66122049D01*
X83235238Y-66217287D01*
X83330476Y-66312525D01*
X83378095Y-66407763D01*
X83092380Y-65503001D02*
X83092380Y-64883954D01*
X83473333Y-65217287D01*
X83473333Y-65074430D01*
X83520952Y-64979192D01*
X83568571Y-64931573D01*
X83663809Y-64883954D01*
X83901904Y-64883954D01*
X83997142Y-64931573D01*
X84044761Y-64979192D01*
X84092380Y-65074430D01*
X84092380Y-65360144D01*
X84044761Y-65455382D01*
X83997142Y-65503001D01*
%TO.C,R7*%
X104412380Y-110656666D02*
X103936190Y-110990000D01*
X104412380Y-111228095D02*
X103412380Y-111228095D01*
X103412380Y-110847142D01*
X103460000Y-110751904D01*
X103507619Y-110704285D01*
X103602857Y-110656666D01*
X103745714Y-110656666D01*
X103840952Y-110704285D01*
X103888571Y-110751904D01*
X103936190Y-110847142D01*
X103936190Y-111228095D01*
X103412380Y-110323333D02*
X103412380Y-109656666D01*
X104412380Y-110085238D01*
%TO.C,R6*%
X87422380Y-75086666D02*
X86946190Y-75420000D01*
X87422380Y-75658095D02*
X86422380Y-75658095D01*
X86422380Y-75277142D01*
X86470000Y-75181904D01*
X86517619Y-75134285D01*
X86612857Y-75086666D01*
X86755714Y-75086666D01*
X86850952Y-75134285D01*
X86898571Y-75181904D01*
X86946190Y-75277142D01*
X86946190Y-75658095D01*
X86422380Y-74229523D02*
X86422380Y-74420000D01*
X86470000Y-74515238D01*
X86517619Y-74562857D01*
X86660476Y-74658095D01*
X86850952Y-74705714D01*
X87231904Y-74705714D01*
X87327142Y-74658095D01*
X87374761Y-74610476D01*
X87422380Y-74515238D01*
X87422380Y-74324761D01*
X87374761Y-74229523D01*
X87327142Y-74181904D01*
X87231904Y-74134285D01*
X86993809Y-74134285D01*
X86898571Y-74181904D01*
X86850952Y-74229523D01*
X86803333Y-74324761D01*
X86803333Y-74515238D01*
X86850952Y-74610476D01*
X86898571Y-74658095D01*
X86993809Y-74705714D01*
%TO.C,*%
%TO.C,R4*%
X86812380Y-81446666D02*
X86336190Y-81780000D01*
X86812380Y-82018095D02*
X85812380Y-82018095D01*
X85812380Y-81637142D01*
X85860000Y-81541904D01*
X85907619Y-81494285D01*
X86002857Y-81446666D01*
X86145714Y-81446666D01*
X86240952Y-81494285D01*
X86288571Y-81541904D01*
X86336190Y-81637142D01*
X86336190Y-82018095D01*
X86145714Y-80589523D02*
X86812380Y-80589523D01*
X85764761Y-80827619D02*
X86479047Y-81065714D01*
X86479047Y-80446666D01*
%TO.C,R2*%
X85692380Y-110656666D02*
X85216190Y-110990000D01*
X85692380Y-111228095D02*
X84692380Y-111228095D01*
X84692380Y-110847142D01*
X84740000Y-110751904D01*
X84787619Y-110704285D01*
X84882857Y-110656666D01*
X85025714Y-110656666D01*
X85120952Y-110704285D01*
X85168571Y-110751904D01*
X85216190Y-110847142D01*
X85216190Y-111228095D01*
X84787619Y-110275714D02*
X84740000Y-110228095D01*
X84692380Y-110132857D01*
X84692380Y-109894761D01*
X84740000Y-109799523D01*
X84787619Y-109751904D01*
X84882857Y-109704285D01*
X84978095Y-109704285D01*
X85120952Y-109751904D01*
X85692380Y-110323333D01*
X85692380Y-109704285D01*
%TO.C,*%
%TO.C,U2*%
X98298095Y-113547380D02*
X98298095Y-114356904D01*
X98345714Y-114452142D01*
X98393333Y-114499761D01*
X98488571Y-114547380D01*
X98679047Y-114547380D01*
X98774285Y-114499761D01*
X98821904Y-114452142D01*
X98869523Y-114356904D01*
X98869523Y-113547380D01*
X99298095Y-113642619D02*
X99345714Y-113595000D01*
X99440952Y-113547380D01*
X99679047Y-113547380D01*
X99774285Y-113595000D01*
X99821904Y-113642619D01*
X99869523Y-113737857D01*
X99869523Y-113833095D01*
X99821904Y-113975952D01*
X99250476Y-114547380D01*
X99869523Y-114547380D01*
%TO.C,R10*%
X109553760Y-96251722D02*
X109077570Y-96585055D01*
X109553760Y-96823150D02*
X108553760Y-96823150D01*
X108553760Y-96442198D01*
X108601380Y-96346960D01*
X108648999Y-96299341D01*
X108744237Y-96251722D01*
X108887094Y-96251722D01*
X108982332Y-96299341D01*
X109029951Y-96346960D01*
X109077570Y-96442198D01*
X109077570Y-96823150D01*
X109553760Y-95299341D02*
X109553760Y-95870769D01*
X109553760Y-95585055D02*
X108553760Y-95585055D01*
X108696618Y-95680293D01*
X108791856Y-95775531D01*
X108839475Y-95870769D01*
X108553760Y-94680293D02*
X108553760Y-94585055D01*
X108601380Y-94489817D01*
X108648999Y-94442198D01*
X108744237Y-94394579D01*
X108934713Y-94346960D01*
X109172808Y-94346960D01*
X109363284Y-94394579D01*
X109458522Y-94442198D01*
X109506141Y-94489817D01*
X109553760Y-94585055D01*
X109553760Y-94680293D01*
X109506141Y-94775531D01*
X109458522Y-94823150D01*
X109363284Y-94870769D01*
X109172808Y-94918388D01*
X108934713Y-94918388D01*
X108744237Y-94870769D01*
X108648999Y-94823150D01*
X108601380Y-94775531D01*
X108553760Y-94680293D01*
%TO.C,R14*%
X84092380Y-118752857D02*
X83616190Y-119086190D01*
X84092380Y-119324285D02*
X83092380Y-119324285D01*
X83092380Y-118943333D01*
X83140000Y-118848095D01*
X83187619Y-118800476D01*
X83282857Y-118752857D01*
X83425714Y-118752857D01*
X83520952Y-118800476D01*
X83568571Y-118848095D01*
X83616190Y-118943333D01*
X83616190Y-119324285D01*
X84092380Y-117800476D02*
X84092380Y-118371904D01*
X84092380Y-118086190D02*
X83092380Y-118086190D01*
X83235238Y-118181428D01*
X83330476Y-118276666D01*
X83378095Y-118371904D01*
X83425714Y-116943333D02*
X84092380Y-116943333D01*
X83044761Y-117181428D02*
X83759047Y-117419523D01*
X83759047Y-116800476D01*
%TO.C,R12*%
X103112380Y-88262857D02*
X102636190Y-88596190D01*
X103112380Y-88834285D02*
X102112380Y-88834285D01*
X102112380Y-88453333D01*
X102160000Y-88358095D01*
X102207619Y-88310476D01*
X102302857Y-88262857D01*
X102445714Y-88262857D01*
X102540952Y-88310476D01*
X102588571Y-88358095D01*
X102636190Y-88453333D01*
X102636190Y-88834285D01*
X103112380Y-87310476D02*
X103112380Y-87881904D01*
X103112380Y-87596190D02*
X102112380Y-87596190D01*
X102255238Y-87691428D01*
X102350476Y-87786666D01*
X102398095Y-87881904D01*
X102207619Y-86929523D02*
X102160000Y-86881904D01*
X102112380Y-86786666D01*
X102112380Y-86548571D01*
X102160000Y-86453333D01*
X102207619Y-86405714D01*
X102302857Y-86358095D01*
X102398095Y-86358095D01*
X102540952Y-86405714D01*
X103112380Y-86977142D01*
X103112380Y-86358095D01*
%TO.C,R15*%
X79922380Y-111132857D02*
X79446190Y-111466190D01*
X79922380Y-111704285D02*
X78922380Y-111704285D01*
X78922380Y-111323333D01*
X78970000Y-111228095D01*
X79017619Y-111180476D01*
X79112857Y-111132857D01*
X79255714Y-111132857D01*
X79350952Y-111180476D01*
X79398571Y-111228095D01*
X79446190Y-111323333D01*
X79446190Y-111704285D01*
X79922380Y-110180476D02*
X79922380Y-110751904D01*
X79922380Y-110466190D02*
X78922380Y-110466190D01*
X79065238Y-110561428D01*
X79160476Y-110656666D01*
X79208095Y-110751904D01*
X78922380Y-109275714D02*
X78922380Y-109751904D01*
X79398571Y-109799523D01*
X79350952Y-109751904D01*
X79303333Y-109656666D01*
X79303333Y-109418571D01*
X79350952Y-109323333D01*
X79398571Y-109275714D01*
X79493809Y-109228095D01*
X79731904Y-109228095D01*
X79827142Y-109275714D01*
X79874761Y-109323333D01*
X79922380Y-109418571D01*
X79922380Y-109656666D01*
X79874761Y-109751904D01*
X79827142Y-109799523D01*
%TO.C,R5*%
X86812380Y-94146666D02*
X86336190Y-94480000D01*
X86812380Y-94718095D02*
X85812380Y-94718095D01*
X85812380Y-94337142D01*
X85860000Y-94241904D01*
X85907619Y-94194285D01*
X86002857Y-94146666D01*
X86145714Y-94146666D01*
X86240952Y-94194285D01*
X86288571Y-94241904D01*
X86336190Y-94337142D01*
X86336190Y-94718095D01*
X85812380Y-93241904D02*
X85812380Y-93718095D01*
X86288571Y-93765714D01*
X86240952Y-93718095D01*
X86193333Y-93622857D01*
X86193333Y-93384761D01*
X86240952Y-93289523D01*
X86288571Y-93241904D01*
X86383809Y-93194285D01*
X86621904Y-93194285D01*
X86717142Y-93241904D01*
X86764761Y-93289523D01*
X86812380Y-93384761D01*
X86812380Y-93622857D01*
X86764761Y-93718095D01*
X86717142Y-93765714D01*
%TO.C,J1*%
X91726666Y-114382380D02*
X91726666Y-115096666D01*
X91679047Y-115239523D01*
X91583809Y-115334761D01*
X91440952Y-115382380D01*
X91345714Y-115382380D01*
X92726666Y-115382380D02*
X92155238Y-115382380D01*
X92440952Y-115382380D02*
X92440952Y-114382380D01*
X92345714Y-114525238D01*
X92250476Y-114620476D01*
X92155238Y-114668095D01*
%TO.C,R17*%
X112032380Y-112402857D02*
X111556190Y-112736190D01*
X112032380Y-112974285D02*
X111032380Y-112974285D01*
X111032380Y-112593333D01*
X111080000Y-112498095D01*
X111127619Y-112450476D01*
X111222857Y-112402857D01*
X111365714Y-112402857D01*
X111460952Y-112450476D01*
X111508571Y-112498095D01*
X111556190Y-112593333D01*
X111556190Y-112974285D01*
X112032380Y-111450476D02*
X112032380Y-112021904D01*
X112032380Y-111736190D02*
X111032380Y-111736190D01*
X111175238Y-111831428D01*
X111270476Y-111926666D01*
X111318095Y-112021904D01*
X111032380Y-111117142D02*
X111032380Y-110450476D01*
X112032380Y-110879047D01*
D11*
%TO.C,R11*%
X105080000Y-77810000D02*
X105080000Y-77190000D01*
X106000000Y-78730000D02*
G75*
G03*
X106000000Y-78730000I-920000J0D01*
G01*
%TO.C,R1*%
X76340000Y-92526728D02*
G75*
G03*
X78111380Y-92635225I800000J-1453272D01*
G01*
%TO.C,BT1*%
X115800000Y-71320000D02*
X115500000Y-71820000D01*
X108950000Y-71320000D02*
X108700000Y-71820000D01*
X108700000Y-71820000D02*
X110600000Y-71820000D01*
X108000000Y-71320000D02*
X108950000Y-71320000D01*
X110600000Y-71820000D02*
X110650000Y-71820000D01*
X110650000Y-71820000D02*
X110400000Y-71320000D01*
X108000000Y-60970000D02*
X108000000Y-71320000D01*
X120600000Y-71820000D02*
X120600000Y-60970000D01*
X120600000Y-60970000D02*
X108000000Y-60970000D01*
X110400000Y-71320000D02*
X115800000Y-71320000D01*
X115500000Y-71820000D02*
X120600000Y-71820000D01*
%TO.C,R9*%
X116040000Y-100146728D02*
G75*
G03*
X117811380Y-100255225I800000J-1453272D01*
G01*
%TO.C,R16*%
X105880000Y-117926728D02*
G75*
G03*
X107651380Y-118035225I800000J-1453272D01*
G01*
%TO.C,C4*%
X110720000Y-89081000D02*
X109638000Y-89081000D01*
X112437000Y-90121000D02*
X111083000Y-90121000D01*
X114271000Y-88200000D02*
X112800000Y-88200000D01*
X113545000Y-89481000D02*
X112800000Y-89481000D01*
X114340000Y-87600000D02*
X109180000Y-87600000D01*
X110720000Y-88120000D02*
X109232000Y-88120000D01*
X112565000Y-90081000D02*
X110955000Y-90081000D01*
X110720000Y-89161000D02*
X109695000Y-89161000D01*
X114325000Y-87880000D02*
X112800000Y-87880000D01*
X110720000Y-88200000D02*
X109249000Y-88200000D01*
X110720000Y-88641000D02*
X109395000Y-88641000D01*
X114142000Y-88601000D02*
X112800000Y-88601000D01*
X114288000Y-88120000D02*
X112800000Y-88120000D01*
X114296000Y-88080000D02*
X112800000Y-88080000D01*
X110720000Y-88481000D02*
X109332000Y-88481000D01*
X110720000Y-88881000D02*
X109513000Y-88881000D01*
X110720000Y-89281000D02*
X109789000Y-89281000D01*
X114333000Y-87800000D02*
X109187000Y-87800000D01*
X114108000Y-88681000D02*
X112800000Y-88681000D01*
X110720000Y-89001000D02*
X109585000Y-89001000D01*
X113143000Y-89801000D02*
X112800000Y-89801000D01*
X110720000Y-87880000D02*
X109195000Y-87880000D01*
X110720000Y-88321000D02*
X109280000Y-88321000D01*
X113459000Y-89561000D02*
X112800000Y-89561000D01*
X110720000Y-89201000D02*
X109725000Y-89201000D01*
X110720000Y-89481000D02*
X109975000Y-89481000D01*
X114261000Y-88240000D02*
X112800000Y-88240000D01*
X110720000Y-88521000D02*
X109346000Y-88521000D01*
X112771000Y-90001000D02*
X110749000Y-90001000D01*
X113661000Y-89361000D02*
X112800000Y-89361000D01*
X114340000Y-87640000D02*
X109180000Y-87640000D01*
X114303000Y-88040000D02*
X112800000Y-88040000D01*
X110720000Y-88681000D02*
X109412000Y-88681000D01*
X113079000Y-89841000D02*
X112800000Y-89841000D01*
X113697000Y-89321000D02*
X112800000Y-89321000D01*
X110720000Y-89601000D02*
X110107000Y-89601000D01*
X114070000Y-88761000D02*
X112800000Y-88761000D01*
X113011000Y-89881000D02*
X112800000Y-89881000D01*
X113935000Y-89001000D02*
X112800000Y-89001000D01*
X110720000Y-87960000D02*
X109204000Y-87960000D01*
X110720000Y-88401000D02*
X109305000Y-88401000D01*
X112044000Y-90201000D02*
X111476000Y-90201000D01*
X114050000Y-88801000D02*
X112800000Y-88801000D01*
X110720000Y-89721000D02*
X110260000Y-89721000D01*
X114158000Y-88561000D02*
X112800000Y-88561000D01*
X113413000Y-89601000D02*
X112800000Y-89601000D01*
X110720000Y-89841000D02*
X110441000Y-89841000D01*
X112278000Y-90161000D02*
X111242000Y-90161000D01*
X110720000Y-88841000D02*
X109492000Y-88841000D01*
X110720000Y-89641000D02*
X110155000Y-89641000D01*
X114215000Y-88401000D02*
X112800000Y-88401000D01*
X110720000Y-88240000D02*
X109259000Y-88240000D01*
X114280000Y-88160000D02*
X112800000Y-88160000D01*
X110720000Y-87840000D02*
X109191000Y-87840000D01*
X113731000Y-89281000D02*
X112800000Y-89281000D01*
X113764000Y-89241000D02*
X112800000Y-89241000D01*
X114007000Y-88881000D02*
X112800000Y-88881000D01*
X113235000Y-84795225D02*
X113235000Y-85295225D01*
X110720000Y-88080000D02*
X109224000Y-88080000D01*
X113503000Y-89521000D02*
X112800000Y-89521000D01*
X110720000Y-89801000D02*
X110377000Y-89801000D01*
X110720000Y-89401000D02*
X109896000Y-89401000D01*
X113960000Y-88961000D02*
X112800000Y-88961000D01*
X110720000Y-89241000D02*
X109756000Y-89241000D01*
X113260000Y-89721000D02*
X112800000Y-89721000D01*
X114188000Y-88481000D02*
X112800000Y-88481000D01*
X110720000Y-88961000D02*
X109560000Y-88961000D01*
X114316000Y-87960000D02*
X112800000Y-87960000D01*
X110720000Y-89121000D02*
X109665000Y-89121000D01*
X112858000Y-89961000D02*
X110662000Y-89961000D01*
X114125000Y-88641000D02*
X112800000Y-88641000D01*
X110720000Y-89761000D02*
X110317000Y-89761000D01*
X114228000Y-88361000D02*
X112800000Y-88361000D01*
X110720000Y-88561000D02*
X109362000Y-88561000D01*
X110720000Y-88000000D02*
X109210000Y-88000000D01*
X110720000Y-88761000D02*
X109450000Y-88761000D01*
X110720000Y-89321000D02*
X109823000Y-89321000D01*
X113586000Y-89441000D02*
X112800000Y-89441000D01*
X114251000Y-88280000D02*
X112800000Y-88280000D01*
X110720000Y-89681000D02*
X110206000Y-89681000D01*
X110720000Y-89361000D02*
X109859000Y-89361000D01*
X110720000Y-88921000D02*
X109536000Y-88921000D01*
X113825000Y-89161000D02*
X112800000Y-89161000D01*
X110720000Y-89881000D02*
X110509000Y-89881000D01*
X110720000Y-88441000D02*
X109318000Y-88441000D01*
X114240000Y-88321000D02*
X112800000Y-88321000D01*
X110720000Y-88361000D02*
X109292000Y-88361000D01*
X114089000Y-88721000D02*
X112800000Y-88721000D01*
X114329000Y-87840000D02*
X112800000Y-87840000D01*
X113314000Y-89681000D02*
X112800000Y-89681000D01*
X114338000Y-87720000D02*
X109182000Y-87720000D01*
X113624000Y-89401000D02*
X112800000Y-89401000D01*
X112938000Y-89921000D02*
X110582000Y-89921000D01*
X114310000Y-88000000D02*
X112800000Y-88000000D01*
X113909000Y-89041000D02*
X112800000Y-89041000D01*
X110720000Y-89561000D02*
X110061000Y-89561000D01*
X110720000Y-88040000D02*
X109217000Y-88040000D01*
X110720000Y-88601000D02*
X109378000Y-88601000D01*
X114321000Y-87920000D02*
X112800000Y-87920000D01*
X110720000Y-89441000D02*
X109934000Y-89441000D01*
X113203000Y-89761000D02*
X112800000Y-89761000D01*
X110720000Y-89041000D02*
X109611000Y-89041000D01*
X112675000Y-90041000D02*
X110845000Y-90041000D01*
X113795000Y-89201000D02*
X112800000Y-89201000D01*
X114339000Y-87680000D02*
X109181000Y-87680000D01*
X110720000Y-88280000D02*
X109269000Y-88280000D01*
X110720000Y-87920000D02*
X109199000Y-87920000D01*
X110720000Y-88721000D02*
X109431000Y-88721000D01*
X113365000Y-89641000D02*
X112800000Y-89641000D01*
X110720000Y-89521000D02*
X110017000Y-89521000D01*
X114028000Y-88841000D02*
X112800000Y-88841000D01*
X113984000Y-88921000D02*
X112800000Y-88921000D01*
X114336000Y-87760000D02*
X109184000Y-87760000D01*
X113882000Y-89081000D02*
X112800000Y-89081000D01*
X114174000Y-88521000D02*
X112800000Y-88521000D01*
X110720000Y-88160000D02*
X109240000Y-88160000D01*
X113485000Y-85045225D02*
X112985000Y-85045225D01*
X113855000Y-89121000D02*
X112800000Y-89121000D01*
X114202000Y-88441000D02*
X112800000Y-88441000D01*
X110720000Y-88801000D02*
X109470000Y-88801000D01*
X114380000Y-87600000D02*
G75*
G03*
X114380000Y-87600000I-2620000J0D01*
G01*
%TO.C,U1*%
X101670000Y-90255000D02*
X101670000Y-72235000D01*
X93880000Y-72295000D02*
X93880000Y-90195000D01*
X101670000Y-72235000D02*
X91390000Y-72235000D01*
X99180000Y-90195000D02*
X99180000Y-72295000D01*
X95530000Y-72295000D02*
X93880000Y-72295000D01*
X91390000Y-90255000D02*
X101670000Y-90255000D01*
X99180000Y-72295000D02*
X97530000Y-72295000D01*
X91390000Y-72235000D02*
X91390000Y-90255000D01*
X93880000Y-90195000D02*
X99180000Y-90195000D01*
X95530000Y-72295000D02*
G75*
G03*
X97530000Y-72295000I1000000J0D01*
G01*
%TO.C,R3*%
X80480000Y-101416728D02*
G75*
G03*
X82251380Y-101525225I800000J-1453272D01*
G01*
%TO.C,C3*%
X115661000Y-77240000D02*
X115661000Y-78375000D01*
X115941000Y-74229000D02*
X115941000Y-75160000D01*
X115381000Y-77240000D02*
X115381000Y-78529000D01*
X114940000Y-77240000D02*
X114940000Y-78691000D01*
X114620000Y-77240000D02*
X114620000Y-78756000D01*
X115621000Y-74000000D02*
X115621000Y-75160000D01*
X114620000Y-73644000D02*
X114620000Y-75160000D01*
X114820000Y-73680000D02*
X114820000Y-75160000D01*
X115781000Y-77240000D02*
X115781000Y-78295000D01*
X114500000Y-73631000D02*
X114500000Y-75160000D01*
X115581000Y-77240000D02*
X115581000Y-78424000D01*
X115061000Y-73745000D02*
X115061000Y-75160000D01*
X114420000Y-73624000D02*
X114420000Y-78776000D01*
X115701000Y-74051000D02*
X115701000Y-75160000D01*
X115541000Y-73953000D02*
X115541000Y-75160000D01*
X116021000Y-77240000D02*
X116021000Y-78101000D01*
X115821000Y-74135000D02*
X115821000Y-75160000D01*
X114780000Y-73672000D02*
X114780000Y-75160000D01*
X114700000Y-77240000D02*
X114700000Y-78743000D01*
X115701000Y-77240000D02*
X115701000Y-78349000D01*
X115861000Y-74165000D02*
X115861000Y-75160000D01*
X114380000Y-73622000D02*
X114380000Y-78778000D01*
X114540000Y-73635000D02*
X114540000Y-75160000D01*
X116621000Y-75102000D02*
X116621000Y-77298000D01*
X111455225Y-74725000D02*
X111955225Y-74725000D01*
X115141000Y-77240000D02*
X115141000Y-78628000D01*
X116741000Y-75395000D02*
X116741000Y-77005000D01*
X115101000Y-73758000D02*
X115101000Y-75160000D01*
X115501000Y-77240000D02*
X115501000Y-78468000D01*
X116221000Y-74501000D02*
X116221000Y-75160000D01*
X115221000Y-73802000D02*
X115221000Y-75160000D01*
X115341000Y-73852000D02*
X115341000Y-75160000D01*
X114300000Y-73620000D02*
X114300000Y-78780000D01*
X115341000Y-77240000D02*
X115341000Y-78548000D01*
X114580000Y-77240000D02*
X114580000Y-78761000D01*
X116181000Y-77240000D02*
X116181000Y-77943000D01*
X114260000Y-73620000D02*
X114260000Y-78780000D01*
X116661000Y-75189000D02*
X116661000Y-77211000D01*
X116541000Y-74949000D02*
X116541000Y-75160000D01*
X116461000Y-77240000D02*
X116461000Y-77583000D01*
X115541000Y-77240000D02*
X115541000Y-78447000D01*
X115421000Y-73890000D02*
X115421000Y-75160000D01*
X115581000Y-73976000D02*
X115581000Y-75160000D01*
X116261000Y-74547000D02*
X116261000Y-75160000D01*
X116061000Y-77240000D02*
X116061000Y-78064000D01*
X114740000Y-77240000D02*
X114740000Y-78736000D01*
X115261000Y-77240000D02*
X115261000Y-78582000D01*
X114900000Y-73699000D02*
X114900000Y-75160000D01*
X114780000Y-77240000D02*
X114780000Y-78728000D01*
X116581000Y-75022000D02*
X116581000Y-77378000D01*
X115301000Y-73835000D02*
X115301000Y-75160000D01*
X114981000Y-73720000D02*
X114981000Y-75160000D01*
X115461000Y-77240000D02*
X115461000Y-78490000D01*
X115181000Y-73786000D02*
X115181000Y-75160000D01*
X115741000Y-77240000D02*
X115741000Y-78322000D01*
X114460000Y-73627000D02*
X114460000Y-78773000D01*
X114981000Y-77240000D02*
X114981000Y-78680000D01*
X116701000Y-75285000D02*
X116701000Y-77115000D01*
X116101000Y-77240000D02*
X116101000Y-78026000D01*
X116301000Y-77240000D02*
X116301000Y-77805000D01*
X116301000Y-74595000D02*
X116301000Y-75160000D01*
X114700000Y-73657000D02*
X114700000Y-75160000D01*
X115901000Y-74196000D02*
X115901000Y-75160000D01*
X114860000Y-73689000D02*
X114860000Y-75160000D01*
X116261000Y-77240000D02*
X116261000Y-77853000D01*
X116141000Y-74415000D02*
X116141000Y-75160000D01*
X115861000Y-77240000D02*
X115861000Y-78235000D01*
X116021000Y-74299000D02*
X116021000Y-75160000D01*
X114940000Y-73709000D02*
X114940000Y-75160000D01*
X115781000Y-74105000D02*
X115781000Y-75160000D01*
X114500000Y-77240000D02*
X114500000Y-78769000D01*
X116541000Y-77240000D02*
X116541000Y-77451000D01*
X115221000Y-77240000D02*
X115221000Y-78598000D01*
X114340000Y-73621000D02*
X114340000Y-78779000D01*
X116061000Y-74336000D02*
X116061000Y-75160000D01*
X116101000Y-74374000D02*
X116101000Y-75160000D01*
X115981000Y-77240000D02*
X115981000Y-78137000D01*
X115981000Y-74263000D02*
X115981000Y-75160000D01*
X114900000Y-77240000D02*
X114900000Y-78701000D01*
X114580000Y-73639000D02*
X114580000Y-75160000D01*
X116341000Y-74646000D02*
X116341000Y-75160000D01*
X111705225Y-74475000D02*
X111705225Y-74975000D01*
X116501000Y-74881000D02*
X116501000Y-75160000D01*
X115501000Y-73932000D02*
X115501000Y-75160000D01*
X115021000Y-77240000D02*
X115021000Y-78668000D01*
X116461000Y-74817000D02*
X116461000Y-75160000D01*
X116501000Y-77240000D02*
X116501000Y-77519000D01*
X115101000Y-77240000D02*
X115101000Y-78642000D01*
X114660000Y-73650000D02*
X114660000Y-75160000D01*
X116781000Y-75523000D02*
X116781000Y-76877000D01*
X115901000Y-77240000D02*
X115901000Y-78204000D01*
X114740000Y-73664000D02*
X114740000Y-75160000D01*
X115301000Y-77240000D02*
X115301000Y-78565000D01*
X115461000Y-73910000D02*
X115461000Y-75160000D01*
X114540000Y-77240000D02*
X114540000Y-78765000D01*
X116421000Y-77240000D02*
X116421000Y-77643000D01*
X116381000Y-74700000D02*
X116381000Y-75160000D01*
X115421000Y-77240000D02*
X115421000Y-78510000D01*
X115061000Y-77240000D02*
X115061000Y-78655000D01*
X114860000Y-77240000D02*
X114860000Y-78711000D01*
X116861000Y-75916000D02*
X116861000Y-76484000D01*
X116821000Y-75682000D02*
X116821000Y-76718000D01*
X116381000Y-77240000D02*
X116381000Y-77700000D01*
X115661000Y-74025000D02*
X115661000Y-75160000D01*
X115741000Y-74078000D02*
X115741000Y-75160000D01*
X115261000Y-73818000D02*
X115261000Y-75160000D01*
X115821000Y-77240000D02*
X115821000Y-78265000D01*
X116181000Y-74457000D02*
X116181000Y-75160000D01*
X115941000Y-77240000D02*
X115941000Y-78171000D01*
X115181000Y-77240000D02*
X115181000Y-78614000D01*
X115141000Y-73772000D02*
X115141000Y-75160000D01*
X115381000Y-73871000D02*
X115381000Y-75160000D01*
X116341000Y-77240000D02*
X116341000Y-77754000D01*
X115021000Y-73732000D02*
X115021000Y-75160000D01*
X116421000Y-74757000D02*
X116421000Y-75160000D01*
X116141000Y-77240000D02*
X116141000Y-77985000D01*
X114660000Y-77240000D02*
X114660000Y-78750000D01*
X115621000Y-77240000D02*
X115621000Y-78400000D01*
X114820000Y-77240000D02*
X114820000Y-78720000D01*
X116221000Y-77240000D02*
X116221000Y-77899000D01*
X116880000Y-76200000D02*
G75*
G03*
X116880000Y-76200000I-2620000J0D01*
G01*
%TO.C,C1*%
X81280000Y-76711000D02*
X80456000Y-76711000D01*
X81280000Y-76071000D02*
X80010000Y-76071000D01*
X84355000Y-76511000D02*
X83360000Y-76511000D01*
X84718000Y-75871000D02*
X83360000Y-75871000D01*
X84848000Y-75430000D02*
X83360000Y-75430000D01*
X81280000Y-75631000D02*
X79840000Y-75631000D01*
X84588000Y-76151000D02*
X83360000Y-76151000D01*
X81280000Y-76351000D02*
X80171000Y-76351000D01*
X83125000Y-77391000D02*
X81515000Y-77391000D01*
X81280000Y-76991000D02*
X80766000Y-76991000D01*
X84544000Y-76231000D02*
X83360000Y-76231000D01*
X81280000Y-75310000D02*
X79770000Y-75310000D01*
X84881000Y-75230000D02*
X83360000Y-75230000D01*
X81280000Y-75871000D02*
X79922000Y-75871000D01*
X84567000Y-76191000D02*
X83360000Y-76191000D01*
X83331000Y-77311000D02*
X81309000Y-77311000D01*
X84520000Y-76271000D02*
X83360000Y-76271000D01*
X81280000Y-76471000D02*
X80255000Y-76471000D01*
X84821000Y-75550000D02*
X83360000Y-75550000D01*
X81280000Y-75390000D02*
X79784000Y-75390000D01*
X84495000Y-76311000D02*
X83360000Y-76311000D01*
X84800000Y-75631000D02*
X83360000Y-75631000D01*
X81280000Y-76671000D02*
X80419000Y-76671000D01*
X84762000Y-75751000D02*
X83360000Y-75751000D01*
X84748000Y-75791000D02*
X83360000Y-75791000D01*
X84442000Y-76391000D02*
X83360000Y-76391000D01*
X84184000Y-76711000D02*
X83360000Y-76711000D01*
X83874000Y-76991000D02*
X83360000Y-76991000D01*
X81280000Y-76951000D02*
X80715000Y-76951000D01*
X84831000Y-75510000D02*
X83360000Y-75510000D01*
X84775000Y-75711000D02*
X83360000Y-75711000D01*
X81280000Y-75751000D02*
X79878000Y-75751000D01*
X81280000Y-75550000D02*
X79819000Y-75550000D01*
X81280000Y-75791000D02*
X79892000Y-75791000D01*
X83925000Y-76951000D02*
X83360000Y-76951000D01*
X84221000Y-76671000D02*
X83360000Y-76671000D01*
X81280000Y-75230000D02*
X79759000Y-75230000D01*
X82838000Y-77471000D02*
X81802000Y-77471000D01*
X84889000Y-75150000D02*
X83360000Y-75150000D01*
X84257000Y-76631000D02*
X83360000Y-76631000D01*
X81280000Y-75911000D02*
X79938000Y-75911000D01*
X84893000Y-75110000D02*
X79747000Y-75110000D01*
X81280000Y-76911000D02*
X80667000Y-76911000D01*
X83498000Y-77231000D02*
X81142000Y-77231000D01*
X81280000Y-77031000D02*
X80820000Y-77031000D01*
X84685000Y-75951000D02*
X83360000Y-75951000D01*
X83973000Y-76911000D02*
X83360000Y-76911000D01*
X83703000Y-77111000D02*
X83360000Y-77111000D01*
X81280000Y-75190000D02*
X79755000Y-75190000D01*
X84630000Y-76071000D02*
X83360000Y-76071000D01*
X83235000Y-77351000D02*
X81405000Y-77351000D01*
X82997000Y-77431000D02*
X81643000Y-77431000D01*
X81280000Y-76551000D02*
X80316000Y-76551000D01*
X81280000Y-76871000D02*
X80621000Y-76871000D01*
X84896000Y-75070000D02*
X79744000Y-75070000D01*
X81280000Y-76791000D02*
X80535000Y-76791000D01*
X84898000Y-75030000D02*
X79742000Y-75030000D01*
X81280000Y-76591000D02*
X80349000Y-76591000D01*
X84702000Y-75911000D02*
X83360000Y-75911000D01*
X82604000Y-77511000D02*
X82036000Y-77511000D01*
X81280000Y-76151000D02*
X80052000Y-76151000D01*
X84668000Y-75991000D02*
X83360000Y-75991000D01*
X81280000Y-75991000D02*
X79972000Y-75991000D01*
X81280000Y-76511000D02*
X80285000Y-76511000D01*
X84885000Y-75190000D02*
X83360000Y-75190000D01*
X83820000Y-77031000D02*
X83360000Y-77031000D01*
X81280000Y-76431000D02*
X80225000Y-76431000D01*
X81280000Y-75671000D02*
X79852000Y-75671000D01*
X84146000Y-76751000D02*
X83360000Y-76751000D01*
X81280000Y-76831000D02*
X80577000Y-76831000D01*
X83763000Y-77071000D02*
X83360000Y-77071000D01*
X84105000Y-76791000D02*
X83360000Y-76791000D01*
X81280000Y-75590000D02*
X79829000Y-75590000D01*
X84863000Y-75350000D02*
X83360000Y-75350000D01*
X81280000Y-76111000D02*
X80030000Y-76111000D01*
X81280000Y-75150000D02*
X79751000Y-75150000D01*
X84045000Y-72355225D02*
X83545000Y-72355225D01*
X81280000Y-77111000D02*
X80937000Y-77111000D01*
X81280000Y-76751000D02*
X80494000Y-76751000D01*
X84649000Y-76031000D02*
X83360000Y-76031000D01*
X84900000Y-74950000D02*
X79740000Y-74950000D01*
X84900000Y-74910000D02*
X79740000Y-74910000D01*
X81280000Y-75951000D02*
X79955000Y-75951000D01*
X84019000Y-76871000D02*
X83360000Y-76871000D01*
X84063000Y-76831000D02*
X83360000Y-76831000D01*
X81280000Y-77191000D02*
X81069000Y-77191000D01*
X81280000Y-75711000D02*
X79865000Y-75711000D01*
X84899000Y-74990000D02*
X79741000Y-74990000D01*
X83795000Y-72105225D02*
X83795000Y-72605225D01*
X81280000Y-75470000D02*
X79800000Y-75470000D01*
X81280000Y-76311000D02*
X80145000Y-76311000D01*
X84840000Y-75470000D02*
X83360000Y-75470000D01*
X84385000Y-76471000D02*
X83360000Y-76471000D01*
X81280000Y-76191000D02*
X80073000Y-76191000D01*
X84788000Y-75671000D02*
X83360000Y-75671000D01*
X81280000Y-75350000D02*
X79777000Y-75350000D01*
X81280000Y-75270000D02*
X79764000Y-75270000D01*
X84856000Y-75390000D02*
X83360000Y-75390000D01*
X83571000Y-77191000D02*
X83360000Y-77191000D01*
X84610000Y-76111000D02*
X83360000Y-76111000D01*
X83418000Y-77271000D02*
X81222000Y-77271000D01*
X84415000Y-76431000D02*
X83360000Y-76431000D01*
X81280000Y-75510000D02*
X79809000Y-75510000D01*
X81280000Y-77151000D02*
X81001000Y-77151000D01*
X83639000Y-77151000D02*
X83360000Y-77151000D01*
X84811000Y-75590000D02*
X83360000Y-75590000D01*
X84876000Y-75270000D02*
X83360000Y-75270000D01*
X84734000Y-75831000D02*
X83360000Y-75831000D01*
X81280000Y-76231000D02*
X80096000Y-76231000D01*
X81280000Y-75430000D02*
X79792000Y-75430000D01*
X81280000Y-76631000D02*
X80383000Y-76631000D01*
X81280000Y-75831000D02*
X79906000Y-75831000D01*
X81280000Y-76031000D02*
X79991000Y-76031000D01*
X81280000Y-76271000D02*
X80120000Y-76271000D01*
X84291000Y-76591000D02*
X83360000Y-76591000D01*
X81280000Y-76391000D02*
X80198000Y-76391000D01*
X81280000Y-77071000D02*
X80877000Y-77071000D01*
X84469000Y-76351000D02*
X83360000Y-76351000D01*
X84324000Y-76551000D02*
X83360000Y-76551000D01*
X84870000Y-75310000D02*
X83360000Y-75310000D01*
X84940000Y-74910000D02*
G75*
G03*
X84940000Y-74910000I-2620000J0D01*
G01*
%TO.C,C2*%
X80240000Y-85500000D02*
X78737000Y-85500000D01*
X82663000Y-87261000D02*
X82320000Y-87261000D01*
X83217000Y-86781000D02*
X82320000Y-86781000D01*
X83816000Y-85540000D02*
X82320000Y-85540000D01*
X82755000Y-82255225D02*
X82755000Y-82755225D01*
X80240000Y-87221000D02*
X79837000Y-87221000D01*
X83429000Y-86501000D02*
X82320000Y-86501000D01*
X80240000Y-86221000D02*
X78970000Y-86221000D01*
X80240000Y-86821000D02*
X79379000Y-86821000D01*
X80240000Y-85300000D02*
X78711000Y-85300000D01*
X82599000Y-87301000D02*
X82320000Y-87301000D01*
X80240000Y-85580000D02*
X78752000Y-85580000D01*
X80240000Y-85460000D02*
X78730000Y-85460000D01*
X83590000Y-86221000D02*
X82320000Y-86221000D01*
X81798000Y-87621000D02*
X80762000Y-87621000D01*
X82085000Y-87541000D02*
X80475000Y-87541000D01*
X82979000Y-87021000D02*
X82320000Y-87021000D01*
X83144000Y-86861000D02*
X82320000Y-86861000D01*
X80240000Y-86061000D02*
X78898000Y-86061000D01*
X80240000Y-86621000D02*
X79215000Y-86621000D01*
X82291000Y-87461000D02*
X80269000Y-87461000D01*
X83402000Y-86541000D02*
X82320000Y-86541000D01*
X83722000Y-85901000D02*
X82320000Y-85901000D01*
X83791000Y-85660000D02*
X82320000Y-85660000D01*
X80240000Y-85620000D02*
X78760000Y-85620000D01*
X80240000Y-86301000D02*
X79012000Y-86301000D01*
X80240000Y-86341000D02*
X79033000Y-86341000D01*
X80240000Y-86661000D02*
X79245000Y-86661000D01*
X83005000Y-82505225D02*
X82505000Y-82505225D01*
X83678000Y-86021000D02*
X82320000Y-86021000D01*
X83853000Y-85260000D02*
X78707000Y-85260000D01*
X83345000Y-86621000D02*
X82320000Y-86621000D01*
X80240000Y-85821000D02*
X78812000Y-85821000D01*
X83735000Y-85861000D02*
X82320000Y-85861000D01*
X80240000Y-86181000D02*
X78951000Y-86181000D01*
X80240000Y-86381000D02*
X79056000Y-86381000D01*
X83251000Y-86741000D02*
X82320000Y-86741000D01*
X80240000Y-85781000D02*
X78800000Y-85781000D01*
X80240000Y-86541000D02*
X79158000Y-86541000D01*
X82378000Y-87421000D02*
X80182000Y-87421000D01*
X83527000Y-86341000D02*
X82320000Y-86341000D01*
X83662000Y-86061000D02*
X82320000Y-86061000D01*
X83480000Y-86421000D02*
X82320000Y-86421000D01*
X80240000Y-85901000D02*
X78838000Y-85901000D01*
X80240000Y-85540000D02*
X78744000Y-85540000D01*
X83849000Y-85300000D02*
X82320000Y-85300000D01*
X83858000Y-85180000D02*
X78702000Y-85180000D01*
X83628000Y-86141000D02*
X82320000Y-86141000D01*
X80240000Y-86701000D02*
X79276000Y-86701000D01*
X83808000Y-85580000D02*
X82320000Y-85580000D01*
X80240000Y-87101000D02*
X79675000Y-87101000D01*
X82458000Y-87381000D02*
X80102000Y-87381000D01*
X83504000Y-86381000D02*
X82320000Y-86381000D01*
X83823000Y-85500000D02*
X82320000Y-85500000D01*
X82885000Y-87101000D02*
X82320000Y-87101000D01*
X83609000Y-86181000D02*
X82320000Y-86181000D01*
X80240000Y-87181000D02*
X79780000Y-87181000D01*
X80240000Y-85941000D02*
X78852000Y-85941000D01*
X83106000Y-86901000D02*
X82320000Y-86901000D01*
X80240000Y-85420000D02*
X78724000Y-85420000D01*
X83748000Y-85821000D02*
X82320000Y-85821000D01*
X80240000Y-86021000D02*
X78882000Y-86021000D01*
X83023000Y-86981000D02*
X82320000Y-86981000D01*
X80240000Y-85700000D02*
X78779000Y-85700000D01*
X83065000Y-86941000D02*
X82320000Y-86941000D01*
X83181000Y-86821000D02*
X82320000Y-86821000D01*
X80240000Y-86981000D02*
X79537000Y-86981000D01*
X80240000Y-86901000D02*
X79454000Y-86901000D01*
X80240000Y-85740000D02*
X78789000Y-85740000D01*
X80240000Y-85861000D02*
X78825000Y-85861000D01*
X80240000Y-86581000D02*
X79185000Y-86581000D01*
X83841000Y-85380000D02*
X82320000Y-85380000D01*
X80240000Y-86141000D02*
X78932000Y-86141000D01*
X80240000Y-86941000D02*
X79495000Y-86941000D01*
X83845000Y-85340000D02*
X82320000Y-85340000D01*
X80240000Y-87141000D02*
X79726000Y-87141000D01*
X80240000Y-86781000D02*
X79343000Y-86781000D01*
X82531000Y-87341000D02*
X82320000Y-87341000D01*
X80240000Y-86101000D02*
X78915000Y-86101000D01*
X80240000Y-87021000D02*
X79581000Y-87021000D01*
X82780000Y-87181000D02*
X82320000Y-87181000D01*
X80240000Y-86501000D02*
X79131000Y-86501000D01*
X83856000Y-85220000D02*
X78704000Y-85220000D01*
X83455000Y-86461000D02*
X82320000Y-86461000D01*
X82933000Y-87061000D02*
X82320000Y-87061000D01*
X83859000Y-85140000D02*
X78701000Y-85140000D01*
X80240000Y-87341000D02*
X80029000Y-87341000D01*
X80240000Y-86421000D02*
X79080000Y-86421000D01*
X80240000Y-87261000D02*
X79897000Y-87261000D01*
X83860000Y-85060000D02*
X78700000Y-85060000D01*
X80240000Y-86261000D02*
X78990000Y-86261000D01*
X80240000Y-85660000D02*
X78769000Y-85660000D01*
X83836000Y-85420000D02*
X82320000Y-85420000D01*
X80240000Y-87061000D02*
X79627000Y-87061000D01*
X83284000Y-86701000D02*
X82320000Y-86701000D01*
X83570000Y-86261000D02*
X82320000Y-86261000D01*
X82834000Y-87141000D02*
X82320000Y-87141000D01*
X83781000Y-85700000D02*
X82320000Y-85700000D01*
X80240000Y-87301000D02*
X79961000Y-87301000D01*
X83708000Y-85941000D02*
X82320000Y-85941000D01*
X80240000Y-85981000D02*
X78866000Y-85981000D01*
X83548000Y-86301000D02*
X82320000Y-86301000D01*
X80240000Y-85380000D02*
X78719000Y-85380000D01*
X83315000Y-86661000D02*
X82320000Y-86661000D01*
X81564000Y-87661000D02*
X80996000Y-87661000D01*
X83760000Y-85781000D02*
X82320000Y-85781000D01*
X82723000Y-87221000D02*
X82320000Y-87221000D01*
X80240000Y-86461000D02*
X79105000Y-86461000D01*
X80240000Y-86741000D02*
X79309000Y-86741000D01*
X83860000Y-85100000D02*
X78700000Y-85100000D01*
X83830000Y-85460000D02*
X82320000Y-85460000D01*
X80240000Y-85340000D02*
X78715000Y-85340000D01*
X81957000Y-87581000D02*
X80603000Y-87581000D01*
X83645000Y-86101000D02*
X82320000Y-86101000D01*
X82195000Y-87501000D02*
X80365000Y-87501000D01*
X83771000Y-85740000D02*
X82320000Y-85740000D01*
X83375000Y-86581000D02*
X82320000Y-86581000D01*
X80240000Y-86861000D02*
X79416000Y-86861000D01*
X83694000Y-85981000D02*
X82320000Y-85981000D01*
X83800000Y-85620000D02*
X82320000Y-85620000D01*
X83900000Y-85060000D02*
G75*
G03*
X83900000Y-85060000I-2620000J0D01*
G01*
%TO.C,D1*%
X90150000Y-61955000D02*
X90150000Y-65045000D01*
X90150000Y-65044830D02*
G75*
G03*
X95700000Y-63499538I2560000J1544830D01*
G01*
X95700000Y-63500462D02*
G75*
G03*
X90150000Y-61955170I-2990000J462D01*
G01*
X95210000Y-63500000D02*
G75*
G03*
X95210000Y-63500000I-2500000J0D01*
G01*
%TO.C,R8*%
X105880000Y-97973272D02*
G75*
G03*
X104108620Y-97864775I-800000J1453272D01*
G01*
%TO.C,C5*%
X104359000Y-67631000D02*
X101341000Y-67631000D01*
X101810000Y-66271000D02*
X99994000Y-66271000D01*
X103652000Y-67911000D02*
X102048000Y-67911000D01*
X103252000Y-67991000D02*
X102448000Y-67991000D01*
X101810000Y-65831000D02*
X99803000Y-65831000D01*
X105726000Y-66231000D02*
X103890000Y-66231000D01*
X101810000Y-66751000D02*
X100302000Y-66751000D01*
X101810000Y-66511000D02*
X100134000Y-66511000D01*
X101810000Y-66391000D02*
X100060000Y-66391000D01*
X101810000Y-65951000D02*
X99848000Y-65951000D01*
X106000000Y-65471000D02*
X103890000Y-65471000D01*
X101810000Y-66951000D02*
X100470000Y-66951000D01*
X101810000Y-65591000D02*
X99729000Y-65591000D01*
X101810000Y-66991000D02*
X100507000Y-66991000D01*
X105640000Y-66391000D02*
X103890000Y-66391000D01*
X105911000Y-65791000D02*
X103890000Y-65791000D01*
X105428000Y-66711000D02*
X103890000Y-66711000D01*
X103909000Y-67831000D02*
X101791000Y-67831000D01*
X104431000Y-67591000D02*
X101269000Y-67591000D01*
X101810000Y-65511000D02*
X99709000Y-65511000D01*
X104015000Y-67791000D02*
X101685000Y-67791000D01*
X105836000Y-65991000D02*
X103890000Y-65991000D01*
X104626000Y-67471000D02*
X101074000Y-67471000D01*
X105193000Y-66991000D02*
X103890000Y-66991000D01*
X105592000Y-66471000D02*
X103890000Y-66471000D01*
X106072000Y-64990000D02*
X103890000Y-64990000D01*
X101810000Y-65631000D02*
X99740000Y-65631000D01*
X101810000Y-66671000D02*
X100243000Y-66671000D01*
X101810000Y-65430000D02*
X99691000Y-65430000D01*
X101810000Y-65310000D02*
X99668000Y-65310000D01*
X101810000Y-66871000D02*
X100400000Y-66871000D01*
X104987000Y-67191000D02*
X100713000Y-67191000D01*
X106074000Y-64950000D02*
X99626000Y-64950000D01*
X105616000Y-66431000D02*
X103890000Y-66431000D01*
X105032000Y-67151000D02*
X100668000Y-67151000D01*
X105924000Y-65751000D02*
X103890000Y-65751000D01*
X104794000Y-67351000D02*
X100906000Y-67351000D01*
X105457000Y-66671000D02*
X103890000Y-66671000D01*
X105566000Y-66511000D02*
X103890000Y-66511000D01*
X105155000Y-67031000D02*
X103890000Y-67031000D01*
X104942000Y-67231000D02*
X100758000Y-67231000D01*
X104894000Y-67271000D02*
X100806000Y-67271000D01*
X105948000Y-65671000D02*
X103890000Y-65671000D01*
X105514000Y-66591000D02*
X103890000Y-66591000D01*
X101810000Y-64990000D02*
X99628000Y-64990000D01*
X101810000Y-66431000D02*
X100084000Y-66431000D01*
X101810000Y-65350000D02*
X99675000Y-65350000D01*
X106080000Y-64750000D02*
X99620000Y-64750000D01*
X101810000Y-65871000D02*
X99817000Y-65871000D01*
X101810000Y-65711000D02*
X99764000Y-65711000D01*
X105366000Y-66791000D02*
X103890000Y-66791000D01*
X105784000Y-66111000D02*
X103890000Y-66111000D01*
X101810000Y-65751000D02*
X99776000Y-65751000D01*
X106009000Y-65430000D02*
X103890000Y-65430000D01*
X106080000Y-64790000D02*
X99620000Y-64790000D01*
X101810000Y-66111000D02*
X99916000Y-66111000D01*
X104282000Y-67671000D02*
X101418000Y-67671000D01*
X105266000Y-66911000D02*
X103890000Y-66911000D01*
X105802000Y-66071000D02*
X103890000Y-66071000D01*
X105486000Y-66631000D02*
X103890000Y-66631000D01*
X101810000Y-65791000D02*
X99789000Y-65791000D01*
X101810000Y-65471000D02*
X99700000Y-65471000D01*
X106017000Y-65390000D02*
X103890000Y-65390000D01*
X105868000Y-65911000D02*
X103890000Y-65911000D01*
X104200000Y-67711000D02*
X101500000Y-67711000D01*
X101810000Y-65150000D02*
X99644000Y-65150000D01*
X101810000Y-66151000D02*
X99934000Y-66151000D01*
X101810000Y-65671000D02*
X99752000Y-65671000D01*
X105960000Y-65631000D02*
X103890000Y-65631000D01*
X101810000Y-66551000D02*
X100160000Y-66551000D01*
X101810000Y-65110000D02*
X99639000Y-65110000D01*
X101810000Y-65190000D02*
X99649000Y-65190000D01*
X106039000Y-65270000D02*
X103890000Y-65270000D01*
X105746000Y-66191000D02*
X103890000Y-66191000D01*
X101810000Y-65270000D02*
X99661000Y-65270000D01*
X104689000Y-61249759D02*
X104689000Y-61879759D01*
X101810000Y-67031000D02*
X100545000Y-67031000D01*
X106032000Y-65310000D02*
X103890000Y-65310000D01*
X105662000Y-66351000D02*
X103890000Y-66351000D01*
X105115000Y-67071000D02*
X100585000Y-67071000D01*
X106077000Y-64910000D02*
X99623000Y-64910000D01*
X103790000Y-67871000D02*
X101910000Y-67871000D01*
X105706000Y-66271000D02*
X103890000Y-66271000D01*
X101810000Y-66831000D02*
X100366000Y-66831000D01*
X105981000Y-65551000D02*
X103890000Y-65551000D01*
X106080000Y-64830000D02*
X99620000Y-64830000D01*
X105852000Y-65951000D02*
X103890000Y-65951000D01*
X106025000Y-65350000D02*
X103890000Y-65350000D01*
X105004000Y-61564759D02*
X104374000Y-61564759D01*
X105991000Y-65511000D02*
X103890000Y-65511000D01*
X106045000Y-65230000D02*
X103890000Y-65230000D01*
X101810000Y-66231000D02*
X99974000Y-66231000D01*
X105230000Y-66951000D02*
X103890000Y-66951000D01*
X105684000Y-66311000D02*
X103890000Y-66311000D01*
X105883000Y-65871000D02*
X103890000Y-65871000D01*
X105334000Y-66831000D02*
X103890000Y-66831000D01*
X101810000Y-66031000D02*
X99880000Y-66031000D01*
X105074000Y-67111000D02*
X100626000Y-67111000D01*
X101810000Y-65230000D02*
X99655000Y-65230000D01*
X105820000Y-66031000D02*
X103890000Y-66031000D01*
X104845000Y-67311000D02*
X100855000Y-67311000D01*
X106065000Y-65070000D02*
X103890000Y-65070000D01*
X101810000Y-65991000D02*
X99864000Y-65991000D01*
X104740000Y-67391000D02*
X100960000Y-67391000D01*
X101810000Y-66711000D02*
X100272000Y-66711000D01*
X105398000Y-66751000D02*
X103890000Y-66751000D01*
X101810000Y-66591000D02*
X100186000Y-66591000D01*
X104564000Y-67511000D02*
X101136000Y-67511000D01*
X101810000Y-66471000D02*
X100108000Y-66471000D01*
X101810000Y-66791000D02*
X100334000Y-66791000D01*
X101810000Y-66191000D02*
X99954000Y-66191000D01*
X101810000Y-65911000D02*
X99832000Y-65911000D01*
X101810000Y-65030000D02*
X99632000Y-65030000D01*
X105300000Y-66871000D02*
X103890000Y-66871000D01*
X104500000Y-67551000D02*
X101200000Y-67551000D01*
X105766000Y-66151000D02*
X103890000Y-66151000D01*
X101810000Y-66311000D02*
X100016000Y-66311000D01*
X101810000Y-66911000D02*
X100434000Y-66911000D01*
X104112000Y-67751000D02*
X101588000Y-67751000D01*
X106056000Y-65150000D02*
X103890000Y-65150000D01*
X101810000Y-65551000D02*
X99719000Y-65551000D01*
X101810000Y-66631000D02*
X100214000Y-66631000D01*
X101810000Y-66071000D02*
X99898000Y-66071000D01*
X106061000Y-65110000D02*
X103890000Y-65110000D01*
X101810000Y-65070000D02*
X99635000Y-65070000D01*
X105936000Y-65711000D02*
X103890000Y-65711000D01*
X106051000Y-65190000D02*
X103890000Y-65190000D01*
X105540000Y-66551000D02*
X103890000Y-66551000D01*
X101810000Y-66351000D02*
X100038000Y-66351000D01*
X101810000Y-65390000D02*
X99683000Y-65390000D01*
X106068000Y-65030000D02*
X103890000Y-65030000D01*
X106078000Y-64870000D02*
X99622000Y-64870000D01*
X103483000Y-67951000D02*
X102217000Y-67951000D01*
X105897000Y-65831000D02*
X103890000Y-65831000D01*
X105971000Y-65591000D02*
X103890000Y-65591000D01*
X104684000Y-67431000D02*
X101016000Y-67431000D01*
X106120000Y-64750000D02*
G75*
G03*
X106120000Y-64750000I-3270000J0D01*
G01*
%TO.C,R13*%
X85560000Y-65962587D02*
G75*
G03*
X87331380Y-66071084I800000J-1453272D01*
G01*
%TO.C,R7*%
X105880000Y-110306728D02*
G75*
G03*
X107651380Y-110415225I800000J-1453272D01*
G01*
%TO.C,R6*%
X88890000Y-75270000D02*
X88890000Y-74650000D01*
X89810000Y-76190000D02*
G75*
G03*
X89810000Y-76190000I-920000J0D01*
G01*
%TO.C,R4*%
X87410000Y-85430000D02*
X87410000Y-84810000D01*
X88330000Y-86350000D02*
G75*
G03*
X88330000Y-86350000I-920000J0D01*
G01*
%TO.C,R2*%
X87160000Y-110306728D02*
G75*
G03*
X88931380Y-110415225I800000J-1453272D01*
G01*
%TO.C,U2*%
X101650000Y-95135000D02*
X91370000Y-95135000D01*
X91370000Y-95135000D02*
X91370000Y-113155000D01*
X91370000Y-113155000D02*
X101650000Y-113155000D01*
X93860000Y-113095000D02*
X95510000Y-113095000D01*
X99160000Y-95195000D02*
X93860000Y-95195000D01*
X97510000Y-113095000D02*
X99160000Y-113095000D01*
X93860000Y-95195000D02*
X93860000Y-113095000D01*
X101650000Y-113155000D02*
X101650000Y-95135000D01*
X99160000Y-113095000D02*
X99160000Y-95195000D01*
X97510000Y-113095000D02*
G75*
G03*
X95510000Y-113095000I-1000000J0D01*
G01*
%TO.C,R10*%
X111021380Y-95425593D02*
G75*
G03*
X112792760Y-95534090I800000J-1453272D01*
G01*
%TO.C,R14*%
X85560000Y-117926728D02*
G75*
G03*
X87331380Y-118035225I800000J-1453272D01*
G01*
%TO.C,R12*%
X104580000Y-87970000D02*
X104580000Y-87350000D01*
X105500000Y-88890000D02*
G75*
G03*
X105500000Y-88890000I-920000J0D01*
G01*
%TO.C,R15*%
X81390000Y-110306728D02*
G75*
G03*
X83161380Y-110415225I800000J-1453272D01*
G01*
%TO.C,R5*%
X89700000Y-97973272D02*
G75*
G03*
X87928620Y-97864775I-800000J1453272D01*
G01*
%TO.C,J1*%
X102180000Y-120720000D02*
X102180000Y-115620000D01*
X91330000Y-115620000D02*
X91330000Y-128220000D01*
X102180000Y-125620000D02*
X102180000Y-125570000D01*
X102180000Y-125570000D02*
X101680000Y-125820000D01*
X101680000Y-128220000D02*
X101680000Y-127270000D01*
X101680000Y-120420000D02*
X102180000Y-120720000D01*
X101680000Y-127270000D02*
X102180000Y-127520000D01*
X91330000Y-128220000D02*
X101680000Y-128220000D01*
X101680000Y-125820000D02*
X101680000Y-120420000D01*
X102180000Y-115620000D02*
X91330000Y-115620000D01*
X102180000Y-127520000D02*
X102180000Y-125620000D01*
%TO.C,R17*%
X113500000Y-111576728D02*
G75*
G03*
X115271380Y-111685225I800000J-1453272D01*
G01*
%TD*%
M02*
