%TF.GenerationSoftware,KiCad,Pcbnew,6.0.11+dfsg-1~bpo11+1*%
%TF.CreationDate,2023-11-18T19:09:39+01:00*%
%TF.ProjectId,lux106_001,6c757831-3036-45f3-9030-312e6b696361,rev?*%
%TF.SameCoordinates,Original*%
%TF.FileFunction,Copper,L2,Bot*%
%TF.FilePolarity,Positive*%
%FSLAX46Y46*%
G04 Gerber Fmt 4.6, Leading zero omitted, Abs format (unit mm)*
G04 Created by KiCad (PCBNEW 6.0.11+dfsg-1~bpo11+1) date 2023-11-18 19:09:39*
%MOMM*%
%LPD*%
G01*
G04 APERTURE LIST*
%TA.AperFunction,ComponentPad*%
%ADD10C,1.400000*%
%TD*%
%TA.AperFunction,ComponentPad*%
%ADD11O,1.400000X1.400000*%
%TD*%
%TA.AperFunction,ComponentPad*%
%ADD12C,1.600000*%
%TD*%
%TA.AperFunction,ComponentPad*%
%ADD13O,1.600000X1.600000*%
%TD*%
%TA.AperFunction,ComponentPad*%
%ADD14R,3.960000X1.980000*%
%TD*%
%TA.AperFunction,ComponentPad*%
%ADD15O,3.960000X1.980000*%
%TD*%
%TA.AperFunction,ComponentPad*%
%ADD16R,1.600000X1.600000*%
%TD*%
%TA.AperFunction,ComponentPad*%
%ADD17R,1.800000X1.800000*%
%TD*%
%TA.AperFunction,ComponentPad*%
%ADD18C,1.800000*%
%TD*%
%TA.AperFunction,ComponentPad*%
%ADD19R,1.980000X3.960000*%
%TD*%
%TA.AperFunction,ComponentPad*%
%ADD20O,1.980000X3.960000*%
%TD*%
%TA.AperFunction,Conductor*%
%ADD21C,0.250000*%
%TD*%
G04 APERTURE END LIST*
D10*
%TO.P,R11,1*%
%TO.N,Net-(R11-Pad1)*%
X167640000Y-66040000D03*
D11*
%TO.P,R11,2*%
%TO.N,Net-(C3-Pad1)*%
X167640000Y-63500000D03*
%TD*%
D12*
%TO.P,R1,1*%
%TO.N,Net-(R1-Pad1)*%
X139519962Y-99401221D03*
D13*
%TO.P,R1,2*%
%TO.N,Net-(C1-Pad1)*%
X139519962Y-96861221D03*
%TD*%
D14*
%TO.P,BT1,1,+*%
%TO.N,VCC*%
X127185000Y-93810000D03*
D15*
%TO.P,BT1,2,-*%
%TO.N,Earth*%
X127185000Y-88810000D03*
%TD*%
D12*
%TO.P,R9,1*%
%TO.N,Net-(R9-Pad1)*%
X176718544Y-97030000D03*
D13*
%TO.P,R9,2*%
%TO.N,Net-(C3-Pad1)*%
X176718544Y-94490000D03*
%TD*%
D12*
%TO.P,R16,1*%
%TO.N,OUT*%
X167011380Y-115128681D03*
D13*
%TO.P,R16,2*%
%TO.N,Net-(R7-Pad1)*%
X167011380Y-112588681D03*
%TD*%
D16*
%TO.P,C4,1*%
%TO.N,Net-(C4-Pad1)*%
X174690000Y-74455580D03*
D12*
%TO.P,C4,2*%
%TO.N,Earth*%
X174690000Y-76955580D03*
%TD*%
D16*
%TO.P,U1,1*%
%TO.N,Net-(C1-Pad1)*%
X153680000Y-60955000D03*
D13*
%TO.P,U1,2*%
%TO.N,Net-(R6-Pad1)*%
X153680000Y-63495000D03*
%TO.P,U1,3*%
%TO.N,unconnected-(U1-Pad3)*%
X153680000Y-66035000D03*
%TO.P,U1,4*%
%TO.N,unconnected-(U1-Pad4)*%
X153680000Y-68575000D03*
%TO.P,U1,5*%
%TO.N,Net-(C2-Pad1)*%
X153680000Y-71115000D03*
%TO.P,U1,6*%
%TO.N,Net-(R4-Pad1)*%
X153680000Y-73655000D03*
%TO.P,U1,7,VSS*%
%TO.N,Earth*%
X153680000Y-76195000D03*
%TO.P,U1,8*%
%TO.N,Net-(R12-Pad1)*%
X161300000Y-76195000D03*
%TO.P,U1,9*%
%TO.N,Net-(C4-Pad1)*%
X161300000Y-73655000D03*
%TO.P,U1,10*%
%TO.N,unconnected-(U1-Pad10)*%
X161300000Y-71115000D03*
%TO.P,U1,11*%
%TO.N,unconnected-(U1-Pad11)*%
X161300000Y-68575000D03*
%TO.P,U1,12*%
%TO.N,Net-(R11-Pad1)*%
X161300000Y-66035000D03*
%TO.P,U1,13*%
%TO.N,Net-(C3-Pad1)*%
X161300000Y-63495000D03*
%TO.P,U1,14,VDD*%
%TO.N,VCC*%
X161300000Y-60955000D03*
%TD*%
D12*
%TO.P,R3,1*%
%TO.N,Net-(R3-Pad1)*%
X153310000Y-86360000D03*
D13*
%TO.P,R3,2*%
%TO.N,Net-(C2-Pad1)*%
X153310000Y-83820000D03*
%TD*%
D16*
%TO.P,C3,1*%
%TO.N,Net-(C3-Pad1)*%
X178717500Y-67290000D03*
D12*
%TO.P,C3,2*%
%TO.N,Earth*%
X178717500Y-69790000D03*
%TD*%
D16*
%TO.P,C1,1*%
%TO.N,Net-(C1-Pad1)*%
X140092500Y-60960000D03*
D12*
%TO.P,C1,2*%
%TO.N,Earth*%
X140092500Y-63460000D03*
%TD*%
D16*
%TO.P,C2,1*%
%TO.N,Net-(C2-Pad1)*%
X140140000Y-71248015D03*
D12*
%TO.P,C2,2*%
%TO.N,Earth*%
X140140000Y-73748015D03*
%TD*%
D17*
%TO.P,D1,1,K*%
%TO.N,Net-(D1-Pad1)*%
X128460064Y-68904392D03*
D18*
%TO.P,D1,2,A*%
%TO.N,VCC*%
X125920064Y-68904392D03*
%TD*%
D12*
%TO.P,R8,1*%
%TO.N,Net-(R8-Pad1)*%
X167640000Y-93980000D03*
D13*
%TO.P,R8,2*%
%TO.N,Net-(R8-Pad2)*%
X167640000Y-96520000D03*
%TD*%
D12*
%TO.P,R13,1*%
%TO.N,Earth*%
X129900000Y-78776728D03*
D13*
%TO.P,R13,2*%
%TO.N,Net-(D1-Pad1)*%
X129900000Y-76236728D03*
%TD*%
D12*
%TO.P,R7,1*%
%TO.N,Net-(R7-Pad1)*%
X170840000Y-109220000D03*
D13*
%TO.P,R7,2*%
%TO.N,Net-(R7-Pad2)*%
X170840000Y-106680000D03*
%TD*%
D10*
%TO.P,R6,1*%
%TO.N,Net-(R6-Pad1)*%
X147320000Y-63620000D03*
D11*
%TO.P,R6,2*%
%TO.N,Net-(C1-Pad1)*%
X147320000Y-61080000D03*
%TD*%
D10*
%TO.P,R4,1*%
%TO.N,Net-(R4-Pad1)*%
X147320000Y-73220000D03*
D11*
%TO.P,R4,2*%
%TO.N,Net-(C2-Pad1)*%
X147320000Y-70680000D03*
%TD*%
D12*
%TO.P,R2,1*%
%TO.N,Net-(R2-Pad1)*%
X147320000Y-93980000D03*
D13*
%TO.P,R2,2*%
%TO.N,Net-(R2-Pad2)*%
X147320000Y-96520000D03*
%TD*%
D16*
%TO.P,U2,1*%
%TO.N,Net-(R2-Pad1)*%
X153680000Y-93975000D03*
D13*
%TO.P,U2,2,-*%
%TO.N,Net-(R2-Pad2)*%
X153680000Y-96515000D03*
%TO.P,U2,3,+*%
%TO.N,Net-(R3-Pad1)*%
X153680000Y-99055000D03*
%TO.P,U2,4,V+*%
%TO.N,VCC*%
X153680000Y-101595000D03*
%TO.P,U2,5,+*%
%TO.N,Net-(R1-Pad1)*%
X153680000Y-104135000D03*
%TO.P,U2,6,-*%
%TO.N,Net-(R5-Pad2)*%
X153680000Y-106675000D03*
%TO.P,U2,7*%
%TO.N,Net-(R5-Pad1)*%
X153680000Y-109215000D03*
%TO.P,U2,8*%
%TO.N,Net-(R7-Pad1)*%
X161300000Y-109215000D03*
%TO.P,U2,9,-*%
%TO.N,Net-(R7-Pad2)*%
X161300000Y-106675000D03*
%TO.P,U2,10,+*%
%TO.N,Net-(R9-Pad1)*%
X161300000Y-104135000D03*
%TO.P,U2,11,V-*%
%TO.N,Earth*%
X161300000Y-101595000D03*
%TO.P,U2,12,+*%
%TO.N,Net-(R10-Pad1)*%
X161300000Y-99055000D03*
%TO.P,U2,13,-*%
%TO.N,Net-(R8-Pad2)*%
X161300000Y-96515000D03*
%TO.P,U2,14*%
%TO.N,Net-(R8-Pad1)*%
X161300000Y-93975000D03*
%TD*%
D12*
%TO.P,R10,1*%
%TO.N,Net-(R10-Pad1)*%
X161620000Y-86360000D03*
D13*
%TO.P,R10,2*%
%TO.N,Net-(C4-Pad1)*%
X161620000Y-83820000D03*
%TD*%
D12*
%TO.P,R14,1*%
%TO.N,OUT*%
X139700000Y-116840000D03*
D13*
%TO.P,R14,2*%
%TO.N,Net-(R2-Pad1)*%
X139700000Y-114300000D03*
%TD*%
D10*
%TO.P,R12,1*%
%TO.N,Net-(R12-Pad1)*%
X167640000Y-76200000D03*
D11*
%TO.P,R12,2*%
%TO.N,Net-(C4-Pad1)*%
X167640000Y-73660000D03*
%TD*%
D12*
%TO.P,R15,1*%
%TO.N,OUT*%
X147320000Y-116840000D03*
D13*
%TO.P,R15,2*%
%TO.N,Net-(R5-Pad1)*%
X147320000Y-114300000D03*
%TD*%
D12*
%TO.P,R5,1*%
%TO.N,Net-(R5-Pad1)*%
X147320000Y-109220000D03*
D13*
%TO.P,R5,2*%
%TO.N,Net-(R5-Pad2)*%
X147320000Y-106680000D03*
%TD*%
D19*
%TO.P,J1,1,Pin_1*%
%TO.N,Earth*%
X160020000Y-121920000D03*
D20*
%TO.P,J1,2,Pin_2*%
%TO.N,OUT*%
X155020000Y-121920000D03*
%TD*%
D12*
%TO.P,R17,1*%
%TO.N,OUT*%
X177800000Y-111760000D03*
D13*
%TO.P,R17,2*%
%TO.N,Net-(R8-Pad1)*%
X177800000Y-109220000D03*
%TD*%
D21*
%TO.N,Net-(C1-Pad1)*%
X137160000Y-63500000D02*
X139700000Y-60960000D01*
X139700000Y-60960000D02*
X140092500Y-60960000D01*
X137160000Y-94501259D02*
X137160000Y-63500000D01*
X139519962Y-96861221D02*
X137160000Y-94501259D01*
%TO.N,Earth*%
X156225000Y-96520000D02*
X156225000Y-78740000D01*
X156225000Y-78740000D02*
X172905580Y-78740000D01*
X161300000Y-101595000D02*
X156225000Y-96520000D01*
X153680000Y-76195000D02*
X156225000Y-78740000D01*
X160020000Y-121920000D02*
X160020000Y-102875000D01*
X160020000Y-102875000D02*
X161300000Y-101595000D01*
X172905580Y-78740000D02*
X174690000Y-76955580D01*
%TO.N,Net-(R9-Pad1)*%
X176718544Y-97030000D02*
X169613544Y-104135000D01*
X169613544Y-104135000D02*
X161300000Y-104135000D01*
%TO.N,Net-(R2-Pad1)*%
X139700000Y-109220000D02*
X139700000Y-114300000D01*
X144780000Y-104140000D02*
X139700000Y-109220000D01*
X144780000Y-96520000D02*
X144780000Y-104140000D01*
X147320000Y-93980000D02*
X144780000Y-96520000D01*
%TD*%
M02*
