M48
; DRILL file {KiCad 6.0.11+dfsg-1~bpo11+1} date dom 19 nov 2023, 23:21:40
; FORMAT={-:-/ absolute / inch / decimal}
; #@! TF.CreationDate,2023-11-19T23:21:40+01:00
; #@! TF.GenerationSoftware,Kicad,Pcbnew,6.0.11+dfsg-1~bpo11+1
; #@! TF.FileFunction,Plated,1,2,PTH
FMAT,2
INCH
; #@! TA.AperFunction,Plated,PTH,ComponentDrill
T1C0.0276
; #@! TA.AperFunction,Plated,PTH,ComponentDrill
T2C0.0315
; #@! TA.AperFunction,Plated,PTH,ComponentDrill
T3C0.0354
; #@! TA.AperFunction,Plated,PTH,ComponentDrill
T4C0.0520
%
G90
G05
T1
X3.4413Y-3.2996
X3.4413Y-3.3996
X3.4996Y-2.8996
X3.4996Y-2.9996
X4.1173Y-3.3996
X4.1173Y-3.4996
X4.137Y-2.9996
X4.137Y-3.0996
T2
X3.037Y-3.6
X3.037Y-3.7
X3.2Y-3.2996
X3.2Y-3.398
X3.2Y-3.95
X3.2Y-4.05
X3.2358Y-4.3
X3.2358Y-4.4
X3.2409Y-2.9
X3.2409Y-2.9984
X3.4Y-2.5542
X3.4Y-2.6542
X3.4Y-4.6
X3.4Y-4.7
X3.463Y-4.3
X3.463Y-4.4
X3.5Y-3.8
X3.5Y-3.9
X3.6496Y-3.8002
X3.6496Y-3.9002
X3.6496Y-4.0002
X3.6496Y-4.1002
X3.6496Y-4.2002
X3.6496Y-4.3002
X3.6496Y-4.4002
X3.6504Y-2.8986
X3.6504Y-2.9986
X3.6504Y-3.0986
X3.6504Y-3.1986
X3.6504Y-3.2986
X3.6504Y-3.3986
X3.6504Y-3.4986
X3.9496Y-3.8002
X3.9496Y-3.9002
X3.9496Y-4.0002
X3.9496Y-4.1002
X3.9496Y-4.2002
X3.9496Y-4.3002
X3.9496Y-4.4002
X3.9504Y-2.8986
X3.9504Y-2.9986
X3.9504Y-3.0986
X3.9504Y-3.1986
X3.9504Y-3.2986
X3.9504Y-3.3986
X3.9504Y-3.4986
X4.0492Y-2.5
X4.0492Y-2.5984
X4.137Y-3.8
X4.137Y-3.9
X4.2Y-4.3
X4.2Y-4.4
X4.2Y-4.6
X4.2Y-4.7
X4.4Y-3.3996
X4.4Y-3.498
X4.4024Y-3.7141
X4.4024Y-3.8141
X4.4492Y-3.0
X4.5Y-4.35
X4.5Y-4.45
X4.5476Y-3.0
X4.6Y-3.9
X4.6Y-4.0
T3
X3.6Y-2.5
X3.7Y-2.5
T4
X3.7Y-4.8
X3.8969Y-4.8
X4.5Y-2.5047
X4.5Y-2.7016
T0
M30
